%TF.GenerationSoftware,KiCad,Pcbnew,(6.0.7)*%
%TF.CreationDate,2022-08-25T13:01:18+08:00*%
%TF.ProjectId,T12_SolderingStationScreen,5431325f-536f-46c6-9465-72696e675374,rev?*%
%TF.SameCoordinates,Original*%
%TF.FileFunction,Copper,L1,Top*%
%TF.FilePolarity,Positive*%
%FSLAX45Y45*%
G04 Gerber Fmt 4.5, Leading zero omitted, Abs format (unit mm)*
G04 Created by KiCad (PCBNEW (6.0.7)) date 2022-08-25 13:01:18*
%MOMM*%
%LPD*%
G01*
G04 APERTURE LIST*
%TA.AperFunction,SMDPad,CuDef*%
%ADD10R,3.000000X0.350000*%
%TD*%
%TA.AperFunction,ComponentPad*%
%ADD11R,1.700000X1.700000*%
%TD*%
%TA.AperFunction,ComponentPad*%
%ADD12O,1.700000X1.700000*%
%TD*%
%TA.AperFunction,ComponentPad*%
%ADD13R,2.000000X2.000000*%
%TD*%
%TA.AperFunction,ComponentPad*%
%ADD14C,2.000000*%
%TD*%
%TA.AperFunction,ViaPad*%
%ADD15C,0.406400*%
%TD*%
%TA.AperFunction,Conductor*%
%ADD16C,0.609600*%
%TD*%
%TA.AperFunction,Conductor*%
%ADD17C,0.355600*%
%TD*%
%TA.AperFunction,Conductor*%
%ADD18C,0.254000*%
%TD*%
G04 APERTURE END LIST*
D10*
%TO.P,U3,1,C2P*%
%TO.N,Net-(C5-Pad1)*%
X10289800Y-11926310D03*
%TO.P,U3,2,C2N*%
%TO.N,Net-(C5-Pad2)*%
X10289800Y-11988310D03*
%TO.P,U3,3,C1P*%
%TO.N,Net-(C6-Pad1)*%
X10289800Y-12050310D03*
%TO.P,U3,4,C1N*%
%TO.N,Net-(C6-Pad2)*%
X10289800Y-12112310D03*
%TO.P,U3,5,VBAT*%
%TO.N,+3V3*%
X10289800Y-12174310D03*
%TO.P,U3,6,VBREF*%
%TO.N,unconnected-(U3-Pad6)*%
X10289800Y-12236310D03*
%TO.P,U3,7,VSS*%
%TO.N,GND*%
X10289800Y-12298310D03*
%TO.P,U3,8,VDD*%
%TO.N,+3V3*%
X10289800Y-12360310D03*
%TO.P,U3,9,RES#*%
%TO.N,/RST*%
X10289800Y-12422310D03*
%TO.P,U3,10,SCL*%
%TO.N,/DISP_SCL*%
X10289800Y-12484310D03*
%TO.P,U3,11,SDA*%
%TO.N,/DISP_SDA*%
X10289800Y-12546310D03*
%TO.P,U3,12,IREF*%
%TO.N,Net-(R4-Pad1)*%
X10289800Y-12608310D03*
%TO.P,U3,13,VCOMH*%
%TO.N,Net-(C11-Pad1)*%
X10289800Y-12670310D03*
%TO.P,U3,14,VCC*%
%TO.N,Net-(C12-Pad1)*%
X10289800Y-12732310D03*
%TD*%
D11*
%TO.P,J2,1,Pin_1*%
%TO.N,+24V*%
X11201360Y-11686460D03*
D12*
%TO.P,J2,2,Pin_2*%
X11455360Y-11686460D03*
%TO.P,J2,3,Pin_3*%
%TO.N,GND*%
X11709360Y-11686460D03*
%TO.P,J2,4,Pin_4*%
X11963360Y-11686460D03*
%TO.P,J2,5,Pin_5*%
%TO.N,unconnected-(J2-Pad5)*%
X12217360Y-11686460D03*
%TO.P,J2,6,Pin_6*%
%TO.N,unconnected-(J2-Pad6)*%
X12471360Y-11686460D03*
%TD*%
D13*
%TO.P,BZ1,1,-*%
%TO.N,VCC*%
X12062460Y-12805680D03*
D14*
%TO.P,BZ1,2,+*%
%TO.N,Net-(BZ1-Pad2)*%
X12062460Y-12045680D03*
%TD*%
D11*
%TO.P,J1,1,Pin_1*%
%TO.N,VCC*%
X11198820Y-13197800D03*
D12*
%TO.P,J1,2,Pin_2*%
%TO.N,/SDA*%
X11452820Y-13197800D03*
%TO.P,J1,3,Pin_3*%
%TO.N,/SCL*%
X11706820Y-13197800D03*
%TO.P,J1,4,Pin_4*%
%TO.N,/RST*%
X11960820Y-13197800D03*
%TO.P,J1,5,Pin_5*%
%TO.N,GND*%
X12214820Y-13197800D03*
%TO.P,J1,6,Pin_6*%
%TO.N,/BEEP*%
X12468820Y-13197800D03*
%TD*%
D15*
%TO.N,VCC*%
X10652610Y-12819380D03*
X11392900Y-12805680D03*
X9626600Y-12456160D03*
%TO.N,GND*%
X11760200Y-12118340D03*
X10063480Y-12232640D03*
X9695180Y-11767820D03*
X8788400Y-12229677D03*
X9023350Y-13474700D03*
X9469120Y-12011660D03*
X11376660Y-11851640D03*
X10845800Y-11887200D03*
X10896600Y-12821920D03*
X12392660Y-12131040D03*
X10393680Y-11767820D03*
X8785860Y-11430000D03*
X12415520Y-12364720D03*
X8788400Y-12020973D03*
X10800080Y-12532360D03*
X12407900Y-12580620D03*
X10642600Y-11767820D03*
X12125113Y-11430000D03*
X10838180Y-12976860D03*
X11272520Y-12146280D03*
X10551160Y-13139420D03*
X10886440Y-13375640D03*
X11945196Y-13474700D03*
X10982960Y-12887960D03*
X12578080Y-12258040D03*
X11529060Y-11856720D03*
X11916409Y-11430000D03*
X11529060Y-12451080D03*
X11968480Y-12209780D03*
X9440757Y-13474700D03*
X12571307Y-13474700D03*
X10038080Y-11430000D03*
X11813540Y-13045440D03*
X12075160Y-13042900D03*
X9410700Y-12997180D03*
X12542520Y-11430000D03*
X9620673Y-11430000D03*
X10690860Y-13378180D03*
X10952480Y-12529820D03*
X9103360Y-12250420D03*
X9359900Y-12842240D03*
X11081596Y-11430000D03*
X11000740Y-12443460D03*
X12410440Y-12781280D03*
X11678920Y-11846560D03*
X11361420Y-12908280D03*
X9956800Y-11767820D03*
X11564620Y-13045440D03*
X10551160Y-13202920D03*
X9403080Y-11925300D03*
X10177780Y-11767820D03*
X10455486Y-11430000D03*
X8788400Y-12647083D03*
X12575540Y-12684760D03*
X10066867Y-13474700D03*
X10927080Y-12009120D03*
X9128760Y-12494260D03*
X9453880Y-12598400D03*
X9829377Y-11430000D03*
X8788400Y-11812270D03*
X9203267Y-11430000D03*
X9636760Y-13002260D03*
X12333816Y-11430000D03*
X8814647Y-13474700D03*
X11046460Y-13317220D03*
X9649460Y-13474700D03*
X8788400Y-13273193D03*
X9646920Y-12296140D03*
X11635740Y-12123420D03*
X11707706Y-11430000D03*
X11892280Y-12143740D03*
X9644380Y-13187680D03*
X10975340Y-12735560D03*
X10228580Y-13375640D03*
X8788400Y-12438380D03*
X8994563Y-11430000D03*
X11110383Y-13474700D03*
X9618980Y-13279120D03*
X12354560Y-13037820D03*
X10872893Y-11430000D03*
X8788400Y-12855787D03*
X12415520Y-11841480D03*
X10664190Y-11430000D03*
X12174220Y-11935460D03*
X11389360Y-12346940D03*
X12146280Y-12192000D03*
X10692977Y-13474700D03*
X9411970Y-11430000D03*
X11783060Y-12715240D03*
X11051540Y-13197840D03*
X10246783Y-11430000D03*
X11315700Y-12240260D03*
X9951720Y-13063220D03*
X11996420Y-12961620D03*
X9380220Y-13202920D03*
X11145110Y-12819380D03*
X12583160Y-12504420D03*
X10459720Y-13182600D03*
X11678920Y-12593320D03*
X10275570Y-13474700D03*
X11736493Y-13474700D03*
X12280900Y-11932920D03*
X9392920Y-11696700D03*
X11574780Y-12948920D03*
X8788400Y-11603567D03*
X9624060Y-12016740D03*
X11770360Y-11836400D03*
X10484273Y-13474700D03*
X9232053Y-13474700D03*
X11290300Y-11430000D03*
X11000740Y-12357100D03*
X12179300Y-13027660D03*
X11087100Y-12992100D03*
X12219940Y-12082780D03*
X8788400Y-13064490D03*
X12517120Y-11938000D03*
X9098280Y-12948920D03*
X11224260Y-12026900D03*
X10901680Y-13474700D03*
X11127740Y-12189460D03*
X9441180Y-12189460D03*
X9858163Y-13474700D03*
X11319086Y-13474700D03*
X9956800Y-13251180D03*
X12153900Y-13474700D03*
X11527790Y-13474700D03*
X11465560Y-12151360D03*
X12362603Y-13474700D03*
X10325100Y-13378180D03*
X10553700Y-13357860D03*
X11499003Y-11430000D03*
%TO.N,Net-(C5-Pad1)*%
X9965720Y-11932920D03*
%TO.N,Net-(C5-Pad2)*%
X9810720Y-11932920D03*
%TO.N,Net-(C6-Pad1)*%
X9965720Y-12082780D03*
%TO.N,Net-(C6-Pad2)*%
X9810720Y-12082780D03*
%TO.N,+3V3*%
X9963220Y-12386340D03*
%TO.N,Net-(C11-Pad1)*%
X9965720Y-12628880D03*
%TO.N,Net-(C12-Pad1)*%
X9965720Y-12776200D03*
%TO.N,/DISP_SCL*%
X10505440Y-12433300D03*
X10766970Y-12426830D03*
%TO.N,/DISP_SDA*%
X10492740Y-12519660D03*
X10767062Y-12482660D03*
%TO.N,Net-(R4-Pad1)*%
X9994220Y-12506960D03*
%TO.N,/RST*%
X10505440Y-12377420D03*
%TD*%
D16*
%TO.N,VCC*%
X10604350Y-12867640D02*
X10652610Y-12819380D01*
X11392900Y-12805680D02*
X11316700Y-12805680D01*
X12062460Y-12805680D02*
X11392900Y-12805680D01*
X9626600Y-12456160D02*
X9626600Y-12745720D01*
X11316700Y-12805680D02*
X11198820Y-12923560D01*
X9626600Y-12745720D02*
X9748520Y-12867640D01*
X9748520Y-12867640D02*
X10604350Y-12867640D01*
X11198820Y-12923560D02*
X11198820Y-13197800D01*
D17*
%TO.N,GND*%
X10129150Y-12298310D02*
X10063480Y-12232640D01*
X10289800Y-12298310D02*
X10129150Y-12298310D01*
D18*
X10952480Y-12529820D02*
X11145110Y-12722450D01*
X11145110Y-12722450D02*
X11145110Y-12819380D01*
%TO.N,Net-(C5-Pad1)*%
X9972330Y-11926310D02*
X9965720Y-11932920D01*
X10289800Y-11926310D02*
X9972330Y-11926310D01*
%TO.N,Net-(C5-Pad2)*%
X9866110Y-11988310D02*
X9810720Y-11932920D01*
X10289800Y-11988310D02*
X9866110Y-11988310D01*
%TO.N,Net-(C6-Pad1)*%
X9998190Y-12050310D02*
X9965720Y-12082780D01*
X10289800Y-12050310D02*
X9998190Y-12050310D01*
%TO.N,Net-(C6-Pad2)*%
X10289800Y-12112310D02*
X10033950Y-12112310D01*
X9921240Y-12136120D02*
X9867900Y-12082780D01*
X10010140Y-12136120D02*
X9921240Y-12136120D01*
X10033950Y-12112310D02*
X10010140Y-12136120D01*
X9867900Y-12082780D02*
X9810720Y-12082780D01*
%TO.N,+3V3*%
X9961880Y-12242800D02*
X9961880Y-12385000D01*
X9961880Y-12385000D02*
X9963220Y-12386340D01*
X10289800Y-12174310D02*
X10030370Y-12174310D01*
X9989250Y-12360310D02*
X9963220Y-12386340D01*
X10289800Y-12360310D02*
X9989250Y-12360310D01*
X10030370Y-12174310D02*
X9961880Y-12242800D01*
%TO.N,Net-(C11-Pad1)*%
X10289800Y-12670310D02*
X10007150Y-12670310D01*
X10007150Y-12670310D02*
X9965720Y-12628880D01*
%TO.N,Net-(C12-Pad1)*%
X10009610Y-12732310D02*
X9965720Y-12776200D01*
X10289800Y-12732310D02*
X10009610Y-12732310D01*
%TO.N,/DISP_SCL*%
X10760500Y-12433300D02*
X10766970Y-12426830D01*
X10289800Y-12484310D02*
X10454430Y-12484310D01*
X10454430Y-12484310D02*
X10505440Y-12433300D01*
X10505440Y-12433300D02*
X10760500Y-12433300D01*
%TO.N,/DISP_SDA*%
X10492740Y-12519660D02*
X10529740Y-12482660D01*
X10466090Y-12546310D02*
X10492740Y-12519660D01*
X10289800Y-12546310D02*
X10466090Y-12546310D01*
X10529740Y-12482660D02*
X10767062Y-12482660D01*
%TO.N,Net-(R4-Pad1)*%
X10289800Y-12608310D02*
X10095570Y-12608310D01*
X10095570Y-12608310D02*
X9994220Y-12506960D01*
%TO.N,/RST*%
X10493141Y-12377420D02*
X10505440Y-12377420D01*
X10448251Y-12422310D02*
X10493141Y-12377420D01*
X10289800Y-12422310D02*
X10448251Y-12422310D01*
%TD*%
%TA.AperFunction,Conductor*%
%TO.N,GND*%
G36*
X12636762Y-11323450D02*
G01*
X12641411Y-11328816D01*
X12642550Y-11334050D01*
X12642550Y-13557950D01*
X12640550Y-13564762D01*
X12635184Y-13569411D01*
X12629950Y-13570550D01*
X8706050Y-13570550D01*
X8699238Y-13568550D01*
X8694589Y-13563184D01*
X8693450Y-13557950D01*
X8693450Y-13110293D01*
X11088370Y-13110293D01*
X11088370Y-13285307D01*
X11089847Y-13292730D01*
X11090536Y-13293762D01*
X11090536Y-13293762D01*
X11094572Y-13299801D01*
X11095472Y-13301148D01*
X11103890Y-13306773D01*
X11111313Y-13308250D01*
X11198806Y-13308250D01*
X11286327Y-13308250D01*
X11289902Y-13307539D01*
X11292533Y-13307016D01*
X11292533Y-13307015D01*
X11293750Y-13306773D01*
X11294782Y-13306084D01*
X11294782Y-13306084D01*
X11301137Y-13301838D01*
X11302168Y-13301148D01*
X11307793Y-13292730D01*
X11309270Y-13285307D01*
X11309270Y-13194896D01*
X11341935Y-13194896D01*
X11343262Y-13215152D01*
X11343404Y-13215712D01*
X11343405Y-13215712D01*
X11348113Y-13234250D01*
X11348259Y-13234827D01*
X11348501Y-13235351D01*
X11352211Y-13243399D01*
X11356758Y-13253262D01*
X11368473Y-13269839D01*
X11383014Y-13284003D01*
X11399892Y-13295281D01*
X11400422Y-13295509D01*
X11400423Y-13295509D01*
X11413548Y-13301148D01*
X11418543Y-13303294D01*
X11425034Y-13304763D01*
X11437778Y-13307647D01*
X11437778Y-13307647D01*
X11438342Y-13307774D01*
X11438919Y-13307797D01*
X11438919Y-13307797D01*
X11444896Y-13308032D01*
X11458625Y-13308571D01*
X11469355Y-13307015D01*
X11478143Y-13305741D01*
X11478144Y-13305741D01*
X11478714Y-13305658D01*
X11479261Y-13305473D01*
X11479261Y-13305473D01*
X11497389Y-13299319D01*
X11497390Y-13299319D01*
X11497936Y-13299133D01*
X11498522Y-13298806D01*
X11505467Y-13294916D01*
X11515648Y-13289215D01*
X11519617Y-13285913D01*
X11530811Y-13276603D01*
X11531254Y-13276234D01*
X11544235Y-13260628D01*
X11554153Y-13242916D01*
X11554339Y-13242370D01*
X11554339Y-13242369D01*
X11560493Y-13224241D01*
X11560493Y-13224241D01*
X11560678Y-13223694D01*
X11560761Y-13223124D01*
X11560761Y-13223123D01*
X11563538Y-13203973D01*
X11563591Y-13203605D01*
X11563743Y-13197800D01*
X11563476Y-13194896D01*
X11595935Y-13194896D01*
X11597262Y-13215152D01*
X11597404Y-13215712D01*
X11597405Y-13215712D01*
X11602113Y-13234250D01*
X11602259Y-13234827D01*
X11602501Y-13235351D01*
X11606211Y-13243399D01*
X11610758Y-13253262D01*
X11622473Y-13269839D01*
X11637014Y-13284003D01*
X11653892Y-13295281D01*
X11654422Y-13295509D01*
X11654423Y-13295509D01*
X11667548Y-13301148D01*
X11672543Y-13303294D01*
X11679034Y-13304763D01*
X11691778Y-13307647D01*
X11691778Y-13307647D01*
X11692342Y-13307774D01*
X11692919Y-13307797D01*
X11692919Y-13307797D01*
X11698896Y-13308032D01*
X11712625Y-13308571D01*
X11723355Y-13307015D01*
X11732143Y-13305741D01*
X11732144Y-13305741D01*
X11732714Y-13305658D01*
X11733261Y-13305473D01*
X11733261Y-13305473D01*
X11751389Y-13299319D01*
X11751390Y-13299319D01*
X11751936Y-13299133D01*
X11752522Y-13298806D01*
X11759467Y-13294916D01*
X11769648Y-13289215D01*
X11773617Y-13285913D01*
X11784811Y-13276603D01*
X11785254Y-13276234D01*
X11798235Y-13260628D01*
X11808153Y-13242916D01*
X11808339Y-13242370D01*
X11808339Y-13242369D01*
X11814493Y-13224241D01*
X11814493Y-13224241D01*
X11814678Y-13223694D01*
X11814761Y-13223124D01*
X11814761Y-13223123D01*
X11817538Y-13203973D01*
X11817591Y-13203605D01*
X11817743Y-13197800D01*
X11817476Y-13194896D01*
X11849935Y-13194896D01*
X11851262Y-13215152D01*
X11851404Y-13215712D01*
X11851405Y-13215712D01*
X11856113Y-13234250D01*
X11856259Y-13234827D01*
X11856501Y-13235351D01*
X11860211Y-13243399D01*
X11864758Y-13253262D01*
X11876473Y-13269839D01*
X11891014Y-13284003D01*
X11907892Y-13295281D01*
X11908422Y-13295509D01*
X11908423Y-13295509D01*
X11921548Y-13301148D01*
X11926543Y-13303294D01*
X11933034Y-13304763D01*
X11945778Y-13307647D01*
X11945778Y-13307647D01*
X11946342Y-13307774D01*
X11946919Y-13307797D01*
X11946919Y-13307797D01*
X11952896Y-13308032D01*
X11966625Y-13308571D01*
X11977355Y-13307015D01*
X11986143Y-13305741D01*
X11986144Y-13305741D01*
X11986714Y-13305658D01*
X11987261Y-13305473D01*
X11987261Y-13305473D01*
X12005389Y-13299319D01*
X12005390Y-13299319D01*
X12005936Y-13299133D01*
X12006522Y-13298806D01*
X12013467Y-13294916D01*
X12023648Y-13289215D01*
X12027617Y-13285913D01*
X12038811Y-13276603D01*
X12039254Y-13276234D01*
X12052235Y-13260628D01*
X12062153Y-13242916D01*
X12062339Y-13242370D01*
X12062339Y-13242369D01*
X12068406Y-13224496D01*
X12107687Y-13224496D01*
X12110164Y-13234250D01*
X12110548Y-13235335D01*
X12118559Y-13252712D01*
X12119134Y-13253708D01*
X12130178Y-13269334D01*
X12130926Y-13270210D01*
X12144631Y-13283561D01*
X12145526Y-13284285D01*
X12161436Y-13294916D01*
X12162447Y-13295465D01*
X12180028Y-13303018D01*
X12181122Y-13303374D01*
X12187653Y-13304852D01*
X12189060Y-13304763D01*
X12189403Y-13303868D01*
X12240220Y-13303868D01*
X12240617Y-13305219D01*
X12241487Y-13305343D01*
X12259370Y-13299273D01*
X12260419Y-13298806D01*
X12277116Y-13289455D01*
X12278063Y-13288804D01*
X12292775Y-13276568D01*
X12293588Y-13275755D01*
X12305824Y-13261043D01*
X12306475Y-13260096D01*
X12315826Y-13243399D01*
X12316293Y-13242350D01*
X12322364Y-13224464D01*
X12322241Y-13223599D01*
X12320884Y-13223200D01*
X12242031Y-13223200D01*
X12240508Y-13223647D01*
X12240387Y-13223786D01*
X12240220Y-13224555D01*
X12240220Y-13303868D01*
X12189403Y-13303868D01*
X12189420Y-13303823D01*
X12189420Y-13225011D01*
X12188972Y-13223488D01*
X12188833Y-13223367D01*
X12188065Y-13223200D01*
X12109169Y-13223200D01*
X12107816Y-13223597D01*
X12107687Y-13224496D01*
X12068406Y-13224496D01*
X12068493Y-13224241D01*
X12068493Y-13224241D01*
X12068678Y-13223694D01*
X12068761Y-13223124D01*
X12068761Y-13223123D01*
X12071538Y-13203973D01*
X12071591Y-13203605D01*
X12071743Y-13197800D01*
X12071476Y-13194896D01*
X12357935Y-13194896D01*
X12359262Y-13215152D01*
X12359404Y-13215712D01*
X12359405Y-13215712D01*
X12364113Y-13234250D01*
X12364259Y-13234827D01*
X12364501Y-13235351D01*
X12368211Y-13243399D01*
X12372758Y-13253262D01*
X12384473Y-13269839D01*
X12399014Y-13284003D01*
X12415892Y-13295281D01*
X12416422Y-13295509D01*
X12416423Y-13295509D01*
X12429548Y-13301148D01*
X12434543Y-13303294D01*
X12441034Y-13304763D01*
X12453778Y-13307647D01*
X12453778Y-13307647D01*
X12454342Y-13307774D01*
X12454919Y-13307797D01*
X12454919Y-13307797D01*
X12460896Y-13308032D01*
X12474625Y-13308571D01*
X12485355Y-13307015D01*
X12494143Y-13305741D01*
X12494144Y-13305741D01*
X12494714Y-13305658D01*
X12495261Y-13305473D01*
X12495261Y-13305473D01*
X12513389Y-13299319D01*
X12513390Y-13299319D01*
X12513936Y-13299133D01*
X12514522Y-13298806D01*
X12521467Y-13294916D01*
X12531648Y-13289215D01*
X12535617Y-13285913D01*
X12546811Y-13276603D01*
X12547254Y-13276234D01*
X12560235Y-13260628D01*
X12570153Y-13242916D01*
X12570339Y-13242370D01*
X12570339Y-13242369D01*
X12576493Y-13224241D01*
X12576493Y-13224241D01*
X12576678Y-13223694D01*
X12576761Y-13223124D01*
X12576761Y-13223123D01*
X12579538Y-13203973D01*
X12579591Y-13203605D01*
X12579743Y-13197800D01*
X12577886Y-13177586D01*
X12577729Y-13177030D01*
X12572532Y-13158605D01*
X12572532Y-13158604D01*
X12572376Y-13158049D01*
X12571318Y-13155903D01*
X12563653Y-13140361D01*
X12563398Y-13139843D01*
X12551252Y-13123578D01*
X12536346Y-13109799D01*
X12535857Y-13109491D01*
X12535857Y-13109490D01*
X12521293Y-13100301D01*
X12519178Y-13098967D01*
X12500324Y-13091445D01*
X12499758Y-13091332D01*
X12499757Y-13091332D01*
X12480981Y-13087597D01*
X12480981Y-13087597D01*
X12480415Y-13087484D01*
X12479837Y-13087477D01*
X12479837Y-13087477D01*
X12469699Y-13087344D01*
X12460117Y-13087219D01*
X12459547Y-13087317D01*
X12459547Y-13087317D01*
X12450760Y-13088827D01*
X12440111Y-13090656D01*
X12421066Y-13097682D01*
X12403621Y-13108061D01*
X12403187Y-13108442D01*
X12403187Y-13108442D01*
X12388793Y-13121065D01*
X12388359Y-13121445D01*
X12375792Y-13137387D01*
X12375523Y-13137898D01*
X12375523Y-13137898D01*
X12374227Y-13140361D01*
X12366340Y-13155351D01*
X12360321Y-13174738D01*
X12357935Y-13194896D01*
X12071476Y-13194896D01*
X12069886Y-13177586D01*
X12069729Y-13177030D01*
X12068333Y-13172080D01*
X12107614Y-13172080D01*
X12108287Y-13172400D01*
X12187608Y-13172400D01*
X12189132Y-13171952D01*
X12189253Y-13171813D01*
X12189420Y-13171045D01*
X12189420Y-13170588D01*
X12240220Y-13170588D01*
X12240667Y-13172112D01*
X12240806Y-13172233D01*
X12241575Y-13172400D01*
X12320560Y-13172400D01*
X12321913Y-13172003D01*
X12322030Y-13171189D01*
X12318486Y-13158623D01*
X12318073Y-13157548D01*
X12309610Y-13140387D01*
X12309009Y-13139406D01*
X12297560Y-13124074D01*
X12296791Y-13123220D01*
X12282739Y-13110230D01*
X12281827Y-13109530D01*
X12265644Y-13099319D01*
X12264619Y-13098797D01*
X12246846Y-13091707D01*
X12245743Y-13091380D01*
X12241997Y-13090635D01*
X12240709Y-13090750D01*
X12240220Y-13092266D01*
X12240220Y-13170588D01*
X12189420Y-13170588D01*
X12189420Y-13091950D01*
X12189039Y-13090654D01*
X12187548Y-13090460D01*
X12186693Y-13090607D01*
X12185582Y-13090905D01*
X12167629Y-13097528D01*
X12166592Y-13098023D01*
X12150147Y-13107806D01*
X12149216Y-13108483D01*
X12134830Y-13121099D01*
X12134038Y-13121934D01*
X12122192Y-13136960D01*
X12121565Y-13137926D01*
X12112656Y-13154859D01*
X12112215Y-13155923D01*
X12107636Y-13170670D01*
X12107614Y-13172080D01*
X12068333Y-13172080D01*
X12064532Y-13158605D01*
X12064532Y-13158604D01*
X12064376Y-13158049D01*
X12063318Y-13155903D01*
X12055653Y-13140361D01*
X12055398Y-13139843D01*
X12043252Y-13123578D01*
X12028346Y-13109799D01*
X12027857Y-13109491D01*
X12027857Y-13109490D01*
X12013293Y-13100301D01*
X12011178Y-13098967D01*
X11992324Y-13091445D01*
X11991758Y-13091332D01*
X11991757Y-13091332D01*
X11972981Y-13087597D01*
X11972981Y-13087597D01*
X11972415Y-13087484D01*
X11971837Y-13087477D01*
X11971837Y-13087477D01*
X11961699Y-13087344D01*
X11952117Y-13087219D01*
X11951547Y-13087317D01*
X11951547Y-13087317D01*
X11942760Y-13088827D01*
X11932111Y-13090656D01*
X11913066Y-13097682D01*
X11895621Y-13108061D01*
X11895187Y-13108442D01*
X11895187Y-13108442D01*
X11880793Y-13121065D01*
X11880359Y-13121445D01*
X11867792Y-13137387D01*
X11867523Y-13137898D01*
X11867523Y-13137898D01*
X11866227Y-13140361D01*
X11858340Y-13155351D01*
X11852321Y-13174738D01*
X11849935Y-13194896D01*
X11817476Y-13194896D01*
X11815886Y-13177586D01*
X11815729Y-13177030D01*
X11810532Y-13158605D01*
X11810532Y-13158604D01*
X11810376Y-13158049D01*
X11809318Y-13155903D01*
X11801653Y-13140361D01*
X11801398Y-13139843D01*
X11789252Y-13123578D01*
X11774346Y-13109799D01*
X11773857Y-13109491D01*
X11773857Y-13109490D01*
X11759293Y-13100301D01*
X11757178Y-13098967D01*
X11738324Y-13091445D01*
X11737758Y-13091332D01*
X11737757Y-13091332D01*
X11718981Y-13087597D01*
X11718981Y-13087597D01*
X11718415Y-13087484D01*
X11717837Y-13087477D01*
X11717837Y-13087477D01*
X11707699Y-13087344D01*
X11698117Y-13087219D01*
X11697547Y-13087317D01*
X11697547Y-13087317D01*
X11688760Y-13088827D01*
X11678111Y-13090656D01*
X11659066Y-13097682D01*
X11641621Y-13108061D01*
X11641187Y-13108442D01*
X11641187Y-13108442D01*
X11626793Y-13121065D01*
X11626359Y-13121445D01*
X11613792Y-13137387D01*
X11613523Y-13137898D01*
X11613523Y-13137898D01*
X11612227Y-13140361D01*
X11604340Y-13155351D01*
X11598321Y-13174738D01*
X11595935Y-13194896D01*
X11563476Y-13194896D01*
X11561886Y-13177586D01*
X11561729Y-13177030D01*
X11556532Y-13158605D01*
X11556532Y-13158604D01*
X11556376Y-13158049D01*
X11555318Y-13155903D01*
X11547653Y-13140361D01*
X11547398Y-13139843D01*
X11535252Y-13123578D01*
X11520346Y-13109799D01*
X11519857Y-13109491D01*
X11519857Y-13109490D01*
X11505293Y-13100301D01*
X11503178Y-13098967D01*
X11484324Y-13091445D01*
X11483758Y-13091332D01*
X11483757Y-13091332D01*
X11464981Y-13087597D01*
X11464981Y-13087597D01*
X11464415Y-13087484D01*
X11463837Y-13087477D01*
X11463837Y-13087477D01*
X11453699Y-13087344D01*
X11444117Y-13087219D01*
X11443547Y-13087317D01*
X11443547Y-13087317D01*
X11434760Y-13088827D01*
X11424111Y-13090656D01*
X11405066Y-13097682D01*
X11387621Y-13108061D01*
X11387187Y-13108442D01*
X11387187Y-13108442D01*
X11372793Y-13121065D01*
X11372359Y-13121445D01*
X11359792Y-13137387D01*
X11359523Y-13137898D01*
X11359523Y-13137898D01*
X11358227Y-13140361D01*
X11350340Y-13155351D01*
X11344321Y-13174738D01*
X11341935Y-13194896D01*
X11309270Y-13194896D01*
X11309270Y-13110293D01*
X11307793Y-13102870D01*
X11305185Y-13098967D01*
X11302858Y-13095483D01*
X11302168Y-13094452D01*
X11293750Y-13088827D01*
X11286327Y-13087350D01*
X11267350Y-13087350D01*
X11260538Y-13085350D01*
X11255889Y-13079984D01*
X11254750Y-13074750D01*
X11254750Y-12951946D01*
X11256750Y-12945134D01*
X11258440Y-12943036D01*
X11336176Y-12865300D01*
X11342408Y-12861898D01*
X11345086Y-12861610D01*
X11924410Y-12861610D01*
X11931222Y-12863610D01*
X11935871Y-12868976D01*
X11937010Y-12874210D01*
X11937010Y-12908187D01*
X11937559Y-12910948D01*
X11938216Y-12914250D01*
X11938487Y-12915610D01*
X11939176Y-12916642D01*
X11939176Y-12916642D01*
X11942856Y-12922150D01*
X11944112Y-12924028D01*
X11952530Y-12929653D01*
X11959953Y-12931130D01*
X12062443Y-12931130D01*
X12164967Y-12931130D01*
X12168542Y-12930419D01*
X12171173Y-12929896D01*
X12171173Y-12929895D01*
X12172390Y-12929653D01*
X12173422Y-12928964D01*
X12173422Y-12928964D01*
X12179777Y-12924718D01*
X12180808Y-12924028D01*
X12186433Y-12915610D01*
X12187910Y-12908187D01*
X12187910Y-12703173D01*
X12187058Y-12698893D01*
X12186676Y-12696967D01*
X12186675Y-12696967D01*
X12186433Y-12695750D01*
X12180808Y-12687332D01*
X12172390Y-12681707D01*
X12164967Y-12680230D01*
X12062477Y-12680230D01*
X11959953Y-12680230D01*
X11956378Y-12680941D01*
X11953747Y-12681464D01*
X11953747Y-12681464D01*
X11952530Y-12681707D01*
X11951498Y-12682396D01*
X11951498Y-12682396D01*
X11945458Y-12686432D01*
X11944112Y-12687332D01*
X11938487Y-12695750D01*
X11937010Y-12703173D01*
X11937010Y-12737150D01*
X11935010Y-12743962D01*
X11929644Y-12748611D01*
X11924410Y-12749750D01*
X11318216Y-12749750D01*
X11317688Y-12749739D01*
X11317273Y-12749721D01*
X11311387Y-12749475D01*
X11310551Y-12749671D01*
X11310550Y-12749671D01*
X11307074Y-12750486D01*
X11305907Y-12750703D01*
X11304926Y-12750837D01*
X11301518Y-12751304D01*
X11300730Y-12751645D01*
X11300730Y-12751645D01*
X11300099Y-12751918D01*
X11297972Y-12752621D01*
X11296468Y-12752974D01*
X11292586Y-12755108D01*
X11291521Y-12755630D01*
X11288243Y-12757048D01*
X11288243Y-12757049D01*
X11287454Y-12757390D01*
X11286253Y-12758363D01*
X11284394Y-12759612D01*
X11283040Y-12760356D01*
X11282215Y-12761068D01*
X11279715Y-12763568D01*
X11278735Y-12764450D01*
X11275545Y-12767033D01*
X11275048Y-12767733D01*
X11275048Y-12767734D01*
X11274428Y-12768605D01*
X11273067Y-12770216D01*
X11160346Y-12882937D01*
X11159965Y-12883302D01*
X11155320Y-12887574D01*
X11152986Y-12891338D01*
X11152314Y-12892317D01*
X11149635Y-12895846D01*
X11149066Y-12897283D01*
X11148060Y-12899284D01*
X11147245Y-12900597D01*
X11147006Y-12901422D01*
X11147005Y-12901423D01*
X11146009Y-12904851D01*
X11145625Y-12905974D01*
X11144310Y-12909294D01*
X11143994Y-12910093D01*
X11143904Y-12910948D01*
X11143832Y-12911630D01*
X11143401Y-12913829D01*
X11142970Y-12915313D01*
X11142890Y-12916399D01*
X11142890Y-12919935D01*
X11142821Y-12921252D01*
X11142392Y-12925333D01*
X11142535Y-12926180D01*
X11142535Y-12926181D01*
X11142714Y-12927234D01*
X11142890Y-12929335D01*
X11142890Y-13074750D01*
X11140890Y-13081562D01*
X11135524Y-13086211D01*
X11130290Y-13087350D01*
X11111313Y-13087350D01*
X11107738Y-13088061D01*
X11105107Y-13088584D01*
X11105107Y-13088584D01*
X11103890Y-13088827D01*
X11102858Y-13089516D01*
X11102858Y-13089516D01*
X11098743Y-13092266D01*
X11095472Y-13094452D01*
X11089847Y-13102870D01*
X11088370Y-13110293D01*
X8693450Y-13110293D01*
X8693450Y-12751033D01*
X9570395Y-12751033D01*
X9570850Y-12752974D01*
X9571406Y-12755346D01*
X9571623Y-12756513D01*
X9572224Y-12760902D01*
X9572565Y-12761690D01*
X9572838Y-12762321D01*
X9573541Y-12764447D01*
X9573894Y-12765952D01*
X9574308Y-12766704D01*
X9574308Y-12766705D01*
X9576028Y-12769835D01*
X9576551Y-12770900D01*
X9578310Y-12774966D01*
X9579283Y-12776167D01*
X9580532Y-12778026D01*
X9581276Y-12779380D01*
X9581988Y-12780205D01*
X9584488Y-12782705D01*
X9585371Y-12783685D01*
X9587953Y-12786874D01*
X9588653Y-12787372D01*
X9588654Y-12787372D01*
X9589526Y-12787992D01*
X9591136Y-12789353D01*
X9707897Y-12906114D01*
X9708263Y-12906495D01*
X9712534Y-12911140D01*
X9713264Y-12911592D01*
X9713264Y-12911593D01*
X9716298Y-12913474D01*
X9717277Y-12914146D01*
X9720806Y-12916825D01*
X9721604Y-12917141D01*
X9721605Y-12917141D01*
X9722243Y-12917394D01*
X9724245Y-12918401D01*
X9725557Y-12919215D01*
X9729451Y-12920346D01*
X9729811Y-12920451D01*
X9730934Y-12920835D01*
X9733917Y-12922016D01*
X9735053Y-12922466D01*
X9735908Y-12922556D01*
X9735908Y-12922556D01*
X9736591Y-12922628D01*
X9738788Y-12923059D01*
X9739639Y-12923306D01*
X9739640Y-12923306D01*
X9740273Y-12923490D01*
X9740975Y-12923542D01*
X9741129Y-12923553D01*
X9741130Y-12923553D01*
X9741360Y-12923570D01*
X9744895Y-12923570D01*
X9746212Y-12923639D01*
X9749439Y-12923978D01*
X9749439Y-12923978D01*
X9750293Y-12924068D01*
X9751141Y-12923925D01*
X9751141Y-12923925D01*
X9752194Y-12923746D01*
X9754295Y-12923570D01*
X10602834Y-12923570D01*
X10603362Y-12923581D01*
X10609663Y-12923845D01*
X10613977Y-12922833D01*
X10615143Y-12922617D01*
X10616247Y-12922466D01*
X10619532Y-12922016D01*
X10620421Y-12921632D01*
X10620951Y-12921402D01*
X10623077Y-12920699D01*
X10624582Y-12920346D01*
X10625334Y-12919932D01*
X10625335Y-12919932D01*
X10628465Y-12918212D01*
X10629530Y-12917689D01*
X10631951Y-12916642D01*
X10632807Y-12916272D01*
X10632807Y-12916272D01*
X10633596Y-12915930D01*
X10634797Y-12914957D01*
X10636656Y-12913708D01*
X10637082Y-12913474D01*
X10638010Y-12912964D01*
X10638835Y-12912252D01*
X10641335Y-12909752D01*
X10642315Y-12908869D01*
X10642799Y-12908477D01*
X10645505Y-12906287D01*
X10646622Y-12904715D01*
X10647983Y-12903104D01*
X10694569Y-12856518D01*
X10694873Y-12856214D01*
X10701795Y-12847094D01*
X10707436Y-12832847D01*
X10709038Y-12817607D01*
X10707962Y-12811248D01*
X10706626Y-12803344D01*
X10706626Y-12803344D01*
X10706482Y-12802497D01*
X10705814Y-12801076D01*
X10701104Y-12791067D01*
X10699958Y-12788632D01*
X10689945Y-12777032D01*
X10689230Y-12776557D01*
X10689230Y-12776557D01*
X10677897Y-12769027D01*
X10677896Y-12769027D01*
X10677181Y-12768552D01*
X10662607Y-12763816D01*
X10661749Y-12763780D01*
X10661749Y-12763780D01*
X10655850Y-12763533D01*
X10647297Y-12763175D01*
X10632378Y-12766674D01*
X10618950Y-12774056D01*
X10618450Y-12774487D01*
X10618450Y-12774488D01*
X10618300Y-12774617D01*
X10618125Y-12774768D01*
X10617962Y-12774931D01*
X10584874Y-12808019D01*
X10578642Y-12811422D01*
X10575964Y-12811710D01*
X10019484Y-12811710D01*
X10012672Y-12809710D01*
X10008023Y-12804344D01*
X10007013Y-12797317D01*
X10008145Y-12793616D01*
X10009380Y-12791067D01*
X10009380Y-12791066D01*
X10009772Y-12790259D01*
X10009945Y-12789231D01*
X10010001Y-12789122D01*
X10010194Y-12788518D01*
X10010295Y-12788551D01*
X10013461Y-12782412D01*
X10021722Y-12774150D01*
X10027953Y-12770748D01*
X10030631Y-12770460D01*
X10121074Y-12770460D01*
X10128074Y-12772583D01*
X10129870Y-12773783D01*
X10137293Y-12775260D01*
X10289775Y-12775260D01*
X10442307Y-12775260D01*
X10445882Y-12774549D01*
X10448513Y-12774026D01*
X10448513Y-12774025D01*
X10449730Y-12773783D01*
X10450762Y-12773094D01*
X10450762Y-12773094D01*
X10457117Y-12768848D01*
X10458149Y-12768158D01*
X10463774Y-12759740D01*
X10465250Y-12752317D01*
X10465250Y-12712303D01*
X10463774Y-12704880D01*
X10463893Y-12704856D01*
X10463271Y-12699073D01*
X10463575Y-12698037D01*
X10463774Y-12697740D01*
X10465250Y-12690317D01*
X10465250Y-12650303D01*
X10463774Y-12642880D01*
X10463893Y-12642856D01*
X10463271Y-12637073D01*
X10463575Y-12636037D01*
X10463774Y-12635740D01*
X10465250Y-12628317D01*
X10465250Y-12596025D01*
X10467250Y-12589213D01*
X10472616Y-12584564D01*
X10474866Y-12583933D01*
X10474846Y-12583865D01*
X10475847Y-12583574D01*
X10476881Y-12583452D01*
X10477711Y-12583053D01*
X10478618Y-12582902D01*
X10483155Y-12580454D01*
X10483681Y-12580186D01*
X10487615Y-12578297D01*
X10487615Y-12578297D01*
X10488330Y-12577954D01*
X10488759Y-12577593D01*
X10488952Y-12577400D01*
X10489147Y-12577221D01*
X10489153Y-12577218D01*
X10489165Y-12577231D01*
X10489221Y-12577181D01*
X10489796Y-12576871D01*
X10493477Y-12572889D01*
X10493820Y-12572533D01*
X10499321Y-12567031D01*
X10504916Y-12563785D01*
X10510238Y-12562334D01*
X10511104Y-12562098D01*
X10511870Y-12561628D01*
X10521512Y-12555707D01*
X10521512Y-12555707D01*
X10522277Y-12555238D01*
X10523234Y-12554180D01*
X10530473Y-12546183D01*
X10531075Y-12545517D01*
X10532814Y-12541929D01*
X10536400Y-12534526D01*
X10536400Y-12534526D01*
X10536792Y-12533719D01*
X10536965Y-12532691D01*
X10537021Y-12532582D01*
X10537214Y-12531978D01*
X10537315Y-12532011D01*
X10540481Y-12525872D01*
X10541852Y-12524501D01*
X10548083Y-12521098D01*
X10550761Y-12520810D01*
X10737957Y-12520810D01*
X10744939Y-12522921D01*
X10747155Y-12524396D01*
X10753258Y-12526303D01*
X10758812Y-12528038D01*
X10758812Y-12528038D01*
X10759669Y-12528306D01*
X10766112Y-12528424D01*
X10771880Y-12528530D01*
X10771880Y-12528530D01*
X10772777Y-12528546D01*
X10778735Y-12526922D01*
X10784560Y-12525334D01*
X10784560Y-12525334D01*
X10785426Y-12525098D01*
X10786569Y-12524396D01*
X10795834Y-12518708D01*
X10795834Y-12518707D01*
X10796599Y-12518238D01*
X10805397Y-12508518D01*
X10805994Y-12507286D01*
X10810722Y-12497527D01*
X10810722Y-12497526D01*
X10811114Y-12496719D01*
X10813289Y-12483790D01*
X10813303Y-12482660D01*
X10811890Y-12472795D01*
X10811571Y-12470571D01*
X10811571Y-12470570D01*
X10811444Y-12469682D01*
X10811073Y-12468865D01*
X10806934Y-12459764D01*
X10805936Y-12452734D01*
X10807065Y-12449055D01*
X10810630Y-12441697D01*
X10810630Y-12441696D01*
X10811021Y-12440889D01*
X10813197Y-12427960D01*
X10813210Y-12426830D01*
X10812174Y-12419592D01*
X10811479Y-12414740D01*
X10811479Y-12414740D01*
X10811352Y-12413852D01*
X10810902Y-12412863D01*
X10806297Y-12402734D01*
X10806297Y-12402734D01*
X10805925Y-12401917D01*
X10797367Y-12391985D01*
X10789161Y-12386666D01*
X10787119Y-12385342D01*
X10787118Y-12385342D01*
X10786366Y-12384854D01*
X10773805Y-12381097D01*
X10772907Y-12381092D01*
X10772907Y-12381092D01*
X10767466Y-12381058D01*
X10760694Y-12381017D01*
X10748088Y-12384620D01*
X10747330Y-12385099D01*
X10747329Y-12385099D01*
X10743073Y-12387784D01*
X10737000Y-12391616D01*
X10736505Y-12392176D01*
X10730090Y-12395037D01*
X10728408Y-12395150D01*
X10563771Y-12395150D01*
X10556959Y-12393150D01*
X10552310Y-12387784D01*
X10551346Y-12380459D01*
X10551586Y-12379029D01*
X10551667Y-12378550D01*
X10551681Y-12377420D01*
X10549822Y-12364442D01*
X10549051Y-12362746D01*
X10544767Y-12353324D01*
X10544767Y-12353324D01*
X10544396Y-12352507D01*
X10535838Y-12342575D01*
X10535084Y-12342086D01*
X10525589Y-12335932D01*
X10525589Y-12335932D01*
X10524836Y-12335444D01*
X10512275Y-12331687D01*
X10511377Y-12331682D01*
X10511377Y-12331682D01*
X10505936Y-12331648D01*
X10499164Y-12331607D01*
X10486559Y-12335210D01*
X10485800Y-12335689D01*
X10483094Y-12337396D01*
X10476265Y-12339339D01*
X10469470Y-12337282D01*
X10464866Y-12331878D01*
X10464013Y-12324281D01*
X10465079Y-12318918D01*
X10465200Y-12317693D01*
X10465200Y-12317621D01*
X10464753Y-12316098D01*
X10464614Y-12315977D01*
X10463845Y-12315810D01*
X10116212Y-12315810D01*
X10114688Y-12316257D01*
X10113342Y-12317811D01*
X10107369Y-12321650D01*
X10103819Y-12322160D01*
X10012630Y-12322160D01*
X10005818Y-12320160D01*
X10001169Y-12314794D01*
X10000030Y-12309560D01*
X10000030Y-12263821D01*
X10002030Y-12257009D01*
X10003721Y-12254912D01*
X10042482Y-12216150D01*
X10048713Y-12212748D01*
X10051391Y-12212460D01*
X10101750Y-12212460D01*
X10108562Y-12214460D01*
X10113212Y-12219826D01*
X10114350Y-12225060D01*
X10114350Y-12243368D01*
X10114350Y-12256317D01*
X10115606Y-12262631D01*
X10115606Y-12262632D01*
X10115827Y-12263740D01*
X10115728Y-12263760D01*
X10116357Y-12269614D01*
X10115652Y-12272013D01*
X10114521Y-12277701D01*
X10114400Y-12278927D01*
X10114400Y-12278998D01*
X10114848Y-12280522D01*
X10114987Y-12280643D01*
X10115755Y-12280810D01*
X10463389Y-12280810D01*
X10464912Y-12280362D01*
X10465033Y-12280223D01*
X10465200Y-12279455D01*
X10465200Y-12278927D01*
X10465079Y-12277701D01*
X10463726Y-12270899D01*
X10463860Y-12270873D01*
X10463244Y-12265139D01*
X10463561Y-12264058D01*
X10463774Y-12263740D01*
X10465250Y-12256317D01*
X10465250Y-12216303D01*
X10463774Y-12208880D01*
X10463893Y-12208856D01*
X10463271Y-12203073D01*
X10463575Y-12202037D01*
X10463774Y-12201740D01*
X10465250Y-12194317D01*
X10465250Y-12154303D01*
X10463774Y-12146880D01*
X10463893Y-12146856D01*
X10463271Y-12141073D01*
X10463575Y-12140037D01*
X10463774Y-12139740D01*
X10465250Y-12132317D01*
X10465250Y-12092303D01*
X10463774Y-12084880D01*
X10463893Y-12084856D01*
X10463271Y-12079073D01*
X10463575Y-12078037D01*
X10463774Y-12077740D01*
X10465250Y-12070317D01*
X10465250Y-12045680D01*
X11936531Y-12045680D01*
X11938444Y-12067547D01*
X11944125Y-12088750D01*
X11946071Y-12092922D01*
X11953169Y-12108146D01*
X11953170Y-12108146D01*
X11953402Y-12108645D01*
X11953718Y-12109095D01*
X11953718Y-12109095D01*
X11964703Y-12124784D01*
X11965993Y-12126626D01*
X11981514Y-12142147D01*
X11981965Y-12142463D01*
X11981965Y-12142463D01*
X11999044Y-12154422D01*
X11999495Y-12154738D01*
X11999994Y-12154970D01*
X11999994Y-12154970D01*
X12009209Y-12159268D01*
X12019390Y-12164015D01*
X12040593Y-12169696D01*
X12062460Y-12171609D01*
X12084327Y-12169696D01*
X12105530Y-12164015D01*
X12115711Y-12159268D01*
X12124926Y-12154970D01*
X12124926Y-12154970D01*
X12125425Y-12154738D01*
X12125875Y-12154422D01*
X12142955Y-12142463D01*
X12142955Y-12142463D01*
X12143406Y-12142147D01*
X12158927Y-12126626D01*
X12160217Y-12124784D01*
X12171202Y-12109095D01*
X12171202Y-12109095D01*
X12171518Y-12108645D01*
X12171750Y-12108146D01*
X12171750Y-12108146D01*
X12178849Y-12092922D01*
X12180795Y-12088750D01*
X12186476Y-12067547D01*
X12188389Y-12045680D01*
X12186476Y-12023813D01*
X12180795Y-12002610D01*
X12176450Y-11993292D01*
X12171750Y-11983214D01*
X12171750Y-11983214D01*
X12171518Y-11982715D01*
X12167674Y-11977226D01*
X12159243Y-11965185D01*
X12159243Y-11965185D01*
X12158927Y-11964734D01*
X12143406Y-11949213D01*
X12142955Y-11948897D01*
X12142955Y-11948897D01*
X12125875Y-11936938D01*
X12125875Y-11936938D01*
X12125425Y-11936622D01*
X12124926Y-11936390D01*
X12124926Y-11936389D01*
X12114371Y-11931468D01*
X12105530Y-11927345D01*
X12084327Y-11921664D01*
X12062460Y-11919751D01*
X12040593Y-11921664D01*
X12019390Y-11927345D01*
X12010549Y-11931468D01*
X11999994Y-11936389D01*
X11999994Y-11936390D01*
X11999495Y-11936622D01*
X11999045Y-11936938D01*
X11999044Y-11936938D01*
X11981965Y-11948897D01*
X11981965Y-11948897D01*
X11981514Y-11949213D01*
X11965993Y-11964734D01*
X11965677Y-11965185D01*
X11965677Y-11965185D01*
X11957246Y-11977226D01*
X11953402Y-11982715D01*
X11953170Y-11983214D01*
X11953169Y-11983214D01*
X11948470Y-11993292D01*
X11944125Y-12002610D01*
X11938444Y-12023813D01*
X11936531Y-12045680D01*
X10465250Y-12045680D01*
X10465250Y-12030303D01*
X10463774Y-12022880D01*
X10463893Y-12022856D01*
X10463271Y-12017073D01*
X10463575Y-12016037D01*
X10463774Y-12015740D01*
X10465250Y-12008317D01*
X10465250Y-11968303D01*
X10463774Y-11960880D01*
X10463893Y-11960856D01*
X10463271Y-11955073D01*
X10463575Y-11954037D01*
X10463774Y-11953740D01*
X10465250Y-11946317D01*
X10465250Y-11906303D01*
X10463774Y-11898880D01*
X10462989Y-11897706D01*
X10458838Y-11891493D01*
X10458149Y-11890462D01*
X10449730Y-11884837D01*
X10442307Y-11883360D01*
X10289825Y-11883360D01*
X10137294Y-11883360D01*
X10133718Y-11884071D01*
X10131088Y-11884594D01*
X10131087Y-11884594D01*
X10129870Y-11884837D01*
X10128074Y-11886037D01*
X10121074Y-11888160D01*
X9977744Y-11888160D01*
X9975092Y-11887878D01*
X9974761Y-11887807D01*
X9973804Y-11887561D01*
X9973415Y-11887444D01*
X9973415Y-11887444D01*
X9972555Y-11887187D01*
X9971657Y-11887182D01*
X9971657Y-11887182D01*
X9966216Y-11887148D01*
X9959444Y-11887107D01*
X9946839Y-11890710D01*
X9946080Y-11891189D01*
X9946080Y-11891189D01*
X9945597Y-11891493D01*
X9935751Y-11897706D01*
X9927072Y-11907533D01*
X9921500Y-11919400D01*
X9920796Y-11923919D01*
X9919621Y-11931468D01*
X9919621Y-11931468D01*
X9919483Y-11932355D01*
X9919599Y-11933245D01*
X9919599Y-11933245D01*
X9919950Y-11935926D01*
X9918850Y-11942940D01*
X9914132Y-11948246D01*
X9907456Y-11950160D01*
X9887131Y-11950160D01*
X9880319Y-11948160D01*
X9878222Y-11946469D01*
X9858603Y-11926850D01*
X9855419Y-11921477D01*
X9855229Y-11920830D01*
X9855102Y-11919942D01*
X9849676Y-11908007D01*
X9841118Y-11898075D01*
X9830964Y-11891493D01*
X9830869Y-11891432D01*
X9830869Y-11891432D01*
X9830116Y-11890944D01*
X9817555Y-11887187D01*
X9816657Y-11887182D01*
X9816657Y-11887182D01*
X9811216Y-11887148D01*
X9804444Y-11887107D01*
X9791839Y-11890710D01*
X9791080Y-11891189D01*
X9791080Y-11891189D01*
X9790597Y-11891493D01*
X9780751Y-11897706D01*
X9772072Y-11907533D01*
X9766500Y-11919400D01*
X9765796Y-11923919D01*
X9764621Y-11931468D01*
X9764621Y-11931468D01*
X9764483Y-11932355D01*
X9764599Y-11933245D01*
X9764599Y-11933246D01*
X9765082Y-11936938D01*
X9766183Y-11945355D01*
X9771463Y-11957355D01*
X9779899Y-11967391D01*
X9790813Y-11974656D01*
X9799039Y-11977226D01*
X9804191Y-11980343D01*
X9835306Y-12011458D01*
X9836841Y-12013359D01*
X9836938Y-12013466D01*
X9837503Y-12014340D01*
X9838320Y-12014985D01*
X9838321Y-12014985D01*
X9840157Y-12016433D01*
X9840605Y-12016831D01*
X9840611Y-12016823D01*
X9841007Y-12017159D01*
X9841375Y-12017527D01*
X9841798Y-12017830D01*
X9841799Y-12017830D01*
X9842954Y-12018655D01*
X9843429Y-12019012D01*
X9846670Y-12021567D01*
X9850781Y-12027355D01*
X9851111Y-12034447D01*
X9847554Y-12040592D01*
X9841239Y-12043837D01*
X9834173Y-12043154D01*
X9832016Y-12042035D01*
X9830869Y-12041292D01*
X9830116Y-12040804D01*
X9817555Y-12037047D01*
X9816657Y-12037042D01*
X9816657Y-12037042D01*
X9811216Y-12037008D01*
X9804444Y-12036967D01*
X9791839Y-12040570D01*
X9791080Y-12041049D01*
X9791080Y-12041049D01*
X9786660Y-12043837D01*
X9780751Y-12047566D01*
X9772072Y-12057393D01*
X9766500Y-12069260D01*
X9766362Y-12070148D01*
X9764621Y-12081328D01*
X9764621Y-12081328D01*
X9764483Y-12082215D01*
X9764599Y-12083105D01*
X9764599Y-12083106D01*
X9765268Y-12088219D01*
X9766183Y-12095215D01*
X9771463Y-12107215D01*
X9779899Y-12117251D01*
X9790813Y-12124516D01*
X9796121Y-12126175D01*
X9802470Y-12128158D01*
X9802470Y-12128158D01*
X9803327Y-12128426D01*
X9809771Y-12128544D01*
X9815538Y-12128650D01*
X9815538Y-12128650D01*
X9816435Y-12128666D01*
X9820575Y-12127538D01*
X9828218Y-12125454D01*
X9828219Y-12125454D01*
X9829084Y-12125218D01*
X9833034Y-12122792D01*
X9839627Y-12120930D01*
X9846879Y-12120930D01*
X9853691Y-12122930D01*
X9855788Y-12124620D01*
X9890435Y-12159268D01*
X9891972Y-12161170D01*
X9892068Y-12161276D01*
X9892633Y-12162150D01*
X9893451Y-12162795D01*
X9893451Y-12162795D01*
X9895288Y-12164243D01*
X9895735Y-12164641D01*
X9895741Y-12164634D01*
X9896137Y-12164969D01*
X9896505Y-12165337D01*
X9896928Y-12165639D01*
X9898084Y-12166465D01*
X9898559Y-12166822D01*
X9902607Y-12170013D01*
X9903476Y-12170318D01*
X9904224Y-12170853D01*
X9909165Y-12172331D01*
X9909724Y-12172513D01*
X9914590Y-12174222D01*
X9915149Y-12174270D01*
X9915420Y-12174270D01*
X9915687Y-12174281D01*
X9915693Y-12174283D01*
X9915693Y-12174301D01*
X9915767Y-12174305D01*
X9916393Y-12174492D01*
X9921809Y-12174280D01*
X9922304Y-12174270D01*
X9946039Y-12174270D01*
X9952851Y-12176270D01*
X9957500Y-12181636D01*
X9958510Y-12188663D01*
X9955561Y-12195121D01*
X9954948Y-12195779D01*
X9938732Y-12211996D01*
X9936831Y-12213531D01*
X9936724Y-12213628D01*
X9935850Y-12214193D01*
X9935205Y-12215010D01*
X9935205Y-12215011D01*
X9933757Y-12216847D01*
X9933359Y-12217295D01*
X9933367Y-12217301D01*
X9933031Y-12217696D01*
X9932663Y-12218065D01*
X9932360Y-12218488D01*
X9932360Y-12218488D01*
X9931535Y-12219644D01*
X9931178Y-12220118D01*
X9927987Y-12224167D01*
X9927682Y-12225036D01*
X9927147Y-12225784D01*
X9926848Y-12226782D01*
X9926848Y-12226782D01*
X9925670Y-12230721D01*
X9925487Y-12231284D01*
X9923778Y-12236150D01*
X9923730Y-12236709D01*
X9923730Y-12236980D01*
X9923719Y-12237247D01*
X9923717Y-12237253D01*
X9923699Y-12237252D01*
X9923695Y-12237327D01*
X9923508Y-12237952D01*
X9923548Y-12238993D01*
X9923720Y-12243368D01*
X9923730Y-12243862D01*
X9923730Y-12359935D01*
X9922536Y-12365290D01*
X9919000Y-12372820D01*
X9918862Y-12373708D01*
X9917121Y-12384888D01*
X9917121Y-12384888D01*
X9916983Y-12385775D01*
X9918683Y-12398775D01*
X9923963Y-12410775D01*
X9932399Y-12420811D01*
X9933146Y-12421309D01*
X9933146Y-12421309D01*
X9934767Y-12422387D01*
X9943313Y-12428076D01*
X9952257Y-12430871D01*
X9954970Y-12431718D01*
X9954970Y-12431718D01*
X9955827Y-12431986D01*
X9962271Y-12432104D01*
X9968038Y-12432210D01*
X9968038Y-12432210D01*
X9968935Y-12432226D01*
X9973075Y-12431098D01*
X9980718Y-12429014D01*
X9980719Y-12429014D01*
X9981584Y-12428778D01*
X9982727Y-12428076D01*
X9991992Y-12422387D01*
X9991992Y-12422387D01*
X9992757Y-12421918D01*
X9993675Y-12420904D01*
X10000953Y-12412863D01*
X10001555Y-12412197D01*
X10002643Y-12409954D01*
X10004768Y-12405566D01*
X10009538Y-12400308D01*
X10016107Y-12398460D01*
X10101750Y-12398460D01*
X10108562Y-12400460D01*
X10113212Y-12405826D01*
X10114350Y-12411060D01*
X10114350Y-12426830D01*
X10114350Y-12442317D01*
X10115463Y-12447913D01*
X10115827Y-12449740D01*
X10115707Y-12449764D01*
X10116329Y-12455547D01*
X10116025Y-12456583D01*
X10115827Y-12456880D01*
X10114350Y-12464303D01*
X10114350Y-12504317D01*
X10115025Y-12507710D01*
X10115827Y-12511740D01*
X10115707Y-12511764D01*
X10116329Y-12517547D01*
X10116025Y-12518583D01*
X10115827Y-12518880D01*
X10114350Y-12526303D01*
X10114350Y-12542719D01*
X10112350Y-12549531D01*
X10106984Y-12554180D01*
X10099957Y-12555191D01*
X10093499Y-12552241D01*
X10092841Y-12551628D01*
X10042103Y-12500890D01*
X10038919Y-12495517D01*
X10038729Y-12494870D01*
X10038602Y-12493982D01*
X10037987Y-12492628D01*
X10033547Y-12482864D01*
X10033547Y-12482864D01*
X10033176Y-12482047D01*
X10024618Y-12472115D01*
X10022235Y-12470571D01*
X10014369Y-12465472D01*
X10014369Y-12465472D01*
X10013616Y-12464984D01*
X10001055Y-12461227D01*
X10000157Y-12461222D01*
X10000157Y-12461222D01*
X9994716Y-12461188D01*
X9987944Y-12461147D01*
X9975339Y-12464750D01*
X9974580Y-12465229D01*
X9974580Y-12465229D01*
X9968816Y-12468865D01*
X9964251Y-12471746D01*
X9955572Y-12481573D01*
X9955190Y-12482385D01*
X9955190Y-12482385D01*
X9954965Y-12482864D01*
X9950000Y-12493440D01*
X9949627Y-12495834D01*
X9948121Y-12505508D01*
X9948121Y-12505508D01*
X9947983Y-12506395D01*
X9948099Y-12507285D01*
X9948099Y-12507286D01*
X9948347Y-12509183D01*
X9949683Y-12519395D01*
X9954963Y-12531395D01*
X9963399Y-12541431D01*
X9974313Y-12548696D01*
X9982539Y-12551266D01*
X9987691Y-12554383D01*
X10000600Y-12567292D01*
X10004003Y-12573523D01*
X10003496Y-12580605D01*
X9999241Y-12586288D01*
X9992589Y-12588770D01*
X9986405Y-12587640D01*
X9985869Y-12587392D01*
X9985116Y-12586904D01*
X9972555Y-12583147D01*
X9971657Y-12583142D01*
X9971657Y-12583142D01*
X9966216Y-12583108D01*
X9959444Y-12583067D01*
X9946839Y-12586670D01*
X9946080Y-12587149D01*
X9946080Y-12587149D01*
X9942808Y-12589213D01*
X9935751Y-12593666D01*
X9927072Y-12603493D01*
X9921500Y-12615360D01*
X9921362Y-12616248D01*
X9919621Y-12627428D01*
X9919621Y-12627428D01*
X9919483Y-12628315D01*
X9919599Y-12629205D01*
X9919599Y-12629206D01*
X9920300Y-12634568D01*
X9921183Y-12641315D01*
X9926463Y-12653315D01*
X9934899Y-12663351D01*
X9945813Y-12670616D01*
X9952190Y-12672608D01*
X9954039Y-12673186D01*
X9959191Y-12676303D01*
X9976345Y-12693458D01*
X9978021Y-12695532D01*
X9978157Y-12695742D01*
X9980172Y-12702550D01*
X9978186Y-12709366D01*
X9976481Y-12711487D01*
X9959143Y-12728825D01*
X9953696Y-12732030D01*
X9946839Y-12733990D01*
X9935751Y-12740986D01*
X9927072Y-12750813D01*
X9926690Y-12751625D01*
X9926690Y-12751625D01*
X9926149Y-12752778D01*
X9921500Y-12762680D01*
X9920808Y-12767127D01*
X9919621Y-12774748D01*
X9919621Y-12774748D01*
X9919483Y-12775635D01*
X9919599Y-12776525D01*
X9919599Y-12776526D01*
X9920080Y-12780205D01*
X9921183Y-12788635D01*
X9922253Y-12791067D01*
X9923559Y-12794035D01*
X9924472Y-12801076D01*
X9921433Y-12807493D01*
X9915408Y-12811248D01*
X9912026Y-12811710D01*
X9776906Y-12811710D01*
X9770094Y-12809710D01*
X9767997Y-12808020D01*
X9686221Y-12726244D01*
X9682818Y-12720012D01*
X9682530Y-12717334D01*
X9682530Y-12452322D01*
X9682180Y-12449764D01*
X9681093Y-12441829D01*
X9681093Y-12441828D01*
X9680976Y-12440978D01*
X9674890Y-12426914D01*
X9665247Y-12415005D01*
X9662232Y-12412863D01*
X9653456Y-12406626D01*
X9652756Y-12406129D01*
X9638338Y-12400938D01*
X9637482Y-12400875D01*
X9637482Y-12400875D01*
X9629478Y-12400287D01*
X9623055Y-12399816D01*
X9608034Y-12402844D01*
X9594380Y-12409801D01*
X9593748Y-12410383D01*
X9593748Y-12410383D01*
X9591050Y-12412863D01*
X9583100Y-12420174D01*
X9579272Y-12426348D01*
X9575478Y-12432467D01*
X9575478Y-12432468D01*
X9575025Y-12433197D01*
X9570750Y-12447913D01*
X9570670Y-12448999D01*
X9570670Y-12744204D01*
X9570659Y-12744732D01*
X9570395Y-12751033D01*
X8693450Y-12751033D01*
X8693450Y-11598953D01*
X11090910Y-11598953D01*
X11090910Y-11773967D01*
X11092387Y-11781390D01*
X11093076Y-11782422D01*
X11093076Y-11782422D01*
X11097112Y-11788461D01*
X11098012Y-11789808D01*
X11106430Y-11795433D01*
X11113853Y-11796910D01*
X11201346Y-11796910D01*
X11288867Y-11796910D01*
X11292442Y-11796199D01*
X11295073Y-11795676D01*
X11295073Y-11795675D01*
X11296290Y-11795433D01*
X11297322Y-11794744D01*
X11297322Y-11794744D01*
X11303677Y-11790498D01*
X11304708Y-11789808D01*
X11310333Y-11781390D01*
X11311810Y-11773967D01*
X11311810Y-11683556D01*
X11344475Y-11683556D01*
X11345802Y-11703812D01*
X11345944Y-11704372D01*
X11345945Y-11704372D01*
X11350653Y-11722910D01*
X11350799Y-11723487D01*
X11351041Y-11724011D01*
X11354751Y-11732059D01*
X11359298Y-11741922D01*
X11371013Y-11758499D01*
X11385554Y-11772663D01*
X11402432Y-11783941D01*
X11402962Y-11784169D01*
X11402963Y-11784169D01*
X11416088Y-11789808D01*
X11421083Y-11791954D01*
X11427574Y-11793423D01*
X11440318Y-11796307D01*
X11440318Y-11796307D01*
X11440882Y-11796434D01*
X11441459Y-11796457D01*
X11441459Y-11796457D01*
X11447436Y-11796692D01*
X11461165Y-11797231D01*
X11471895Y-11795675D01*
X11480683Y-11794401D01*
X11480684Y-11794401D01*
X11481254Y-11794318D01*
X11481801Y-11794133D01*
X11481801Y-11794133D01*
X11499929Y-11787979D01*
X11499930Y-11787979D01*
X11500476Y-11787793D01*
X11501062Y-11787466D01*
X11508007Y-11783576D01*
X11518188Y-11777875D01*
X11522157Y-11774573D01*
X11533351Y-11765263D01*
X11533794Y-11764894D01*
X11546775Y-11749288D01*
X11556693Y-11731576D01*
X11556879Y-11731030D01*
X11556879Y-11731029D01*
X11562946Y-11713156D01*
X11602227Y-11713156D01*
X11604704Y-11722910D01*
X11605088Y-11723995D01*
X11613099Y-11741372D01*
X11613674Y-11742368D01*
X11624718Y-11757994D01*
X11625466Y-11758870D01*
X11639171Y-11772221D01*
X11640066Y-11772945D01*
X11655976Y-11783576D01*
X11656987Y-11784125D01*
X11674568Y-11791678D01*
X11675662Y-11792034D01*
X11682193Y-11793512D01*
X11683600Y-11793423D01*
X11683943Y-11792528D01*
X11734760Y-11792528D01*
X11735157Y-11793879D01*
X11736027Y-11794003D01*
X11753910Y-11787933D01*
X11754959Y-11787466D01*
X11771656Y-11778115D01*
X11772603Y-11777464D01*
X11787315Y-11765228D01*
X11788128Y-11764415D01*
X11800364Y-11749703D01*
X11801015Y-11748756D01*
X11810366Y-11732059D01*
X11810833Y-11731010D01*
X11816893Y-11713156D01*
X11856227Y-11713156D01*
X11858704Y-11722910D01*
X11859088Y-11723995D01*
X11867099Y-11741372D01*
X11867674Y-11742368D01*
X11878718Y-11757994D01*
X11879466Y-11758870D01*
X11893171Y-11772221D01*
X11894066Y-11772945D01*
X11909976Y-11783576D01*
X11910987Y-11784125D01*
X11928568Y-11791678D01*
X11929662Y-11792034D01*
X11936193Y-11793512D01*
X11937600Y-11793423D01*
X11937943Y-11792528D01*
X11988760Y-11792528D01*
X11989157Y-11793879D01*
X11990027Y-11794003D01*
X12007910Y-11787933D01*
X12008959Y-11787466D01*
X12025656Y-11778115D01*
X12026603Y-11777464D01*
X12041315Y-11765228D01*
X12042128Y-11764415D01*
X12054364Y-11749703D01*
X12055015Y-11748756D01*
X12064366Y-11732059D01*
X12064833Y-11731010D01*
X12070904Y-11713124D01*
X12070781Y-11712259D01*
X12069424Y-11711860D01*
X11990571Y-11711860D01*
X11989048Y-11712307D01*
X11988927Y-11712446D01*
X11988760Y-11713215D01*
X11988760Y-11792528D01*
X11937943Y-11792528D01*
X11937960Y-11792483D01*
X11937960Y-11713671D01*
X11937512Y-11712148D01*
X11937373Y-11712027D01*
X11936605Y-11711860D01*
X11857709Y-11711860D01*
X11856356Y-11712257D01*
X11856227Y-11713156D01*
X11816893Y-11713156D01*
X11816904Y-11713124D01*
X11816781Y-11712259D01*
X11815424Y-11711860D01*
X11736571Y-11711860D01*
X11735048Y-11712307D01*
X11734927Y-11712446D01*
X11734760Y-11713215D01*
X11734760Y-11792528D01*
X11683943Y-11792528D01*
X11683960Y-11792483D01*
X11683960Y-11713671D01*
X11683512Y-11712148D01*
X11683373Y-11712027D01*
X11682605Y-11711860D01*
X11603709Y-11711860D01*
X11602356Y-11712257D01*
X11602227Y-11713156D01*
X11562946Y-11713156D01*
X11563033Y-11712901D01*
X11563033Y-11712901D01*
X11563218Y-11712354D01*
X11563301Y-11711784D01*
X11563301Y-11711783D01*
X11566078Y-11692633D01*
X11566131Y-11692265D01*
X11566283Y-11686460D01*
X11566016Y-11683556D01*
X12106475Y-11683556D01*
X12107802Y-11703812D01*
X12107944Y-11704372D01*
X12107945Y-11704372D01*
X12112653Y-11722910D01*
X12112799Y-11723487D01*
X12113041Y-11724011D01*
X12116751Y-11732059D01*
X12121298Y-11741922D01*
X12133013Y-11758499D01*
X12147554Y-11772663D01*
X12164432Y-11783941D01*
X12164962Y-11784169D01*
X12164963Y-11784169D01*
X12178088Y-11789808D01*
X12183083Y-11791954D01*
X12189574Y-11793423D01*
X12202318Y-11796307D01*
X12202318Y-11796307D01*
X12202882Y-11796434D01*
X12203459Y-11796457D01*
X12203459Y-11796457D01*
X12209436Y-11796692D01*
X12223165Y-11797231D01*
X12233895Y-11795675D01*
X12242683Y-11794401D01*
X12242684Y-11794401D01*
X12243254Y-11794318D01*
X12243801Y-11794133D01*
X12243801Y-11794133D01*
X12261929Y-11787979D01*
X12261930Y-11787979D01*
X12262476Y-11787793D01*
X12263062Y-11787466D01*
X12270007Y-11783576D01*
X12280188Y-11777875D01*
X12284157Y-11774573D01*
X12295351Y-11765263D01*
X12295794Y-11764894D01*
X12308775Y-11749288D01*
X12318693Y-11731576D01*
X12318879Y-11731030D01*
X12318879Y-11731029D01*
X12325033Y-11712901D01*
X12325033Y-11712901D01*
X12325218Y-11712354D01*
X12325301Y-11711784D01*
X12325301Y-11711783D01*
X12328078Y-11692633D01*
X12328131Y-11692265D01*
X12328283Y-11686460D01*
X12328016Y-11683556D01*
X12360475Y-11683556D01*
X12361802Y-11703812D01*
X12361944Y-11704372D01*
X12361945Y-11704372D01*
X12366653Y-11722910D01*
X12366799Y-11723487D01*
X12367041Y-11724011D01*
X12370751Y-11732059D01*
X12375298Y-11741922D01*
X12387013Y-11758499D01*
X12401554Y-11772663D01*
X12418432Y-11783941D01*
X12418962Y-11784169D01*
X12418963Y-11784169D01*
X12432088Y-11789808D01*
X12437083Y-11791954D01*
X12443574Y-11793423D01*
X12456318Y-11796307D01*
X12456318Y-11796307D01*
X12456882Y-11796434D01*
X12457459Y-11796457D01*
X12457459Y-11796457D01*
X12463436Y-11796692D01*
X12477165Y-11797231D01*
X12487895Y-11795675D01*
X12496683Y-11794401D01*
X12496684Y-11794401D01*
X12497254Y-11794318D01*
X12497801Y-11794133D01*
X12497801Y-11794133D01*
X12515929Y-11787979D01*
X12515930Y-11787979D01*
X12516476Y-11787793D01*
X12517062Y-11787466D01*
X12524007Y-11783576D01*
X12534188Y-11777875D01*
X12538157Y-11774573D01*
X12549351Y-11765263D01*
X12549794Y-11764894D01*
X12562775Y-11749288D01*
X12572693Y-11731576D01*
X12572879Y-11731030D01*
X12572879Y-11731029D01*
X12579033Y-11712901D01*
X12579033Y-11712901D01*
X12579218Y-11712354D01*
X12579301Y-11711784D01*
X12579301Y-11711783D01*
X12582078Y-11692633D01*
X12582131Y-11692265D01*
X12582283Y-11686460D01*
X12580426Y-11666246D01*
X12580269Y-11665690D01*
X12575072Y-11647265D01*
X12575072Y-11647264D01*
X12574916Y-11646709D01*
X12573858Y-11644563D01*
X12566193Y-11629021D01*
X12565938Y-11628503D01*
X12553792Y-11612238D01*
X12538886Y-11598459D01*
X12538397Y-11598151D01*
X12538397Y-11598150D01*
X12523833Y-11588961D01*
X12521718Y-11587627D01*
X12502864Y-11580105D01*
X12502298Y-11579992D01*
X12502297Y-11579992D01*
X12483521Y-11576257D01*
X12483521Y-11576257D01*
X12482955Y-11576144D01*
X12482377Y-11576137D01*
X12482377Y-11576137D01*
X12472239Y-11576004D01*
X12462657Y-11575879D01*
X12462087Y-11575977D01*
X12462087Y-11575977D01*
X12453300Y-11577487D01*
X12442651Y-11579316D01*
X12423606Y-11586342D01*
X12406161Y-11596721D01*
X12405727Y-11597102D01*
X12405727Y-11597102D01*
X12391333Y-11609725D01*
X12390899Y-11610105D01*
X12378332Y-11626047D01*
X12378063Y-11626558D01*
X12378063Y-11626558D01*
X12376767Y-11629021D01*
X12368880Y-11644011D01*
X12362861Y-11663398D01*
X12360475Y-11683556D01*
X12328016Y-11683556D01*
X12326426Y-11666246D01*
X12326269Y-11665690D01*
X12321072Y-11647265D01*
X12321072Y-11647264D01*
X12320916Y-11646709D01*
X12319858Y-11644563D01*
X12312193Y-11629021D01*
X12311938Y-11628503D01*
X12299792Y-11612238D01*
X12284886Y-11598459D01*
X12284397Y-11598151D01*
X12284397Y-11598150D01*
X12269833Y-11588961D01*
X12267718Y-11587627D01*
X12248864Y-11580105D01*
X12248298Y-11579992D01*
X12248297Y-11579992D01*
X12229521Y-11576257D01*
X12229521Y-11576257D01*
X12228955Y-11576144D01*
X12228377Y-11576137D01*
X12228377Y-11576137D01*
X12218239Y-11576004D01*
X12208657Y-11575879D01*
X12208087Y-11575977D01*
X12208087Y-11575977D01*
X12199300Y-11577487D01*
X12188651Y-11579316D01*
X12169606Y-11586342D01*
X12152161Y-11596721D01*
X12151727Y-11597102D01*
X12151727Y-11597102D01*
X12137333Y-11609725D01*
X12136899Y-11610105D01*
X12124332Y-11626047D01*
X12124063Y-11626558D01*
X12124063Y-11626558D01*
X12122767Y-11629021D01*
X12114880Y-11644011D01*
X12108861Y-11663398D01*
X12106475Y-11683556D01*
X11566016Y-11683556D01*
X11564426Y-11666246D01*
X11564269Y-11665690D01*
X11562873Y-11660740D01*
X11602154Y-11660740D01*
X11602827Y-11661060D01*
X11682148Y-11661060D01*
X11683672Y-11660612D01*
X11683793Y-11660473D01*
X11683960Y-11659705D01*
X11683960Y-11659248D01*
X11734760Y-11659248D01*
X11735207Y-11660772D01*
X11735346Y-11660893D01*
X11736115Y-11661060D01*
X11815100Y-11661060D01*
X11816190Y-11660740D01*
X11856154Y-11660740D01*
X11856827Y-11661060D01*
X11936148Y-11661060D01*
X11937672Y-11660612D01*
X11937793Y-11660473D01*
X11937960Y-11659705D01*
X11937960Y-11659248D01*
X11988760Y-11659248D01*
X11989207Y-11660772D01*
X11989346Y-11660893D01*
X11990115Y-11661060D01*
X12069100Y-11661060D01*
X12070453Y-11660663D01*
X12070570Y-11659849D01*
X12067026Y-11647283D01*
X12066613Y-11646208D01*
X12058150Y-11629047D01*
X12057549Y-11628066D01*
X12046100Y-11612734D01*
X12045331Y-11611880D01*
X12031279Y-11598890D01*
X12030367Y-11598190D01*
X12014184Y-11587979D01*
X12013159Y-11587457D01*
X11995386Y-11580367D01*
X11994283Y-11580040D01*
X11990537Y-11579295D01*
X11989249Y-11579410D01*
X11988760Y-11580926D01*
X11988760Y-11659248D01*
X11937960Y-11659248D01*
X11937960Y-11580610D01*
X11937579Y-11579314D01*
X11936088Y-11579120D01*
X11935233Y-11579267D01*
X11934122Y-11579565D01*
X11916169Y-11586188D01*
X11915132Y-11586683D01*
X11898687Y-11596466D01*
X11897756Y-11597143D01*
X11883370Y-11609759D01*
X11882578Y-11610594D01*
X11870732Y-11625620D01*
X11870105Y-11626586D01*
X11861196Y-11643519D01*
X11860755Y-11644583D01*
X11856176Y-11659330D01*
X11856154Y-11660740D01*
X11816190Y-11660740D01*
X11816453Y-11660663D01*
X11816570Y-11659849D01*
X11813026Y-11647283D01*
X11812613Y-11646208D01*
X11804150Y-11629047D01*
X11803549Y-11628066D01*
X11792100Y-11612734D01*
X11791331Y-11611880D01*
X11777279Y-11598890D01*
X11776367Y-11598190D01*
X11760184Y-11587979D01*
X11759159Y-11587457D01*
X11741386Y-11580367D01*
X11740283Y-11580040D01*
X11736537Y-11579295D01*
X11735249Y-11579410D01*
X11734760Y-11580926D01*
X11734760Y-11659248D01*
X11683960Y-11659248D01*
X11683960Y-11580610D01*
X11683579Y-11579314D01*
X11682088Y-11579120D01*
X11681233Y-11579267D01*
X11680122Y-11579565D01*
X11662169Y-11586188D01*
X11661132Y-11586683D01*
X11644687Y-11596466D01*
X11643756Y-11597143D01*
X11629370Y-11609759D01*
X11628578Y-11610594D01*
X11616732Y-11625620D01*
X11616105Y-11626586D01*
X11607196Y-11643519D01*
X11606755Y-11644583D01*
X11602176Y-11659330D01*
X11602154Y-11660740D01*
X11562873Y-11660740D01*
X11559072Y-11647265D01*
X11559072Y-11647264D01*
X11558916Y-11646709D01*
X11557858Y-11644563D01*
X11550193Y-11629021D01*
X11549938Y-11628503D01*
X11537792Y-11612238D01*
X11522886Y-11598459D01*
X11522397Y-11598151D01*
X11522397Y-11598150D01*
X11507833Y-11588961D01*
X11505718Y-11587627D01*
X11486864Y-11580105D01*
X11486298Y-11579992D01*
X11486297Y-11579992D01*
X11467521Y-11576257D01*
X11467521Y-11576257D01*
X11466955Y-11576144D01*
X11466377Y-11576137D01*
X11466377Y-11576137D01*
X11456239Y-11576004D01*
X11446657Y-11575879D01*
X11446087Y-11575977D01*
X11446087Y-11575977D01*
X11437300Y-11577487D01*
X11426651Y-11579316D01*
X11407606Y-11586342D01*
X11390161Y-11596721D01*
X11389727Y-11597102D01*
X11389727Y-11597102D01*
X11375333Y-11609725D01*
X11374899Y-11610105D01*
X11362332Y-11626047D01*
X11362063Y-11626558D01*
X11362063Y-11626558D01*
X11360767Y-11629021D01*
X11352880Y-11644011D01*
X11346861Y-11663398D01*
X11344475Y-11683556D01*
X11311810Y-11683556D01*
X11311810Y-11598953D01*
X11310333Y-11591530D01*
X11307725Y-11587627D01*
X11305398Y-11584143D01*
X11304708Y-11583112D01*
X11296290Y-11577487D01*
X11288867Y-11576010D01*
X11201374Y-11576010D01*
X11113853Y-11576010D01*
X11110278Y-11576721D01*
X11107647Y-11577244D01*
X11107647Y-11577244D01*
X11106430Y-11577487D01*
X11105398Y-11578176D01*
X11105398Y-11578176D01*
X11101283Y-11580926D01*
X11098012Y-11583112D01*
X11092387Y-11591530D01*
X11090910Y-11598953D01*
X8693450Y-11598953D01*
X8693450Y-11334050D01*
X8695450Y-11327238D01*
X8700816Y-11322589D01*
X8706050Y-11321450D01*
X12629950Y-11321450D01*
X12636762Y-11323450D01*
G37*
%TD.AperFunction*%
%TD*%
M02*
