%TF.GenerationSoftware,KiCad,Pcbnew,(6.0.7)*%
%TF.CreationDate,2022-08-25T13:01:18+08:00*%
%TF.ProjectId,T12_SolderingStationScreen,5431325f-536f-46c6-9465-72696e675374,rev?*%
%TF.SameCoordinates,Original*%
%TF.FileFunction,Legend,Bot*%
%TF.FilePolarity,Positive*%
%FSLAX45Y45*%
G04 Gerber Fmt 4.5, Leading zero omitted, Abs format (unit mm)*
G04 Created by KiCad (PCBNEW (6.0.7)) date 2022-08-25 13:01:18*
%MOMM*%
%LPD*%
G01*
G04 APERTURE LIST*
%ADD10C,0.150000*%
%ADD11C,0.120000*%
G04 APERTURE END LIST*
D10*
%TO.C,BZ1*%
X12323603Y-12768585D02*
X12323603Y-12844775D01*
X12361698Y-12806680D02*
X12285508Y-12806680D01*
D11*
%TO.C,C8*%
X10014220Y-12322898D02*
X10014220Y-12294782D01*
X9912220Y-12322898D02*
X9912220Y-12294782D01*
%TO.C,C2*%
X10985700Y-13167302D02*
X10985700Y-13195418D01*
X10883700Y-13167302D02*
X10883700Y-13195418D01*
%TO.C,C10*%
X10681418Y-11958120D02*
X10653302Y-11958120D01*
X10681418Y-12060120D02*
X10653302Y-12060120D01*
%TO.C,J2*%
X11328360Y-11819460D02*
X12604360Y-11819460D01*
X11328360Y-11553460D02*
X11328360Y-11819460D01*
X12604360Y-11553460D02*
X12604360Y-11819460D01*
X11068360Y-11819460D02*
X11201360Y-11819460D01*
X11068360Y-11686460D02*
X11068360Y-11819460D01*
X11328360Y-11553460D02*
X12604360Y-11553460D01*
%TO.C,R3*%
X12534776Y-12994540D02*
X12565504Y-12994540D01*
X12534776Y-12918540D02*
X12565504Y-12918540D01*
%TO.C,C12*%
X9902278Y-12725200D02*
X9874162Y-12725200D01*
X9902278Y-12827200D02*
X9874162Y-12827200D01*
%TO.C,Q1*%
X11352280Y-12187060D02*
X11352280Y-12087060D01*
X11350280Y-12188060D02*
X11107280Y-12188060D01*
X11352280Y-11882060D02*
X11167280Y-11882060D01*
X11352280Y-11987060D02*
X11352280Y-11882060D01*
%TO.C,R2*%
X11287860Y-12743304D02*
X11287860Y-12712576D01*
X11363860Y-12743304D02*
X11363860Y-12712576D01*
%TO.C,U2*%
X10913600Y-12563620D02*
X11133600Y-12563620D01*
X10913600Y-12343620D02*
X11213600Y-12343620D01*
%TO.C,C5*%
X9902278Y-11983920D02*
X9874162Y-11983920D01*
X9902278Y-11881920D02*
X9874162Y-11881920D01*
%TO.C,D1*%
X10979360Y-12302160D02*
X10589360Y-12302160D01*
X10979360Y-12102160D02*
X10589360Y-12102160D01*
X10979360Y-12102160D02*
X10979360Y-12302160D01*
%TO.C,C11*%
X9902278Y-12577880D02*
X9874162Y-12577880D01*
X9902278Y-12679880D02*
X9874162Y-12679880D01*
%TO.C,R4*%
X9958584Y-12544960D02*
X9927856Y-12544960D01*
X9958584Y-12468960D02*
X9927856Y-12468960D01*
%TO.C,U1*%
X10556240Y-13025360D02*
X10476240Y-13025360D01*
X10556240Y-13337360D02*
X10476240Y-13337360D01*
X10556240Y-13337360D02*
X10636240Y-13337360D01*
X10556240Y-13025360D02*
X10736240Y-13025360D01*
%TO.C,JP1*%
X10101280Y-12975260D02*
X10381280Y-12975260D01*
X10381280Y-12975260D02*
X10381280Y-12775260D01*
X10381280Y-12775260D02*
X10101280Y-12775260D01*
X10101280Y-12775260D02*
X10101280Y-12975260D01*
%TO.C,R1*%
X10850780Y-13170876D02*
X10850780Y-13201604D01*
X10774780Y-13170876D02*
X10774780Y-13201604D01*
%TO.C,C7*%
X9715060Y-12379965D02*
X9715060Y-12237715D01*
X9533060Y-12379965D02*
X9533060Y-12237715D01*
%TO.C,C9*%
X9868100Y-12322898D02*
X9868100Y-12294782D01*
X9766100Y-12322898D02*
X9766100Y-12294782D01*
%TO.C,BZ1*%
X12672460Y-12425680D02*
G75*
G03*
X12672460Y-12425680I-610000J0D01*
G01*
%TO.C,C13*%
X9902278Y-12974520D02*
X9874162Y-12974520D01*
X9902278Y-12872520D02*
X9874162Y-12872520D01*
%TO.C,C3*%
X9781800Y-13026520D02*
X10202800Y-13026520D01*
X10202800Y-13328520D02*
X9781800Y-13328520D01*
X10202800Y-13026520D02*
X10202800Y-13328520D01*
%TO.C,J1*%
X12601820Y-13064800D02*
X12601820Y-13330800D01*
X11325820Y-13064800D02*
X11325820Y-13330800D01*
X11065820Y-13197800D02*
X11065820Y-13330800D01*
X11065820Y-13330800D02*
X11198820Y-13330800D01*
X11325820Y-13330800D02*
X12601820Y-13330800D01*
X11325820Y-13064800D02*
X12601820Y-13064800D01*
%TO.C,C1*%
X10522860Y-12990380D02*
X10522860Y-12648380D01*
X11198860Y-12990380D02*
X10522860Y-12990380D01*
X10522860Y-12648380D02*
X11198860Y-12648380D01*
%TO.C,RN1*%
X10644360Y-12567620D02*
X10594360Y-12567620D01*
X10644360Y-12339620D02*
X10594360Y-12339620D01*
%TO.C,C6*%
X9902278Y-12031780D02*
X9874162Y-12031780D01*
X9902278Y-12133780D02*
X9874162Y-12133780D01*
%TO.C,C4*%
X10327840Y-13167302D02*
X10327840Y-13195418D01*
X10225840Y-13167302D02*
X10225840Y-13195418D01*
%TD*%
M02*
