%TF.GenerationSoftware,KiCad,Pcbnew,(6.0.7)*%
%TF.CreationDate,2022-08-25T13:00:14+08:00*%
%TF.ProjectId,T12_SolderingStation,5431325f-536f-46c6-9465-72696e675374,rev?*%
%TF.SameCoordinates,Original*%
%TF.FileFunction,Copper,L1,Top*%
%TF.FilePolarity,Positive*%
%FSLAX45Y45*%
G04 Gerber Fmt 4.5, Leading zero omitted, Abs format (unit mm)*
G04 Created by KiCad (PCBNEW (6.0.7)) date 2022-08-25 13:00:14*
%MOMM*%
%LPD*%
G01*
G04 APERTURE LIST*
G04 Aperture macros list*
%AMRoundRect*
0 Rectangle with rounded corners*
0 $1 Rounding radius*
0 $2 $3 $4 $5 $6 $7 $8 $9 X,Y pos of 4 corners*
0 Add a 4 corners polygon primitive as box body*
4,1,4,$2,$3,$4,$5,$6,$7,$8,$9,$2,$3,0*
0 Add four circle primitives for the rounded corners*
1,1,$1+$1,$2,$3*
1,1,$1+$1,$4,$5*
1,1,$1+$1,$6,$7*
1,1,$1+$1,$8,$9*
0 Add four rect primitives between the rounded corners*
20,1,$1+$1,$2,$3,$4,$5,0*
20,1,$1+$1,$4,$5,$6,$7,0*
20,1,$1+$1,$6,$7,$8,$9,0*
20,1,$1+$1,$8,$9,$2,$3,0*%
%AMFreePoly0*
4,1,17,0.600431,1.735355,0.985356,1.350431,1.000000,1.315076,1.000000,-1.315076,0.985356,-1.350431,0.600431,-1.735355,0.565076,-1.750000,-0.565076,-1.750000,-0.600431,-1.735356,-0.985355,-1.350431,-1.000000,-1.315076,-1.000000,1.315076,-0.985355,1.350431,-0.600431,1.735356,-0.565076,1.750000,0.565076,1.750000,0.600431,1.735355,0.600431,1.735355,$1*%
%AMFreePoly1*
4,1,17,0.541853,1.785355,0.885355,1.441853,0.900000,1.406498,0.900000,-1.406498,0.885355,-1.441853,0.541853,-1.785355,0.506498,-1.800000,-0.506498,-1.800000,-0.541853,-1.785355,-0.885355,-1.441853,-0.900000,-1.406498,-0.900000,1.406498,-0.885355,1.441853,-0.541853,1.785355,-0.506498,1.800000,0.506498,1.800000,0.541853,1.785355,0.541853,1.785355,$1*%
G04 Aperture macros list end*
%TA.AperFunction,SMDPad,CuDef*%
%ADD10R,1.000000X1.000000*%
%TD*%
%TA.AperFunction,ComponentPad*%
%ADD11R,1.700000X1.700000*%
%TD*%
%TA.AperFunction,ComponentPad*%
%ADD12O,1.700000X1.700000*%
%TD*%
%TA.AperFunction,SMDPad,CuDef*%
%ADD13RoundRect,0.150000X0.150000X-0.825000X0.150000X0.825000X-0.150000X0.825000X-0.150000X-0.825000X0*%
%TD*%
%TA.AperFunction,SMDPad,CuDef*%
%ADD14R,2.200000X1.500000*%
%TD*%
%TA.AperFunction,SMDPad,CuDef*%
%ADD15R,1.524000X1.524000*%
%TD*%
%TA.AperFunction,SMDPad,CuDef*%
%ADD16R,5.000000X3.500000*%
%TD*%
%TA.AperFunction,ComponentPad*%
%ADD17FreePoly0,90.000000*%
%TD*%
%TA.AperFunction,ComponentPad*%
%ADD18C,1.778000*%
%TD*%
%TA.AperFunction,SMDPad,CuDef*%
%ADD19RoundRect,0.225000X0.250000X-0.225000X0.250000X0.225000X-0.250000X0.225000X-0.250000X-0.225000X0*%
%TD*%
%TA.AperFunction,SMDPad,CuDef*%
%ADD20RoundRect,0.225000X-0.250000X0.225000X-0.250000X-0.225000X0.250000X-0.225000X0.250000X0.225000X0*%
%TD*%
%TA.AperFunction,SMDPad,CuDef*%
%ADD21R,0.900000X1.200000*%
%TD*%
%TA.AperFunction,SMDPad,CuDef*%
%ADD22RoundRect,0.225000X-0.225000X-0.250000X0.225000X-0.250000X0.225000X0.250000X-0.225000X0.250000X0*%
%TD*%
%TA.AperFunction,SMDPad,CuDef*%
%ADD23RoundRect,0.135000X-0.135000X-0.185000X0.135000X-0.185000X0.135000X0.185000X-0.135000X0.185000X0*%
%TD*%
%TA.AperFunction,SMDPad,CuDef*%
%ADD24RoundRect,0.135000X0.135000X0.185000X-0.135000X0.185000X-0.135000X-0.185000X0.135000X-0.185000X0*%
%TD*%
%TA.AperFunction,SMDPad,CuDef*%
%ADD25RoundRect,0.135000X0.185000X-0.135000X0.185000X0.135000X-0.185000X0.135000X-0.185000X-0.135000X0*%
%TD*%
%TA.AperFunction,SMDPad,CuDef*%
%ADD26RoundRect,0.250000X-0.925000X0.787500X-0.925000X-0.787500X0.925000X-0.787500X0.925000X0.787500X0*%
%TD*%
%TA.AperFunction,SMDPad,CuDef*%
%ADD27R,1.160000X0.600000*%
%TD*%
%TA.AperFunction,SMDPad,CuDef*%
%ADD28R,1.160000X0.300000*%
%TD*%
%TA.AperFunction,ComponentPad*%
%ADD29O,2.032000X1.016000*%
%TD*%
%TA.AperFunction,ComponentPad*%
%ADD30FreePoly1,90.000000*%
%TD*%
%TA.AperFunction,SMDPad,CuDef*%
%ADD31R,1.400000X1.600000*%
%TD*%
%TA.AperFunction,SMDPad,CuDef*%
%ADD32RoundRect,0.135000X-0.185000X0.135000X-0.185000X-0.135000X0.185000X-0.135000X0.185000X0.135000X0*%
%TD*%
%TA.AperFunction,SMDPad,CuDef*%
%ADD33RoundRect,0.147500X0.172500X-0.147500X0.172500X0.147500X-0.172500X0.147500X-0.172500X-0.147500X0*%
%TD*%
%TA.AperFunction,SMDPad,CuDef*%
%ADD34RoundRect,0.250000X-0.925000X0.412500X-0.925000X-0.412500X0.925000X-0.412500X0.925000X0.412500X0*%
%TD*%
%TA.AperFunction,SMDPad,CuDef*%
%ADD35R,2.500000X1.800000*%
%TD*%
%TA.AperFunction,ComponentPad*%
%ADD36C,0.508000*%
%TD*%
%TA.AperFunction,ComponentPad*%
%ADD37C,0.500000*%
%TD*%
%TA.AperFunction,SMDPad,CuDef*%
%ADD38R,1.650000X1.650000*%
%TD*%
%TA.AperFunction,ViaPad*%
%ADD39C,0.406400*%
%TD*%
%TA.AperFunction,Conductor*%
%ADD40C,0.508000*%
%TD*%
%TA.AperFunction,Conductor*%
%ADD41C,1.016000*%
%TD*%
%TA.AperFunction,Conductor*%
%ADD42C,0.355600*%
%TD*%
%TA.AperFunction,Conductor*%
%ADD43C,0.609600*%
%TD*%
%TA.AperFunction,Conductor*%
%ADD44C,0.203200*%
%TD*%
%TA.AperFunction,Conductor*%
%ADD45C,1.524000*%
%TD*%
%TA.AperFunction,Conductor*%
%ADD46C,0.304800*%
%TD*%
%TA.AperFunction,Conductor*%
%ADD47C,0.762000*%
%TD*%
%TA.AperFunction,Conductor*%
%ADD48C,0.254000*%
%TD*%
G04 APERTURE END LIST*
D10*
%TO.P,TP3,1,1*%
%TO.N,/MOSI*%
X11658600Y-8392160D03*
%TD*%
D11*
%TO.P,J6,1,Pin_1*%
%TO.N,+24V*%
X10683240Y-7975600D03*
D12*
%TO.P,J6,2,Pin_2*%
X10937240Y-7975600D03*
%TO.P,J6,3,Pin_3*%
%TO.N,GND*%
X11191240Y-7975600D03*
%TO.P,J6,4,Pin_4*%
X11445240Y-7975600D03*
%TO.P,J6,5,Pin_5*%
%TO.N,unconnected-(J6-Pad5)*%
X11699240Y-7975600D03*
%TO.P,J6,6,Pin_6*%
%TO.N,unconnected-(J6-Pad6)*%
X11953240Y-7975600D03*
%TD*%
D13*
%TO.P,U4,1*%
%TO.N,/ADC0*%
X13225780Y-8670140D03*
%TO.P,U4,2,-*%
%TO.N,Net-(R18-Pad1)*%
X13352780Y-8670140D03*
%TO.P,U4,3,+*%
%TO.N,Net-(C15-Pad1)*%
X13479780Y-8670140D03*
%TO.P,U4,4,V-*%
%TO.N,GND*%
X13606780Y-8670140D03*
%TO.P,U4,5,+*%
%TO.N,Net-(C13-Pad1)*%
X13606780Y-8175140D03*
%TO.P,U4,6,-*%
%TO.N,Net-(U4-Pad6)*%
X13479780Y-8175140D03*
%TO.P,U4,7*%
X13352780Y-8175140D03*
%TO.P,U4,8,V+*%
%TO.N,VCC*%
X13225780Y-8175140D03*
%TD*%
D14*
%TO.P,L1,1,1*%
%TO.N,Net-(C1-Pad1)*%
X9923780Y-9024580D03*
%TO.P,L1,2,2*%
%TO.N,VCC*%
X9923780Y-8384580D03*
%TD*%
D15*
%TO.P,D5,1,A*%
%TO.N,VBUS*%
X8482610Y-8133765D03*
%TO.P,D5,2,A*%
X8482610Y-7933765D03*
D16*
%TO.P,D5,3,K*%
%TO.N,+24V*%
X8892610Y-8033765D03*
%TD*%
D10*
%TO.P,TP7,1,1*%
%TO.N,/TXD*%
X11191240Y-9255760D03*
%TD*%
%TO.P,TP5,1,1*%
%TO.N,/RST*%
X11496040Y-9255760D03*
%TD*%
D17*
%TO.P,SW2,0,SHELL*%
%TO.N,GND*%
X12370840Y-9237600D03*
X12370840Y-8237600D03*
D18*
%TO.P,SW2,A,A*%
%TO.N,/D7*%
X12570840Y-8987600D03*
%TO.P,SW2,B,B*%
%TO.N,/D8*%
X12570840Y-8737600D03*
%TO.P,SW2,C,C*%
%TO.N,GND*%
X12570840Y-8487600D03*
%TD*%
D19*
%TO.P,C1,1*%
%TO.N,Net-(C1-Pad1)*%
X9448800Y-8840500D03*
%TO.P,C1,2*%
%TO.N,Net-(C1-Pad2)*%
X9448800Y-8685500D03*
%TD*%
D20*
%TO.P,C3,1*%
%TO.N,VCC*%
X10916920Y-8827740D03*
%TO.P,C3,2*%
%TO.N,GND*%
X10916920Y-8982740D03*
%TD*%
D10*
%TO.P,TP8,1,1*%
%TO.N,/RXD*%
X11343640Y-9255760D03*
%TD*%
D21*
%TO.P,D4,1,K*%
%TO.N,GND*%
X13621920Y-9118600D03*
%TO.P,D4,2,A*%
%TO.N,Net-(C15-Pad1)*%
X13291920Y-9118600D03*
%TD*%
D10*
%TO.P,TP4,1,1*%
%TO.N,/SCK*%
X11963400Y-8392160D03*
%TD*%
D20*
%TO.P,C11,1*%
%TO.N,/D6*%
X12827500Y-8855060D03*
%TO.P,C11,2*%
%TO.N,GND*%
X12827500Y-9010060D03*
%TD*%
D22*
%TO.P,C15,1*%
%TO.N,Net-(C15-Pad1)*%
X13465780Y-8922400D03*
%TO.P,C15,2*%
%TO.N,GND*%
X13620780Y-8922400D03*
%TD*%
D23*
%TO.P,R19,1*%
%TO.N,GND*%
X13238280Y-8945880D03*
%TO.P,R19,2*%
%TO.N,Net-(R18-Pad1)*%
X13340280Y-8945880D03*
%TD*%
D24*
%TO.P,R18,1*%
%TO.N,Net-(R18-Pad1)*%
X13340280Y-8844280D03*
%TO.P,R18,2*%
%TO.N,/ADC0*%
X13238280Y-8844280D03*
%TD*%
D23*
%TO.P,R17,1*%
%TO.N,GND*%
X13239320Y-7901940D03*
%TO.P,R17,2*%
%TO.N,Net-(C13-Pad1)*%
X13341320Y-7901940D03*
%TD*%
D25*
%TO.P,R5,1*%
%TO.N,VCC*%
X8321040Y-8102800D03*
%TO.P,R5,2*%
%TO.N,Net-(D2-Pad2)*%
X8321040Y-8000800D03*
%TD*%
D26*
%TO.P,C4,1*%
%TO.N,+24V*%
X9347200Y-7985890D03*
%TO.P,C4,2*%
%TO.N,GND*%
X9347200Y-8478390D03*
%TD*%
D24*
%TO.P,R15,1*%
%TO.N,Net-(C13-Pad1)*%
X13341320Y-8001000D03*
%TO.P,R15,2*%
%TO.N,VCC*%
X13239320Y-8001000D03*
%TD*%
D22*
%TO.P,C14,1*%
%TO.N,P+*%
X13465780Y-9313560D03*
%TO.P,C14,2*%
%TO.N,GND*%
X13620780Y-9313560D03*
%TD*%
D27*
%TO.P,J1,A1,GND*%
%TO.N,GND*%
X8801780Y-8453160D03*
%TO.P,J1,A4,VBUS*%
%TO.N,VBUS*%
X8801780Y-8533160D03*
D28*
%TO.P,J1,A5,CC1*%
%TO.N,Net-(J1-PadA5)*%
X8801780Y-8648160D03*
%TO.P,J1,A6,D+*%
%TO.N,Net-(J1-PadA6)*%
X8801780Y-8748160D03*
%TO.P,J1,A7,D-*%
%TO.N,Net-(J1-PadA7)*%
X8801780Y-8798160D03*
%TO.P,J1,A8,SBU1*%
%TO.N,unconnected-(J1-PadA8)*%
X8801780Y-8898160D03*
D27*
%TO.P,J1,A9,VBUS*%
%TO.N,VBUS*%
X8801780Y-9013160D03*
%TO.P,J1,A12,GND*%
%TO.N,GND*%
X8801780Y-9093160D03*
%TO.P,J1,B1,GND*%
X8801780Y-9093160D03*
%TO.P,J1,B4,VBUS*%
%TO.N,VBUS*%
X8801780Y-9013160D03*
D28*
%TO.P,J1,B5,CC2*%
%TO.N,Net-(J1-PadB5)*%
X8801780Y-8948160D03*
%TO.P,J1,B6,D+*%
%TO.N,Net-(J1-PadA6)*%
X8801780Y-8848160D03*
%TO.P,J1,B7,D-*%
%TO.N,Net-(J1-PadA7)*%
X8801780Y-8698160D03*
%TO.P,J1,B8,SBU2*%
%TO.N,unconnected-(J1-PadB8)*%
X8801780Y-8598160D03*
D27*
%TO.P,J1,B9,VBUS*%
%TO.N,VBUS*%
X8801780Y-8533160D03*
%TO.P,J1,B12,GND*%
%TO.N,GND*%
X8801780Y-8453160D03*
D29*
%TO.P,J1,S1,SHIELD*%
X8743780Y-9205160D03*
X8326780Y-8341160D03*
X8743780Y-8341160D03*
X8326780Y-9205160D03*
%TD*%
D30*
%TO.P,J4,1,Pin_1*%
%TO.N,/ADC2*%
X14635480Y-9427020D03*
%TO.P,J4,2,Pin_2*%
%TO.N,P+*%
X14635480Y-9077020D03*
%TO.P,J4,3,Pin_3*%
%TO.N,/D10*%
X14635480Y-8727020D03*
%TO.P,J4,4,Pin_4*%
%TO.N,GND*%
X14635480Y-8377020D03*
%TO.P,J4,5,Pin_5*%
%TO.N,+24V*%
X14635480Y-8027020D03*
%TD*%
D24*
%TO.P,R16,1*%
%TO.N,P+*%
X13345360Y-9306560D03*
%TO.P,R16,2*%
%TO.N,Net-(C15-Pad1)*%
X13243360Y-9306560D03*
%TD*%
D31*
%TO.P,SW1,1,1*%
%TO.N,GND*%
X13841520Y-9127440D03*
%TO.P,SW1,2,2*%
%TO.N,/D6*%
X13841520Y-8327440D03*
%TO.P,SW1,3,3*%
%TO.N,GND*%
X14291520Y-9127440D03*
%TO.P,SW1,4,4*%
%TO.N,/D6*%
X14291520Y-8327440D03*
%TD*%
D32*
%TO.P,R11,1*%
%TO.N,VCC*%
X12801600Y-8635600D03*
%TO.P,R11,2*%
%TO.N,/D6*%
X12801600Y-8737600D03*
%TD*%
D33*
%TO.P,D2,1,K*%
%TO.N,GND*%
X8214360Y-8100300D03*
%TO.P,D2,2,A*%
%TO.N,Net-(D2-Pad2)*%
X8214360Y-8003300D03*
%TD*%
D34*
%TO.P,C2,1*%
%TO.N,VCC*%
X10482580Y-8375570D03*
%TO.P,C2,2*%
%TO.N,GND*%
X10482580Y-8683070D03*
%TD*%
D10*
%TO.P,TP2,1,1*%
%TO.N,/MISO*%
X11811000Y-8392160D03*
%TD*%
D25*
%TO.P,R14,1*%
%TO.N,VCC*%
X12801600Y-8547300D03*
%TO.P,R14,2*%
%TO.N,/D10*%
X12801600Y-8445300D03*
%TD*%
D22*
%TO.P,C13,1*%
%TO.N,Net-(C13-Pad1)*%
X13459400Y-7950200D03*
%TO.P,C13,2*%
%TO.N,GND*%
X13614400Y-7950200D03*
%TD*%
D35*
%TO.P,D1,1,K*%
%TO.N,Net-(C1-Pad1)*%
X9920580Y-9306560D03*
%TO.P,D1,2,A*%
%TO.N,GND*%
X9520580Y-9306560D03*
%TD*%
D11*
%TO.P,J5,1,Pin_1*%
%TO.N,VCC*%
X10683240Y-9489440D03*
D12*
%TO.P,J5,2,Pin_2*%
%TO.N,/SDA*%
X10937240Y-9489440D03*
%TO.P,J5,3,Pin_3*%
%TO.N,/SCL*%
X11191240Y-9489440D03*
%TO.P,J5,4,Pin_4*%
%TO.N,/RST*%
X11445240Y-9489440D03*
%TO.P,J5,5,Pin_5*%
%TO.N,GND*%
X11699240Y-9489440D03*
%TO.P,J5,6,Pin_6*%
%TO.N,/BEEP*%
X11953240Y-9489440D03*
%TD*%
D10*
%TO.P,TP1,1,1*%
%TO.N,VCC*%
X9923780Y-8183880D03*
%TD*%
%TO.P,TP6,1,1*%
%TO.N,GND*%
X12369800Y-8018780D03*
%TD*%
D36*
%TO.P,U1,9,GND*%
%TO.N,GND*%
X9255760Y-8706983D03*
D35*
X9255760Y-8771983D03*
D36*
X9355760Y-8706983D03*
X9355760Y-8836983D03*
X9155760Y-8706983D03*
X9155760Y-8836983D03*
X9255760Y-8836983D03*
%TD*%
D37*
%TO.P,U2,21,GND*%
%TO.N,GND*%
X8360420Y-8705860D03*
X8475420Y-8820860D03*
X8475420Y-8705860D03*
X8360420Y-8820860D03*
D38*
X8417920Y-8763360D03*
%TD*%
D39*
%TO.N,VCC*%
X12085820Y-8612520D03*
X8463780Y-9333880D03*
X10916920Y-8827740D03*
X9045440Y-9394840D03*
%TO.N,Net-(C1-Pad1)*%
X9448800Y-8840500D03*
X9535660Y-9138300D03*
X9535160Y-9019540D03*
%TO.N,Net-(C1-Pad2)*%
X9448800Y-8685500D03*
%TO.N,GND*%
X8301220Y-9026380D03*
X13866360Y-9316100D03*
X12583660Y-7982600D03*
X13006630Y-9027870D03*
X12101060Y-8109600D03*
X15770961Y-9773300D03*
X8520057Y-9773300D03*
X10030960Y-8846200D03*
X9865860Y-8846200D03*
X8900660Y-9321180D03*
X12824960Y-8325500D03*
X11516860Y-9062100D03*
X8761754Y-9773300D03*
X10107160Y-8160400D03*
X11046960Y-8160400D03*
X8252960Y-8546480D03*
X12215360Y-8477900D03*
X10958060Y-8312800D03*
X11145060Y-8436300D03*
X14562477Y-9773300D03*
X11821660Y-9062100D03*
X11662115Y-9773300D03*
X11821660Y-8988440D03*
X13771760Y-7950200D03*
X8371840Y-9536540D03*
X11768320Y-8698880D03*
X12145509Y-9773300D03*
X14247360Y-8871600D03*
X12850360Y-8084200D03*
X11402560Y-8173100D03*
X8900660Y-9125600D03*
X11262860Y-8871600D03*
X13898760Y-7950200D03*
X9164977Y-9392143D03*
X11402560Y-8833500D03*
X14063980Y-9118600D03*
X10386560Y-8922400D03*
X11821660Y-8731900D03*
X12911380Y-9123120D03*
X13993360Y-8935100D03*
X12562720Y-7901940D03*
X9726160Y-8731900D03*
X8567500Y-8341160D03*
X13929860Y-8109600D03*
X8918440Y-8683640D03*
X11326360Y-9062100D03*
X11389860Y-9062100D03*
X13294860Y-9443100D03*
X11191240Y-8143120D03*
X10208760Y-8528700D03*
X13606780Y-8821420D03*
X12324580Y-8714120D03*
X12106140Y-9102740D03*
X11580360Y-8998600D03*
X14320780Y-9773300D03*
X13739360Y-8935100D03*
X14310860Y-8554100D03*
X8588240Y-9044320D03*
X15287567Y-9773300D03*
X12342360Y-7855600D03*
X15529264Y-9773300D03*
X9726160Y-8503300D03*
X11191240Y-8257420D03*
X13117060Y-8071500D03*
X12202660Y-7906400D03*
X9266577Y-9392143D03*
X10069060Y-8541400D03*
X13078960Y-8744600D03*
X11821660Y-9115440D03*
X9992860Y-8668400D03*
X12870599Y-9773300D03*
X11580360Y-9062100D03*
X14025760Y-7950200D03*
X10937025Y-9773300D03*
X11250160Y-8147700D03*
X10640560Y-8516000D03*
X9713460Y-8630300D03*
X13040860Y-9443100D03*
X12532860Y-8046100D03*
X13595690Y-9773300D03*
X14152760Y-7950200D03*
X12628902Y-9773300D03*
X13866360Y-8871600D03*
X12121380Y-9184020D03*
X13104360Y-7855600D03*
X11453360Y-9062100D03*
X11178722Y-9773300D03*
X12659860Y-9189100D03*
X12786860Y-9125600D03*
X10373860Y-8528700D03*
X13739360Y-8808100D03*
X12850360Y-9316100D03*
X9245147Y-9773300D03*
X8418060Y-8757300D03*
X11593060Y-8160400D03*
X11420418Y-9773300D03*
X9726160Y-8300100D03*
X12189960Y-8008000D03*
X14183860Y-8554100D03*
X12647160Y-8135000D03*
X12387206Y-9773300D03*
X13739360Y-9316100D03*
X9903960Y-8554100D03*
X11326360Y-8833500D03*
X12768320Y-9313920D03*
X14247360Y-8935100D03*
X9003450Y-9773300D03*
X13231360Y-9443100D03*
X11262860Y-9062100D03*
X8918440Y-8599150D03*
X12791320Y-7901940D03*
X10546580Y-9328800D03*
X13353993Y-9773300D03*
X13167860Y-9062100D03*
X13104360Y-9316100D03*
X13929860Y-8554100D03*
X11903812Y-9773300D03*
X9726160Y-8846200D03*
X12913860Y-9443100D03*
X11529560Y-8236600D03*
X10782800Y-8957960D03*
X9486844Y-9773300D03*
X13866360Y-8935100D03*
X8806680Y-9318640D03*
X13802860Y-8109600D03*
X14063980Y-8546980D03*
X13104360Y-9443100D03*
X12189960Y-9092580D03*
X12994520Y-7901940D03*
X12713200Y-8536320D03*
X12596360Y-9443100D03*
X13093580Y-8945880D03*
X12367760Y-8477900D03*
X13134220Y-7901940D03*
X12398240Y-8709040D03*
X14120360Y-8871600D03*
X12403320Y-9059560D03*
X11516860Y-8935100D03*
X9970238Y-9773300D03*
X10453631Y-9773300D03*
X16012660Y-9773300D03*
X13078960Y-8223900D03*
X8301220Y-9092580D03*
X14804174Y-9773300D03*
X10462760Y-8160400D03*
X10211934Y-9773300D03*
X12913860Y-9379600D03*
X12596360Y-9379600D03*
X10828520Y-8912240D03*
X12990060Y-8312800D03*
X10132560Y-8897000D03*
X10526260Y-8528700D03*
X10272260Y-8998600D03*
X10704060Y-8173100D03*
X10965680Y-8585200D03*
X8720320Y-9318640D03*
X10132560Y-9138300D03*
X8633960Y-9316100D03*
X8618720Y-8424560D03*
X12659860Y-9316100D03*
X10323060Y-9379600D03*
X8278360Y-9773300D03*
X14079083Y-9773300D03*
X8214860Y-8173100D03*
X11046960Y-8414400D03*
X14183860Y-8109600D03*
X10132560Y-9024000D03*
X10551660Y-8909700D03*
X12126460Y-8477900D03*
X12893540Y-8523620D03*
X9764260Y-8135000D03*
X10272260Y-8160400D03*
X8900660Y-9204340D03*
X13837386Y-9773300D03*
X10272260Y-8668400D03*
X15045870Y-9773300D03*
X11262860Y-8998600D03*
X13117060Y-8693800D03*
X13167860Y-9443100D03*
X13112296Y-9773300D03*
X10919960Y-8173100D03*
X14056860Y-8109600D03*
X12304260Y-8477900D03*
X14120360Y-8935100D03*
X11474370Y-8892610D03*
X13993360Y-8871600D03*
X13993360Y-9062100D03*
X10695328Y-9773300D03*
X13993360Y-9189100D03*
X9728541Y-9773300D03*
X10437360Y-9382140D03*
X12672560Y-8287400D03*
%TO.N,VBUS*%
X8482830Y-8185800D03*
X8981940Y-8528700D03*
X8482830Y-7933815D03*
X8428220Y-7934340D03*
X8537440Y-7987680D03*
X8537440Y-8185800D03*
X8428220Y-8132985D03*
X8537440Y-8079120D03*
X8537440Y-7881000D03*
X8428220Y-8079120D03*
X8482830Y-7986630D03*
X8428220Y-7987680D03*
X8428220Y-8186850D03*
X8428220Y-7881000D03*
X8984480Y-9013840D03*
X8482830Y-7881000D03*
X8482830Y-8131935D03*
X8432800Y-8534400D03*
X8918440Y-9013160D03*
X9319760Y-8186420D03*
X12073120Y-9638680D03*
X8482830Y-8078070D03*
X8537440Y-8132460D03*
X8537440Y-7934340D03*
%TO.N,/D6*%
X11336520Y-8521080D03*
%TO.N,P+*%
X13464540Y-9433560D03*
%TO.N,Net-(J1-PadA5)*%
X8697460Y-8652490D03*
%TO.N,Net-(J1-PadB5)*%
X8658860Y-8856980D03*
%TO.N,/MISO*%
X11816080Y-8242300D03*
%TO.N,/SCK*%
X11963400Y-8392160D03*
%TO.N,/MOSI*%
X11714480Y-8242300D03*
%TO.N,/TXD*%
X11295880Y-9384680D03*
%TO.N,/RXD*%
X11379700Y-9384680D03*
%TO.N,/D10*%
X12801600Y-8445300D03*
X13743940Y-8641080D03*
%TO.N,/ADC2*%
X11922760Y-9248140D03*
%TO.N,/CFG2*%
X8512040Y-9128140D03*
X8511304Y-9278770D03*
X8374880Y-9115440D03*
X8512040Y-9468500D03*
%TO.N,/BEEP*%
X11255240Y-8526160D03*
%TO.N,/ADC0*%
X13131800Y-8844280D03*
%TO.N,/D7*%
X11415260Y-8589660D03*
%TO.N,Net-(J1-PadA6)*%
X8700000Y-8748160D03*
%TO.N,Net-(J1-PadA7)*%
X8701150Y-8803978D03*
%TO.N,+24V*%
X8811760Y-8020700D03*
X8938760Y-8020700D03*
X8748260Y-8084200D03*
X8938760Y-8147700D03*
X8811760Y-8147700D03*
X9002260Y-8020700D03*
X8748260Y-7893700D03*
X8938760Y-7893700D03*
X9002260Y-8084200D03*
X8748260Y-7957200D03*
X9129260Y-7893700D03*
X8875260Y-8020700D03*
X8811760Y-7893700D03*
X8748260Y-8147700D03*
X8875260Y-7893700D03*
X8875260Y-8084200D03*
X8875260Y-8147700D03*
X9065760Y-7893700D03*
X9065760Y-7957200D03*
X8938760Y-8084200D03*
X8811760Y-7957200D03*
X8748260Y-8020700D03*
X8875260Y-7957200D03*
X8684760Y-8147700D03*
X8684760Y-8084200D03*
X9002260Y-7893700D03*
X8811760Y-8084200D03*
X8684760Y-7957200D03*
X8938760Y-7957200D03*
X8684760Y-7893700D03*
X8684760Y-8020700D03*
X9129260Y-7957200D03*
X9129260Y-8020700D03*
X9002260Y-8147700D03*
X9065760Y-8020700D03*
X9002260Y-7957200D03*
%TO.N,/D8*%
X11496540Y-8521080D03*
%TD*%
D40*
%TO.N,VCC*%
X9045440Y-9394840D02*
X9195300Y-9544700D01*
D41*
X10482580Y-8375570D02*
X9932790Y-8375570D01*
X9923780Y-8183880D02*
X9923780Y-8384580D01*
D42*
X12085820Y-8612520D02*
X12672560Y-8612520D01*
D43*
X10916920Y-8827740D02*
X10874240Y-8785060D01*
X10683240Y-8930520D02*
X10786020Y-8827740D01*
D44*
X8189460Y-9316100D02*
X8207240Y-9333880D01*
D41*
X9932790Y-8375570D02*
X9923780Y-8384580D01*
D43*
X10786020Y-8827740D02*
X10916920Y-8827740D01*
D44*
X8207240Y-9333880D02*
X8463780Y-9333880D01*
D43*
X10874240Y-8785060D02*
X10874240Y-8427100D01*
D40*
X12911220Y-8635600D02*
X13225780Y-8321040D01*
D43*
X10683240Y-9489440D02*
X10683240Y-8930520D01*
D44*
X8321040Y-8155820D02*
X8189460Y-8287400D01*
D42*
X12801600Y-8547300D02*
X12801600Y-8635600D01*
X12695640Y-8635600D02*
X12801600Y-8635600D01*
D43*
X13225780Y-8175140D02*
X13225780Y-8014540D01*
D44*
X8189460Y-8287400D02*
X8189460Y-9316100D01*
D41*
X10822710Y-8375570D02*
X10874240Y-8427100D01*
X10482580Y-8375570D02*
X10822710Y-8375570D01*
D40*
X12801600Y-8635600D02*
X12911220Y-8635600D01*
D44*
X8321040Y-8102800D02*
X8321040Y-8155820D01*
D40*
X13225780Y-8321040D02*
X13225780Y-8175140D01*
X10627980Y-9544700D02*
X10683240Y-9489440D01*
X9195300Y-9544700D02*
X10627980Y-9544700D01*
D42*
X12672560Y-8612520D02*
X12695640Y-8635600D01*
D43*
X13225780Y-8014540D02*
X13239320Y-8001000D01*
D45*
%TO.N,Net-(C1-Pad1)*%
X9923780Y-9303360D02*
X9923780Y-9024580D01*
D43*
X9535660Y-9138300D02*
X9535660Y-9020040D01*
D41*
X9535160Y-9019540D02*
X9540200Y-9024580D01*
D45*
X9920580Y-9306560D02*
X9923780Y-9303360D01*
D43*
X9535660Y-9020040D02*
X9535160Y-9019540D01*
D41*
X9540200Y-9024580D02*
X9923780Y-9024580D01*
D40*
%TO.N,GND*%
X10996160Y-8585200D02*
X10965680Y-8585200D01*
X13622020Y-8929400D02*
X13620780Y-8930640D01*
D42*
X12400160Y-7901940D02*
X12369800Y-7932300D01*
D40*
X13606780Y-8821420D02*
X13622020Y-8836660D01*
D42*
X13614400Y-7950200D02*
X13771760Y-7950200D01*
D46*
X8214360Y-8100300D02*
X8214360Y-8172600D01*
D47*
X8326780Y-8787220D02*
X8326780Y-9000820D01*
D40*
X12570840Y-8487600D02*
X12570840Y-8437600D01*
X13622020Y-8836660D02*
X13622020Y-8929400D01*
X8801780Y-9093160D02*
X8801780Y-9147160D01*
D42*
X13134220Y-7901940D02*
X12994520Y-7901940D01*
D43*
X8801780Y-9093160D02*
X8868220Y-9093160D01*
D42*
X12369800Y-7932300D02*
X12369800Y-8018780D01*
D47*
X8301220Y-9179600D02*
X8301220Y-9092580D01*
D40*
X13088620Y-8945880D02*
X13006630Y-9027870D01*
D42*
X13771760Y-7950200D02*
X13898760Y-7950200D01*
X13239320Y-7901940D02*
X13134220Y-7901940D01*
D46*
X8214360Y-8172600D02*
X8214860Y-8173100D01*
D40*
X11145060Y-8436300D02*
X11191240Y-8390120D01*
X12371220Y-9237980D02*
X12370840Y-9237600D01*
D43*
X8900660Y-9125600D02*
X8900660Y-9204340D01*
D40*
X11191240Y-8143120D02*
X11191240Y-7975600D01*
D47*
X8326780Y-9000820D02*
X8301220Y-9026380D01*
D46*
X8801780Y-8399160D02*
X8743780Y-8341160D01*
D42*
X14025760Y-7950200D02*
X14152760Y-7950200D01*
D47*
X8326780Y-8787220D02*
X8326780Y-8341160D01*
D40*
X8801780Y-9147160D02*
X8743780Y-9205160D01*
X11191240Y-8257420D02*
X11191240Y-8143120D01*
D47*
X8360420Y-8820860D02*
X8326780Y-8787220D01*
D40*
X13606780Y-8670140D02*
X13606780Y-8821420D01*
X13238280Y-8945880D02*
X13093580Y-8945880D01*
X14063980Y-9118600D02*
X14282680Y-9118600D01*
D47*
X8301220Y-9092580D02*
X8301220Y-9026380D01*
X12369800Y-8236560D02*
X12370840Y-8237600D01*
D40*
X13006630Y-9027870D02*
X12911380Y-9123120D01*
X14282680Y-9118600D02*
X14291520Y-9127440D01*
X13093580Y-8945880D02*
X13088620Y-8945880D01*
D43*
X8868220Y-9093160D02*
X8900660Y-9125600D01*
X9141960Y-9773300D02*
X16012660Y-9773300D01*
D40*
X12911380Y-9123120D02*
X12796520Y-9237980D01*
D42*
X12791320Y-7901940D02*
X12562720Y-7901940D01*
D40*
X12796520Y-9237980D02*
X12371220Y-9237980D01*
X13621920Y-9118600D02*
X14063980Y-9118600D01*
D46*
X8801780Y-8453160D02*
X8801780Y-8399160D01*
D47*
X8326780Y-9205160D02*
X8301220Y-9179600D01*
D43*
X8900660Y-9532000D02*
X9141960Y-9773300D01*
D47*
X12369800Y-8018780D02*
X12369800Y-8236560D01*
X8326780Y-9205160D02*
X8743780Y-9205160D01*
D40*
X13620780Y-8930640D02*
X13620780Y-9313560D01*
X12570840Y-8437600D02*
X12370840Y-8237600D01*
D43*
X8900660Y-9204340D02*
X8900660Y-9321180D01*
D42*
X12562720Y-7901940D02*
X12400160Y-7901940D01*
D45*
X11191240Y-7975600D02*
X11445240Y-7975600D01*
D43*
X8900660Y-9321180D02*
X8900660Y-9532000D01*
D42*
X14152760Y-7950200D02*
X14208660Y-7950200D01*
D40*
X11191240Y-8390120D02*
X11191240Y-8257420D01*
X11145060Y-8436300D02*
X10996160Y-8585200D01*
D42*
X14208660Y-7950200D02*
X14635480Y-8377020D01*
X12994520Y-7901940D02*
X12791320Y-7901940D01*
X13898760Y-7950200D02*
X14025760Y-7950200D01*
D46*
%TO.N,VBUS*%
X9190220Y-9638680D02*
X12073120Y-9638680D01*
D42*
X8432800Y-8534400D02*
X8486140Y-8534400D01*
D40*
X8984424Y-8249356D02*
X8981940Y-8251840D01*
D42*
X8595240Y-8546480D02*
X8444880Y-8546480D01*
D40*
X8984424Y-8249356D02*
X9167304Y-8249356D01*
X8482610Y-8129920D02*
X8602046Y-8249356D01*
D42*
X8482610Y-8179670D02*
X8482610Y-7944545D01*
D46*
X8987020Y-9016380D02*
X8987020Y-9435480D01*
D42*
X8787220Y-8998600D02*
X8636500Y-8998600D01*
X8445532Y-8547132D02*
X8432800Y-8534400D01*
D43*
X8981940Y-8528700D02*
X8977480Y-8533160D01*
D42*
X8735836Y-8533160D02*
X8721864Y-8547132D01*
D40*
X8602046Y-8249356D02*
X8984424Y-8249356D01*
D46*
X8984480Y-9013840D02*
X8987020Y-9016380D01*
D40*
X9167304Y-8249356D02*
X9230240Y-8186420D01*
D42*
X8801780Y-8533160D02*
X8735836Y-8533160D01*
X8721864Y-8547132D02*
X8445532Y-8547132D01*
D40*
X8801780Y-9013160D02*
X8918440Y-9013160D01*
D43*
X9230240Y-8186420D02*
X9319760Y-8186420D01*
D42*
X8444880Y-8546480D02*
X8432800Y-8534400D01*
D43*
X8981940Y-8528700D02*
X8981940Y-8434720D01*
D40*
X8981940Y-8251840D02*
X8981940Y-8434720D01*
D42*
X8595240Y-8957340D02*
X8595240Y-8546480D01*
D40*
X8801780Y-9013160D02*
X8983800Y-9013160D01*
X8983800Y-9013160D02*
X8984480Y-9013840D01*
D46*
X8987020Y-9435480D02*
X9190220Y-9638680D01*
D43*
X8977480Y-8533160D02*
X8801780Y-8533160D01*
D42*
X8636500Y-8998600D02*
X8595240Y-8957340D01*
X8482610Y-8530870D02*
X8482610Y-8179670D01*
X8801780Y-9013160D02*
X8787220Y-8998600D01*
D40*
%TO.N,Net-(C15-Pad1)*%
X13464540Y-8929400D02*
X13465780Y-8930640D01*
X13291920Y-9118600D02*
X13243360Y-9167160D01*
X13464540Y-8826500D02*
X13464540Y-8929400D01*
X13243360Y-9167160D02*
X13243360Y-9306560D01*
X13479780Y-8670140D02*
X13479780Y-8811260D01*
X13479780Y-8811260D02*
X13464540Y-8826500D01*
X13401040Y-9118600D02*
X13291920Y-9118600D01*
X13465780Y-8930640D02*
X13465780Y-9053860D01*
X13465780Y-9053860D02*
X13401040Y-9118600D01*
%TO.N,Net-(C13-Pad1)*%
X13342560Y-7950200D02*
X13341320Y-7951440D01*
X13341320Y-7901940D02*
X13341320Y-7951440D01*
X13459400Y-7950200D02*
X13342560Y-7950200D01*
X13341320Y-7951440D02*
X13341320Y-8001000D01*
X13606780Y-8175140D02*
X13606780Y-8097580D01*
X13606780Y-8097580D02*
X13459400Y-7950200D01*
%TO.N,/D6*%
X13326060Y-8327440D02*
X13841520Y-8327440D01*
D48*
X11422880Y-8521080D02*
X11760700Y-8858900D01*
X11760700Y-8858900D02*
X12823660Y-8858900D01*
D40*
X12839580Y-8737600D02*
X12915900Y-8737600D01*
X12801600Y-8737600D02*
X12839580Y-8737600D01*
D48*
X11336520Y-8521080D02*
X11422880Y-8521080D01*
X12823660Y-8858900D02*
X12827500Y-8855060D01*
D40*
X14291520Y-8327440D02*
X13841520Y-8327440D01*
D48*
X12827500Y-8855060D02*
X12827500Y-8749680D01*
X12827500Y-8749680D02*
X12839580Y-8737600D01*
D40*
X12915900Y-8737600D02*
X13326060Y-8327440D01*
%TO.N,Net-(R18-Pad1)*%
X13340080Y-8945680D02*
X13340280Y-8945880D01*
X13352780Y-8670140D02*
X13352780Y-8788400D01*
X13340080Y-8801100D02*
X13340080Y-8945680D01*
X13352780Y-8788400D02*
X13340080Y-8801100D01*
D47*
%TO.N,P+*%
X13464540Y-9433560D02*
X13464540Y-9314800D01*
D40*
X13458780Y-9306560D02*
X13465780Y-9313560D01*
D47*
X13464540Y-9314800D02*
X13465780Y-9313560D01*
D40*
X13345360Y-9306560D02*
X13458780Y-9306560D01*
%TO.N,Net-(D2-Pad2)*%
X8214360Y-8003300D02*
X8318540Y-8003300D01*
X8318540Y-8003300D02*
X8321040Y-8000800D01*
D44*
%TO.N,Net-(J1-PadA5)*%
X8801780Y-8648160D02*
X8701790Y-8648160D01*
X8701790Y-8648160D02*
X8697460Y-8652490D01*
%TO.N,Net-(J1-PadB5)*%
X8691620Y-8948160D02*
X8801780Y-8948160D01*
X8658860Y-8856980D02*
X8671560Y-8869680D01*
X8671560Y-8928100D02*
X8691620Y-8948160D01*
X8671560Y-8869680D02*
X8671560Y-8928100D01*
%TO.N,/MISO*%
X11816080Y-8387080D02*
X11811000Y-8392160D01*
X11816080Y-8242300D02*
X11816080Y-8387080D01*
%TO.N,/MOSI*%
X11714480Y-8242300D02*
X11681460Y-8242300D01*
X11658600Y-8265160D02*
X11658600Y-8392160D01*
X11681460Y-8242300D02*
X11658600Y-8265160D01*
D48*
%TO.N,/RST*%
X11496040Y-9438640D02*
X11445240Y-9489440D01*
X11496040Y-9255760D02*
X11496040Y-9438640D01*
%TO.N,/TXD*%
X11191240Y-9334500D02*
X11241420Y-9384680D01*
X11191240Y-9255760D02*
X11191240Y-9334500D01*
X11241420Y-9384680D02*
X11295880Y-9384680D01*
%TO.N,/RXD*%
X11343640Y-9255760D02*
X11343640Y-9348620D01*
X11343640Y-9348620D02*
X11379700Y-9384680D01*
D40*
%TO.N,/D10*%
X13829880Y-8727020D02*
X14635480Y-8727020D01*
X13743940Y-8641080D02*
X13829880Y-8727020D01*
D47*
%TO.N,/ADC2*%
X14635480Y-9427020D02*
X14141640Y-9427020D01*
X13975080Y-9593580D02*
X12331700Y-9593580D01*
X12331700Y-9593580D02*
X11986260Y-9248140D01*
X11986260Y-9248140D02*
X11922760Y-9248140D01*
X14141640Y-9427020D02*
X13975080Y-9593580D01*
D44*
%TO.N,/CFG2*%
X8387580Y-9128140D02*
X8374880Y-9115440D01*
D48*
X8511304Y-9278770D02*
X8512040Y-9279506D01*
X8512040Y-9279506D02*
X8512040Y-9468500D01*
D44*
X8512040Y-9128140D02*
X8387580Y-9128140D01*
D42*
%TO.N,/BEEP*%
X11742920Y-9279120D02*
X11953240Y-9489440D01*
X11742920Y-9018920D02*
X11742920Y-9279120D01*
X11255240Y-8526160D02*
X11255240Y-8531240D01*
X11255240Y-8531240D02*
X11742920Y-9018920D01*
D40*
%TO.N,Net-(U4-Pad6)*%
X13479780Y-8175140D02*
X13352780Y-8175140D01*
%TO.N,/ADC0*%
X13225780Y-8670140D02*
X13225780Y-8778240D01*
X13238480Y-8844080D02*
X13238280Y-8844280D01*
D48*
X13131800Y-8844280D02*
X13238280Y-8844280D01*
D40*
X13238480Y-8790940D02*
X13238480Y-8844080D01*
X13225780Y-8778240D02*
X13238480Y-8790940D01*
D48*
%TO.N,/D7*%
X12482780Y-8899540D02*
X11725140Y-8899540D01*
X11725140Y-8899540D02*
X11415260Y-8589660D01*
X12570840Y-8987600D02*
X12482780Y-8899540D01*
D44*
%TO.N,Net-(J1-PadA6)*%
X8881360Y-8748160D02*
X8801780Y-8748160D01*
X8801780Y-8848160D02*
X8878380Y-8848160D01*
X8801780Y-8748160D02*
X8700000Y-8748160D01*
X8895580Y-8762380D02*
X8881360Y-8748160D01*
X8878380Y-8848160D02*
X8895580Y-8830960D01*
X8895580Y-8830960D02*
X8895580Y-8762380D01*
%TO.N,Net-(J1-PadA7)*%
X8675320Y-8698160D02*
X8649200Y-8724280D01*
X8680638Y-8803978D02*
X8701150Y-8803978D01*
X8801780Y-8698160D02*
X8675320Y-8698160D01*
D48*
X8707520Y-8798160D02*
X8702040Y-8803640D01*
D44*
X8649200Y-8772540D02*
X8680638Y-8803978D01*
X8801780Y-8798160D02*
X8707520Y-8798160D01*
X8649200Y-8724280D02*
X8649200Y-8772540D01*
D45*
%TO.N,+24V*%
X11041380Y-7716520D02*
X14551660Y-7716520D01*
X9357490Y-7975600D02*
X10683240Y-7975600D01*
X14635480Y-7800340D02*
X14635480Y-8027020D01*
X10937240Y-7975600D02*
X10937240Y-7820660D01*
X14551660Y-7716520D02*
X14635480Y-7800340D01*
X8951265Y-7985890D02*
X9184510Y-7985890D01*
X10683240Y-7975600D02*
X10937240Y-7975600D01*
X10937240Y-7820660D02*
X11041380Y-7716520D01*
X9184510Y-7985890D02*
X9347200Y-7985890D01*
X8892610Y-8044545D02*
X8951265Y-7985890D01*
X9347200Y-7985890D02*
X9357490Y-7975600D01*
D48*
%TO.N,/D8*%
X12570840Y-8737600D02*
X12507960Y-8800480D01*
X11775940Y-8800480D02*
X11496540Y-8521080D01*
X12507960Y-8800480D02*
X11775940Y-8800480D01*
%TD*%
%TA.AperFunction,Conductor*%
%TO.N,VBUS*%
G36*
X8502222Y-7910365D02*
G01*
X8506871Y-7915731D01*
X8508010Y-7920965D01*
X8508010Y-8146565D01*
X8506010Y-8153377D01*
X8500644Y-8158026D01*
X8495410Y-8159165D01*
X8469810Y-8159165D01*
X8462998Y-8157165D01*
X8458349Y-8151799D01*
X8457210Y-8146565D01*
X8457210Y-7920965D01*
X8459210Y-7914153D01*
X8464576Y-7909504D01*
X8469810Y-7908365D01*
X8495410Y-7908365D01*
X8502222Y-7910365D01*
G37*
%TD.AperFunction*%
%TD*%
%TA.AperFunction,Conductor*%
%TO.N,GND*%
G36*
X14511301Y-7820091D02*
G01*
X14512502Y-7821116D01*
X14530883Y-7839498D01*
X14533706Y-7845038D01*
X14533830Y-7846612D01*
X14533830Y-7900599D01*
X14531909Y-7906512D01*
X14526879Y-7910167D01*
X14523770Y-7910659D01*
X14494830Y-7910659D01*
X14494345Y-7910756D01*
X14494345Y-7910756D01*
X14485385Y-7912538D01*
X14485385Y-7912538D01*
X14484900Y-7912634D01*
X14484445Y-7912823D01*
X14484444Y-7912823D01*
X14482693Y-7913549D01*
X14482068Y-7913808D01*
X14481074Y-7914220D01*
X14472655Y-7919845D01*
X14438305Y-7954195D01*
X14438030Y-7954605D01*
X14438030Y-7954605D01*
X14435148Y-7958919D01*
X14432680Y-7962613D01*
X14432201Y-7963769D01*
X14431095Y-7966440D01*
X14429119Y-7976370D01*
X14429119Y-8077669D01*
X14429216Y-8078154D01*
X14429216Y-8078155D01*
X14429821Y-8081196D01*
X14431094Y-8087599D01*
X14431284Y-8088056D01*
X14431506Y-8088594D01*
X14432353Y-8090638D01*
X14432680Y-8091426D01*
X14433648Y-8092876D01*
X14437097Y-8098037D01*
X14438305Y-8099845D01*
X14472655Y-8134196D01*
X14473066Y-8134470D01*
X14473066Y-8134470D01*
X14476834Y-8136988D01*
X14481074Y-8139820D01*
X14481530Y-8140009D01*
X14482067Y-8140232D01*
X14484444Y-8141216D01*
X14484444Y-8141217D01*
X14484900Y-8141405D01*
X14494830Y-8143381D01*
X14776130Y-8143381D01*
X14782032Y-8142207D01*
X14785575Y-8141502D01*
X14785576Y-8141502D01*
X14786060Y-8141405D01*
X14788730Y-8140299D01*
X14788893Y-8140232D01*
X14789430Y-8140009D01*
X14789430Y-8140009D01*
X14789887Y-8139820D01*
X14790769Y-8139231D01*
X14797895Y-8134469D01*
X14797895Y-8134469D01*
X14798305Y-8134195D01*
X14808736Y-8123764D01*
X14814276Y-8120941D01*
X14820417Y-8121914D01*
X14824813Y-8126310D01*
X14825910Y-8130877D01*
X14825910Y-8273235D01*
X14823989Y-8279148D01*
X14818959Y-8282802D01*
X14812741Y-8282802D01*
X14808736Y-8280348D01*
X14798618Y-8270230D01*
X14797858Y-8269606D01*
X14790278Y-8264541D01*
X14789410Y-8264077D01*
X14787035Y-8263094D01*
X14786497Y-8262871D01*
X14785555Y-8262585D01*
X14776615Y-8260807D01*
X14775635Y-8260710D01*
X14662473Y-8260710D01*
X14661184Y-8261129D01*
X14660880Y-8261548D01*
X14660880Y-8491736D01*
X14661299Y-8493025D01*
X14661718Y-8493330D01*
X14775636Y-8493330D01*
X14776615Y-8493233D01*
X14785557Y-8491455D01*
X14786497Y-8491169D01*
X14788711Y-8490252D01*
X14789410Y-8489962D01*
X14790279Y-8489498D01*
X14797859Y-8484433D01*
X14798618Y-8483810D01*
X14808736Y-8473692D01*
X14814276Y-8470869D01*
X14820417Y-8471842D01*
X14824813Y-8476238D01*
X14825910Y-8480805D01*
X14825910Y-8623163D01*
X14823989Y-8629076D01*
X14818959Y-8632730D01*
X14812741Y-8632730D01*
X14808736Y-8630276D01*
X14798305Y-8619845D01*
X14789886Y-8614220D01*
X14787054Y-8613047D01*
X14786059Y-8612635D01*
X14781046Y-8611637D01*
X14776615Y-8610756D01*
X14776614Y-8610756D01*
X14776129Y-8610659D01*
X14494830Y-8610659D01*
X14494345Y-8610756D01*
X14494345Y-8610756D01*
X14485385Y-8612538D01*
X14485385Y-8612538D01*
X14484900Y-8612635D01*
X14484445Y-8612823D01*
X14484444Y-8612823D01*
X14482068Y-8613808D01*
X14481074Y-8614220D01*
X14472655Y-8619845D01*
X14438305Y-8654195D01*
X14438030Y-8654605D01*
X14438030Y-8654605D01*
X14433539Y-8661327D01*
X14432680Y-8662613D01*
X14432201Y-8663770D01*
X14431095Y-8666440D01*
X14430998Y-8666924D01*
X14430770Y-8668073D01*
X14427732Y-8673497D01*
X14422086Y-8676100D01*
X14420903Y-8676170D01*
X13855110Y-8676170D01*
X13849197Y-8674249D01*
X13847996Y-8673224D01*
X13777567Y-8602795D01*
X13777314Y-8602542D01*
X13777028Y-8602328D01*
X13777028Y-8602327D01*
X13769184Y-8596448D01*
X13768610Y-8596018D01*
X13762092Y-8593575D01*
X13755642Y-8591157D01*
X13754972Y-8590906D01*
X13740446Y-8589826D01*
X13739746Y-8589976D01*
X13739745Y-8589976D01*
X13731491Y-8591738D01*
X13726201Y-8592867D01*
X13725570Y-8593207D01*
X13725570Y-8593207D01*
X13720826Y-8595767D01*
X13713382Y-8599784D01*
X13712872Y-8600288D01*
X13711773Y-8601373D01*
X13703020Y-8610020D01*
X13702338Y-8611247D01*
X13696811Y-8621198D01*
X13695947Y-8622753D01*
X13692733Y-8636960D01*
X13693634Y-8651498D01*
X13698580Y-8665198D01*
X13699003Y-8665777D01*
X13704448Y-8673230D01*
X13705182Y-8674235D01*
X13789098Y-8758151D01*
X13789909Y-8759165D01*
X13789911Y-8759164D01*
X13790375Y-8759710D01*
X13790758Y-8760316D01*
X13793171Y-8762448D01*
X13794851Y-8763931D01*
X13795305Y-8764358D01*
X13796505Y-8765558D01*
X13797425Y-8766247D01*
X13798049Y-8766756D01*
X13801675Y-8769958D01*
X13802491Y-8770341D01*
X13802618Y-8770401D01*
X13804375Y-8771456D01*
X13805209Y-8772082D01*
X13809740Y-8773780D01*
X13810481Y-8774092D01*
X13814860Y-8776148D01*
X13815568Y-8776258D01*
X13815569Y-8776259D01*
X13815890Y-8776309D01*
X13817873Y-8776829D01*
X13818177Y-8776943D01*
X13818177Y-8776943D01*
X13818848Y-8777194D01*
X13823670Y-8777553D01*
X13824472Y-8777645D01*
X13825919Y-8777870D01*
X13827566Y-8777870D01*
X13828312Y-8777898D01*
X13832659Y-8778221D01*
X13832659Y-8778221D01*
X13833374Y-8778274D01*
X13834228Y-8778092D01*
X13836328Y-8777870D01*
X14420903Y-8777870D01*
X14426816Y-8779791D01*
X14430471Y-8784821D01*
X14430770Y-8785967D01*
X14431094Y-8787600D01*
X14431284Y-8788056D01*
X14431506Y-8788594D01*
X14432384Y-8790714D01*
X14432680Y-8791427D01*
X14433822Y-8793136D01*
X14436863Y-8797688D01*
X14438305Y-8799845D01*
X14472655Y-8834196D01*
X14473066Y-8834470D01*
X14473066Y-8834470D01*
X14476321Y-8836645D01*
X14481074Y-8839820D01*
X14481530Y-8840010D01*
X14482067Y-8840232D01*
X14484444Y-8841217D01*
X14484444Y-8841217D01*
X14484900Y-8841405D01*
X14494830Y-8843381D01*
X14776130Y-8843381D01*
X14782092Y-8842195D01*
X14785575Y-8841502D01*
X14785576Y-8841502D01*
X14786060Y-8841405D01*
X14788730Y-8840299D01*
X14788893Y-8840232D01*
X14789430Y-8840010D01*
X14789430Y-8840009D01*
X14789887Y-8839820D01*
X14791830Y-8838522D01*
X14797895Y-8834470D01*
X14797895Y-8834469D01*
X14798305Y-8834195D01*
X14808736Y-8823764D01*
X14814276Y-8820941D01*
X14820417Y-8821914D01*
X14824813Y-8826310D01*
X14825910Y-8830877D01*
X14825910Y-8973163D01*
X14823989Y-8979076D01*
X14818959Y-8982730D01*
X14812741Y-8982730D01*
X14808736Y-8980276D01*
X14798305Y-8969845D01*
X14797552Y-8969342D01*
X14794244Y-8967131D01*
X14789886Y-8964220D01*
X14787054Y-8963047D01*
X14786059Y-8962635D01*
X14781046Y-8961637D01*
X14776615Y-8960756D01*
X14776614Y-8960756D01*
X14776129Y-8960659D01*
X14494830Y-8960659D01*
X14494345Y-8960756D01*
X14494345Y-8960756D01*
X14485385Y-8962538D01*
X14485385Y-8962538D01*
X14484900Y-8962635D01*
X14484445Y-8962823D01*
X14484444Y-8962823D01*
X14482068Y-8963808D01*
X14481074Y-8964220D01*
X14472655Y-8969845D01*
X14438305Y-9004195D01*
X14438030Y-9004605D01*
X14438030Y-9004605D01*
X14433543Y-9011320D01*
X14432680Y-9012613D01*
X14432201Y-9013770D01*
X14431095Y-9016440D01*
X14430998Y-9016924D01*
X14430998Y-9016924D01*
X14430792Y-9017960D01*
X14429119Y-9026370D01*
X14429119Y-9127669D01*
X14429216Y-9128154D01*
X14429216Y-9128155D01*
X14429299Y-9128575D01*
X14431094Y-9137600D01*
X14431284Y-9138056D01*
X14431506Y-9138594D01*
X14432433Y-9140831D01*
X14432680Y-9141427D01*
X14438305Y-9149845D01*
X14472655Y-9184196D01*
X14473066Y-9184470D01*
X14473066Y-9184470D01*
X14475501Y-9186097D01*
X14481074Y-9189820D01*
X14481530Y-9190010D01*
X14482067Y-9190232D01*
X14484444Y-9191217D01*
X14484444Y-9191217D01*
X14484900Y-9191405D01*
X14494830Y-9193381D01*
X14776130Y-9193381D01*
X14782032Y-9192207D01*
X14785575Y-9191502D01*
X14785576Y-9191502D01*
X14786060Y-9191405D01*
X14788730Y-9190299D01*
X14788893Y-9190232D01*
X14789430Y-9190010D01*
X14789430Y-9190009D01*
X14789887Y-9189820D01*
X14791738Y-9188583D01*
X14797895Y-9184470D01*
X14797895Y-9184469D01*
X14798305Y-9184195D01*
X14808736Y-9173764D01*
X14814276Y-9170941D01*
X14820417Y-9171914D01*
X14824813Y-9176310D01*
X14825910Y-9180877D01*
X14825910Y-9323163D01*
X14823989Y-9329076D01*
X14818959Y-9332730D01*
X14812741Y-9332730D01*
X14808736Y-9330276D01*
X14798305Y-9319845D01*
X14789886Y-9314220D01*
X14787054Y-9313047D01*
X14786059Y-9312635D01*
X14780519Y-9311533D01*
X14776615Y-9310756D01*
X14776614Y-9310756D01*
X14776129Y-9310659D01*
X14494830Y-9310659D01*
X14494345Y-9310756D01*
X14494345Y-9310756D01*
X14485385Y-9312538D01*
X14485385Y-9312538D01*
X14484900Y-9312635D01*
X14484445Y-9312823D01*
X14484444Y-9312823D01*
X14482542Y-9313611D01*
X14482068Y-9313808D01*
X14481074Y-9314220D01*
X14472655Y-9319845D01*
X14438305Y-9354195D01*
X14438030Y-9354606D01*
X14438030Y-9354606D01*
X14435094Y-9358999D01*
X14430212Y-9362848D01*
X14426730Y-9363470D01*
X14149635Y-9363470D01*
X14148688Y-9363425D01*
X14148286Y-9363387D01*
X14147668Y-9363249D01*
X14142061Y-9363425D01*
X14140801Y-9363465D01*
X14140485Y-9363470D01*
X14137642Y-9363470D01*
X14137328Y-9363510D01*
X14137328Y-9363510D01*
X14137196Y-9363526D01*
X14137119Y-9363536D01*
X14136174Y-9363610D01*
X14132252Y-9363734D01*
X14132252Y-9363734D01*
X14131619Y-9363754D01*
X14129473Y-9364377D01*
X14127927Y-9364697D01*
X14125710Y-9364977D01*
X14122827Y-9366119D01*
X14121474Y-9366655D01*
X14120577Y-9366962D01*
X14116809Y-9368056D01*
X14116809Y-9368056D01*
X14116201Y-9368233D01*
X14114276Y-9369371D01*
X14112860Y-9370065D01*
X14110781Y-9370888D01*
X14110270Y-9371260D01*
X14110269Y-9371260D01*
X14107094Y-9373567D01*
X14106302Y-9374087D01*
X14102925Y-9376085D01*
X14102924Y-9376085D01*
X14102380Y-9376407D01*
X14100800Y-9377987D01*
X14099600Y-9379012D01*
X14097791Y-9380326D01*
X14097388Y-9380813D01*
X14097388Y-9380814D01*
X14094886Y-9383838D01*
X14094248Y-9384539D01*
X13951703Y-9527084D01*
X13946163Y-9529906D01*
X13944590Y-9530030D01*
X12362190Y-9530030D01*
X12356277Y-9528109D01*
X12355077Y-9527084D01*
X12121607Y-9293614D01*
X12169530Y-9293614D01*
X12169627Y-9294593D01*
X12171405Y-9303535D01*
X12171691Y-9304474D01*
X12172898Y-9307388D01*
X12173362Y-9308256D01*
X12178427Y-9315837D01*
X12179050Y-9316596D01*
X12216844Y-9354390D01*
X12217604Y-9355014D01*
X12225185Y-9360079D01*
X12226051Y-9360542D01*
X12228965Y-9361749D01*
X12229905Y-9362035D01*
X12238847Y-9363813D01*
X12239827Y-9363910D01*
X12343847Y-9363910D01*
X12345136Y-9363491D01*
X12345440Y-9363072D01*
X12345440Y-9362316D01*
X12396240Y-9362316D01*
X12396659Y-9363605D01*
X12397078Y-9363910D01*
X12501853Y-9363910D01*
X12502833Y-9363813D01*
X12511775Y-9362035D01*
X12512714Y-9361749D01*
X12514929Y-9360832D01*
X12515628Y-9360542D01*
X12516496Y-9360078D01*
X12524077Y-9355013D01*
X12524836Y-9354390D01*
X12562630Y-9316596D01*
X12563254Y-9315836D01*
X12568319Y-9308255D01*
X12568782Y-9307389D01*
X12569989Y-9304475D01*
X12570274Y-9303535D01*
X12572053Y-9294593D01*
X12572150Y-9293613D01*
X12572150Y-9264593D01*
X12571731Y-9263304D01*
X12571312Y-9263000D01*
X12397833Y-9263000D01*
X12396544Y-9263419D01*
X12396240Y-9263838D01*
X12396240Y-9362316D01*
X12345440Y-9362316D01*
X12345440Y-9264593D01*
X12345021Y-9263304D01*
X12344602Y-9263000D01*
X12171124Y-9263000D01*
X12169835Y-9263419D01*
X12169530Y-9263838D01*
X12169530Y-9293614D01*
X12121607Y-9293614D01*
X12038600Y-9210607D01*
X12169530Y-9210607D01*
X12169949Y-9211896D01*
X12170368Y-9212200D01*
X12343847Y-9212200D01*
X12345136Y-9211781D01*
X12345440Y-9211362D01*
X12345440Y-9210607D01*
X12396240Y-9210607D01*
X12396659Y-9211896D01*
X12397078Y-9212200D01*
X12570556Y-9212200D01*
X12571845Y-9211781D01*
X12572150Y-9211362D01*
X12572150Y-9181586D01*
X12572053Y-9180607D01*
X12570275Y-9171666D01*
X12569989Y-9170725D01*
X12568782Y-9167811D01*
X12568319Y-9166945D01*
X12563253Y-9159363D01*
X12562630Y-9158604D01*
X12524836Y-9120810D01*
X12524076Y-9120187D01*
X12516496Y-9115122D01*
X12515628Y-9114658D01*
X12514929Y-9114368D01*
X12512715Y-9113451D01*
X12511774Y-9113165D01*
X12502833Y-9111387D01*
X12501853Y-9111290D01*
X12397833Y-9111290D01*
X12396544Y-9111709D01*
X12396240Y-9112128D01*
X12396240Y-9210607D01*
X12345440Y-9210607D01*
X12345440Y-9112884D01*
X12345021Y-9111595D01*
X12344602Y-9111290D01*
X12239826Y-9111290D01*
X12238847Y-9111387D01*
X12229906Y-9113165D01*
X12228965Y-9113451D01*
X12226051Y-9114658D01*
X12225185Y-9115121D01*
X12217603Y-9120187D01*
X12216844Y-9120810D01*
X12179050Y-9158604D01*
X12178426Y-9159364D01*
X12173362Y-9166944D01*
X12172897Y-9167812D01*
X12172608Y-9168511D01*
X12171691Y-9170725D01*
X12171405Y-9171666D01*
X12169627Y-9180607D01*
X12169530Y-9181587D01*
X12169530Y-9210607D01*
X12038600Y-9210607D01*
X12036851Y-9208857D01*
X12036213Y-9208157D01*
X12035954Y-9207844D01*
X12035615Y-9207310D01*
X12034014Y-9205806D01*
X12030607Y-9202607D01*
X12030380Y-9202387D01*
X12028369Y-9200376D01*
X12027952Y-9200053D01*
X12027232Y-9199437D01*
X12024372Y-9196752D01*
X12024372Y-9196751D01*
X12023911Y-9196318D01*
X12021951Y-9195241D01*
X12020633Y-9194375D01*
X12018867Y-9193005D01*
X12014684Y-9191195D01*
X12013833Y-9190778D01*
X12012091Y-9189820D01*
X12009840Y-9188583D01*
X12007675Y-9188027D01*
X12006182Y-9187516D01*
X12004712Y-9186880D01*
X12004711Y-9186880D01*
X12004131Y-9186628D01*
X11999630Y-9185915D01*
X11998703Y-9185724D01*
X11994288Y-9184590D01*
X11992053Y-9184590D01*
X11990479Y-9184466D01*
X11988897Y-9184216D01*
X11988897Y-9184216D01*
X11988272Y-9184117D01*
X11987643Y-9184176D01*
X11987642Y-9184176D01*
X11983735Y-9184545D01*
X11982788Y-9184590D01*
X11918762Y-9184590D01*
X11913523Y-9185252D01*
X11907458Y-9186018D01*
X11907458Y-9186018D01*
X11906830Y-9186097D01*
X11899781Y-9188888D01*
X11893180Y-9191502D01*
X11891901Y-9192008D01*
X11878911Y-9201446D01*
X11878508Y-9201933D01*
X11878508Y-9201934D01*
X11872291Y-9209448D01*
X11868676Y-9213818D01*
X11868407Y-9214390D01*
X11862801Y-9226303D01*
X11861840Y-9228346D01*
X11858831Y-9244118D01*
X11858984Y-9246542D01*
X11859800Y-9259511D01*
X11859800Y-9259511D01*
X11859839Y-9260143D01*
X11860035Y-9260745D01*
X11860035Y-9260745D01*
X11861740Y-9265992D01*
X11864801Y-9275413D01*
X11873405Y-9288970D01*
X11873866Y-9289404D01*
X11873866Y-9289404D01*
X11884648Y-9299528D01*
X11884648Y-9299529D01*
X11885109Y-9299962D01*
X11885664Y-9300267D01*
X11885664Y-9300267D01*
X11898625Y-9307392D01*
X11898625Y-9307392D01*
X11899180Y-9307697D01*
X11899793Y-9307854D01*
X11899793Y-9307854D01*
X11906660Y-9309618D01*
X11914732Y-9311690D01*
X11955770Y-9311690D01*
X11961683Y-9313611D01*
X11962883Y-9314637D01*
X12041013Y-9392766D01*
X12043836Y-9398306D01*
X12043300Y-9401686D01*
X12048232Y-9401621D01*
X12052362Y-9404115D01*
X12281109Y-9632863D01*
X12281747Y-9633564D01*
X12282006Y-9633876D01*
X12282345Y-9634410D01*
X12282806Y-9634844D01*
X12282806Y-9634844D01*
X12287354Y-9639115D01*
X12287581Y-9639335D01*
X12289591Y-9641344D01*
X12289840Y-9641537D01*
X12289840Y-9641538D01*
X12290006Y-9641666D01*
X12290727Y-9642282D01*
X12294049Y-9645402D01*
X12294604Y-9645706D01*
X12294604Y-9645707D01*
X12296008Y-9646479D01*
X12297327Y-9647345D01*
X12298593Y-9648327D01*
X12298593Y-9648327D01*
X12299093Y-9648715D01*
X12301935Y-9649945D01*
X12303275Y-9650524D01*
X12304126Y-9650941D01*
X12308120Y-9653137D01*
X12308732Y-9653294D01*
X12308733Y-9653295D01*
X12310284Y-9653693D01*
X12311778Y-9654204D01*
X12313248Y-9654840D01*
X12313248Y-9654840D01*
X12313829Y-9655092D01*
X12316963Y-9655588D01*
X12318330Y-9655805D01*
X12319257Y-9655996D01*
X12323672Y-9657130D01*
X12325907Y-9657130D01*
X12327481Y-9657254D01*
X12328194Y-9657367D01*
X12329063Y-9657505D01*
X12329063Y-9657505D01*
X12329688Y-9657604D01*
X12330317Y-9657544D01*
X12330318Y-9657544D01*
X12334225Y-9657175D01*
X12335172Y-9657130D01*
X13967085Y-9657130D01*
X13968032Y-9657175D01*
X13968434Y-9657213D01*
X13969052Y-9657351D01*
X13975919Y-9657135D01*
X13976235Y-9657130D01*
X13979078Y-9657130D01*
X13979391Y-9657090D01*
X13979392Y-9657090D01*
X13979524Y-9657074D01*
X13979601Y-9657064D01*
X13980546Y-9656990D01*
X13984468Y-9656866D01*
X13984468Y-9656866D01*
X13985100Y-9656847D01*
X13987247Y-9656223D01*
X13988792Y-9655903D01*
X13988982Y-9655879D01*
X13991010Y-9655623D01*
X13995246Y-9653946D01*
X13996143Y-9653639D01*
X13999911Y-9652544D01*
X13999911Y-9652544D01*
X14000519Y-9652367D01*
X14002444Y-9651229D01*
X14003860Y-9650535D01*
X14005939Y-9649712D01*
X14006450Y-9649340D01*
X14006451Y-9649340D01*
X14009626Y-9647033D01*
X14010418Y-9646513D01*
X14013795Y-9644516D01*
X14013796Y-9644515D01*
X14014340Y-9644193D01*
X14015920Y-9642613D01*
X14017120Y-9641588D01*
X14018416Y-9640646D01*
X14018929Y-9640274D01*
X14019634Y-9639421D01*
X14021834Y-9636762D01*
X14022472Y-9636061D01*
X14165017Y-9493517D01*
X14170557Y-9490694D01*
X14172130Y-9490570D01*
X14426730Y-9490570D01*
X14432643Y-9492491D01*
X14435095Y-9495041D01*
X14438305Y-9499845D01*
X14472655Y-9534196D01*
X14473066Y-9534470D01*
X14473066Y-9534470D01*
X14473195Y-9534557D01*
X14481074Y-9539820D01*
X14481530Y-9540010D01*
X14482067Y-9540232D01*
X14484444Y-9541217D01*
X14484444Y-9541217D01*
X14484900Y-9541405D01*
X14494830Y-9543381D01*
X14776130Y-9543381D01*
X14782032Y-9542207D01*
X14785575Y-9541502D01*
X14785576Y-9541502D01*
X14786060Y-9541405D01*
X14788730Y-9540299D01*
X14788893Y-9540232D01*
X14789430Y-9540010D01*
X14789430Y-9540009D01*
X14789887Y-9539820D01*
X14790364Y-9539501D01*
X14797895Y-9534470D01*
X14797895Y-9534469D01*
X14798305Y-9534195D01*
X14808736Y-9523764D01*
X14814276Y-9520941D01*
X14820417Y-9521914D01*
X14824813Y-9526310D01*
X14825910Y-9530877D01*
X14825910Y-9584103D01*
X14825717Y-9586065D01*
X14825411Y-9587600D01*
X14825910Y-9590107D01*
X14827387Y-9597530D01*
X14833012Y-9605948D01*
X14841430Y-9611573D01*
X14851360Y-9613549D01*
X14852332Y-9613355D01*
X14852332Y-9613355D01*
X14852895Y-9613243D01*
X14854857Y-9613050D01*
X16115850Y-9613050D01*
X16121763Y-9614971D01*
X16125418Y-9620001D01*
X16125910Y-9623110D01*
X16125910Y-9852090D01*
X16123989Y-9858003D01*
X16118959Y-9861658D01*
X16115850Y-9862150D01*
X8186870Y-9862150D01*
X8180957Y-9860229D01*
X8177302Y-9855199D01*
X8176810Y-9852090D01*
X8176810Y-9375153D01*
X8178731Y-9369240D01*
X8183761Y-9365586D01*
X8189979Y-9365586D01*
X8190849Y-9365938D01*
X8191357Y-9366301D01*
X8196006Y-9367691D01*
X8196454Y-9367837D01*
X8201033Y-9369445D01*
X8201555Y-9369490D01*
X8201771Y-9369490D01*
X8201947Y-9369498D01*
X8202085Y-9369509D01*
X8202715Y-9369698D01*
X8207803Y-9369498D01*
X8208198Y-9369490D01*
X8431628Y-9369490D01*
X8437202Y-9371176D01*
X8443873Y-9375616D01*
X8456387Y-9379526D01*
X8460376Y-9379599D01*
X8464014Y-9379666D01*
X8469891Y-9381695D01*
X8473453Y-9386791D01*
X8473890Y-9389724D01*
X8473890Y-9439807D01*
X8472936Y-9444083D01*
X8467820Y-9454981D01*
X8467710Y-9455689D01*
X8465974Y-9466835D01*
X8465803Y-9467935D01*
X8465896Y-9468645D01*
X8467094Y-9477812D01*
X8467503Y-9480935D01*
X8472783Y-9492935D01*
X8481219Y-9502971D01*
X8486959Y-9506792D01*
X8491536Y-9509839D01*
X8491537Y-9509839D01*
X8492133Y-9510236D01*
X8504647Y-9514146D01*
X8511034Y-9514263D01*
X8517039Y-9514373D01*
X8517039Y-9514373D01*
X8517755Y-9514386D01*
X8530404Y-9510938D01*
X8531199Y-9510450D01*
X8540967Y-9504452D01*
X8540967Y-9504452D01*
X8541577Y-9504078D01*
X8550375Y-9494358D01*
X8550688Y-9493713D01*
X8550688Y-9493713D01*
X8555779Y-9483203D01*
X8556092Y-9482559D01*
X8557923Y-9471672D01*
X8558203Y-9470013D01*
X8558203Y-9470012D01*
X8558267Y-9469630D01*
X8558281Y-9468500D01*
X8556422Y-9455522D01*
X8551092Y-9443799D01*
X8550190Y-9439636D01*
X8550190Y-9305799D01*
X8551197Y-9301413D01*
X8553082Y-9297521D01*
X8555355Y-9292829D01*
X8556882Y-9283756D01*
X8557466Y-9280283D01*
X8557466Y-9280282D01*
X8557531Y-9279900D01*
X8557544Y-9278770D01*
X8555686Y-9265792D01*
X8555145Y-9264602D01*
X8550556Y-9254510D01*
X8550259Y-9253857D01*
X8541701Y-9243925D01*
X8535887Y-9240156D01*
X8531301Y-9237184D01*
X8531301Y-9237184D01*
X8530700Y-9236794D01*
X8518139Y-9233037D01*
X8517422Y-9233033D01*
X8517422Y-9233033D01*
X8511751Y-9232998D01*
X8505028Y-9232957D01*
X8504339Y-9233154D01*
X8504339Y-9233154D01*
X8498725Y-9234759D01*
X8492422Y-9236560D01*
X8491816Y-9236942D01*
X8491816Y-9236942D01*
X8484565Y-9241517D01*
X8481334Y-9243556D01*
X8479298Y-9245861D01*
X8474283Y-9251541D01*
X8472655Y-9253383D01*
X8472351Y-9254031D01*
X8472351Y-9254032D01*
X8470952Y-9257011D01*
X8467084Y-9265251D01*
X8466968Y-9265992D01*
X8465222Y-9277206D01*
X8465067Y-9278205D01*
X8465119Y-9278604D01*
X8463172Y-9284356D01*
X8458097Y-9287949D01*
X8457566Y-9288068D01*
X8457504Y-9288067D01*
X8457281Y-9288131D01*
X8457281Y-9288131D01*
X8453390Y-9289243D01*
X8444899Y-9291670D01*
X8444293Y-9292052D01*
X8444292Y-9292052D01*
X8436898Y-9296718D01*
X8431530Y-9298270D01*
X8401602Y-9298270D01*
X8395689Y-9296349D01*
X8392034Y-9291319D01*
X8392034Y-9285101D01*
X8395689Y-9280071D01*
X8398170Y-9278754D01*
X8411382Y-9273958D01*
X8412421Y-9273438D01*
X8426302Y-9264336D01*
X8427193Y-9263592D01*
X8438609Y-9251541D01*
X8439305Y-9250611D01*
X8447642Y-9236257D01*
X8448105Y-9235192D01*
X8449046Y-9232085D01*
X8449039Y-9231717D01*
X8621466Y-9231717D01*
X8626111Y-9242632D01*
X8626687Y-9243642D01*
X8636525Y-9257011D01*
X8637317Y-9257860D01*
X8649968Y-9268608D01*
X8650934Y-9269252D01*
X8665718Y-9276801D01*
X8666806Y-9277206D01*
X8683062Y-9281184D01*
X8683945Y-9281318D01*
X8684463Y-9281350D01*
X8684776Y-9281360D01*
X8716787Y-9281360D01*
X8718076Y-9280941D01*
X8718380Y-9280522D01*
X8718380Y-9279767D01*
X8769180Y-9279767D01*
X8769599Y-9281056D01*
X8770018Y-9281360D01*
X8798736Y-9281360D01*
X8799320Y-9281326D01*
X8811648Y-9279889D01*
X8812779Y-9279622D01*
X8828382Y-9273958D01*
X8829421Y-9273438D01*
X8843302Y-9264336D01*
X8844193Y-9263592D01*
X8855609Y-9251541D01*
X8856305Y-9250611D01*
X8864642Y-9236257D01*
X8865105Y-9235192D01*
X8866046Y-9232085D01*
X8866022Y-9230891D01*
X8864966Y-9230560D01*
X8770773Y-9230560D01*
X8769484Y-9230979D01*
X8769180Y-9231398D01*
X8769180Y-9279767D01*
X8718380Y-9279767D01*
X8718380Y-9232153D01*
X8717961Y-9230864D01*
X8717542Y-9230560D01*
X8622567Y-9230560D01*
X8621466Y-9230918D01*
X8621466Y-9231717D01*
X8449039Y-9231717D01*
X8449022Y-9230891D01*
X8447966Y-9230560D01*
X8311440Y-9230560D01*
X8305527Y-9228639D01*
X8301872Y-9223609D01*
X8301380Y-9220500D01*
X8301380Y-9130553D01*
X8300961Y-9129264D01*
X8300542Y-9128960D01*
X8271824Y-9128960D01*
X8271240Y-9128994D01*
X8258912Y-9130431D01*
X8257781Y-9130699D01*
X8242178Y-9136362D01*
X8241139Y-9136882D01*
X8240646Y-9137206D01*
X8234647Y-9138841D01*
X8228833Y-9136638D01*
X8225424Y-9131439D01*
X8225070Y-9128793D01*
X8225070Y-9114875D01*
X8328643Y-9114875D01*
X8329164Y-9118864D01*
X8330035Y-9125522D01*
X8330343Y-9127875D01*
X8335623Y-9139875D01*
X8344059Y-9149911D01*
X8344655Y-9150308D01*
X8344656Y-9150308D01*
X8347694Y-9152331D01*
X8351552Y-9157207D01*
X8352180Y-9160706D01*
X8352180Y-9178167D01*
X8352599Y-9179456D01*
X8353018Y-9179760D01*
X8447993Y-9179760D01*
X8449094Y-9179402D01*
X8449094Y-9178603D01*
X8448731Y-9177749D01*
X8448183Y-9171556D01*
X8451381Y-9166224D01*
X8457102Y-9163789D01*
X8457987Y-9163750D01*
X8479888Y-9163750D01*
X8485462Y-9165436D01*
X8492133Y-9169876D01*
X8504647Y-9173786D01*
X8511034Y-9173903D01*
X8517039Y-9174013D01*
X8517039Y-9174013D01*
X8517755Y-9174026D01*
X8526411Y-9171666D01*
X8529713Y-9170766D01*
X8530404Y-9170578D01*
X8531199Y-9170090D01*
X8540967Y-9164092D01*
X8540967Y-9164092D01*
X8541577Y-9163718D01*
X8550375Y-9153998D01*
X8550688Y-9153353D01*
X8550688Y-9153353D01*
X8553573Y-9147397D01*
X8556092Y-9142199D01*
X8558267Y-9129270D01*
X8558281Y-9128140D01*
X8556422Y-9115162D01*
X8555970Y-9114167D01*
X8551292Y-9103880D01*
X8550996Y-9103227D01*
X8543135Y-9094104D01*
X8542905Y-9093838D01*
X8542438Y-9093295D01*
X8534940Y-9088435D01*
X8532037Y-9086554D01*
X8532037Y-9086554D01*
X8531436Y-9086164D01*
X8518875Y-9082407D01*
X8518158Y-9082403D01*
X8518158Y-9082403D01*
X8512488Y-9082368D01*
X8505764Y-9082327D01*
X8505076Y-9082524D01*
X8505075Y-9082524D01*
X8499461Y-9084129D01*
X8493159Y-9085930D01*
X8492553Y-9086312D01*
X8492552Y-9086312D01*
X8489733Y-9088091D01*
X8488468Y-9088889D01*
X8485158Y-9090978D01*
X8479790Y-9092530D01*
X8420173Y-9092530D01*
X8414260Y-9090609D01*
X8412552Y-9089037D01*
X8405278Y-9080595D01*
X8399000Y-9076526D01*
X8394877Y-9073854D01*
X8394877Y-9073854D01*
X8394276Y-9073464D01*
X8381715Y-9069707D01*
X8380998Y-9069703D01*
X8380998Y-9069703D01*
X8375328Y-9069668D01*
X8368604Y-9069627D01*
X8367915Y-9069824D01*
X8367915Y-9069824D01*
X8366076Y-9070350D01*
X8355998Y-9073230D01*
X8355392Y-9073612D01*
X8355392Y-9073612D01*
X8345867Y-9079622D01*
X8344910Y-9080226D01*
X8341281Y-9084336D01*
X8337259Y-9088889D01*
X8336232Y-9090053D01*
X8335927Y-9090701D01*
X8335927Y-9090702D01*
X8334893Y-9092905D01*
X8330660Y-9101921D01*
X8330184Y-9104977D01*
X8328865Y-9113451D01*
X8328643Y-9114875D01*
X8225070Y-9114875D01*
X8225070Y-8820948D01*
X8309598Y-8820948D01*
X8309935Y-8823524D01*
X8310020Y-8824828D01*
X8310020Y-8847868D01*
X8310116Y-8848846D01*
X8311300Y-8854799D01*
X8312044Y-8856595D01*
X8316557Y-8863349D01*
X8317931Y-8864723D01*
X8324686Y-8869236D01*
X8326481Y-8869980D01*
X8332433Y-8871164D01*
X8333413Y-8871260D01*
X8359644Y-8871260D01*
X8359828Y-8871262D01*
X8365997Y-8871375D01*
X8366300Y-8871337D01*
X8367543Y-8871260D01*
X8373871Y-8871260D01*
X8375131Y-8870851D01*
X8386439Y-8870851D01*
X8388144Y-8871260D01*
X8390927Y-8871260D01*
X8392216Y-8870841D01*
X8392520Y-8870422D01*
X8392520Y-8869667D01*
X8443320Y-8869667D01*
X8443739Y-8870956D01*
X8444158Y-8871260D01*
X8447293Y-8871260D01*
X8448553Y-8870851D01*
X8459861Y-8870851D01*
X8461566Y-8871260D01*
X8474640Y-8871260D01*
X8474825Y-8871262D01*
X8480997Y-8871375D01*
X8481299Y-8871337D01*
X8482543Y-8871260D01*
X8502428Y-8871260D01*
X8503406Y-8871164D01*
X8509359Y-8869980D01*
X8511155Y-8869236D01*
X8517909Y-8864723D01*
X8519283Y-8863349D01*
X8523796Y-8856594D01*
X8524540Y-8854799D01*
X8525724Y-8848847D01*
X8525820Y-8847867D01*
X8525820Y-8825935D01*
X8525959Y-8824266D01*
X8526259Y-8822487D01*
X8526328Y-8821715D01*
X8526334Y-8821250D01*
X8526283Y-8820475D01*
X8525922Y-8817950D01*
X8525820Y-8816524D01*
X8525820Y-8807409D01*
X8525347Y-8805952D01*
X8524451Y-8807185D01*
X8501641Y-8829994D01*
X8461745Y-8869891D01*
X8459861Y-8870851D01*
X8448553Y-8870851D01*
X8448750Y-8870787D01*
X8447518Y-8869891D01*
X8444447Y-8866820D01*
X8443457Y-8866315D01*
X8443320Y-8866884D01*
X8443320Y-8869667D01*
X8392520Y-8869667D01*
X8392520Y-8867287D01*
X8392177Y-8866230D01*
X8391678Y-8866535D01*
X8388322Y-8869891D01*
X8386439Y-8870851D01*
X8375131Y-8870851D01*
X8375328Y-8870787D01*
X8374095Y-8869891D01*
X8334199Y-8829994D01*
X8311389Y-8807185D01*
X8310429Y-8805301D01*
X8310020Y-8807006D01*
X8310020Y-8816155D01*
X8309900Y-8817702D01*
X8309616Y-8819530D01*
X8309598Y-8820948D01*
X8225070Y-8820948D01*
X8225070Y-8792733D01*
X8310020Y-8792733D01*
X8310493Y-8794190D01*
X8311389Y-8792958D01*
X8314460Y-8789887D01*
X8314859Y-8789103D01*
X8520790Y-8789103D01*
X8521095Y-8789602D01*
X8524451Y-8792958D01*
X8525411Y-8794841D01*
X8525820Y-8793136D01*
X8525820Y-8790353D01*
X8525401Y-8789064D01*
X8524982Y-8788760D01*
X8521847Y-8788760D01*
X8520790Y-8789103D01*
X8314859Y-8789103D01*
X8314965Y-8788897D01*
X8314396Y-8788760D01*
X8311613Y-8788760D01*
X8310324Y-8789179D01*
X8310020Y-8789598D01*
X8310020Y-8792733D01*
X8225070Y-8792733D01*
X8225070Y-8736367D01*
X8310020Y-8736367D01*
X8310439Y-8737656D01*
X8310858Y-8737960D01*
X8313993Y-8737960D01*
X8314414Y-8737824D01*
X8520875Y-8737824D01*
X8521444Y-8737960D01*
X8524227Y-8737960D01*
X8525516Y-8737541D01*
X8525820Y-8737122D01*
X8525820Y-8733987D01*
X8525347Y-8732530D01*
X8524451Y-8733762D01*
X8521380Y-8736833D01*
X8520875Y-8737824D01*
X8314414Y-8737824D01*
X8315050Y-8737617D01*
X8314745Y-8737118D01*
X8311389Y-8733762D01*
X8310429Y-8731879D01*
X8310020Y-8733584D01*
X8310020Y-8736367D01*
X8225070Y-8736367D01*
X8225070Y-8705948D01*
X8309598Y-8705948D01*
X8309935Y-8708523D01*
X8310020Y-8709828D01*
X8310020Y-8719311D01*
X8310493Y-8720768D01*
X8311389Y-8719535D01*
X8352566Y-8678358D01*
X8374095Y-8656829D01*
X8375853Y-8655934D01*
X8387090Y-8655934D01*
X8388322Y-8656829D01*
X8391393Y-8659900D01*
X8392384Y-8660405D01*
X8392520Y-8659836D01*
X8392520Y-8659434D01*
X8443320Y-8659434D01*
X8443663Y-8660490D01*
X8444162Y-8660185D01*
X8447518Y-8656829D01*
X8449276Y-8655933D01*
X8460512Y-8655933D01*
X8461745Y-8656829D01*
X8483274Y-8678358D01*
X8524451Y-8719535D01*
X8525411Y-8721419D01*
X8525820Y-8719714D01*
X8525820Y-8710935D01*
X8525959Y-8709266D01*
X8526259Y-8707487D01*
X8526328Y-8706715D01*
X8526334Y-8706250D01*
X8526283Y-8705475D01*
X8525922Y-8702950D01*
X8525820Y-8701523D01*
X8525820Y-8678852D01*
X8525724Y-8677874D01*
X8524540Y-8671921D01*
X8523796Y-8670126D01*
X8519283Y-8663372D01*
X8517909Y-8661997D01*
X8511154Y-8657484D01*
X8509359Y-8656740D01*
X8503407Y-8655557D01*
X8502427Y-8655460D01*
X8476267Y-8655460D01*
X8476205Y-8655460D01*
X8468887Y-8655415D01*
X8468228Y-8655460D01*
X8461969Y-8655460D01*
X8460512Y-8655933D01*
X8449276Y-8655933D01*
X8449401Y-8655869D01*
X8447696Y-8655460D01*
X8444913Y-8655460D01*
X8443624Y-8655879D01*
X8443320Y-8656298D01*
X8443320Y-8659434D01*
X8392520Y-8659434D01*
X8392520Y-8657053D01*
X8392101Y-8655764D01*
X8391682Y-8655460D01*
X8388547Y-8655460D01*
X8387090Y-8655934D01*
X8375853Y-8655934D01*
X8375979Y-8655870D01*
X8374274Y-8655460D01*
X8361278Y-8655460D01*
X8361216Y-8655460D01*
X8353888Y-8655415D01*
X8353227Y-8655460D01*
X8333412Y-8655460D01*
X8332434Y-8655557D01*
X8326481Y-8656740D01*
X8324685Y-8657484D01*
X8317931Y-8661997D01*
X8316557Y-8663372D01*
X8312044Y-8670126D01*
X8311300Y-8671921D01*
X8310116Y-8677873D01*
X8310020Y-8678853D01*
X8310020Y-8701155D01*
X8309900Y-8702703D01*
X8309616Y-8704530D01*
X8309598Y-8705948D01*
X8225070Y-8705948D01*
X8225070Y-8417159D01*
X8226991Y-8411246D01*
X8232021Y-8407591D01*
X8238239Y-8407591D01*
X8239705Y-8408199D01*
X8248718Y-8412801D01*
X8249805Y-8413206D01*
X8266062Y-8417184D01*
X8266945Y-8417318D01*
X8267463Y-8417350D01*
X8267776Y-8417360D01*
X8299787Y-8417360D01*
X8301076Y-8416941D01*
X8301380Y-8416522D01*
X8301380Y-8266553D01*
X8300961Y-8265264D01*
X8300542Y-8264960D01*
X8286547Y-8264960D01*
X8280634Y-8263039D01*
X8276979Y-8258009D01*
X8276979Y-8251791D01*
X8279434Y-8247786D01*
X8284531Y-8242690D01*
X8342775Y-8184445D01*
X8344432Y-8183107D01*
X8344639Y-8182973D01*
X8345337Y-8182522D01*
X8347353Y-8179966D01*
X8347750Y-8179519D01*
X8347750Y-8179518D01*
X8348019Y-8179202D01*
X8348312Y-8178908D01*
X8349391Y-8177398D01*
X8349671Y-8177026D01*
X8352677Y-8173212D01*
X8352938Y-8172469D01*
X8353003Y-8172344D01*
X8353461Y-8171703D01*
X8354851Y-8167054D01*
X8354997Y-8166606D01*
X8356605Y-8162027D01*
X8356650Y-8161505D01*
X8356650Y-8161288D01*
X8356658Y-8161112D01*
X8356669Y-8160975D01*
X8356858Y-8160345D01*
X8356762Y-8157905D01*
X8358450Y-8151921D01*
X8361253Y-8149466D01*
X8361105Y-8149259D01*
X8361781Y-8148775D01*
X8362527Y-8148408D01*
X8363780Y-8147153D01*
X8369318Y-8144325D01*
X8375459Y-8145293D01*
X8379860Y-8149685D01*
X8380960Y-8154260D01*
X8380960Y-8212472D01*
X8381246Y-8213907D01*
X8382068Y-8218040D01*
X8382437Y-8219895D01*
X8382987Y-8220719D01*
X8382987Y-8220719D01*
X8384694Y-8223273D01*
X8388062Y-8228313D01*
X8388885Y-8228864D01*
X8390449Y-8229908D01*
X8396480Y-8233938D01*
X8400361Y-8234710D01*
X8403418Y-8235318D01*
X8403418Y-8235318D01*
X8403903Y-8235415D01*
X8429320Y-8235415D01*
X8435233Y-8237336D01*
X8438888Y-8242366D01*
X8439380Y-8245475D01*
X8439380Y-8271926D01*
X8437459Y-8277839D01*
X8432429Y-8281494D01*
X8426211Y-8281494D01*
X8422807Y-8279593D01*
X8420593Y-8277712D01*
X8419626Y-8277068D01*
X8404842Y-8269519D01*
X8403755Y-8269114D01*
X8387498Y-8265136D01*
X8386615Y-8265002D01*
X8386097Y-8264970D01*
X8385784Y-8264960D01*
X8353773Y-8264960D01*
X8352484Y-8265379D01*
X8352180Y-8265798D01*
X8352180Y-8415767D01*
X8352599Y-8417056D01*
X8353018Y-8417360D01*
X8381736Y-8417360D01*
X8382320Y-8417326D01*
X8394648Y-8415889D01*
X8395779Y-8415622D01*
X8411382Y-8409958D01*
X8412421Y-8409438D01*
X8423804Y-8401974D01*
X8429803Y-8400339D01*
X8435617Y-8402542D01*
X8439026Y-8407741D01*
X8439380Y-8410387D01*
X8439380Y-8478544D01*
X8437459Y-8484457D01*
X8432429Y-8488112D01*
X8429259Y-8488604D01*
X8426524Y-8488587D01*
X8425836Y-8488784D01*
X8425835Y-8488784D01*
X8420221Y-8490389D01*
X8413919Y-8492190D01*
X8413313Y-8492572D01*
X8413312Y-8492572D01*
X8407406Y-8496299D01*
X8402831Y-8499186D01*
X8400856Y-8501422D01*
X8394956Y-8508102D01*
X8394152Y-8509013D01*
X8393847Y-8509661D01*
X8393847Y-8509662D01*
X8392956Y-8511559D01*
X8388580Y-8520881D01*
X8388325Y-8522519D01*
X8387086Y-8530476D01*
X8386563Y-8533835D01*
X8387185Y-8538595D01*
X8388071Y-8545372D01*
X8388263Y-8546835D01*
X8393543Y-8558835D01*
X8401979Y-8568871D01*
X8411308Y-8575081D01*
X8412893Y-8576136D01*
X8412860Y-8576186D01*
X8414869Y-8577606D01*
X8419805Y-8582542D01*
X8422170Y-8583747D01*
X8423515Y-8584571D01*
X8425661Y-8586130D01*
X8428184Y-8586950D01*
X8429642Y-8587554D01*
X8432007Y-8588759D01*
X8434629Y-8589174D01*
X8436161Y-8589542D01*
X8438685Y-8590362D01*
X8541950Y-8590362D01*
X8547863Y-8592283D01*
X8551518Y-8597313D01*
X8552010Y-8600422D01*
X8552010Y-8964187D01*
X8552729Y-8966400D01*
X8552830Y-8966711D01*
X8553198Y-8968245D01*
X8553613Y-8970865D01*
X8553973Y-8971571D01*
X8553973Y-8971571D01*
X8554818Y-8973229D01*
X8555422Y-8974687D01*
X8555929Y-8976249D01*
X8556242Y-8977211D01*
X8556707Y-8977851D01*
X8556707Y-8977851D01*
X8557801Y-8979357D01*
X8558626Y-8980703D01*
X8559111Y-8981654D01*
X8559830Y-8983067D01*
X8610773Y-9034010D01*
X8611479Y-9034369D01*
X8611479Y-9034369D01*
X8613137Y-9035214D01*
X8614483Y-9036039D01*
X8615989Y-9037133D01*
X8615989Y-9037133D01*
X8616629Y-9037598D01*
X8617382Y-9037843D01*
X8617382Y-9037843D01*
X8619153Y-9038418D01*
X8620611Y-9039022D01*
X8622269Y-9039867D01*
X8622269Y-9039867D01*
X8622975Y-9040227D01*
X8623757Y-9040351D01*
X8623757Y-9040351D01*
X8625595Y-9040642D01*
X8627129Y-9041010D01*
X8629653Y-9041830D01*
X8630844Y-9041830D01*
X8631225Y-9041954D01*
X8631227Y-9041954D01*
X8631227Y-9041954D01*
X8636757Y-9043751D01*
X8640412Y-9048781D01*
X8640877Y-9052627D01*
X8639919Y-9065675D01*
X8640055Y-9066347D01*
X8640055Y-9066347D01*
X8642023Y-9076111D01*
X8642922Y-9080567D01*
X8643233Y-9081178D01*
X8643233Y-9081178D01*
X8643919Y-9082524D01*
X8649819Y-9094104D01*
X8650283Y-9094608D01*
X8650283Y-9094609D01*
X8654431Y-9099119D01*
X8660103Y-9105287D01*
X8660685Y-9105648D01*
X8660686Y-9105648D01*
X8667762Y-9110036D01*
X8672861Y-9113197D01*
X8672860Y-9113197D01*
X8673014Y-9113292D01*
X8672997Y-9113320D01*
X8677316Y-9117209D01*
X8678609Y-9123291D01*
X8676080Y-9128970D01*
X8672036Y-9131695D01*
X8659178Y-9136362D01*
X8658140Y-9136882D01*
X8644258Y-9145984D01*
X8643367Y-9146729D01*
X8631951Y-9158780D01*
X8631255Y-9159709D01*
X8622918Y-9174063D01*
X8622455Y-9175128D01*
X8621514Y-9178235D01*
X8621538Y-9179429D01*
X8622594Y-9179760D01*
X8864993Y-9179760D01*
X8866094Y-9179402D01*
X8866094Y-9178603D01*
X8861450Y-9167688D01*
X8860874Y-9166678D01*
X8858800Y-9163861D01*
X8856843Y-9157959D01*
X8858728Y-9152034D01*
X8863736Y-9148349D01*
X8864940Y-9148031D01*
X8868719Y-9147280D01*
X8870515Y-9146536D01*
X8877269Y-9142023D01*
X8878643Y-9140649D01*
X8883156Y-9133894D01*
X8883900Y-9132099D01*
X8885084Y-9126147D01*
X8885180Y-9125167D01*
X8885180Y-9120153D01*
X8884761Y-9118864D01*
X8884342Y-9118560D01*
X8742657Y-9118560D01*
X8736744Y-9116639D01*
X8733089Y-9111609D01*
X8733089Y-9105391D01*
X8735730Y-9101548D01*
X8735579Y-9101406D01*
X8736049Y-9100906D01*
X8736581Y-9100475D01*
X8739107Y-9096921D01*
X8744985Y-9088650D01*
X8745382Y-9088091D01*
X8745614Y-9087447D01*
X8745614Y-9087446D01*
X8750001Y-9075262D01*
X8753811Y-9070350D01*
X8759466Y-9068610D01*
X8856210Y-9068610D01*
X8862287Y-9068610D01*
X8862771Y-9068514D01*
X8862771Y-9068514D01*
X8864142Y-9068241D01*
X8865588Y-9067953D01*
X8867550Y-9067760D01*
X8883587Y-9067760D01*
X8885834Y-9067030D01*
X8889313Y-9064502D01*
X8892422Y-9064010D01*
X8936270Y-9064010D01*
X8942183Y-9065931D01*
X8945838Y-9070961D01*
X8946330Y-9074070D01*
X8946330Y-9441925D01*
X8947087Y-9444255D01*
X8947456Y-9445790D01*
X8947839Y-9448211D01*
X8948198Y-9448916D01*
X8948198Y-9448916D01*
X8948952Y-9450394D01*
X8949556Y-9451852D01*
X8950313Y-9454183D01*
X8950892Y-9454981D01*
X8951754Y-9456166D01*
X8952578Y-9457511D01*
X8953691Y-9459695D01*
X9166005Y-9672009D01*
X9168189Y-9673122D01*
X9169534Y-9673946D01*
X9171517Y-9675387D01*
X9173848Y-9676145D01*
X9175306Y-9676748D01*
X9177489Y-9677861D01*
X9178271Y-9677985D01*
X9179910Y-9678244D01*
X9181445Y-9678613D01*
X9183775Y-9679370D01*
X12048979Y-9679370D01*
X12053012Y-9680283D01*
X12053213Y-9680416D01*
X12065727Y-9684326D01*
X12072114Y-9684443D01*
X12078119Y-9684553D01*
X12078119Y-9684553D01*
X12078835Y-9684566D01*
X12091484Y-9681118D01*
X12092279Y-9680630D01*
X12102047Y-9674632D01*
X12102047Y-9674632D01*
X12102657Y-9674258D01*
X12111455Y-9664538D01*
X12111768Y-9663893D01*
X12111768Y-9663893D01*
X12114391Y-9658478D01*
X12117172Y-9652739D01*
X12118685Y-9643746D01*
X12119282Y-9640193D01*
X12119282Y-9640192D01*
X12119347Y-9639810D01*
X12119361Y-9638680D01*
X12117502Y-9625702D01*
X12112076Y-9613767D01*
X12103517Y-9603835D01*
X12097703Y-9600066D01*
X12093117Y-9597094D01*
X12093117Y-9597094D01*
X12092516Y-9596704D01*
X12079955Y-9592947D01*
X12079238Y-9592943D01*
X12079238Y-9592943D01*
X12073568Y-9592908D01*
X12066844Y-9592867D01*
X12066155Y-9593064D01*
X12066155Y-9593064D01*
X12060541Y-9594669D01*
X12054238Y-9596470D01*
X12053632Y-9596852D01*
X12053049Y-9597113D01*
X12048942Y-9597990D01*
X12023293Y-9597990D01*
X12017380Y-9596069D01*
X12013725Y-9591039D01*
X12013725Y-9584821D01*
X12016860Y-9580196D01*
X12031320Y-9568170D01*
X12031674Y-9567875D01*
X12035207Y-9563627D01*
X12044360Y-9552622D01*
X12044360Y-9552622D01*
X12044655Y-9552268D01*
X12054573Y-9534557D01*
X12061098Y-9515335D01*
X12064011Y-9495245D01*
X12064021Y-9494889D01*
X12064155Y-9489736D01*
X12064155Y-9489735D01*
X12064163Y-9489440D01*
X12063854Y-9486078D01*
X12062348Y-9469685D01*
X12062348Y-9469684D01*
X12062306Y-9469226D01*
X12056796Y-9449689D01*
X12047818Y-9431483D01*
X12037188Y-9417248D01*
X12035189Y-9411360D01*
X12035842Y-9409259D01*
X12032326Y-9409816D01*
X12027071Y-9407267D01*
X12021835Y-9402427D01*
X12020766Y-9401439D01*
X12020376Y-9401193D01*
X12020376Y-9401193D01*
X12011325Y-9395482D01*
X12003598Y-9390607D01*
X11984744Y-9383085D01*
X11964835Y-9379124D01*
X11954575Y-9378990D01*
X11944998Y-9378865D01*
X11944998Y-9378865D01*
X11944537Y-9378859D01*
X11924531Y-9382296D01*
X11924099Y-9382456D01*
X11924098Y-9382456D01*
X11917936Y-9384729D01*
X11911724Y-9384973D01*
X11907341Y-9382405D01*
X11789096Y-9264160D01*
X11786274Y-9258620D01*
X11786150Y-9257047D01*
X11786150Y-9025768D01*
X11786150Y-9025766D01*
X11786150Y-9012073D01*
X11785330Y-9009549D01*
X11784962Y-9008015D01*
X11784671Y-9006177D01*
X11784670Y-9006177D01*
X11784547Y-9005395D01*
X11784187Y-9004689D01*
X11784187Y-9004689D01*
X11783342Y-9003031D01*
X11782738Y-9001573D01*
X11782163Y-8999802D01*
X11781918Y-8999049D01*
X11781453Y-8998409D01*
X11781453Y-8998409D01*
X11780359Y-8996903D01*
X11779534Y-8995557D01*
X11778689Y-8993899D01*
X11778689Y-8993899D01*
X11778330Y-8993193D01*
X11740000Y-8954864D01*
X11737177Y-8949324D01*
X11738150Y-8943183D01*
X11742546Y-8938787D01*
X11747113Y-8937690D01*
X12452936Y-8937690D01*
X12458849Y-8939611D01*
X12462503Y-8944641D01*
X12462543Y-8950733D01*
X12458661Y-8963237D01*
X12458510Y-8963723D01*
X12457479Y-8972430D01*
X12456154Y-8983627D01*
X12456039Y-8984594D01*
X12457414Y-9005565D01*
X12457527Y-9006011D01*
X12457527Y-9006011D01*
X12462473Y-9025487D01*
X12462474Y-9025488D01*
X12462587Y-9025934D01*
X12471386Y-9045020D01*
X12483515Y-9062183D01*
X12483846Y-9062504D01*
X12483846Y-9062505D01*
X12490312Y-9068804D01*
X12498569Y-9076847D01*
X12498952Y-9077104D01*
X12498952Y-9077104D01*
X12503594Y-9080205D01*
X12516043Y-9088523D01*
X12535352Y-9096819D01*
X12535802Y-9096921D01*
X12535803Y-9096921D01*
X12551384Y-9100447D01*
X12555850Y-9101457D01*
X12566350Y-9101870D01*
X12576389Y-9102264D01*
X12576389Y-9102264D01*
X12576850Y-9102283D01*
X12577306Y-9102216D01*
X12577306Y-9102216D01*
X12589317Y-9100475D01*
X12597649Y-9099267D01*
X12617550Y-9092512D01*
X12635886Y-9082243D01*
X12652044Y-9068804D01*
X12665483Y-9052646D01*
X12674344Y-9036822D01*
X12754600Y-9036822D01*
X12754629Y-9037364D01*
X12755168Y-9042325D01*
X12755457Y-9043542D01*
X12759801Y-9055129D01*
X12760482Y-9056372D01*
X12767852Y-9066206D01*
X12768854Y-9067208D01*
X12778688Y-9074578D01*
X12779931Y-9075259D01*
X12791518Y-9079603D01*
X12792735Y-9079892D01*
X12797696Y-9080431D01*
X12798238Y-9080460D01*
X12800507Y-9080460D01*
X12801796Y-9080041D01*
X12802100Y-9079622D01*
X12802100Y-9078867D01*
X12852900Y-9078867D01*
X12853319Y-9080156D01*
X12853738Y-9080460D01*
X12856762Y-9080460D01*
X12857304Y-9080431D01*
X12862265Y-9079892D01*
X12863481Y-9079603D01*
X12875069Y-9075259D01*
X12876312Y-9074578D01*
X12886145Y-9067208D01*
X12887148Y-9066206D01*
X12894518Y-9056372D01*
X12895199Y-9055129D01*
X12899543Y-9043542D01*
X12899832Y-9042325D01*
X12900371Y-9037364D01*
X12900389Y-9037020D01*
X12899981Y-9035764D01*
X12899562Y-9035460D01*
X12854493Y-9035460D01*
X12853204Y-9035879D01*
X12852900Y-9036298D01*
X12852900Y-9078867D01*
X12802100Y-9078867D01*
X12802100Y-9037053D01*
X12801681Y-9035764D01*
X12801262Y-9035460D01*
X12756193Y-9035460D01*
X12754904Y-9035879D01*
X12754600Y-9036298D01*
X12754600Y-9036822D01*
X12674344Y-9036822D01*
X12675751Y-9034310D01*
X12682507Y-9014409D01*
X12683928Y-9004605D01*
X12685480Y-8993904D01*
X12685480Y-8993903D01*
X12685522Y-8993610D01*
X12685533Y-8993193D01*
X12685672Y-8987896D01*
X12685672Y-8987895D01*
X12685680Y-8987600D01*
X12685266Y-8983100D01*
X12683799Y-8967131D01*
X12683799Y-8967130D01*
X12683757Y-8966672D01*
X12678052Y-8946445D01*
X12676701Y-8943706D01*
X12668961Y-8928011D01*
X12668961Y-8928010D01*
X12668757Y-8927596D01*
X12665839Y-8923688D01*
X12657954Y-8913129D01*
X12655955Y-8907242D01*
X12657799Y-8901304D01*
X12662781Y-8897584D01*
X12666015Y-8897050D01*
X12752148Y-8897050D01*
X12758061Y-8898971D01*
X12760198Y-8901077D01*
X12768246Y-8911814D01*
X12768819Y-8912244D01*
X12778663Y-8919622D01*
X12778663Y-8919622D01*
X12779236Y-8920052D01*
X12779907Y-8920303D01*
X12779907Y-8920303D01*
X12787546Y-8923167D01*
X12792409Y-8927042D01*
X12794065Y-8933034D01*
X12791882Y-8938856D01*
X12787546Y-8942007D01*
X12779932Y-8944861D01*
X12778688Y-8945542D01*
X12768854Y-8952912D01*
X12767852Y-8953915D01*
X12760482Y-8963748D01*
X12759801Y-8964991D01*
X12755457Y-8976579D01*
X12755168Y-8977795D01*
X12754629Y-8982756D01*
X12754611Y-8983100D01*
X12755019Y-8984356D01*
X12755438Y-8984660D01*
X12898807Y-8984660D01*
X12900096Y-8984241D01*
X12900400Y-8983822D01*
X12900400Y-8983298D01*
X12900371Y-8982756D01*
X12899832Y-8977795D01*
X12899543Y-8976579D01*
X12897987Y-8972430D01*
X13186522Y-8972430D01*
X13186892Y-8974939D01*
X13187350Y-8976415D01*
X13192346Y-8986591D01*
X13193301Y-8987925D01*
X13201290Y-8995900D01*
X13202625Y-8996852D01*
X13211448Y-9001165D01*
X13212595Y-9001327D01*
X13212880Y-9000744D01*
X13212880Y-8972873D01*
X13212461Y-8971584D01*
X13212042Y-8971280D01*
X13187946Y-8971280D01*
X13186657Y-8971699D01*
X13186574Y-8971813D01*
X13186522Y-8972430D01*
X12897987Y-8972430D01*
X12895199Y-8964991D01*
X12894518Y-8963748D01*
X12887148Y-8953915D01*
X12886145Y-8952912D01*
X12876312Y-8945542D01*
X12875068Y-8944861D01*
X12867454Y-8942007D01*
X12862591Y-8938132D01*
X12860935Y-8932139D01*
X12863117Y-8926317D01*
X12867454Y-8923167D01*
X12875093Y-8920303D01*
X12875093Y-8920303D01*
X12875763Y-8920052D01*
X12876337Y-8919622D01*
X12876337Y-8919622D01*
X12886181Y-8912244D01*
X12886754Y-8911814D01*
X12887424Y-8910921D01*
X12894562Y-8901397D01*
X12894562Y-8901397D01*
X12894992Y-8900824D01*
X12895421Y-8899679D01*
X12899592Y-8888552D01*
X12899592Y-8888552D01*
X12899813Y-8887962D01*
X12900279Y-8883670D01*
X12900421Y-8882369D01*
X12900421Y-8882368D01*
X12900450Y-8882099D01*
X12900450Y-8828021D01*
X12899813Y-8822158D01*
X12899360Y-8820948D01*
X12895243Y-8809967D01*
X12895243Y-8809967D01*
X12894992Y-8809297D01*
X12893718Y-8807598D01*
X12891429Y-8804543D01*
X12889420Y-8798659D01*
X12891254Y-8792718D01*
X12896229Y-8788990D01*
X12899479Y-8788450D01*
X12909077Y-8788450D01*
X12910367Y-8788594D01*
X12910367Y-8788592D01*
X12911081Y-8788649D01*
X12911780Y-8788807D01*
X12917230Y-8788469D01*
X12917853Y-8788450D01*
X12919551Y-8788450D01*
X12919906Y-8788399D01*
X12919906Y-8788399D01*
X12920170Y-8788361D01*
X12920688Y-8788287D01*
X12921490Y-8788205D01*
X12923123Y-8788104D01*
X12925603Y-8787950D01*
X12925603Y-8787950D01*
X12926318Y-8787906D01*
X12926991Y-8787662D01*
X12926992Y-8787662D01*
X12927297Y-8787552D01*
X12929287Y-8787056D01*
X12930319Y-8786908D01*
X12934722Y-8784906D01*
X12935469Y-8784602D01*
X12940018Y-8782960D01*
X12940597Y-8782537D01*
X12940860Y-8782345D01*
X12942630Y-8781310D01*
X12942926Y-8781176D01*
X12942926Y-8781176D01*
X12943578Y-8780879D01*
X12947038Y-8777898D01*
X12947243Y-8777722D01*
X12947875Y-8777220D01*
X12948410Y-8776829D01*
X12949055Y-8776358D01*
X12950220Y-8775193D01*
X12950767Y-8774685D01*
X12954070Y-8771839D01*
X12954613Y-8771371D01*
X12955088Y-8770638D01*
X12956416Y-8768997D01*
X13153965Y-8571448D01*
X13159504Y-8568625D01*
X13165645Y-8569598D01*
X13170042Y-8573994D01*
X13171014Y-8580135D01*
X13170392Y-8584067D01*
X13170392Y-8584068D01*
X13170330Y-8584457D01*
X13170330Y-8755823D01*
X13170392Y-8756213D01*
X13170392Y-8756213D01*
X13171690Y-8764409D01*
X13171830Y-8765296D01*
X13172189Y-8766001D01*
X13172190Y-8766001D01*
X13173607Y-8768784D01*
X13174621Y-8773904D01*
X13174573Y-8774120D01*
X13174807Y-8777898D01*
X13174911Y-8779570D01*
X13174930Y-8780193D01*
X13174930Y-8781891D01*
X13175091Y-8783014D01*
X13175093Y-8783027D01*
X13175175Y-8783830D01*
X13175236Y-8784821D01*
X13175390Y-8787289D01*
X13175474Y-8788658D01*
X13175718Y-8789332D01*
X13175718Y-8789332D01*
X13175828Y-8789637D01*
X13176324Y-8791627D01*
X13176472Y-8792659D01*
X13176749Y-8793268D01*
X13176565Y-8799461D01*
X13172763Y-8804381D01*
X13167094Y-8806130D01*
X13160074Y-8806130D01*
X13154602Y-8804512D01*
X13151797Y-8802694D01*
X13151196Y-8802304D01*
X13138635Y-8798547D01*
X13137918Y-8798543D01*
X13137918Y-8798543D01*
X13132248Y-8798508D01*
X13125524Y-8798467D01*
X13124835Y-8798664D01*
X13124835Y-8798664D01*
X13122150Y-8799432D01*
X13112918Y-8802070D01*
X13112312Y-8802452D01*
X13112312Y-8802452D01*
X13104158Y-8807598D01*
X13101830Y-8809066D01*
X13099089Y-8812170D01*
X13093984Y-8817950D01*
X13093152Y-8818893D01*
X13092847Y-8819541D01*
X13092847Y-8819542D01*
X13091464Y-8822487D01*
X13087580Y-8830761D01*
X13087469Y-8831469D01*
X13085870Y-8841744D01*
X13085563Y-8843715D01*
X13085958Y-8846739D01*
X13087052Y-8855106D01*
X13087263Y-8856715D01*
X13092543Y-8868715D01*
X13100979Y-8878751D01*
X13108043Y-8883453D01*
X13111296Y-8885619D01*
X13111296Y-8885619D01*
X13111893Y-8886016D01*
X13112577Y-8886230D01*
X13112938Y-8886343D01*
X13124407Y-8889926D01*
X13130794Y-8890043D01*
X13136799Y-8890153D01*
X13136799Y-8890153D01*
X13137515Y-8890166D01*
X13150164Y-8886718D01*
X13150959Y-8886230D01*
X13154726Y-8883917D01*
X13159989Y-8882430D01*
X13185280Y-8882430D01*
X13191193Y-8884351D01*
X13192636Y-8885804D01*
X13192672Y-8885767D01*
X13194908Y-8888000D01*
X13197736Y-8893537D01*
X13196768Y-8899679D01*
X13194921Y-8902227D01*
X13193260Y-8903890D01*
X13192308Y-8905225D01*
X13187329Y-8915412D01*
X13186873Y-8916886D01*
X13186579Y-8918903D01*
X13186807Y-8920239D01*
X13186911Y-8920340D01*
X13187508Y-8920480D01*
X13253620Y-8920480D01*
X13259533Y-8922401D01*
X13263188Y-8927431D01*
X13263680Y-8930540D01*
X13263680Y-9000283D01*
X13264038Y-9001384D01*
X13264683Y-9001384D01*
X13273991Y-8996814D01*
X13275325Y-8995859D01*
X13282120Y-8989052D01*
X13287657Y-8986224D01*
X13293799Y-8987192D01*
X13296347Y-8989039D01*
X13303849Y-8996528D01*
X13304595Y-8996893D01*
X13304596Y-8996893D01*
X13312472Y-9000744D01*
X13315499Y-9002223D01*
X13318993Y-9002733D01*
X13322727Y-9003277D01*
X13322728Y-9003277D01*
X13323088Y-9003330D01*
X13340195Y-9003330D01*
X13357472Y-9003330D01*
X13365127Y-9002203D01*
X13376767Y-8996488D01*
X13377697Y-8995557D01*
X13385341Y-8987899D01*
X13385341Y-8987899D01*
X13385928Y-8987311D01*
X13386293Y-8986565D01*
X13386293Y-8986564D01*
X13389496Y-8980012D01*
X13393819Y-8975544D01*
X13399943Y-8974469D01*
X13405529Y-8977200D01*
X13406584Y-8978397D01*
X13408596Y-8981081D01*
X13409026Y-8981654D01*
X13410903Y-8983062D01*
X13414483Y-8988145D01*
X13414930Y-8991112D01*
X13414930Y-9028630D01*
X13413009Y-9034543D01*
X13411983Y-9035744D01*
X13382924Y-9064804D01*
X13377384Y-9067626D01*
X13375810Y-9067750D01*
X13372430Y-9067750D01*
X13366517Y-9065829D01*
X13362862Y-9060799D01*
X13362370Y-9057690D01*
X13362370Y-9056093D01*
X13361616Y-9052302D01*
X13361087Y-9049642D01*
X13361087Y-9049641D01*
X13360893Y-9048670D01*
X13360343Y-9047846D01*
X13355819Y-9041075D01*
X13355268Y-9040252D01*
X13354024Y-9039420D01*
X13351664Y-9037843D01*
X13346850Y-9034627D01*
X13340934Y-9033450D01*
X13339912Y-9033247D01*
X13339912Y-9033247D01*
X13339427Y-9033150D01*
X13338932Y-9033150D01*
X13291877Y-9033150D01*
X13244413Y-9033150D01*
X13240865Y-9033856D01*
X13237962Y-9034433D01*
X13237961Y-9034433D01*
X13236990Y-9034627D01*
X13236166Y-9035177D01*
X13236166Y-9035177D01*
X13229395Y-9039701D01*
X13228572Y-9040252D01*
X13222947Y-9048670D01*
X13221470Y-9056093D01*
X13221470Y-9112970D01*
X13219549Y-9118883D01*
X13218524Y-9120084D01*
X13212229Y-9126378D01*
X13211215Y-9127189D01*
X13211216Y-9127191D01*
X13210670Y-9127655D01*
X13210064Y-9128038D01*
X13208638Y-9129653D01*
X13206448Y-9132132D01*
X13206023Y-9132584D01*
X13204822Y-9133786D01*
X13204133Y-9134705D01*
X13203624Y-9135329D01*
X13200422Y-9138955D01*
X13200117Y-9139604D01*
X13199979Y-9139898D01*
X13198924Y-9141655D01*
X13198298Y-9142490D01*
X13198047Y-9143161D01*
X13198047Y-9143161D01*
X13196600Y-9147019D01*
X13196287Y-9147762D01*
X13194232Y-9152140D01*
X13194122Y-9152848D01*
X13194072Y-9153169D01*
X13193551Y-9155152D01*
X13193437Y-9155457D01*
X13193437Y-9155457D01*
X13193185Y-9156128D01*
X13193105Y-9157207D01*
X13192827Y-9160951D01*
X13192735Y-9161753D01*
X13192648Y-9162310D01*
X13192510Y-9163199D01*
X13192510Y-9164846D01*
X13192482Y-9165592D01*
X13192199Y-9169399D01*
X13192106Y-9170654D01*
X13192256Y-9171355D01*
X13192256Y-9171355D01*
X13192288Y-9171508D01*
X13192510Y-9173608D01*
X13192510Y-9274073D01*
X13192139Y-9276529D01*
X13192017Y-9276779D01*
X13191904Y-9277551D01*
X13191904Y-9277551D01*
X13190999Y-9283756D01*
X13190910Y-9284368D01*
X13190910Y-9328752D01*
X13192037Y-9336408D01*
X13197752Y-9348047D01*
X13198340Y-9348635D01*
X13198340Y-9348635D01*
X13206341Y-9356621D01*
X13206341Y-9356621D01*
X13206929Y-9357208D01*
X13207675Y-9357573D01*
X13207676Y-9357573D01*
X13217482Y-9362367D01*
X13218579Y-9362903D01*
X13220953Y-9363249D01*
X13225807Y-9363957D01*
X13225808Y-9363957D01*
X13226168Y-9364010D01*
X13243275Y-9364010D01*
X13260552Y-9364010D01*
X13268207Y-9362883D01*
X13279847Y-9357168D01*
X13280460Y-9356555D01*
X13287235Y-9349767D01*
X13292773Y-9346940D01*
X13298914Y-9347907D01*
X13301462Y-9349755D01*
X13308340Y-9356621D01*
X13308341Y-9356621D01*
X13308929Y-9357208D01*
X13309675Y-9357573D01*
X13309676Y-9357573D01*
X13319482Y-9362367D01*
X13320579Y-9362903D01*
X13322953Y-9363249D01*
X13327807Y-9363957D01*
X13327808Y-9363957D01*
X13328168Y-9364010D01*
X13345275Y-9364010D01*
X13362552Y-9364010D01*
X13370207Y-9362883D01*
X13379257Y-9358440D01*
X13383691Y-9357410D01*
X13390930Y-9357410D01*
X13396843Y-9359331D01*
X13400498Y-9364361D01*
X13400990Y-9367470D01*
X13400990Y-9437558D01*
X13401030Y-9437872D01*
X13402130Y-9446584D01*
X13402497Y-9449490D01*
X13404671Y-9454981D01*
X13407926Y-9463202D01*
X13408408Y-9464419D01*
X13417846Y-9477409D01*
X13418333Y-9477812D01*
X13418333Y-9477812D01*
X13425559Y-9483790D01*
X13430218Y-9487644D01*
X13430790Y-9487913D01*
X13444173Y-9494211D01*
X13444173Y-9494211D01*
X13444746Y-9494480D01*
X13460518Y-9497489D01*
X13465174Y-9497196D01*
X13475911Y-9496520D01*
X13475911Y-9496520D01*
X13476543Y-9496481D01*
X13477145Y-9496285D01*
X13477145Y-9496285D01*
X13491211Y-9491714D01*
X13491813Y-9491519D01*
X13505370Y-9482915D01*
X13507898Y-9480224D01*
X13515928Y-9471672D01*
X13515928Y-9471672D01*
X13516362Y-9471211D01*
X13517231Y-9469630D01*
X13523792Y-9457695D01*
X13523792Y-9457695D01*
X13524097Y-9457140D01*
X13524470Y-9455689D01*
X13527698Y-9443113D01*
X13528090Y-9441588D01*
X13528090Y-9368753D01*
X13529998Y-9363026D01*
X13529998Y-9363026D01*
X13529998Y-9363024D01*
X13530100Y-9362720D01*
X13530342Y-9362397D01*
X13530772Y-9361824D01*
X13531023Y-9361152D01*
X13533887Y-9353514D01*
X13537761Y-9348651D01*
X13543754Y-9346995D01*
X13549576Y-9349178D01*
X13552727Y-9353514D01*
X13555581Y-9361128D01*
X13556262Y-9362372D01*
X13563632Y-9372206D01*
X13564634Y-9373208D01*
X13574468Y-9380578D01*
X13575711Y-9381259D01*
X13587298Y-9385603D01*
X13588515Y-9385892D01*
X13593476Y-9386431D01*
X13593820Y-9386449D01*
X13595076Y-9386041D01*
X13595380Y-9385622D01*
X13595380Y-9384867D01*
X13646180Y-9384867D01*
X13646599Y-9386156D01*
X13647018Y-9386460D01*
X13647542Y-9386460D01*
X13648084Y-9386431D01*
X13653045Y-9385892D01*
X13654261Y-9385603D01*
X13665849Y-9381259D01*
X13667092Y-9380578D01*
X13676925Y-9373208D01*
X13677928Y-9372206D01*
X13685298Y-9362372D01*
X13685979Y-9361129D01*
X13690323Y-9349542D01*
X13690612Y-9348325D01*
X13691151Y-9343364D01*
X13691180Y-9342822D01*
X13691180Y-9340553D01*
X13690761Y-9339264D01*
X13690342Y-9338960D01*
X13647773Y-9338960D01*
X13646484Y-9339379D01*
X13646180Y-9339798D01*
X13646180Y-9384867D01*
X13595380Y-9384867D01*
X13595380Y-9286567D01*
X13646180Y-9286567D01*
X13646599Y-9287856D01*
X13647018Y-9288160D01*
X13689587Y-9288160D01*
X13690876Y-9287741D01*
X13691180Y-9287322D01*
X13691180Y-9284298D01*
X13691151Y-9283756D01*
X13690612Y-9278795D01*
X13690323Y-9277579D01*
X13685979Y-9265991D01*
X13685298Y-9264748D01*
X13677928Y-9254915D01*
X13676925Y-9253912D01*
X13667092Y-9246542D01*
X13665849Y-9245861D01*
X13654261Y-9241517D01*
X13653045Y-9241228D01*
X13648084Y-9240689D01*
X13647740Y-9240671D01*
X13646484Y-9241079D01*
X13646180Y-9241498D01*
X13646180Y-9286567D01*
X13595380Y-9286567D01*
X13595380Y-9242253D01*
X13594961Y-9240964D01*
X13594542Y-9240660D01*
X13594018Y-9240660D01*
X13593476Y-9240689D01*
X13588515Y-9241228D01*
X13587298Y-9241517D01*
X13575711Y-9245861D01*
X13574468Y-9246542D01*
X13564634Y-9253912D01*
X13563632Y-9254915D01*
X13556262Y-9264748D01*
X13555581Y-9265992D01*
X13552727Y-9273606D01*
X13548852Y-9278469D01*
X13542859Y-9280125D01*
X13537037Y-9277943D01*
X13533887Y-9273606D01*
X13531023Y-9265967D01*
X13531023Y-9265967D01*
X13530772Y-9265297D01*
X13530052Y-9264336D01*
X13522964Y-9254879D01*
X13522534Y-9254306D01*
X13521211Y-9253314D01*
X13512117Y-9246498D01*
X13512117Y-9246498D01*
X13511543Y-9246068D01*
X13510873Y-9245817D01*
X13510873Y-9245817D01*
X13499272Y-9241468D01*
X13499272Y-9241468D01*
X13498682Y-9241247D01*
X13495305Y-9240880D01*
X13493089Y-9240639D01*
X13493088Y-9240639D01*
X13492819Y-9240610D01*
X13465785Y-9240610D01*
X13438741Y-9240610D01*
X13434426Y-9241079D01*
X13433504Y-9241179D01*
X13433504Y-9241179D01*
X13432878Y-9241247D01*
X13432287Y-9241468D01*
X13432287Y-9241468D01*
X13420687Y-9245817D01*
X13420687Y-9245817D01*
X13420016Y-9246068D01*
X13419443Y-9246498D01*
X13419443Y-9246498D01*
X13409833Y-9253700D01*
X13403800Y-9255710D01*
X13383706Y-9255710D01*
X13379288Y-9254688D01*
X13377587Y-9253857D01*
X13370141Y-9250217D01*
X13366647Y-9249708D01*
X13362913Y-9249163D01*
X13362912Y-9249163D01*
X13362552Y-9249110D01*
X13345445Y-9249110D01*
X13328168Y-9249110D01*
X13320512Y-9250237D01*
X13308873Y-9255952D01*
X13308732Y-9255665D01*
X13304201Y-9257102D01*
X13298301Y-9255141D01*
X13294681Y-9250086D01*
X13294210Y-9247043D01*
X13294210Y-9214110D01*
X13295725Y-9209448D01*
X13746120Y-9209448D01*
X13746216Y-9210426D01*
X13747400Y-9216379D01*
X13748144Y-9218175D01*
X13752657Y-9224929D01*
X13754031Y-9226303D01*
X13760786Y-9230816D01*
X13762581Y-9231560D01*
X13768533Y-9232744D01*
X13769513Y-9232840D01*
X13814527Y-9232840D01*
X13815816Y-9232421D01*
X13816120Y-9232002D01*
X13816120Y-9231247D01*
X13866920Y-9231247D01*
X13867339Y-9232536D01*
X13867758Y-9232840D01*
X13913528Y-9232840D01*
X13914506Y-9232744D01*
X13920459Y-9231560D01*
X13922254Y-9230816D01*
X13929008Y-9226303D01*
X13930383Y-9224929D01*
X13934896Y-9218174D01*
X13935640Y-9216379D01*
X13936823Y-9210427D01*
X13936920Y-9209448D01*
X14196120Y-9209448D01*
X14196216Y-9210426D01*
X14197400Y-9216379D01*
X14198144Y-9218175D01*
X14202657Y-9224929D01*
X14204031Y-9226303D01*
X14210786Y-9230816D01*
X14212581Y-9231560D01*
X14218533Y-9232744D01*
X14219513Y-9232840D01*
X14264527Y-9232840D01*
X14265816Y-9232421D01*
X14266120Y-9232002D01*
X14266120Y-9231247D01*
X14316920Y-9231247D01*
X14317339Y-9232536D01*
X14317758Y-9232840D01*
X14363528Y-9232840D01*
X14364506Y-9232744D01*
X14370459Y-9231560D01*
X14372254Y-9230816D01*
X14379008Y-9226303D01*
X14380383Y-9224929D01*
X14384896Y-9218174D01*
X14385640Y-9216379D01*
X14386823Y-9210427D01*
X14386920Y-9209447D01*
X14386920Y-9154433D01*
X14386501Y-9153144D01*
X14386082Y-9152840D01*
X14318513Y-9152840D01*
X14317224Y-9153259D01*
X14316920Y-9153678D01*
X14316920Y-9231247D01*
X14266120Y-9231247D01*
X14266120Y-9154433D01*
X14265701Y-9153144D01*
X14265282Y-9152840D01*
X14197713Y-9152840D01*
X14196424Y-9153259D01*
X14196120Y-9153678D01*
X14196120Y-9209448D01*
X13936920Y-9209448D01*
X13936920Y-9209447D01*
X13936920Y-9154433D01*
X13936501Y-9153144D01*
X13936082Y-9152840D01*
X13868513Y-9152840D01*
X13867224Y-9153259D01*
X13866920Y-9153678D01*
X13866920Y-9231247D01*
X13816120Y-9231247D01*
X13816120Y-9154433D01*
X13815701Y-9153144D01*
X13815282Y-9152840D01*
X13747713Y-9152840D01*
X13746424Y-9153259D01*
X13746120Y-9153678D01*
X13746120Y-9209448D01*
X13295725Y-9209448D01*
X13296131Y-9208197D01*
X13301161Y-9204542D01*
X13304270Y-9204050D01*
X13339427Y-9204050D01*
X13343432Y-9203253D01*
X13345878Y-9202767D01*
X13345879Y-9202767D01*
X13346850Y-9202573D01*
X13350139Y-9200376D01*
X13354445Y-9197499D01*
X13355268Y-9196948D01*
X13360893Y-9188530D01*
X13362370Y-9181107D01*
X13362370Y-9180608D01*
X13551520Y-9180608D01*
X13551616Y-9181586D01*
X13552800Y-9187539D01*
X13553544Y-9189335D01*
X13558057Y-9196089D01*
X13559431Y-9197463D01*
X13566186Y-9201976D01*
X13567981Y-9202720D01*
X13573933Y-9203904D01*
X13574913Y-9204000D01*
X13594927Y-9204000D01*
X13596216Y-9203581D01*
X13596520Y-9203162D01*
X13596520Y-9202407D01*
X13647320Y-9202407D01*
X13647739Y-9203696D01*
X13648158Y-9204000D01*
X13668928Y-9204000D01*
X13669906Y-9203904D01*
X13675859Y-9202720D01*
X13677654Y-9201976D01*
X13684408Y-9197463D01*
X13685783Y-9196089D01*
X13690296Y-9189334D01*
X13691040Y-9187539D01*
X13692223Y-9181587D01*
X13692320Y-9180607D01*
X13692320Y-9145593D01*
X13691901Y-9144304D01*
X13691482Y-9144000D01*
X13648913Y-9144000D01*
X13647624Y-9144419D01*
X13647320Y-9144838D01*
X13647320Y-9202407D01*
X13596520Y-9202407D01*
X13596520Y-9145593D01*
X13596101Y-9144304D01*
X13595682Y-9144000D01*
X13553113Y-9144000D01*
X13551824Y-9144419D01*
X13551520Y-9144838D01*
X13551520Y-9180608D01*
X13362370Y-9180608D01*
X13362370Y-9179510D01*
X13364291Y-9173597D01*
X13369321Y-9169942D01*
X13372430Y-9169450D01*
X13394217Y-9169450D01*
X13395507Y-9169594D01*
X13395507Y-9169592D01*
X13396221Y-9169649D01*
X13396920Y-9169807D01*
X13402370Y-9169469D01*
X13402993Y-9169450D01*
X13404691Y-9169450D01*
X13405046Y-9169399D01*
X13405046Y-9169399D01*
X13405310Y-9169361D01*
X13405828Y-9169287D01*
X13406630Y-9169205D01*
X13408263Y-9169104D01*
X13410743Y-9168950D01*
X13410743Y-9168950D01*
X13411458Y-9168906D01*
X13412131Y-9168662D01*
X13412132Y-9168662D01*
X13412437Y-9168552D01*
X13414427Y-9168056D01*
X13415459Y-9167908D01*
X13419862Y-9165906D01*
X13420609Y-9165602D01*
X13425158Y-9163960D01*
X13425737Y-9163537D01*
X13426000Y-9163345D01*
X13427770Y-9162310D01*
X13428066Y-9162176D01*
X13428066Y-9162176D01*
X13428718Y-9161879D01*
X13431237Y-9159709D01*
X13432383Y-9158722D01*
X13433015Y-9158220D01*
X13433372Y-9157959D01*
X13434195Y-9157358D01*
X13435360Y-9156193D01*
X13435907Y-9155685D01*
X13439210Y-9152839D01*
X13439753Y-9152371D01*
X13440228Y-9151638D01*
X13441556Y-9149997D01*
X13491106Y-9100447D01*
X13746120Y-9100447D01*
X13746539Y-9101736D01*
X13746958Y-9102040D01*
X13814527Y-9102040D01*
X13815816Y-9101621D01*
X13816120Y-9101202D01*
X13816120Y-9100447D01*
X13866920Y-9100447D01*
X13867339Y-9101736D01*
X13867758Y-9102040D01*
X13935327Y-9102040D01*
X13936616Y-9101621D01*
X13936920Y-9101202D01*
X13936920Y-9100447D01*
X14196120Y-9100447D01*
X14196539Y-9101736D01*
X14196958Y-9102040D01*
X14264527Y-9102040D01*
X14265816Y-9101621D01*
X14266120Y-9101202D01*
X14266120Y-9100447D01*
X14316920Y-9100447D01*
X14317339Y-9101736D01*
X14317758Y-9102040D01*
X14385327Y-9102040D01*
X14386616Y-9101621D01*
X14386920Y-9101202D01*
X14386920Y-9045432D01*
X14386823Y-9044454D01*
X14385640Y-9038501D01*
X14384896Y-9036706D01*
X14380383Y-9029952D01*
X14379008Y-9028577D01*
X14372254Y-9024064D01*
X14370459Y-9023320D01*
X14364507Y-9022137D01*
X14363527Y-9022040D01*
X14318513Y-9022040D01*
X14317224Y-9022459D01*
X14316920Y-9022878D01*
X14316920Y-9100447D01*
X14266120Y-9100447D01*
X14266120Y-9023633D01*
X14265701Y-9022344D01*
X14265282Y-9022040D01*
X14219512Y-9022040D01*
X14218534Y-9022137D01*
X14212581Y-9023320D01*
X14210785Y-9024064D01*
X14204031Y-9028577D01*
X14202657Y-9029952D01*
X14198144Y-9036706D01*
X14197400Y-9038501D01*
X14196216Y-9044453D01*
X14196120Y-9045433D01*
X14196120Y-9100447D01*
X13936920Y-9100447D01*
X13936920Y-9045432D01*
X13936823Y-9044454D01*
X13935640Y-9038501D01*
X13934896Y-9036706D01*
X13930383Y-9029952D01*
X13929008Y-9028577D01*
X13922254Y-9024064D01*
X13920459Y-9023320D01*
X13914507Y-9022137D01*
X13913527Y-9022040D01*
X13868513Y-9022040D01*
X13867224Y-9022459D01*
X13866920Y-9022878D01*
X13866920Y-9100447D01*
X13816120Y-9100447D01*
X13816120Y-9023633D01*
X13815701Y-9022344D01*
X13815282Y-9022040D01*
X13769512Y-9022040D01*
X13768534Y-9022137D01*
X13762581Y-9023320D01*
X13760785Y-9024064D01*
X13754031Y-9028577D01*
X13752657Y-9029952D01*
X13748144Y-9036706D01*
X13747400Y-9038501D01*
X13746216Y-9044453D01*
X13746120Y-9045433D01*
X13746120Y-9100447D01*
X13491106Y-9100447D01*
X13496911Y-9094642D01*
X13497925Y-9093831D01*
X13497924Y-9093829D01*
X13498470Y-9093365D01*
X13499076Y-9092982D01*
X13500291Y-9091607D01*
X13551520Y-9091607D01*
X13551939Y-9092896D01*
X13552358Y-9093200D01*
X13594927Y-9093200D01*
X13596216Y-9092781D01*
X13596520Y-9092362D01*
X13596520Y-9091607D01*
X13647320Y-9091607D01*
X13647739Y-9092896D01*
X13648158Y-9093200D01*
X13690727Y-9093200D01*
X13692016Y-9092781D01*
X13692320Y-9092362D01*
X13692320Y-9056592D01*
X13692223Y-9055614D01*
X13691040Y-9049661D01*
X13690296Y-9047866D01*
X13685783Y-9041112D01*
X13684408Y-9039737D01*
X13677654Y-9035224D01*
X13675859Y-9034480D01*
X13669907Y-9033297D01*
X13668927Y-9033200D01*
X13648913Y-9033200D01*
X13647624Y-9033619D01*
X13647320Y-9034038D01*
X13647320Y-9091607D01*
X13596520Y-9091607D01*
X13596520Y-9034793D01*
X13596101Y-9033504D01*
X13595682Y-9033200D01*
X13574912Y-9033200D01*
X13573934Y-9033297D01*
X13567981Y-9034480D01*
X13566185Y-9035224D01*
X13559431Y-9039737D01*
X13558057Y-9041112D01*
X13553544Y-9047866D01*
X13552800Y-9049661D01*
X13551616Y-9055613D01*
X13551520Y-9056593D01*
X13551520Y-9091607D01*
X13500291Y-9091607D01*
X13502691Y-9088889D01*
X13503117Y-9088435D01*
X13504318Y-9087235D01*
X13505007Y-9086315D01*
X13505516Y-9085690D01*
X13508718Y-9082065D01*
X13509101Y-9081249D01*
X13509160Y-9081122D01*
X13510216Y-9079365D01*
X13510842Y-9078531D01*
X13512540Y-9074001D01*
X13512853Y-9073258D01*
X13514908Y-9068880D01*
X13515068Y-9067851D01*
X13515588Y-9065868D01*
X13515703Y-9065563D01*
X13515703Y-9065563D01*
X13515954Y-9064892D01*
X13516313Y-9060070D01*
X13516405Y-9059267D01*
X13516570Y-9058206D01*
X13516570Y-9058205D01*
X13516630Y-9057821D01*
X13516630Y-9056174D01*
X13516658Y-9055429D01*
X13516981Y-9051081D01*
X13517034Y-9050366D01*
X13516884Y-9049665D01*
X13516852Y-9049512D01*
X13516630Y-9047412D01*
X13516630Y-8991112D01*
X13518551Y-8985199D01*
X13520656Y-8983062D01*
X13522534Y-8981654D01*
X13522964Y-8981081D01*
X13530342Y-8971237D01*
X13530342Y-8971237D01*
X13530772Y-8970664D01*
X13531079Y-8969845D01*
X13533887Y-8962354D01*
X13537761Y-8957491D01*
X13543754Y-8955835D01*
X13549576Y-8958018D01*
X13552727Y-8962354D01*
X13555581Y-8969968D01*
X13556262Y-8971212D01*
X13563632Y-8981046D01*
X13564634Y-8982048D01*
X13574468Y-8989418D01*
X13575711Y-8990099D01*
X13587298Y-8994443D01*
X13588515Y-8994732D01*
X13593476Y-8995271D01*
X13593820Y-8995289D01*
X13595076Y-8994881D01*
X13595380Y-8994462D01*
X13595380Y-8993707D01*
X13646180Y-8993707D01*
X13646599Y-8994996D01*
X13647018Y-8995300D01*
X13647542Y-8995300D01*
X13648084Y-8995271D01*
X13653045Y-8994732D01*
X13654261Y-8994443D01*
X13665849Y-8990099D01*
X13667092Y-8989418D01*
X13676925Y-8982048D01*
X13677928Y-8981046D01*
X13685298Y-8971212D01*
X13685979Y-8969969D01*
X13690323Y-8958382D01*
X13690612Y-8957165D01*
X13691151Y-8952204D01*
X13691180Y-8951662D01*
X13691180Y-8949393D01*
X13690761Y-8948104D01*
X13690342Y-8947800D01*
X13647773Y-8947800D01*
X13646484Y-8948219D01*
X13646180Y-8948638D01*
X13646180Y-8993707D01*
X13595380Y-8993707D01*
X13595380Y-8895407D01*
X13646180Y-8895407D01*
X13646599Y-8896696D01*
X13647018Y-8897000D01*
X13689587Y-8897000D01*
X13690876Y-8896581D01*
X13691180Y-8896162D01*
X13691180Y-8893138D01*
X13691151Y-8892596D01*
X13690612Y-8887635D01*
X13690323Y-8886419D01*
X13685979Y-8874831D01*
X13685298Y-8873588D01*
X13677928Y-8863755D01*
X13676925Y-8862752D01*
X13667092Y-8855382D01*
X13665849Y-8854701D01*
X13654261Y-8850357D01*
X13653045Y-8850068D01*
X13648084Y-8849529D01*
X13647740Y-8849511D01*
X13646484Y-8849919D01*
X13646180Y-8850338D01*
X13646180Y-8895407D01*
X13595380Y-8895407D01*
X13595380Y-8851093D01*
X13594961Y-8849804D01*
X13594542Y-8849500D01*
X13594018Y-8849500D01*
X13593476Y-8849529D01*
X13588515Y-8850068D01*
X13587298Y-8850357D01*
X13575711Y-8854701D01*
X13574468Y-8855382D01*
X13564634Y-8862752D01*
X13563632Y-8863755D01*
X13556262Y-8873588D01*
X13555581Y-8874832D01*
X13552727Y-8882446D01*
X13548852Y-8887309D01*
X13542859Y-8888965D01*
X13537037Y-8886783D01*
X13533887Y-8882446D01*
X13531023Y-8874807D01*
X13531023Y-8874807D01*
X13530772Y-8874137D01*
X13530222Y-8873402D01*
X13524910Y-8866315D01*
X13522534Y-8863146D01*
X13521961Y-8862716D01*
X13519417Y-8860809D01*
X13515837Y-8855725D01*
X13515390Y-8852759D01*
X13515390Y-8851727D01*
X13517311Y-8845814D01*
X13517849Y-8845137D01*
X13518065Y-8844888D01*
X13518318Y-8844635D01*
X13519007Y-8843715D01*
X13519516Y-8843090D01*
X13519589Y-8843007D01*
X13522718Y-8839465D01*
X13523160Y-8838522D01*
X13524216Y-8836765D01*
X13524842Y-8835931D01*
X13526540Y-8831400D01*
X13526852Y-8830659D01*
X13528908Y-8826280D01*
X13529018Y-8825571D01*
X13529069Y-8825250D01*
X13529589Y-8823267D01*
X13529703Y-8822963D01*
X13529703Y-8822963D01*
X13529954Y-8822292D01*
X13530313Y-8817470D01*
X13530405Y-8816667D01*
X13530630Y-8815221D01*
X13530630Y-8813574D01*
X13530658Y-8812828D01*
X13530981Y-8808481D01*
X13530981Y-8808481D01*
X13531034Y-8807766D01*
X13530852Y-8806912D01*
X13530630Y-8804812D01*
X13530630Y-8773794D01*
X13531726Y-8769227D01*
X13533730Y-8765296D01*
X13533814Y-8764763D01*
X13537394Y-8759836D01*
X13543307Y-8757915D01*
X13549220Y-8759837D01*
X13552874Y-8764867D01*
X13553238Y-8765986D01*
X13558329Y-8775977D01*
X13559248Y-8777242D01*
X13567178Y-8785172D01*
X13568443Y-8786091D01*
X13578434Y-8791182D01*
X13579846Y-8791641D01*
X13581145Y-8791435D01*
X13581224Y-8791356D01*
X13581380Y-8790706D01*
X13581380Y-8790303D01*
X13632180Y-8790303D01*
X13632599Y-8791592D01*
X13632689Y-8791658D01*
X13633356Y-8791710D01*
X13633638Y-8791665D01*
X13635125Y-8791182D01*
X13645117Y-8786091D01*
X13646382Y-8785172D01*
X13654312Y-8777242D01*
X13655231Y-8775977D01*
X13660322Y-8765986D01*
X13660805Y-8764498D01*
X13662118Y-8756211D01*
X13662180Y-8755424D01*
X13662180Y-8697133D01*
X13661761Y-8695844D01*
X13661342Y-8695540D01*
X13633773Y-8695540D01*
X13632484Y-8695959D01*
X13632180Y-8696378D01*
X13632180Y-8790303D01*
X13581380Y-8790303D01*
X13581380Y-8643147D01*
X13632180Y-8643147D01*
X13632599Y-8644436D01*
X13633018Y-8644740D01*
X13660587Y-8644740D01*
X13661876Y-8644321D01*
X13662180Y-8643902D01*
X13662180Y-8584856D01*
X13662118Y-8584071D01*
X13660805Y-8575782D01*
X13660322Y-8574294D01*
X13655231Y-8564303D01*
X13654312Y-8563038D01*
X13646382Y-8555108D01*
X13645117Y-8554189D01*
X13635126Y-8549098D01*
X13633714Y-8548639D01*
X13632415Y-8548845D01*
X13632336Y-8548924D01*
X13632180Y-8549574D01*
X13632180Y-8643147D01*
X13581380Y-8643147D01*
X13581380Y-8549977D01*
X13580961Y-8548688D01*
X13580871Y-8548622D01*
X13580204Y-8548570D01*
X13579922Y-8548615D01*
X13578435Y-8549098D01*
X13568443Y-8554189D01*
X13567178Y-8555108D01*
X13559248Y-8563038D01*
X13558329Y-8564303D01*
X13553238Y-8574294D01*
X13552874Y-8575414D01*
X13549220Y-8580444D01*
X13543307Y-8582365D01*
X13537394Y-8580444D01*
X13533814Y-8575517D01*
X13533730Y-8574985D01*
X13530510Y-8568665D01*
X13528272Y-8564273D01*
X13528272Y-8564273D01*
X13527913Y-8563568D01*
X13518852Y-8554507D01*
X13518147Y-8554148D01*
X13518147Y-8554148D01*
X13508141Y-8549050D01*
X13508141Y-8549050D01*
X13507435Y-8548690D01*
X13506654Y-8548566D01*
X13506653Y-8548566D01*
X13498353Y-8547252D01*
X13498353Y-8547252D01*
X13497963Y-8547190D01*
X13461597Y-8547190D01*
X13461207Y-8547252D01*
X13461207Y-8547252D01*
X13452906Y-8548566D01*
X13452906Y-8548566D01*
X13452124Y-8548690D01*
X13451419Y-8549050D01*
X13451419Y-8549050D01*
X13441413Y-8554148D01*
X13441413Y-8554148D01*
X13440708Y-8554507D01*
X13431647Y-8563568D01*
X13431288Y-8564273D01*
X13431288Y-8564273D01*
X13427494Y-8571720D01*
X13425830Y-8574985D01*
X13425755Y-8575459D01*
X13422193Y-8580362D01*
X13416280Y-8582283D01*
X13410367Y-8580362D01*
X13406805Y-8575459D01*
X13406730Y-8574985D01*
X13405066Y-8571720D01*
X13401272Y-8564273D01*
X13401272Y-8564273D01*
X13400913Y-8563568D01*
X13391852Y-8554507D01*
X13391147Y-8554148D01*
X13391147Y-8554148D01*
X13381141Y-8549050D01*
X13381141Y-8549050D01*
X13380435Y-8548690D01*
X13379654Y-8548566D01*
X13379653Y-8548566D01*
X13371353Y-8547252D01*
X13371353Y-8547252D01*
X13370963Y-8547190D01*
X13334597Y-8547190D01*
X13334207Y-8547252D01*
X13334207Y-8547252D01*
X13325906Y-8548566D01*
X13325906Y-8548566D01*
X13325124Y-8548690D01*
X13324419Y-8549050D01*
X13324419Y-8549050D01*
X13314413Y-8554148D01*
X13314413Y-8554148D01*
X13313708Y-8554507D01*
X13304647Y-8563568D01*
X13304288Y-8564273D01*
X13304288Y-8564273D01*
X13300494Y-8571720D01*
X13298830Y-8574985D01*
X13298755Y-8575459D01*
X13295193Y-8580362D01*
X13289280Y-8582283D01*
X13283367Y-8580362D01*
X13279805Y-8575459D01*
X13279730Y-8574985D01*
X13278066Y-8571720D01*
X13274272Y-8564273D01*
X13274272Y-8564273D01*
X13273913Y-8563568D01*
X13264852Y-8554507D01*
X13264147Y-8554148D01*
X13264147Y-8554148D01*
X13254141Y-8549050D01*
X13254141Y-8549050D01*
X13253435Y-8548690D01*
X13252654Y-8548566D01*
X13252653Y-8548566D01*
X13244353Y-8547252D01*
X13244353Y-8547252D01*
X13243963Y-8547190D01*
X13207597Y-8547190D01*
X13207207Y-8547252D01*
X13207207Y-8547252D01*
X13203275Y-8547874D01*
X13197134Y-8546902D01*
X13192738Y-8542505D01*
X13191765Y-8536364D01*
X13194588Y-8530825D01*
X13344176Y-8381236D01*
X13349716Y-8378414D01*
X13351290Y-8378290D01*
X13736010Y-8378290D01*
X13741923Y-8380211D01*
X13745578Y-8385241D01*
X13746070Y-8388350D01*
X13746070Y-8409947D01*
X13746606Y-8412640D01*
X13747252Y-8415889D01*
X13747547Y-8417370D01*
X13748097Y-8418194D01*
X13748097Y-8418194D01*
X13750167Y-8421291D01*
X13753172Y-8425788D01*
X13753995Y-8426339D01*
X13754983Y-8426999D01*
X13761590Y-8431413D01*
X13766444Y-8432379D01*
X13768528Y-8432794D01*
X13768528Y-8432794D01*
X13769013Y-8432890D01*
X13769508Y-8432890D01*
X13841586Y-8432890D01*
X13914027Y-8432890D01*
X13917575Y-8432184D01*
X13920478Y-8431607D01*
X13920479Y-8431607D01*
X13921450Y-8431413D01*
X13924330Y-8429489D01*
X13929045Y-8426339D01*
X13929868Y-8425788D01*
X13935493Y-8417370D01*
X13936970Y-8409947D01*
X13936970Y-8388350D01*
X13938891Y-8382437D01*
X13943921Y-8378782D01*
X13947030Y-8378290D01*
X14186010Y-8378290D01*
X14191923Y-8380211D01*
X14195578Y-8385241D01*
X14196070Y-8388350D01*
X14196070Y-8409947D01*
X14196606Y-8412640D01*
X14197252Y-8415889D01*
X14197547Y-8417370D01*
X14198097Y-8418194D01*
X14198097Y-8418194D01*
X14200167Y-8421291D01*
X14203172Y-8425788D01*
X14203995Y-8426339D01*
X14204983Y-8426999D01*
X14211590Y-8431413D01*
X14216444Y-8432379D01*
X14218528Y-8432794D01*
X14218528Y-8432794D01*
X14219013Y-8432890D01*
X14219508Y-8432890D01*
X14291586Y-8432890D01*
X14364027Y-8432890D01*
X14367575Y-8432184D01*
X14370478Y-8431607D01*
X14370479Y-8431607D01*
X14371450Y-8431413D01*
X14374330Y-8429489D01*
X14377794Y-8427175D01*
X14429170Y-8427175D01*
X14429267Y-8428155D01*
X14431045Y-8437095D01*
X14431331Y-8438037D01*
X14431554Y-8438575D01*
X14432538Y-8440951D01*
X14433001Y-8441818D01*
X14438067Y-8449399D01*
X14438690Y-8450159D01*
X14472342Y-8483810D01*
X14473102Y-8484434D01*
X14480683Y-8489499D01*
X14481549Y-8489962D01*
X14484463Y-8491169D01*
X14485403Y-8491455D01*
X14494345Y-8493233D01*
X14495325Y-8493330D01*
X14608487Y-8493330D01*
X14609776Y-8492911D01*
X14610080Y-8492492D01*
X14610080Y-8404013D01*
X14609661Y-8402724D01*
X14609242Y-8402420D01*
X14430764Y-8402420D01*
X14429475Y-8402839D01*
X14429170Y-8403258D01*
X14429170Y-8427175D01*
X14377794Y-8427175D01*
X14379045Y-8426339D01*
X14379868Y-8425788D01*
X14385493Y-8417370D01*
X14386970Y-8409947D01*
X14386970Y-8350027D01*
X14429170Y-8350027D01*
X14429589Y-8351316D01*
X14430008Y-8351620D01*
X14608487Y-8351620D01*
X14609776Y-8351201D01*
X14610080Y-8350782D01*
X14610080Y-8262304D01*
X14609661Y-8261015D01*
X14609242Y-8260710D01*
X14495325Y-8260710D01*
X14494345Y-8260807D01*
X14485404Y-8262585D01*
X14484464Y-8262870D01*
X14482088Y-8263855D01*
X14481549Y-8264078D01*
X14480683Y-8264541D01*
X14473101Y-8269607D01*
X14472341Y-8270230D01*
X14438690Y-8303882D01*
X14438066Y-8304641D01*
X14433002Y-8312221D01*
X14432537Y-8313090D01*
X14432248Y-8313789D01*
X14431331Y-8316002D01*
X14431045Y-8316944D01*
X14429267Y-8325885D01*
X14429170Y-8326865D01*
X14429170Y-8350027D01*
X14386970Y-8350027D01*
X14386970Y-8244933D01*
X14386093Y-8240524D01*
X14385687Y-8238482D01*
X14385687Y-8238481D01*
X14385493Y-8237510D01*
X14384943Y-8236686D01*
X14380419Y-8229915D01*
X14379868Y-8229092D01*
X14371450Y-8223467D01*
X14366596Y-8222501D01*
X14364512Y-8222086D01*
X14364512Y-8222086D01*
X14364027Y-8221990D01*
X14363532Y-8221990D01*
X14291454Y-8221990D01*
X14219013Y-8221990D01*
X14215465Y-8222696D01*
X14212562Y-8223273D01*
X14212561Y-8223273D01*
X14211590Y-8223467D01*
X14210766Y-8224017D01*
X14210766Y-8224017D01*
X14207813Y-8225990D01*
X14203172Y-8229092D01*
X14197547Y-8237510D01*
X14196947Y-8240524D01*
X14196203Y-8244265D01*
X14196070Y-8244933D01*
X14196070Y-8266530D01*
X14194149Y-8272443D01*
X14189119Y-8276098D01*
X14186010Y-8276590D01*
X13947030Y-8276590D01*
X13941117Y-8274669D01*
X13937462Y-8269639D01*
X13936970Y-8266530D01*
X13936970Y-8244933D01*
X13936093Y-8240524D01*
X13935687Y-8238482D01*
X13935687Y-8238481D01*
X13935493Y-8237510D01*
X13934943Y-8236686D01*
X13930419Y-8229915D01*
X13929868Y-8229092D01*
X13921450Y-8223467D01*
X13916596Y-8222501D01*
X13914512Y-8222086D01*
X13914512Y-8222086D01*
X13914027Y-8221990D01*
X13913532Y-8221990D01*
X13841454Y-8221990D01*
X13769013Y-8221990D01*
X13765465Y-8222696D01*
X13762562Y-8223273D01*
X13762561Y-8223273D01*
X13761590Y-8223467D01*
X13760766Y-8224017D01*
X13760766Y-8224017D01*
X13757813Y-8225990D01*
X13753172Y-8229092D01*
X13747547Y-8237510D01*
X13746947Y-8240524D01*
X13746203Y-8244265D01*
X13746070Y-8244933D01*
X13746070Y-8266530D01*
X13744149Y-8272443D01*
X13739119Y-8276098D01*
X13736010Y-8276590D01*
X13671512Y-8276590D01*
X13665598Y-8274669D01*
X13661944Y-8269639D01*
X13661575Y-8264956D01*
X13662168Y-8261214D01*
X13662168Y-8261213D01*
X13662230Y-8260823D01*
X13662230Y-8089457D01*
X13662168Y-8089067D01*
X13660854Y-8080766D01*
X13660854Y-8080766D01*
X13660730Y-8079984D01*
X13659728Y-8078019D01*
X13655272Y-8069273D01*
X13655272Y-8069273D01*
X13654913Y-8068568D01*
X13645852Y-8059507D01*
X13645147Y-8059148D01*
X13645147Y-8059148D01*
X13636604Y-8054795D01*
X13634058Y-8052945D01*
X13621386Y-8040273D01*
X13618564Y-8034734D01*
X13619536Y-8028593D01*
X13623933Y-8024196D01*
X13628500Y-8023100D01*
X13641162Y-8023100D01*
X13641704Y-8023071D01*
X13646665Y-8022532D01*
X13647881Y-8022243D01*
X13659469Y-8017899D01*
X13660712Y-8017218D01*
X13670545Y-8009848D01*
X13671548Y-8008845D01*
X13678918Y-7999012D01*
X13679599Y-7997769D01*
X13683943Y-7986181D01*
X13684232Y-7984965D01*
X13684771Y-7980004D01*
X13684800Y-7979462D01*
X13684800Y-7977193D01*
X13684381Y-7975904D01*
X13683962Y-7975600D01*
X13599060Y-7975600D01*
X13593147Y-7973679D01*
X13589492Y-7968649D01*
X13589000Y-7965540D01*
X13589000Y-7923207D01*
X13639800Y-7923207D01*
X13640219Y-7924496D01*
X13640638Y-7924800D01*
X13683207Y-7924800D01*
X13684496Y-7924381D01*
X13684800Y-7923962D01*
X13684800Y-7920938D01*
X13684771Y-7920396D01*
X13684232Y-7915435D01*
X13683943Y-7914218D01*
X13679599Y-7902631D01*
X13678918Y-7901388D01*
X13671548Y-7891554D01*
X13670545Y-7890552D01*
X13660712Y-7883182D01*
X13659469Y-7882501D01*
X13647881Y-7878157D01*
X13646665Y-7877868D01*
X13641704Y-7877329D01*
X13641360Y-7877311D01*
X13640104Y-7877719D01*
X13639800Y-7878138D01*
X13639800Y-7923207D01*
X13589000Y-7923207D01*
X13589000Y-7878893D01*
X13588581Y-7877604D01*
X13588162Y-7877300D01*
X13587638Y-7877300D01*
X13587096Y-7877329D01*
X13582135Y-7877868D01*
X13580918Y-7878157D01*
X13569331Y-7882501D01*
X13568088Y-7883182D01*
X13558254Y-7890552D01*
X13557252Y-7891554D01*
X13549882Y-7901388D01*
X13549201Y-7902632D01*
X13546347Y-7910246D01*
X13542472Y-7915109D01*
X13536479Y-7916765D01*
X13530657Y-7914582D01*
X13527507Y-7910246D01*
X13524643Y-7902607D01*
X13524643Y-7902607D01*
X13524392Y-7901936D01*
X13522672Y-7899642D01*
X13516584Y-7891519D01*
X13516154Y-7890946D01*
X13515035Y-7890107D01*
X13505737Y-7883138D01*
X13505737Y-7883138D01*
X13505163Y-7882708D01*
X13504493Y-7882457D01*
X13504493Y-7882457D01*
X13492892Y-7878108D01*
X13492892Y-7878108D01*
X13492302Y-7877887D01*
X13488925Y-7877520D01*
X13486709Y-7877279D01*
X13486708Y-7877279D01*
X13486439Y-7877250D01*
X13459405Y-7877250D01*
X13432361Y-7877250D01*
X13428046Y-7877719D01*
X13427124Y-7877819D01*
X13427124Y-7877819D01*
X13426498Y-7877887D01*
X13425907Y-7878108D01*
X13425907Y-7878108D01*
X13414307Y-7882457D01*
X13414307Y-7882457D01*
X13413636Y-7882708D01*
X13413063Y-7883138D01*
X13413063Y-7883138D01*
X13409661Y-7885688D01*
X13403777Y-7887697D01*
X13397836Y-7885863D01*
X13394107Y-7880888D01*
X13393675Y-7879103D01*
X13392757Y-7872866D01*
X13392757Y-7872866D01*
X13392643Y-7872092D01*
X13386928Y-7860453D01*
X13385241Y-7858768D01*
X13378339Y-7851879D01*
X13378339Y-7851879D01*
X13377751Y-7851292D01*
X13377004Y-7850927D01*
X13377004Y-7850927D01*
X13366803Y-7845940D01*
X13366101Y-7845597D01*
X13362607Y-7845087D01*
X13358873Y-7844543D01*
X13358872Y-7844543D01*
X13358512Y-7844490D01*
X13341405Y-7844490D01*
X13324128Y-7844490D01*
X13316472Y-7845617D01*
X13304833Y-7851332D01*
X13304245Y-7851920D01*
X13304245Y-7851920D01*
X13297409Y-7858768D01*
X13291872Y-7861596D01*
X13285730Y-7860628D01*
X13283182Y-7858781D01*
X13276310Y-7851920D01*
X13274975Y-7850968D01*
X13266152Y-7846655D01*
X13265005Y-7846493D01*
X13264720Y-7847076D01*
X13264720Y-7917280D01*
X13262799Y-7923193D01*
X13257769Y-7926848D01*
X13254660Y-7927340D01*
X13188986Y-7927340D01*
X13187697Y-7927759D01*
X13187614Y-7927873D01*
X13187562Y-7928490D01*
X13187932Y-7930999D01*
X13188390Y-7932475D01*
X13193386Y-7942651D01*
X13194342Y-7943985D01*
X13194678Y-7944321D01*
X13197506Y-7949858D01*
X13196539Y-7956000D01*
X13194691Y-7958548D01*
X13193672Y-7959569D01*
X13193307Y-7960315D01*
X13193307Y-7960316D01*
X13190076Y-7966924D01*
X13187977Y-7971219D01*
X13187923Y-7971592D01*
X13185248Y-7975824D01*
X13183759Y-7977193D01*
X13182280Y-7978554D01*
X13179882Y-7982421D01*
X13179346Y-7983201D01*
X13177084Y-7986181D01*
X13176595Y-7986826D01*
X13176342Y-7987463D01*
X13176342Y-7987463D01*
X13175942Y-7988473D01*
X13175139Y-7990071D01*
X13174567Y-7990994D01*
X13174205Y-7991577D01*
X13174014Y-7992236D01*
X13174014Y-7992236D01*
X13172936Y-7995945D01*
X13172629Y-7996842D01*
X13170954Y-8001073D01*
X13170882Y-8001755D01*
X13170768Y-8002836D01*
X13170424Y-8004591D01*
X13169930Y-8006293D01*
X13169850Y-8007379D01*
X13169850Y-8011048D01*
X13169795Y-8012099D01*
X13169352Y-8016313D01*
X13169466Y-8016989D01*
X13169466Y-8016989D01*
X13169709Y-8018424D01*
X13169850Y-8020102D01*
X13169850Y-8178978D01*
X13169896Y-8179318D01*
X13169896Y-8179318D01*
X13170237Y-8181803D01*
X13170330Y-8183168D01*
X13170330Y-8260823D01*
X13170392Y-8261213D01*
X13170392Y-8261213D01*
X13171672Y-8269299D01*
X13171830Y-8270295D01*
X13173753Y-8274070D01*
X13173833Y-8274227D01*
X13174930Y-8278794D01*
X13174930Y-8295810D01*
X13173009Y-8301723D01*
X13171983Y-8302924D01*
X12893104Y-8581804D01*
X12887564Y-8584626D01*
X12885990Y-8584750D01*
X12867540Y-8584750D01*
X12861627Y-8582829D01*
X12857972Y-8577799D01*
X12857931Y-8572105D01*
X12857943Y-8572081D01*
X12858134Y-8570770D01*
X12858997Y-8564853D01*
X12858997Y-8564852D01*
X12859050Y-8564492D01*
X12859050Y-8530108D01*
X12857923Y-8522453D01*
X12852208Y-8510813D01*
X12850851Y-8509458D01*
X12844807Y-8503425D01*
X12841980Y-8497887D01*
X12842947Y-8491746D01*
X12844795Y-8489198D01*
X12851661Y-8482320D01*
X12851661Y-8482319D01*
X12852248Y-8481731D01*
X12852613Y-8480985D01*
X12852613Y-8480984D01*
X12857600Y-8470783D01*
X12857943Y-8470081D01*
X12858933Y-8463294D01*
X12858997Y-8462853D01*
X12858997Y-8462852D01*
X12859050Y-8462492D01*
X12859050Y-8428108D01*
X12857923Y-8420453D01*
X12852208Y-8408813D01*
X12851614Y-8408220D01*
X12843619Y-8400239D01*
X12843619Y-8400239D01*
X12843031Y-8399652D01*
X12842284Y-8399287D01*
X12842284Y-8399287D01*
X12832083Y-8394300D01*
X12831381Y-8393957D01*
X12827887Y-8393448D01*
X12824153Y-8392903D01*
X12824152Y-8392903D01*
X12823792Y-8392850D01*
X12801709Y-8392850D01*
X12779408Y-8392850D01*
X12771752Y-8393977D01*
X12760113Y-8399692D01*
X12759525Y-8400280D01*
X12759525Y-8400280D01*
X12751539Y-8408281D01*
X12751539Y-8408281D01*
X12750952Y-8408869D01*
X12750587Y-8409616D01*
X12750587Y-8409616D01*
X12746394Y-8418194D01*
X12745257Y-8420519D01*
X12745144Y-8421291D01*
X12744203Y-8427745D01*
X12744150Y-8428108D01*
X12744150Y-8462492D01*
X12745277Y-8470148D01*
X12750992Y-8481787D01*
X12751580Y-8482375D01*
X12751580Y-8482375D01*
X12758393Y-8489175D01*
X12761220Y-8494713D01*
X12760253Y-8500854D01*
X12758405Y-8503402D01*
X12751539Y-8510280D01*
X12751539Y-8510281D01*
X12750952Y-8510869D01*
X12750587Y-8511616D01*
X12750587Y-8511616D01*
X12746375Y-8520232D01*
X12745257Y-8522519D01*
X12744922Y-8524816D01*
X12744203Y-8529744D01*
X12744150Y-8530108D01*
X12744150Y-8564492D01*
X12745277Y-8572148D01*
X12745621Y-8572849D01*
X12745621Y-8572849D01*
X12748090Y-8577876D01*
X12748971Y-8584031D01*
X12746066Y-8589528D01*
X12740485Y-8592268D01*
X12739059Y-8592370D01*
X12717713Y-8592370D01*
X12711800Y-8590449D01*
X12710600Y-8589424D01*
X12698287Y-8577110D01*
X12697581Y-8576751D01*
X12697581Y-8576751D01*
X12695923Y-8575906D01*
X12694577Y-8575081D01*
X12693071Y-8573987D01*
X12693071Y-8573987D01*
X12692431Y-8573522D01*
X12691678Y-8573277D01*
X12691678Y-8573277D01*
X12689907Y-8572702D01*
X12688449Y-8572098D01*
X12686791Y-8571253D01*
X12686791Y-8571253D01*
X12686085Y-8570893D01*
X12683465Y-8570478D01*
X12681930Y-8570110D01*
X12681705Y-8570037D01*
X12679407Y-8569290D01*
X12673026Y-8569290D01*
X12667113Y-8567369D01*
X12663459Y-8562339D01*
X12663459Y-8556121D01*
X12664958Y-8553403D01*
X12664885Y-8553352D01*
X12665667Y-8552215D01*
X12675480Y-8534691D01*
X12675854Y-8533853D01*
X12682310Y-8514834D01*
X12682524Y-8513941D01*
X12685430Y-8493901D01*
X12685480Y-8493312D01*
X12685622Y-8487896D01*
X12685603Y-8487305D01*
X12683750Y-8467140D01*
X12683582Y-8466238D01*
X12678131Y-8446907D01*
X12677801Y-8446050D01*
X12668918Y-8428036D01*
X12668701Y-8427682D01*
X12667716Y-8426986D01*
X12667569Y-8426988D01*
X12667051Y-8427310D01*
X12577953Y-8516408D01*
X12572414Y-8519230D01*
X12566273Y-8518258D01*
X12563726Y-8516408D01*
X12474948Y-8427629D01*
X12473895Y-8427093D01*
X12473095Y-8427883D01*
X12465003Y-8443264D01*
X12464651Y-8444112D01*
X12458695Y-8463294D01*
X12458505Y-8464191D01*
X12456144Y-8484137D01*
X12456120Y-8485056D01*
X12457433Y-8505098D01*
X12457577Y-8506003D01*
X12462521Y-8525470D01*
X12462828Y-8526337D01*
X12471236Y-8544576D01*
X12471696Y-8545372D01*
X12477386Y-8553424D01*
X12479230Y-8559362D01*
X12477231Y-8565249D01*
X12472154Y-8568838D01*
X12469171Y-8569290D01*
X12102496Y-8569290D01*
X12099613Y-8568868D01*
X12093342Y-8566993D01*
X12092655Y-8566787D01*
X12091938Y-8566783D01*
X12091938Y-8566783D01*
X12086268Y-8566748D01*
X12079544Y-8566707D01*
X12078855Y-8566904D01*
X12078855Y-8566904D01*
X12073891Y-8568323D01*
X12066938Y-8570310D01*
X12066332Y-8570692D01*
X12066332Y-8570692D01*
X12056730Y-8576751D01*
X12055850Y-8577306D01*
X12053175Y-8580335D01*
X12047841Y-8586375D01*
X12047172Y-8587133D01*
X12046867Y-8587781D01*
X12046867Y-8587782D01*
X12045159Y-8591420D01*
X12041600Y-8599001D01*
X12041489Y-8599709D01*
X12039920Y-8609790D01*
X12039583Y-8611955D01*
X12039854Y-8614031D01*
X12040791Y-8621198D01*
X12041283Y-8624955D01*
X12046563Y-8636955D01*
X12054999Y-8646991D01*
X12059601Y-8650055D01*
X12065316Y-8653859D01*
X12065316Y-8653859D01*
X12065913Y-8654256D01*
X12078427Y-8658166D01*
X12084814Y-8658283D01*
X12090819Y-8658393D01*
X12090819Y-8658393D01*
X12091535Y-8658406D01*
X12099979Y-8656104D01*
X12102625Y-8655750D01*
X12469004Y-8655750D01*
X12474917Y-8657671D01*
X12478572Y-8662701D01*
X12478572Y-8668919D01*
X12476904Y-8672038D01*
X12474527Y-8675054D01*
X12464742Y-8693653D01*
X12461932Y-8702703D01*
X12458791Y-8712819D01*
X12458510Y-8713723D01*
X12457599Y-8721419D01*
X12456111Y-8733987D01*
X12456039Y-8734594D01*
X12456474Y-8741220D01*
X12457155Y-8751612D01*
X12455624Y-8757638D01*
X12450844Y-8761614D01*
X12447116Y-8762330D01*
X11795909Y-8762330D01*
X11789996Y-8760409D01*
X11788796Y-8759384D01*
X11543861Y-8514449D01*
X11541365Y-8509458D01*
X11541225Y-8509499D01*
X11541024Y-8508811D01*
X11540922Y-8508102D01*
X11537805Y-8501247D01*
X11536868Y-8499186D01*
X11535496Y-8496167D01*
X11526937Y-8486235D01*
X11519989Y-8481731D01*
X11516537Y-8479494D01*
X11516537Y-8479494D01*
X11515936Y-8479104D01*
X11503375Y-8475347D01*
X11502658Y-8475343D01*
X11502658Y-8475343D01*
X11496988Y-8475308D01*
X11490264Y-8475267D01*
X11489575Y-8475464D01*
X11489575Y-8475464D01*
X11485119Y-8476738D01*
X11477658Y-8478870D01*
X11477052Y-8479252D01*
X11477052Y-8479252D01*
X11467895Y-8485030D01*
X11466570Y-8485866D01*
X11466096Y-8486403D01*
X11466096Y-8486404D01*
X11461929Y-8491121D01*
X11456575Y-8494281D01*
X11450386Y-8493691D01*
X11447895Y-8492143D01*
X11447615Y-8491863D01*
X11445987Y-8490700D01*
X11445608Y-8490415D01*
X11442984Y-8488347D01*
X11441513Y-8487187D01*
X11440780Y-8486929D01*
X11440527Y-8486798D01*
X11439896Y-8486347D01*
X11439099Y-8486109D01*
X11439099Y-8486108D01*
X11436831Y-8485430D01*
X11434901Y-8484853D01*
X11434453Y-8484707D01*
X11429530Y-8482978D01*
X11428971Y-8482930D01*
X11428754Y-8482930D01*
X11428629Y-8482925D01*
X11428384Y-8482904D01*
X11427728Y-8482708D01*
X11422264Y-8482922D01*
X11421869Y-8482930D01*
X11364794Y-8482930D01*
X11359322Y-8481312D01*
X11356517Y-8479494D01*
X11356517Y-8479494D01*
X11355916Y-8479104D01*
X11343355Y-8475347D01*
X11342638Y-8475343D01*
X11342638Y-8475343D01*
X11336968Y-8475308D01*
X11330244Y-8475267D01*
X11329555Y-8475464D01*
X11329555Y-8475464D01*
X11325099Y-8476738D01*
X11317638Y-8478870D01*
X11317032Y-8479252D01*
X11317032Y-8479252D01*
X11307875Y-8485030D01*
X11306550Y-8485866D01*
X11301222Y-8491899D01*
X11295868Y-8495059D01*
X11289679Y-8494469D01*
X11286694Y-8492272D01*
X11286645Y-8492329D01*
X11286105Y-8491858D01*
X11285637Y-8491315D01*
X11279127Y-8487095D01*
X11275237Y-8484574D01*
X11275237Y-8484574D01*
X11274636Y-8484184D01*
X11262075Y-8480427D01*
X11261358Y-8480423D01*
X11261358Y-8480423D01*
X11255688Y-8480388D01*
X11248964Y-8480347D01*
X11248275Y-8480544D01*
X11248275Y-8480544D01*
X11244122Y-8481731D01*
X11236358Y-8483950D01*
X11235752Y-8484332D01*
X11235752Y-8484332D01*
X11226112Y-8490415D01*
X11225270Y-8490946D01*
X11223900Y-8492498D01*
X11217519Y-8499723D01*
X11216592Y-8500773D01*
X11216287Y-8501421D01*
X11216287Y-8501422D01*
X11214427Y-8505383D01*
X11211020Y-8512641D01*
X11210909Y-8513349D01*
X11209124Y-8524816D01*
X11209003Y-8525595D01*
X11209096Y-8526305D01*
X11210321Y-8535675D01*
X11210703Y-8538595D01*
X11213334Y-8544576D01*
X11215122Y-8548639D01*
X11215983Y-8550595D01*
X11216132Y-8550772D01*
X11216242Y-8551111D01*
X11216707Y-8551751D01*
X11216707Y-8551751D01*
X11217801Y-8553257D01*
X11218626Y-8554603D01*
X11219471Y-8556261D01*
X11219830Y-8556967D01*
X11696743Y-9033880D01*
X11699566Y-9039420D01*
X11699690Y-9040994D01*
X11699690Y-9285967D01*
X11700176Y-9287464D01*
X11700510Y-9288491D01*
X11700878Y-9290025D01*
X11701293Y-9292645D01*
X11701653Y-9293351D01*
X11701653Y-9293351D01*
X11702497Y-9295009D01*
X11703102Y-9296467D01*
X11703444Y-9297521D01*
X11703922Y-9298991D01*
X11704387Y-9299631D01*
X11704387Y-9299631D01*
X11705481Y-9301137D01*
X11706306Y-9302483D01*
X11707151Y-9304141D01*
X11707510Y-9304847D01*
X11846203Y-9443540D01*
X11849026Y-9449079D01*
X11848697Y-9453636D01*
X11844877Y-9465938D01*
X11844741Y-9466378D01*
X11844472Y-9468645D01*
X11842680Y-9483790D01*
X11842355Y-9486536D01*
X11843682Y-9506792D01*
X11843796Y-9507238D01*
X11847276Y-9520941D01*
X11848679Y-9526467D01*
X11857178Y-9544902D01*
X11868893Y-9561479D01*
X11883434Y-9575644D01*
X11883817Y-9575900D01*
X11883817Y-9575900D01*
X11889303Y-9579565D01*
X11893152Y-9584448D01*
X11893396Y-9590661D01*
X11889942Y-9595830D01*
X11883714Y-9597990D01*
X11769215Y-9597990D01*
X11763302Y-9596069D01*
X11759647Y-9591039D01*
X11759647Y-9584821D01*
X11762782Y-9580195D01*
X11777284Y-9568134D01*
X11777934Y-9567484D01*
X11790318Y-9552594D01*
X11790839Y-9551837D01*
X11800302Y-9534938D01*
X11800676Y-9534100D01*
X11806819Y-9516001D01*
X11806661Y-9515081D01*
X11806556Y-9514978D01*
X11805962Y-9514840D01*
X11593371Y-9514840D01*
X11592161Y-9515233D01*
X11592129Y-9516221D01*
X11594613Y-9526003D01*
X11594920Y-9526870D01*
X11603028Y-9544457D01*
X11603488Y-9545253D01*
X11614665Y-9561069D01*
X11615262Y-9561769D01*
X11629135Y-9575282D01*
X11629849Y-9575861D01*
X11635393Y-9579565D01*
X11639242Y-9584448D01*
X11639487Y-9590661D01*
X11636032Y-9595830D01*
X11629804Y-9597990D01*
X11515293Y-9597990D01*
X11509380Y-9596069D01*
X11505725Y-9591039D01*
X11505725Y-9584821D01*
X11508860Y-9580196D01*
X11523320Y-9568170D01*
X11523674Y-9567875D01*
X11527207Y-9563627D01*
X11536360Y-9552622D01*
X11536360Y-9552622D01*
X11536655Y-9552268D01*
X11546573Y-9534557D01*
X11553098Y-9515335D01*
X11556011Y-9495245D01*
X11556021Y-9494889D01*
X11556155Y-9489736D01*
X11556155Y-9489735D01*
X11556163Y-9489440D01*
X11555854Y-9486078D01*
X11554348Y-9469685D01*
X11554348Y-9469684D01*
X11554306Y-9469226D01*
X11552414Y-9462518D01*
X11591991Y-9462518D01*
X11592007Y-9463700D01*
X11593079Y-9464040D01*
X11672247Y-9464040D01*
X11673536Y-9463621D01*
X11673840Y-9463202D01*
X11673840Y-9462447D01*
X11724640Y-9462447D01*
X11725059Y-9463736D01*
X11725478Y-9464040D01*
X11805198Y-9464040D01*
X11806365Y-9463661D01*
X11806386Y-9462604D01*
X11802874Y-9450150D01*
X11802545Y-9449293D01*
X11793979Y-9431922D01*
X11793499Y-9431140D01*
X11781910Y-9415621D01*
X11781296Y-9414938D01*
X11767074Y-9401792D01*
X11766345Y-9401232D01*
X11749965Y-9390898D01*
X11749147Y-9390480D01*
X11731158Y-9383304D01*
X11730277Y-9383043D01*
X11726203Y-9382232D01*
X11724857Y-9382392D01*
X11724853Y-9382395D01*
X11724640Y-9383212D01*
X11724640Y-9462447D01*
X11673840Y-9462447D01*
X11673840Y-9383372D01*
X11673421Y-9382083D01*
X11673360Y-9382038D01*
X11672634Y-9381986D01*
X11670998Y-9382267D01*
X11670112Y-9382504D01*
X11651941Y-9389208D01*
X11651111Y-9389604D01*
X11634467Y-9399506D01*
X11633724Y-9400046D01*
X11619162Y-9412816D01*
X11618530Y-9413482D01*
X11606539Y-9428692D01*
X11606039Y-9429462D01*
X11597021Y-9446603D01*
X11596670Y-9447451D01*
X11591991Y-9462518D01*
X11552414Y-9462518D01*
X11548796Y-9449689D01*
X11539818Y-9431483D01*
X11536558Y-9427118D01*
X11536189Y-9426624D01*
X11534190Y-9420605D01*
X11534190Y-9341270D01*
X11536111Y-9335357D01*
X11541141Y-9331702D01*
X11544250Y-9331210D01*
X11548547Y-9331210D01*
X11552621Y-9330400D01*
X11554998Y-9329927D01*
X11554999Y-9329927D01*
X11555970Y-9329733D01*
X11556895Y-9329116D01*
X11563565Y-9324659D01*
X11563565Y-9324659D01*
X11564388Y-9324108D01*
X11570013Y-9315690D01*
X11571490Y-9308267D01*
X11571490Y-9203253D01*
X11570385Y-9197697D01*
X11570207Y-9196802D01*
X11570207Y-9196801D01*
X11570013Y-9195830D01*
X11569463Y-9195006D01*
X11564939Y-9188235D01*
X11564388Y-9187412D01*
X11563143Y-9186579D01*
X11559980Y-9184466D01*
X11555970Y-9181787D01*
X11550065Y-9180612D01*
X11549032Y-9180407D01*
X11549032Y-9180407D01*
X11548547Y-9180310D01*
X11548052Y-9180310D01*
X11495992Y-9180310D01*
X11443533Y-9180310D01*
X11439985Y-9181016D01*
X11437082Y-9181593D01*
X11437081Y-9181593D01*
X11436110Y-9181787D01*
X11435286Y-9182337D01*
X11435286Y-9182337D01*
X11428864Y-9186628D01*
X11427692Y-9187412D01*
X11427141Y-9188235D01*
X11426953Y-9188423D01*
X11421414Y-9191246D01*
X11415273Y-9190273D01*
X11412726Y-9188423D01*
X11412539Y-9188235D01*
X11411988Y-9187412D01*
X11410743Y-9186579D01*
X11407580Y-9184466D01*
X11403570Y-9181787D01*
X11397665Y-9180612D01*
X11396632Y-9180407D01*
X11396632Y-9180407D01*
X11396147Y-9180310D01*
X11395652Y-9180310D01*
X11343592Y-9180310D01*
X11291133Y-9180310D01*
X11287585Y-9181016D01*
X11284682Y-9181593D01*
X11284681Y-9181593D01*
X11283710Y-9181787D01*
X11282886Y-9182337D01*
X11282886Y-9182337D01*
X11276464Y-9186628D01*
X11275292Y-9187412D01*
X11274741Y-9188235D01*
X11274553Y-9188423D01*
X11269014Y-9191246D01*
X11262873Y-9190273D01*
X11260326Y-9188423D01*
X11260139Y-9188235D01*
X11259588Y-9187412D01*
X11258343Y-9186579D01*
X11255180Y-9184466D01*
X11251170Y-9181787D01*
X11245265Y-9180612D01*
X11244232Y-9180407D01*
X11244232Y-9180407D01*
X11243747Y-9180310D01*
X11243252Y-9180310D01*
X11191192Y-9180310D01*
X11138733Y-9180310D01*
X11135185Y-9181016D01*
X11132282Y-9181593D01*
X11132281Y-9181593D01*
X11131310Y-9181787D01*
X11130486Y-9182337D01*
X11130486Y-9182337D01*
X11124064Y-9186628D01*
X11122892Y-9187412D01*
X11117267Y-9195830D01*
X11116484Y-9199762D01*
X11115896Y-9202720D01*
X11115790Y-9203253D01*
X11115790Y-9308267D01*
X11116266Y-9310659D01*
X11116937Y-9314031D01*
X11117267Y-9315690D01*
X11117817Y-9316514D01*
X11117817Y-9316514D01*
X11120276Y-9320194D01*
X11122892Y-9324108D01*
X11123715Y-9324659D01*
X11123715Y-9324659D01*
X11124999Y-9325517D01*
X11131310Y-9329733D01*
X11136164Y-9330699D01*
X11138248Y-9331114D01*
X11138248Y-9331114D01*
X11138733Y-9331210D01*
X11143491Y-9331210D01*
X11149404Y-9333131D01*
X11153059Y-9338161D01*
X11153416Y-9339629D01*
X11153420Y-9339654D01*
X11153485Y-9340112D01*
X11153949Y-9344029D01*
X11154098Y-9345291D01*
X11154435Y-9345992D01*
X11154520Y-9346262D01*
X11154648Y-9347028D01*
X11157124Y-9351618D01*
X11157338Y-9352038D01*
X11159322Y-9356169D01*
X11159322Y-9356170D01*
X11159596Y-9356740D01*
X11159957Y-9357169D01*
X11160112Y-9357324D01*
X11160194Y-9357413D01*
X11160353Y-9357602D01*
X11160679Y-9358206D01*
X11161289Y-9358770D01*
X11161290Y-9358770D01*
X11164695Y-9361918D01*
X11164980Y-9362192D01*
X11168039Y-9365251D01*
X11170862Y-9370791D01*
X11169889Y-9376932D01*
X11165493Y-9381328D01*
X11163410Y-9382020D01*
X11163431Y-9382099D01*
X11162985Y-9382218D01*
X11162531Y-9382296D01*
X11162099Y-9382456D01*
X11162099Y-9382456D01*
X11143919Y-9389163D01*
X11143919Y-9389163D01*
X11143486Y-9389322D01*
X11126041Y-9399701D01*
X11125694Y-9400005D01*
X11125694Y-9400005D01*
X11111126Y-9412781D01*
X11111126Y-9412782D01*
X11110779Y-9413086D01*
X11110494Y-9413447D01*
X11110494Y-9413448D01*
X11105379Y-9419936D01*
X11098212Y-9429027D01*
X11097997Y-9429435D01*
X11090291Y-9444083D01*
X11088760Y-9446992D01*
X11086761Y-9453430D01*
X11085800Y-9456527D01*
X11082741Y-9466378D01*
X11082472Y-9468645D01*
X11080680Y-9483790D01*
X11080355Y-9486536D01*
X11081682Y-9506792D01*
X11081796Y-9507238D01*
X11085276Y-9520941D01*
X11086679Y-9526467D01*
X11095178Y-9544902D01*
X11106893Y-9561479D01*
X11121434Y-9575644D01*
X11121817Y-9575900D01*
X11121818Y-9575900D01*
X11127303Y-9579565D01*
X11131152Y-9584448D01*
X11131397Y-9590661D01*
X11127942Y-9595830D01*
X11121714Y-9597990D01*
X11007293Y-9597990D01*
X11001380Y-9596069D01*
X10997725Y-9591039D01*
X10997725Y-9584821D01*
X11000860Y-9580196D01*
X11015320Y-9568170D01*
X11015675Y-9567875D01*
X11019208Y-9563627D01*
X11028360Y-9552622D01*
X11028360Y-9552622D01*
X11028655Y-9552268D01*
X11038573Y-9534557D01*
X11045098Y-9515335D01*
X11048011Y-9495245D01*
X11048021Y-9494889D01*
X11048156Y-9489736D01*
X11048156Y-9489735D01*
X11048163Y-9489440D01*
X11047854Y-9486078D01*
X11046348Y-9469685D01*
X11046348Y-9469684D01*
X11046306Y-9469226D01*
X11040796Y-9449689D01*
X11031818Y-9431483D01*
X11019672Y-9415218D01*
X11017074Y-9412816D01*
X11011071Y-9407267D01*
X11004766Y-9401439D01*
X11004376Y-9401193D01*
X11004376Y-9401193D01*
X10995325Y-9395482D01*
X10987598Y-9390607D01*
X10968744Y-9383085D01*
X10948835Y-9379124D01*
X10938575Y-9378990D01*
X10928999Y-9378865D01*
X10928998Y-9378865D01*
X10928537Y-9378859D01*
X10908531Y-9382296D01*
X10908099Y-9382456D01*
X10908099Y-9382456D01*
X10889919Y-9389163D01*
X10889919Y-9389163D01*
X10889486Y-9389322D01*
X10872041Y-9399701D01*
X10871694Y-9400005D01*
X10871694Y-9400005D01*
X10857126Y-9412781D01*
X10857126Y-9412782D01*
X10856779Y-9413086D01*
X10856494Y-9413447D01*
X10856494Y-9413448D01*
X10851379Y-9419936D01*
X10844212Y-9429027D01*
X10843997Y-9429435D01*
X10836291Y-9444083D01*
X10834760Y-9446992D01*
X10832761Y-9453430D01*
X10831800Y-9456527D01*
X10828741Y-9466378D01*
X10828472Y-9468645D01*
X10826680Y-9483790D01*
X10826355Y-9486536D01*
X10827682Y-9506792D01*
X10827796Y-9507238D01*
X10831276Y-9520941D01*
X10832679Y-9526467D01*
X10841178Y-9544902D01*
X10852893Y-9561479D01*
X10867434Y-9575644D01*
X10867817Y-9575900D01*
X10867818Y-9575900D01*
X10873303Y-9579565D01*
X10877152Y-9584448D01*
X10877397Y-9590661D01*
X10873942Y-9595830D01*
X10867714Y-9597990D01*
X10801419Y-9597990D01*
X10795505Y-9596069D01*
X10791851Y-9591039D01*
X10791851Y-9584913D01*
X10792213Y-9584370D01*
X10793179Y-9579516D01*
X10793594Y-9577432D01*
X10793594Y-9577432D01*
X10793690Y-9576947D01*
X10793690Y-9489440D01*
X10793690Y-9402427D01*
X10793690Y-9401933D01*
X10792213Y-9394510D01*
X10791663Y-9393686D01*
X10787139Y-9386915D01*
X10786588Y-9386092D01*
X10778170Y-9380467D01*
X10772367Y-9379312D01*
X10771232Y-9379087D01*
X10771232Y-9379087D01*
X10770747Y-9378990D01*
X10749230Y-9378990D01*
X10743317Y-9377069D01*
X10739662Y-9372039D01*
X10739170Y-9368930D01*
X10739170Y-9009502D01*
X10844020Y-9009502D01*
X10844049Y-9010044D01*
X10844588Y-9015005D01*
X10844877Y-9016222D01*
X10849221Y-9027809D01*
X10849902Y-9029052D01*
X10857272Y-9038886D01*
X10858275Y-9039888D01*
X10868108Y-9047258D01*
X10869351Y-9047939D01*
X10880939Y-9052283D01*
X10882155Y-9052572D01*
X10887116Y-9053111D01*
X10887658Y-9053140D01*
X10889927Y-9053140D01*
X10891216Y-9052721D01*
X10891520Y-9052302D01*
X10891520Y-9051547D01*
X10942320Y-9051547D01*
X10942739Y-9052836D01*
X10943158Y-9053140D01*
X10946182Y-9053140D01*
X10946724Y-9053111D01*
X10951685Y-9052572D01*
X10952902Y-9052283D01*
X10964489Y-9047939D01*
X10965732Y-9047258D01*
X10975566Y-9039888D01*
X10976568Y-9038886D01*
X10983938Y-9029052D01*
X10984619Y-9027809D01*
X10988963Y-9016222D01*
X10989252Y-9015005D01*
X10989791Y-9010044D01*
X10989809Y-9009700D01*
X10989401Y-9008444D01*
X10988982Y-9008140D01*
X10943913Y-9008140D01*
X10942624Y-9008559D01*
X10942320Y-9008978D01*
X10942320Y-9051547D01*
X10891520Y-9051547D01*
X10891520Y-9009733D01*
X10891101Y-9008444D01*
X10890682Y-9008140D01*
X10845613Y-9008140D01*
X10844324Y-9008559D01*
X10844020Y-9008978D01*
X10844020Y-9009502D01*
X10739170Y-9009502D01*
X10739170Y-8957854D01*
X10741091Y-8951941D01*
X10742117Y-8950740D01*
X10806241Y-8886617D01*
X10811780Y-8883794D01*
X10813354Y-8883670D01*
X10853214Y-8883670D01*
X10859247Y-8885680D01*
X10868083Y-8892302D01*
X10868083Y-8892302D01*
X10868657Y-8892732D01*
X10869327Y-8892983D01*
X10869327Y-8892983D01*
X10876966Y-8895847D01*
X10881829Y-8899722D01*
X10883485Y-8905714D01*
X10881303Y-8911536D01*
X10876966Y-8914687D01*
X10869352Y-8917541D01*
X10868108Y-8918222D01*
X10858275Y-8925592D01*
X10857272Y-8926595D01*
X10849902Y-8936428D01*
X10849221Y-8937671D01*
X10844877Y-8949259D01*
X10844588Y-8950475D01*
X10844049Y-8955436D01*
X10844031Y-8955780D01*
X10844439Y-8957036D01*
X10844858Y-8957340D01*
X10988227Y-8957340D01*
X10989516Y-8956921D01*
X10989820Y-8956502D01*
X10989820Y-8955978D01*
X10989791Y-8955436D01*
X10989252Y-8950475D01*
X10988963Y-8949259D01*
X10984619Y-8937671D01*
X10983938Y-8936428D01*
X10976568Y-8926595D01*
X10975566Y-8925592D01*
X10965732Y-8918222D01*
X10964488Y-8917541D01*
X10956874Y-8914687D01*
X10952011Y-8910812D01*
X10950355Y-8904819D01*
X10952538Y-8898997D01*
X10956874Y-8895847D01*
X10964513Y-8892983D01*
X10964513Y-8892983D01*
X10965184Y-8892732D01*
X10965757Y-8892302D01*
X10965757Y-8892302D01*
X10975601Y-8884924D01*
X10976174Y-8884494D01*
X10977807Y-8882316D01*
X10983982Y-8874077D01*
X10983982Y-8874077D01*
X10984412Y-8873504D01*
X10984706Y-8872718D01*
X10989012Y-8861232D01*
X10989012Y-8861232D01*
X10989233Y-8860642D01*
X10989870Y-8854779D01*
X10989870Y-8800701D01*
X10989233Y-8794838D01*
X10988990Y-8794190D01*
X10984663Y-8782647D01*
X10984663Y-8782647D01*
X10984412Y-8781977D01*
X10983933Y-8781337D01*
X10976604Y-8771559D01*
X10976174Y-8770986D01*
X10974926Y-8770050D01*
X10965757Y-8763178D01*
X10965757Y-8763178D01*
X10965184Y-8762748D01*
X10964513Y-8762497D01*
X10964513Y-8762497D01*
X10952912Y-8758148D01*
X10952912Y-8758148D01*
X10952322Y-8757927D01*
X10948945Y-8757560D01*
X10946729Y-8757319D01*
X10946728Y-8757319D01*
X10946459Y-8757290D01*
X10940230Y-8757290D01*
X10934317Y-8755369D01*
X10930663Y-8750339D01*
X10930170Y-8747230D01*
X10930170Y-8483277D01*
X10932015Y-8477471D01*
X10941305Y-8464326D01*
X10941305Y-8464326D01*
X10941642Y-8463849D01*
X10948288Y-8447357D01*
X10950962Y-8429779D01*
X10950448Y-8423450D01*
X10949568Y-8412640D01*
X10949568Y-8412639D01*
X10949521Y-8412057D01*
X10944041Y-8395143D01*
X10934817Y-8379942D01*
X10934521Y-8379606D01*
X10934520Y-8379606D01*
X10934176Y-8379216D01*
X10934175Y-8379215D01*
X10934073Y-8379099D01*
X10894627Y-8339653D01*
X11583150Y-8339653D01*
X11583150Y-8444667D01*
X11584627Y-8452090D01*
X11585177Y-8452914D01*
X11585177Y-8452914D01*
X11585228Y-8452990D01*
X11590252Y-8460508D01*
X11598670Y-8466133D01*
X11603524Y-8467099D01*
X11605608Y-8467514D01*
X11605608Y-8467514D01*
X11606093Y-8467610D01*
X11606588Y-8467610D01*
X11658648Y-8467610D01*
X11711107Y-8467610D01*
X11715843Y-8466668D01*
X11717558Y-8466327D01*
X11717559Y-8466327D01*
X11718530Y-8466133D01*
X11724586Y-8462087D01*
X11726125Y-8461059D01*
X11726948Y-8460508D01*
X11727499Y-8459685D01*
X11727686Y-8459497D01*
X11733226Y-8456674D01*
X11739367Y-8457647D01*
X11741913Y-8459497D01*
X11742101Y-8459685D01*
X11742652Y-8460508D01*
X11751070Y-8466133D01*
X11755924Y-8467099D01*
X11758008Y-8467514D01*
X11758008Y-8467514D01*
X11758493Y-8467610D01*
X11758988Y-8467610D01*
X11811048Y-8467610D01*
X11863507Y-8467610D01*
X11868243Y-8466668D01*
X11869958Y-8466327D01*
X11869959Y-8466327D01*
X11870930Y-8466133D01*
X11876986Y-8462087D01*
X11878525Y-8461059D01*
X11879348Y-8460508D01*
X11879899Y-8459685D01*
X11880086Y-8459497D01*
X11885626Y-8456674D01*
X11891767Y-8457647D01*
X11894313Y-8459497D01*
X11894501Y-8459685D01*
X11895052Y-8460508D01*
X11903470Y-8466133D01*
X11908324Y-8467099D01*
X11910408Y-8467514D01*
X11910408Y-8467514D01*
X11910893Y-8467610D01*
X11911388Y-8467610D01*
X11963448Y-8467610D01*
X12015907Y-8467610D01*
X12020643Y-8466668D01*
X12022358Y-8466327D01*
X12022359Y-8466327D01*
X12023330Y-8466133D01*
X12029386Y-8462087D01*
X12030925Y-8461059D01*
X12031748Y-8460508D01*
X12037373Y-8452090D01*
X12038850Y-8444667D01*
X12038850Y-8390949D01*
X12510498Y-8390949D01*
X12510975Y-8391815D01*
X12569713Y-8450552D01*
X12570921Y-8451168D01*
X12571432Y-8451087D01*
X12630560Y-8391959D01*
X12631158Y-8390786D01*
X12630538Y-8390107D01*
X12623343Y-8385568D01*
X12622525Y-8385151D01*
X12603871Y-8377708D01*
X12602989Y-8377447D01*
X12583291Y-8373529D01*
X12582377Y-8373433D01*
X12562295Y-8373170D01*
X12561379Y-8373242D01*
X12541585Y-8376643D01*
X12540697Y-8376881D01*
X12521855Y-8383833D01*
X12521025Y-8384229D01*
X12511337Y-8389992D01*
X12510498Y-8390949D01*
X12038850Y-8390949D01*
X12038850Y-8339653D01*
X12037373Y-8332230D01*
X12036823Y-8331406D01*
X12032299Y-8324635D01*
X12031748Y-8323812D01*
X12030853Y-8323214D01*
X12029361Y-8322217D01*
X12023330Y-8318187D01*
X12017084Y-8316944D01*
X12016392Y-8316806D01*
X12016392Y-8316806D01*
X12015907Y-8316710D01*
X12015412Y-8316710D01*
X11963352Y-8316710D01*
X11910893Y-8316710D01*
X11907345Y-8317416D01*
X11904442Y-8317993D01*
X11904441Y-8317993D01*
X11903470Y-8318187D01*
X11902646Y-8318737D01*
X11902646Y-8318737D01*
X11895875Y-8323261D01*
X11895052Y-8323812D01*
X11894501Y-8324635D01*
X11894313Y-8324823D01*
X11888774Y-8327646D01*
X11882633Y-8326673D01*
X11880086Y-8324823D01*
X11879899Y-8324635D01*
X11879348Y-8323812D01*
X11878453Y-8323214D01*
X11876961Y-8322217D01*
X11870930Y-8318187D01*
X11864684Y-8316944D01*
X11863992Y-8316806D01*
X11863992Y-8316806D01*
X11863507Y-8316710D01*
X11861750Y-8316710D01*
X11855837Y-8314789D01*
X11852182Y-8309759D01*
X11851690Y-8306650D01*
X11851690Y-8293613D01*
X12169530Y-8293613D01*
X12169627Y-8294593D01*
X12171405Y-8303535D01*
X12171691Y-8304474D01*
X12172898Y-8307388D01*
X12173362Y-8308256D01*
X12178427Y-8315837D01*
X12179050Y-8316596D01*
X12216844Y-8354390D01*
X12217604Y-8355014D01*
X12225185Y-8360079D01*
X12226051Y-8360542D01*
X12228965Y-8361749D01*
X12229905Y-8362034D01*
X12238847Y-8363813D01*
X12239827Y-8363910D01*
X12343847Y-8363910D01*
X12345136Y-8363491D01*
X12345440Y-8363072D01*
X12345440Y-8362316D01*
X12396240Y-8362316D01*
X12396659Y-8363605D01*
X12397078Y-8363910D01*
X12501853Y-8363910D01*
X12502833Y-8363813D01*
X12511775Y-8362034D01*
X12512714Y-8361749D01*
X12514929Y-8360832D01*
X12515628Y-8360542D01*
X12516496Y-8360078D01*
X12524077Y-8355013D01*
X12524836Y-8354390D01*
X12562630Y-8316596D01*
X12563254Y-8315836D01*
X12568319Y-8308255D01*
X12568782Y-8307389D01*
X12569989Y-8304474D01*
X12570274Y-8303534D01*
X12572053Y-8294593D01*
X12572150Y-8293613D01*
X12572150Y-8264593D01*
X12571731Y-8263304D01*
X12571312Y-8263000D01*
X12397833Y-8263000D01*
X12396544Y-8263419D01*
X12396240Y-8263838D01*
X12396240Y-8362316D01*
X12345440Y-8362316D01*
X12345440Y-8264593D01*
X12345021Y-8263304D01*
X12344602Y-8263000D01*
X12171124Y-8263000D01*
X12169835Y-8263419D01*
X12169530Y-8263838D01*
X12169530Y-8293613D01*
X11851690Y-8293613D01*
X11851690Y-8275045D01*
X11853557Y-8269299D01*
X11853534Y-8269283D01*
X11853589Y-8269201D01*
X11853611Y-8269132D01*
X11853754Y-8268957D01*
X11853934Y-8268689D01*
X11854415Y-8268157D01*
X11854728Y-8267513D01*
X11854728Y-8267513D01*
X11858160Y-8260428D01*
X11860132Y-8256359D01*
X11861971Y-8245427D01*
X11862242Y-8243813D01*
X11862242Y-8243812D01*
X11862307Y-8243430D01*
X11862321Y-8242300D01*
X11860462Y-8229322D01*
X11855036Y-8217387D01*
X11849193Y-8210607D01*
X12169530Y-8210607D01*
X12169949Y-8211896D01*
X12170368Y-8212200D01*
X12570556Y-8212200D01*
X12571845Y-8211781D01*
X12572150Y-8211362D01*
X12572150Y-8181586D01*
X12572053Y-8180607D01*
X12570275Y-8171666D01*
X12569989Y-8170725D01*
X12568782Y-8167811D01*
X12568319Y-8166945D01*
X12563253Y-8159363D01*
X12562630Y-8158604D01*
X12524836Y-8120810D01*
X12524076Y-8120186D01*
X12516496Y-8115122D01*
X12515628Y-8114657D01*
X12514929Y-8114368D01*
X12512715Y-8113451D01*
X12511774Y-8113165D01*
X12502833Y-8111387D01*
X12501853Y-8111290D01*
X12434915Y-8111290D01*
X12429002Y-8109369D01*
X12425347Y-8104339D01*
X12425347Y-8098122D01*
X12429002Y-8093092D01*
X12429819Y-8092634D01*
X12437288Y-8087643D01*
X12438663Y-8086268D01*
X12443176Y-8079514D01*
X12443920Y-8077719D01*
X12445103Y-8071767D01*
X12445200Y-8070787D01*
X12445200Y-8045773D01*
X12444781Y-8044484D01*
X12444362Y-8044180D01*
X12295993Y-8044180D01*
X12294704Y-8044599D01*
X12294400Y-8045018D01*
X12294400Y-8070788D01*
X12294496Y-8071766D01*
X12295680Y-8077719D01*
X12296424Y-8079514D01*
X12300937Y-8086268D01*
X12302311Y-8087643D01*
X12309889Y-8092706D01*
X12309725Y-8092952D01*
X12313263Y-8095974D01*
X12314714Y-8102020D01*
X12312335Y-8107764D01*
X12307033Y-8111012D01*
X12304685Y-8111290D01*
X12239826Y-8111290D01*
X12238847Y-8111387D01*
X12229906Y-8113165D01*
X12228965Y-8113451D01*
X12226051Y-8114658D01*
X12225185Y-8115121D01*
X12217603Y-8120187D01*
X12216844Y-8120810D01*
X12179050Y-8158604D01*
X12178426Y-8159364D01*
X12173362Y-8166944D01*
X12172897Y-8167812D01*
X12172608Y-8168511D01*
X12171691Y-8170724D01*
X12171405Y-8171666D01*
X12169627Y-8180607D01*
X12169530Y-8181587D01*
X12169530Y-8210607D01*
X11849193Y-8210607D01*
X11846477Y-8207455D01*
X11840663Y-8203686D01*
X11836077Y-8200714D01*
X11836077Y-8200713D01*
X11835476Y-8200324D01*
X11822915Y-8196567D01*
X11822198Y-8196563D01*
X11822198Y-8196563D01*
X11816528Y-8196528D01*
X11809804Y-8196487D01*
X11809115Y-8196684D01*
X11809115Y-8196684D01*
X11803501Y-8198288D01*
X11797198Y-8200090D01*
X11796593Y-8200472D01*
X11796592Y-8200472D01*
X11786717Y-8206703D01*
X11786110Y-8207086D01*
X11777432Y-8216913D01*
X11774464Y-8223235D01*
X11774384Y-8223403D01*
X11770132Y-8227939D01*
X11764026Y-8229110D01*
X11758398Y-8226467D01*
X11756120Y-8223292D01*
X11753436Y-8217387D01*
X11744877Y-8207455D01*
X11739063Y-8203686D01*
X11734477Y-8200714D01*
X11734477Y-8200713D01*
X11733876Y-8200324D01*
X11721315Y-8196567D01*
X11720598Y-8196563D01*
X11720598Y-8196563D01*
X11714928Y-8196528D01*
X11708204Y-8196487D01*
X11707515Y-8196684D01*
X11707515Y-8196684D01*
X11701901Y-8198288D01*
X11695598Y-8200090D01*
X11694993Y-8200472D01*
X11688144Y-8204793D01*
X11683146Y-8206112D01*
X11683161Y-8206238D01*
X11679927Y-8206620D01*
X11679331Y-8206655D01*
X11679331Y-8206656D01*
X11678917Y-8206690D01*
X11678502Y-8206690D01*
X11676677Y-8206994D01*
X11676207Y-8207061D01*
X11671388Y-8207631D01*
X11670678Y-8207972D01*
X11670543Y-8208015D01*
X11669766Y-8208144D01*
X11665494Y-8210449D01*
X11665075Y-8210662D01*
X11661272Y-8212489D01*
X11661271Y-8212489D01*
X11660701Y-8212763D01*
X11660300Y-8213100D01*
X11660146Y-8213254D01*
X11660017Y-8213372D01*
X11659912Y-8213461D01*
X11659333Y-8213773D01*
X11656494Y-8216844D01*
X11655875Y-8217514D01*
X11655601Y-8217798D01*
X11636865Y-8236535D01*
X11635209Y-8237872D01*
X11634303Y-8238457D01*
X11633788Y-8239110D01*
X11632287Y-8241014D01*
X11631890Y-8241461D01*
X11631890Y-8241461D01*
X11631621Y-8241778D01*
X11631328Y-8242072D01*
X11630249Y-8243582D01*
X11629969Y-8243954D01*
X11626963Y-8247767D01*
X11626702Y-8248511D01*
X11626637Y-8248636D01*
X11626179Y-8249277D01*
X11624788Y-8253929D01*
X11624643Y-8254374D01*
X11623035Y-8258953D01*
X11622990Y-8259475D01*
X11622990Y-8259691D01*
X11622982Y-8259867D01*
X11622971Y-8260005D01*
X11622782Y-8260635D01*
X11622936Y-8264541D01*
X11622982Y-8265723D01*
X11622990Y-8266118D01*
X11622990Y-8306650D01*
X11621069Y-8312563D01*
X11616039Y-8316218D01*
X11612930Y-8316710D01*
X11606093Y-8316710D01*
X11602545Y-8317416D01*
X11599642Y-8317993D01*
X11599641Y-8317993D01*
X11598670Y-8318187D01*
X11597846Y-8318737D01*
X11597846Y-8318737D01*
X11591075Y-8323261D01*
X11590252Y-8323812D01*
X11584627Y-8332230D01*
X11583150Y-8339653D01*
X10894627Y-8339653D01*
X10881255Y-8326281D01*
X10880266Y-8325131D01*
X10879202Y-8323684D01*
X10879201Y-8323684D01*
X10878855Y-8323214D01*
X10878411Y-8322836D01*
X10878410Y-8322835D01*
X10874726Y-8319705D01*
X10874126Y-8319152D01*
X10873479Y-8318505D01*
X10873249Y-8318323D01*
X10871202Y-8316703D01*
X10870930Y-8316481D01*
X10870367Y-8316002D01*
X10865305Y-8311702D01*
X10864784Y-8311435D01*
X10864298Y-8311111D01*
X10864305Y-8311101D01*
X10864013Y-8310913D01*
X10864006Y-8310924D01*
X10863508Y-8310616D01*
X10863050Y-8310254D01*
X10862521Y-8310007D01*
X10862521Y-8310006D01*
X10857711Y-8307759D01*
X10856361Y-8307128D01*
X10856046Y-8306974D01*
X10849990Y-8303881D01*
X10849990Y-8303881D01*
X10849470Y-8303616D01*
X10848902Y-8303477D01*
X10848354Y-8303273D01*
X10848359Y-8303261D01*
X10848030Y-8303145D01*
X10848026Y-8303158D01*
X10847472Y-8302973D01*
X10846942Y-8302726D01*
X10846369Y-8302606D01*
X10846369Y-8302606D01*
X10842123Y-8301723D01*
X10839711Y-8301221D01*
X10839373Y-8301145D01*
X10833310Y-8299662D01*
X10832634Y-8299496D01*
X10832634Y-8299496D01*
X10832199Y-8299390D01*
X10831752Y-8299362D01*
X10831751Y-8299362D01*
X10831077Y-8299320D01*
X10831079Y-8299296D01*
X10830691Y-8299251D01*
X10830689Y-8299276D01*
X10830107Y-8299224D01*
X10829534Y-8299105D01*
X10828950Y-8299121D01*
X10828950Y-8299121D01*
X10821719Y-8299316D01*
X10821447Y-8299320D01*
X10615860Y-8299320D01*
X10609827Y-8297310D01*
X10606201Y-8294593D01*
X10599556Y-8289613D01*
X10586025Y-8284540D01*
X10582532Y-8284161D01*
X10580126Y-8283899D01*
X10580125Y-8283899D01*
X10579856Y-8283870D01*
X10385304Y-8283870D01*
X10385035Y-8283899D01*
X10385034Y-8283899D01*
X10382628Y-8284161D01*
X10379135Y-8284540D01*
X10365604Y-8289613D01*
X10358959Y-8294593D01*
X10355333Y-8297310D01*
X10349300Y-8299320D01*
X10062910Y-8299320D01*
X10056997Y-8297399D01*
X10054546Y-8294849D01*
X10052679Y-8292055D01*
X10052128Y-8291232D01*
X10043710Y-8285607D01*
X10037456Y-8284363D01*
X10036772Y-8284226D01*
X10036772Y-8284226D01*
X10036287Y-8284130D01*
X10010090Y-8284130D01*
X10004177Y-8282209D01*
X10000522Y-8277179D01*
X10000030Y-8274070D01*
X10000030Y-8179427D01*
X9999978Y-8178978D01*
X9999298Y-8173146D01*
X9999230Y-8171981D01*
X9999230Y-8131373D01*
X9999131Y-8130877D01*
X9998489Y-8127647D01*
X9998412Y-8127260D01*
X9999143Y-8121086D01*
X10003363Y-8116521D01*
X10008279Y-8115238D01*
X10572786Y-8115238D01*
X10573257Y-8115147D01*
X10573257Y-8115147D01*
X10578971Y-8114043D01*
X10582457Y-8113369D01*
X10582903Y-8113190D01*
X10582903Y-8113190D01*
X10587263Y-8111440D01*
X10587263Y-8111439D01*
X10587658Y-8111281D01*
X10588019Y-8111059D01*
X10588020Y-8111059D01*
X10594316Y-8107191D01*
X10595102Y-8106708D01*
X10598431Y-8102370D01*
X10600966Y-8099065D01*
X10600967Y-8099065D01*
X10601267Y-8098673D01*
X10603542Y-8094059D01*
X10603850Y-8093085D01*
X10607460Y-8088023D01*
X10613444Y-8086050D01*
X10684199Y-8086050D01*
X10753206Y-8086050D01*
X10759119Y-8087971D01*
X10762732Y-8092876D01*
X10763456Y-8095007D01*
X10763808Y-8096045D01*
X10766380Y-8100500D01*
X10771323Y-8106659D01*
X10779982Y-8111913D01*
X10784816Y-8113673D01*
X10793694Y-8115238D01*
X10885589Y-8115238D01*
X10885987Y-8115173D01*
X10885988Y-8115173D01*
X10893373Y-8113979D01*
X10893373Y-8113979D01*
X10893772Y-8113914D01*
X10898271Y-8112420D01*
X10904697Y-8109242D01*
X10905289Y-8108640D01*
X10911451Y-8102370D01*
X10911451Y-8102370D01*
X10911797Y-8102018D01*
X10914617Y-8097716D01*
X10916933Y-8092634D01*
X10917396Y-8091619D01*
X10921596Y-8087035D01*
X10926945Y-8085739D01*
X10942584Y-8086353D01*
X10942585Y-8086353D01*
X10943045Y-8086371D01*
X10943501Y-8086305D01*
X10943501Y-8086305D01*
X10944243Y-8086197D01*
X10946975Y-8085801D01*
X10953102Y-8086854D01*
X10957441Y-8091308D01*
X10957945Y-8092524D01*
X10958788Y-8095007D01*
X10959140Y-8096045D01*
X10961712Y-8100500D01*
X10966655Y-8106659D01*
X10975314Y-8111913D01*
X10980148Y-8113673D01*
X10989026Y-8115238D01*
X11057220Y-8115238D01*
X11057329Y-8115233D01*
X11057331Y-8115233D01*
X11058637Y-8115176D01*
X11059482Y-8115139D01*
X11060533Y-8115047D01*
X11060733Y-8115030D01*
X11060733Y-8115030D01*
X11060787Y-8115025D01*
X11060839Y-8115019D01*
X11060839Y-8115019D01*
X11060913Y-8115011D01*
X11061914Y-8114902D01*
X11062433Y-8114725D01*
X11062433Y-8114725D01*
X11071036Y-8111805D01*
X11071037Y-8111805D01*
X11071505Y-8111646D01*
X11075960Y-8109074D01*
X11082119Y-8104131D01*
X11085700Y-8098230D01*
X11087117Y-8095894D01*
X11087117Y-8095894D01*
X11087373Y-8095472D01*
X11089133Y-8090638D01*
X11090698Y-8081760D01*
X11090698Y-8055637D01*
X11092619Y-8049723D01*
X11097649Y-8046069D01*
X11103867Y-8046069D01*
X11107778Y-8048431D01*
X11121135Y-8061443D01*
X11121849Y-8062021D01*
X11137953Y-8072781D01*
X11138760Y-8073219D01*
X11156555Y-8080864D01*
X11157428Y-8081148D01*
X11164286Y-8082700D01*
X11165596Y-8082580D01*
X11165787Y-8081886D01*
X11216640Y-8081886D01*
X11217059Y-8083175D01*
X11217178Y-8083262D01*
X11217458Y-8083286D01*
X11217559Y-8083261D01*
X11235900Y-8077036D01*
X11236738Y-8076662D01*
X11253637Y-8067199D01*
X11254394Y-8066678D01*
X11269284Y-8054294D01*
X11269934Y-8053644D01*
X11282318Y-8038754D01*
X11282839Y-8037997D01*
X11292302Y-8021098D01*
X11292676Y-8020260D01*
X11298745Y-8002381D01*
X11338129Y-8002381D01*
X11340613Y-8012163D01*
X11340920Y-8013029D01*
X11349028Y-8030617D01*
X11349488Y-8031413D01*
X11360665Y-8047229D01*
X11361262Y-8047929D01*
X11375135Y-8061442D01*
X11375849Y-8062021D01*
X11391952Y-8072781D01*
X11392760Y-8073219D01*
X11410554Y-8080864D01*
X11411428Y-8081148D01*
X11418286Y-8082700D01*
X11419596Y-8082580D01*
X11419787Y-8081886D01*
X11470640Y-8081886D01*
X11471059Y-8083175D01*
X11471178Y-8083262D01*
X11471458Y-8083286D01*
X11471559Y-8083261D01*
X11489900Y-8077036D01*
X11490738Y-8076662D01*
X11507637Y-8067199D01*
X11508394Y-8066678D01*
X11523284Y-8054294D01*
X11523934Y-8053644D01*
X11536318Y-8038754D01*
X11536839Y-8037997D01*
X11546302Y-8021098D01*
X11546676Y-8020260D01*
X11552819Y-8002161D01*
X11552661Y-8001241D01*
X11552556Y-8001138D01*
X11551962Y-8001000D01*
X11472233Y-8001000D01*
X11470944Y-8001419D01*
X11470640Y-8001838D01*
X11470640Y-8081886D01*
X11419787Y-8081886D01*
X11419840Y-8081694D01*
X11419840Y-8002593D01*
X11419421Y-8001304D01*
X11419002Y-8001000D01*
X11339371Y-8001000D01*
X11338161Y-8001393D01*
X11338129Y-8002381D01*
X11298745Y-8002381D01*
X11298819Y-8002161D01*
X11298661Y-8001241D01*
X11298556Y-8001138D01*
X11297962Y-8001000D01*
X11218233Y-8001000D01*
X11216944Y-8001419D01*
X11216640Y-8001838D01*
X11216640Y-8081886D01*
X11165787Y-8081886D01*
X11165840Y-8081694D01*
X11165840Y-7972696D01*
X11588355Y-7972696D01*
X11589682Y-7992952D01*
X11589796Y-7993398D01*
X11594278Y-8011048D01*
X11594679Y-8012627D01*
X11603178Y-8031062D01*
X11614893Y-8047639D01*
X11629434Y-8061803D01*
X11646312Y-8073081D01*
X11646736Y-8073263D01*
X11646736Y-8073263D01*
X11664428Y-8080864D01*
X11664963Y-8081094D01*
X11671528Y-8082580D01*
X11684312Y-8085472D01*
X11684312Y-8085472D01*
X11684762Y-8085574D01*
X11694903Y-8085973D01*
X11704584Y-8086353D01*
X11704584Y-8086353D01*
X11705045Y-8086371D01*
X11705501Y-8086305D01*
X11705501Y-8086305D01*
X11715090Y-8084915D01*
X11725134Y-8083458D01*
X11744356Y-8076933D01*
X11762068Y-8067015D01*
X11762912Y-8066313D01*
X11777320Y-8054329D01*
X11777674Y-8054034D01*
X11780148Y-8051061D01*
X11790360Y-8038782D01*
X11790360Y-8038782D01*
X11790655Y-8038428D01*
X11800573Y-8020716D01*
X11807098Y-8001494D01*
X11810011Y-7981405D01*
X11810071Y-7979136D01*
X11810155Y-7975896D01*
X11810155Y-7975895D01*
X11810163Y-7975600D01*
X11809896Y-7972696D01*
X11842355Y-7972696D01*
X11843682Y-7992952D01*
X11843796Y-7993398D01*
X11848278Y-8011048D01*
X11848679Y-8012627D01*
X11857178Y-8031062D01*
X11868893Y-8047639D01*
X11883434Y-8061803D01*
X11900312Y-8073081D01*
X11900736Y-8073263D01*
X11900736Y-8073263D01*
X11918428Y-8080864D01*
X11918963Y-8081094D01*
X11925528Y-8082580D01*
X11938312Y-8085472D01*
X11938312Y-8085472D01*
X11938762Y-8085574D01*
X11948903Y-8085973D01*
X11958584Y-8086353D01*
X11958584Y-8086353D01*
X11959045Y-8086371D01*
X11959501Y-8086305D01*
X11959501Y-8086305D01*
X11969090Y-8084915D01*
X11979134Y-8083458D01*
X11998356Y-8076933D01*
X12016068Y-8067015D01*
X12016912Y-8066313D01*
X12031320Y-8054329D01*
X12031674Y-8054034D01*
X12034148Y-8051061D01*
X12044360Y-8038782D01*
X12044360Y-8038782D01*
X12044655Y-8038428D01*
X12054573Y-8020716D01*
X12061098Y-8001494D01*
X12062506Y-7991787D01*
X12294400Y-7991787D01*
X12294819Y-7993076D01*
X12295238Y-7993380D01*
X12342807Y-7993380D01*
X12344096Y-7992961D01*
X12344400Y-7992542D01*
X12344400Y-7991787D01*
X12395200Y-7991787D01*
X12395619Y-7993076D01*
X12396038Y-7993380D01*
X12443607Y-7993380D01*
X12444896Y-7992961D01*
X12445200Y-7992542D01*
X12445200Y-7966772D01*
X12445103Y-7965794D01*
X12443920Y-7959841D01*
X12443176Y-7958045D01*
X12438663Y-7951291D01*
X12437288Y-7949917D01*
X12430534Y-7945404D01*
X12428739Y-7944660D01*
X12422787Y-7943476D01*
X12421807Y-7943380D01*
X12396793Y-7943380D01*
X12395504Y-7943799D01*
X12395200Y-7944218D01*
X12395200Y-7991787D01*
X12344400Y-7991787D01*
X12344400Y-7944973D01*
X12343981Y-7943684D01*
X12343562Y-7943380D01*
X12317792Y-7943380D01*
X12316814Y-7943476D01*
X12310861Y-7944660D01*
X12309065Y-7945404D01*
X12302311Y-7949917D01*
X12300937Y-7951291D01*
X12296424Y-7958046D01*
X12295680Y-7959841D01*
X12294496Y-7965793D01*
X12294400Y-7966773D01*
X12294400Y-7991787D01*
X12062506Y-7991787D01*
X12064011Y-7981405D01*
X12064071Y-7979136D01*
X12064155Y-7975896D01*
X12064155Y-7975895D01*
X12064163Y-7975600D01*
X12063352Y-7966773D01*
X12062348Y-7955845D01*
X12062348Y-7955844D01*
X12062306Y-7955386D01*
X12056796Y-7935849D01*
X12047818Y-7917643D01*
X12035672Y-7901378D01*
X12033074Y-7898976D01*
X12025045Y-7891554D01*
X12020766Y-7887599D01*
X12020376Y-7887353D01*
X12020376Y-7887352D01*
X12010130Y-7880888D01*
X12003598Y-7876767D01*
X12001980Y-7876121D01*
X11999078Y-7874963D01*
X13187619Y-7874963D01*
X13187847Y-7876299D01*
X13187951Y-7876400D01*
X13188548Y-7876540D01*
X13212327Y-7876540D01*
X13213616Y-7876121D01*
X13213920Y-7875702D01*
X13213920Y-7847537D01*
X13213562Y-7846436D01*
X13212917Y-7846436D01*
X13203609Y-7851006D01*
X13202275Y-7851961D01*
X13194300Y-7859950D01*
X13193348Y-7861285D01*
X13188369Y-7871471D01*
X13187913Y-7872946D01*
X13187619Y-7874963D01*
X11999078Y-7874963D01*
X11990123Y-7871391D01*
X11984744Y-7869245D01*
X11964835Y-7865284D01*
X11954686Y-7865152D01*
X11944998Y-7865025D01*
X11944998Y-7865025D01*
X11944537Y-7865019D01*
X11924531Y-7868456D01*
X11924099Y-7868616D01*
X11924099Y-7868616D01*
X11905919Y-7875323D01*
X11905919Y-7875323D01*
X11905486Y-7875482D01*
X11888041Y-7885861D01*
X11887694Y-7886165D01*
X11887694Y-7886165D01*
X11873126Y-7898941D01*
X11873126Y-7898942D01*
X11872779Y-7899245D01*
X11872494Y-7899607D01*
X11872494Y-7899607D01*
X11871098Y-7901378D01*
X11860212Y-7915187D01*
X11850760Y-7933151D01*
X11850624Y-7933592D01*
X11845407Y-7950392D01*
X11844741Y-7952538D01*
X11843978Y-7958981D01*
X11842613Y-7970517D01*
X11842355Y-7972696D01*
X11809896Y-7972696D01*
X11809352Y-7966773D01*
X11808348Y-7955845D01*
X11808348Y-7955844D01*
X11808306Y-7955386D01*
X11802796Y-7935849D01*
X11793818Y-7917643D01*
X11781672Y-7901378D01*
X11779074Y-7898976D01*
X11771045Y-7891554D01*
X11766766Y-7887599D01*
X11766376Y-7887353D01*
X11766376Y-7887352D01*
X11756130Y-7880888D01*
X11749598Y-7876767D01*
X11747980Y-7876121D01*
X11736123Y-7871391D01*
X11730744Y-7869245D01*
X11710835Y-7865284D01*
X11700686Y-7865152D01*
X11690998Y-7865025D01*
X11690998Y-7865025D01*
X11690537Y-7865019D01*
X11670531Y-7868456D01*
X11670099Y-7868616D01*
X11670099Y-7868616D01*
X11651919Y-7875323D01*
X11651919Y-7875323D01*
X11651486Y-7875482D01*
X11634041Y-7885861D01*
X11633694Y-7886165D01*
X11633694Y-7886165D01*
X11619126Y-7898941D01*
X11619126Y-7898942D01*
X11618779Y-7899245D01*
X11618494Y-7899607D01*
X11618494Y-7899607D01*
X11617098Y-7901378D01*
X11606212Y-7915187D01*
X11596760Y-7933151D01*
X11596624Y-7933592D01*
X11591407Y-7950392D01*
X11590741Y-7952538D01*
X11589978Y-7958981D01*
X11588613Y-7970517D01*
X11588355Y-7972696D01*
X11165840Y-7972696D01*
X11165840Y-7948607D01*
X11216640Y-7948607D01*
X11217059Y-7949896D01*
X11217478Y-7950200D01*
X11297198Y-7950200D01*
X11298365Y-7949821D01*
X11298386Y-7948764D01*
X11298362Y-7948678D01*
X11337991Y-7948678D01*
X11338007Y-7949859D01*
X11339079Y-7950200D01*
X11418247Y-7950200D01*
X11419536Y-7949781D01*
X11419840Y-7949362D01*
X11419840Y-7948607D01*
X11470640Y-7948607D01*
X11471059Y-7949896D01*
X11471478Y-7950200D01*
X11551198Y-7950200D01*
X11552365Y-7949821D01*
X11552386Y-7948764D01*
X11548874Y-7936310D01*
X11548545Y-7935453D01*
X11539979Y-7918082D01*
X11539499Y-7917300D01*
X11527910Y-7901781D01*
X11527296Y-7901098D01*
X11513074Y-7887952D01*
X11512345Y-7887392D01*
X11495965Y-7877058D01*
X11495147Y-7876640D01*
X11477158Y-7869464D01*
X11476277Y-7869203D01*
X11472203Y-7868392D01*
X11470857Y-7868552D01*
X11470853Y-7868555D01*
X11470640Y-7869372D01*
X11470640Y-7948607D01*
X11419840Y-7948607D01*
X11419840Y-7869532D01*
X11419421Y-7868243D01*
X11419360Y-7868198D01*
X11418634Y-7868146D01*
X11416998Y-7868427D01*
X11416112Y-7868664D01*
X11397941Y-7875368D01*
X11397111Y-7875764D01*
X11380467Y-7885666D01*
X11379724Y-7886206D01*
X11365162Y-7898976D01*
X11364530Y-7899642D01*
X11352539Y-7914852D01*
X11352039Y-7915622D01*
X11343021Y-7932763D01*
X11342670Y-7933611D01*
X11337991Y-7948678D01*
X11298362Y-7948678D01*
X11294874Y-7936310D01*
X11294545Y-7935453D01*
X11285979Y-7918082D01*
X11285499Y-7917300D01*
X11273910Y-7901781D01*
X11273296Y-7901098D01*
X11259074Y-7887952D01*
X11258345Y-7887392D01*
X11241965Y-7877058D01*
X11241147Y-7876640D01*
X11223158Y-7869464D01*
X11222277Y-7869203D01*
X11218203Y-7868392D01*
X11216857Y-7868552D01*
X11216853Y-7868555D01*
X11216640Y-7869372D01*
X11216640Y-7948607D01*
X11165840Y-7948607D01*
X11165840Y-7869532D01*
X11165421Y-7868243D01*
X11165360Y-7868198D01*
X11164634Y-7868146D01*
X11162998Y-7868427D01*
X11162112Y-7868664D01*
X11143941Y-7875368D01*
X11143111Y-7875764D01*
X11126467Y-7885666D01*
X11125724Y-7886206D01*
X11111162Y-7898976D01*
X11110530Y-7899642D01*
X11108658Y-7902017D01*
X11103489Y-7905471D01*
X11097276Y-7905227D01*
X11092393Y-7901377D01*
X11090698Y-7895788D01*
X11090698Y-7828230D01*
X11092619Y-7822317D01*
X11097649Y-7818662D01*
X11100758Y-7818170D01*
X14505388Y-7818170D01*
X14511301Y-7820091D01*
G37*
%TD.AperFunction*%
%TA.AperFunction,Conductor*%
G36*
X9764234Y-8115184D02*
G01*
X9770698Y-8115223D01*
X9771006Y-8115230D01*
X9771130Y-8115234D01*
X9771132Y-8115234D01*
X9771226Y-8115238D01*
X9839281Y-8115238D01*
X9845195Y-8117159D01*
X9848849Y-8122189D01*
X9849148Y-8127260D01*
X9848330Y-8131373D01*
X9848330Y-8170193D01*
X9848042Y-8172584D01*
X9847728Y-8173865D01*
X9847600Y-8174391D01*
X9847530Y-8175513D01*
X9847530Y-8274070D01*
X9845609Y-8279983D01*
X9840579Y-8283638D01*
X9837470Y-8284130D01*
X9811273Y-8284130D01*
X9808097Y-8284762D01*
X9804822Y-8285413D01*
X9804821Y-8285413D01*
X9803850Y-8285607D01*
X9803026Y-8286157D01*
X9803026Y-8286157D01*
X9798450Y-8289215D01*
X9795432Y-8291232D01*
X9789807Y-8299650D01*
X9788330Y-8307073D01*
X9788330Y-8462087D01*
X9789026Y-8465583D01*
X9789429Y-8467610D01*
X9789807Y-8469510D01*
X9790357Y-8470334D01*
X9790357Y-8470334D01*
X9793656Y-8475272D01*
X9795432Y-8477928D01*
X9796255Y-8478479D01*
X9796841Y-8478870D01*
X9803850Y-8483553D01*
X9807766Y-8484332D01*
X9810788Y-8484934D01*
X9810788Y-8484934D01*
X9811273Y-8485030D01*
X9811768Y-8485030D01*
X9923882Y-8485030D01*
X10036287Y-8485030D01*
X10040776Y-8484137D01*
X10042738Y-8483747D01*
X10042739Y-8483747D01*
X10043710Y-8483553D01*
X10044571Y-8482978D01*
X10051305Y-8478479D01*
X10052128Y-8477928D01*
X10057753Y-8469510D01*
X10059230Y-8462087D01*
X10059230Y-8461592D01*
X10059278Y-8461101D01*
X10059477Y-8461120D01*
X10061151Y-8455967D01*
X10066181Y-8452312D01*
X10069290Y-8451820D01*
X10349300Y-8451820D01*
X10355333Y-8453830D01*
X10365604Y-8461527D01*
X10379135Y-8466600D01*
X10382588Y-8466975D01*
X10385034Y-8467241D01*
X10385035Y-8467241D01*
X10385304Y-8467270D01*
X10579856Y-8467270D01*
X10580125Y-8467241D01*
X10580126Y-8467241D01*
X10582572Y-8466975D01*
X10586025Y-8466600D01*
X10599556Y-8461527D01*
X10609827Y-8453830D01*
X10615860Y-8451820D01*
X10786959Y-8451820D01*
X10792872Y-8453741D01*
X10794073Y-8454767D01*
X10815364Y-8476058D01*
X10818187Y-8481598D01*
X10818310Y-8483171D01*
X10818310Y-8761750D01*
X10816389Y-8767663D01*
X10811359Y-8771318D01*
X10808250Y-8771810D01*
X10787487Y-8771810D01*
X10787066Y-8771801D01*
X10780707Y-8771535D01*
X10776276Y-8772574D01*
X10775345Y-8772747D01*
X10772669Y-8773113D01*
X10771518Y-8773271D01*
X10771517Y-8773271D01*
X10770838Y-8773364D01*
X10769211Y-8774068D01*
X10767514Y-8774629D01*
X10766456Y-8774877D01*
X10766456Y-8774878D01*
X10765788Y-8775034D01*
X10765188Y-8775364D01*
X10765187Y-8775364D01*
X10761801Y-8777226D01*
X10760950Y-8777643D01*
X10756774Y-8779450D01*
X10756242Y-8779881D01*
X10756242Y-8779881D01*
X10755639Y-8780369D01*
X10755450Y-8780522D01*
X10755397Y-8780565D01*
X10753912Y-8781563D01*
X10752822Y-8782162D01*
X10752821Y-8782163D01*
X10752360Y-8782416D01*
X10751535Y-8783128D01*
X10748941Y-8785722D01*
X10748159Y-8786427D01*
X10744866Y-8789093D01*
X10744468Y-8789653D01*
X10744468Y-8789653D01*
X10743625Y-8790839D01*
X10742539Y-8792125D01*
X10644728Y-8889936D01*
X10644424Y-8890227D01*
X10641426Y-8892983D01*
X10639740Y-8894534D01*
X10637342Y-8898401D01*
X10636806Y-8899181D01*
X10636179Y-8900007D01*
X10634495Y-8902227D01*
X10634055Y-8902806D01*
X10633802Y-8903443D01*
X10633802Y-8903443D01*
X10633403Y-8904454D01*
X10632599Y-8906051D01*
X10632027Y-8906974D01*
X10631665Y-8907557D01*
X10631474Y-8908216D01*
X10631474Y-8908216D01*
X10630396Y-8911926D01*
X10630089Y-8912822D01*
X10628414Y-8917053D01*
X10628342Y-8917735D01*
X10628229Y-8918816D01*
X10627884Y-8920571D01*
X10627390Y-8922273D01*
X10627310Y-8923360D01*
X10627310Y-8927028D01*
X10627255Y-8928079D01*
X10626812Y-8932293D01*
X10626926Y-8932969D01*
X10626926Y-8932969D01*
X10627169Y-8934405D01*
X10627310Y-8936082D01*
X10627310Y-9368930D01*
X10625389Y-9374843D01*
X10620359Y-9378498D01*
X10617250Y-9378990D01*
X10595733Y-9378990D01*
X10592974Y-9379539D01*
X10589282Y-9380273D01*
X10589281Y-9380273D01*
X10588310Y-9380467D01*
X10587486Y-9381017D01*
X10587486Y-9381017D01*
X10581565Y-9384973D01*
X10579892Y-9386092D01*
X10574267Y-9394510D01*
X10574073Y-9395482D01*
X10572937Y-9401193D01*
X10572790Y-9401933D01*
X10572790Y-9447835D01*
X10572790Y-9483790D01*
X10570869Y-9489703D01*
X10565839Y-9493358D01*
X10562730Y-9493850D01*
X9220530Y-9493850D01*
X9214617Y-9491929D01*
X9213416Y-9490904D01*
X9121081Y-9398568D01*
X9370180Y-9398568D01*
X9370277Y-9399546D01*
X9371460Y-9405499D01*
X9372204Y-9407295D01*
X9376717Y-9414049D01*
X9378092Y-9415423D01*
X9384846Y-9419936D01*
X9386641Y-9420680D01*
X9392593Y-9421864D01*
X9393573Y-9421960D01*
X9493587Y-9421960D01*
X9494876Y-9421541D01*
X9495180Y-9421122D01*
X9495180Y-9420367D01*
X9545980Y-9420367D01*
X9546399Y-9421656D01*
X9546818Y-9421960D01*
X9647588Y-9421960D01*
X9648566Y-9421864D01*
X9654519Y-9420680D01*
X9656315Y-9419936D01*
X9663069Y-9415423D01*
X9664443Y-9414049D01*
X9668956Y-9407294D01*
X9669700Y-9405499D01*
X9670884Y-9399547D01*
X9670980Y-9398567D01*
X9670980Y-9333553D01*
X9670561Y-9332264D01*
X9670142Y-9331960D01*
X9547573Y-9331960D01*
X9546284Y-9332379D01*
X9545980Y-9332798D01*
X9545980Y-9420367D01*
X9495180Y-9420367D01*
X9495180Y-9333553D01*
X9494761Y-9332264D01*
X9494342Y-9331960D01*
X9371773Y-9331960D01*
X9370484Y-9332379D01*
X9370180Y-9332798D01*
X9370180Y-9398568D01*
X9121081Y-9398568D01*
X9079068Y-9356555D01*
X9078815Y-9356302D01*
X9078529Y-9356088D01*
X9078528Y-9356087D01*
X9072841Y-9351825D01*
X9070111Y-9349778D01*
X9069221Y-9349445D01*
X9057143Y-9344917D01*
X9056472Y-9344666D01*
X9041946Y-9343586D01*
X9041246Y-9343736D01*
X9041245Y-9343736D01*
X9039870Y-9344029D01*
X9033686Y-9343385D01*
X9029062Y-9339228D01*
X9027710Y-9334191D01*
X9027710Y-9279567D01*
X9370180Y-9279567D01*
X9370599Y-9280856D01*
X9371018Y-9281160D01*
X9669387Y-9281160D01*
X9670676Y-9280741D01*
X9670980Y-9280322D01*
X9670980Y-9214552D01*
X9670884Y-9213574D01*
X9669700Y-9207621D01*
X9668956Y-9205826D01*
X9664443Y-9199072D01*
X9663069Y-9197697D01*
X9656314Y-9193184D01*
X9654519Y-9192440D01*
X9648567Y-9191257D01*
X9647587Y-9191160D01*
X9586459Y-9191160D01*
X9580545Y-9189239D01*
X9576891Y-9184209D01*
X9576891Y-9177991D01*
X9578691Y-9174718D01*
X9579160Y-9174286D01*
X9587235Y-9161263D01*
X9591510Y-9146547D01*
X9591590Y-9145461D01*
X9591590Y-9110890D01*
X9593511Y-9104977D01*
X9598541Y-9101322D01*
X9601650Y-9100830D01*
X9779824Y-9100830D01*
X9785737Y-9102751D01*
X9789392Y-9107781D01*
X9789548Y-9108381D01*
X9789613Y-9108538D01*
X9789807Y-9109510D01*
X9790357Y-9110334D01*
X9790357Y-9110334D01*
X9791276Y-9111709D01*
X9795432Y-9117928D01*
X9796255Y-9118479D01*
X9796861Y-9118883D01*
X9803850Y-9123553D01*
X9808704Y-9124519D01*
X9810788Y-9124934D01*
X9810788Y-9124934D01*
X9811273Y-9125030D01*
X9812070Y-9125030D01*
X9812201Y-9125073D01*
X9812259Y-9125078D01*
X9812258Y-9125091D01*
X9817983Y-9126951D01*
X9821638Y-9131981D01*
X9822130Y-9135090D01*
X9822130Y-9181050D01*
X9820209Y-9186963D01*
X9815179Y-9190618D01*
X9812070Y-9191110D01*
X9793073Y-9191110D01*
X9790532Y-9191616D01*
X9786622Y-9192393D01*
X9786621Y-9192393D01*
X9785650Y-9192587D01*
X9784826Y-9193137D01*
X9784826Y-9193137D01*
X9778055Y-9197661D01*
X9777232Y-9198212D01*
X9771607Y-9206630D01*
X9770130Y-9214053D01*
X9770130Y-9399067D01*
X9770602Y-9401439D01*
X9771410Y-9405499D01*
X9771607Y-9406490D01*
X9772157Y-9407314D01*
X9772157Y-9407314D01*
X9776657Y-9414049D01*
X9777232Y-9414908D01*
X9785650Y-9420533D01*
X9790504Y-9421499D01*
X9792588Y-9421914D01*
X9792588Y-9421914D01*
X9793073Y-9422010D01*
X9793568Y-9422010D01*
X9920696Y-9422010D01*
X10048087Y-9422010D01*
X10051635Y-9421304D01*
X10054538Y-9420727D01*
X10054539Y-9420727D01*
X10055510Y-9420533D01*
X10057579Y-9419151D01*
X10063105Y-9415459D01*
X10063928Y-9414908D01*
X10069553Y-9406490D01*
X10071030Y-9399067D01*
X10071030Y-9214053D01*
X10069996Y-9208857D01*
X10069747Y-9207602D01*
X10069747Y-9207601D01*
X10069553Y-9206630D01*
X10069003Y-9205806D01*
X10064479Y-9199035D01*
X10063928Y-9198212D01*
X10062862Y-9197499D01*
X10060751Y-9196089D01*
X10055510Y-9192587D01*
X10049571Y-9191405D01*
X10048572Y-9191207D01*
X10048572Y-9191207D01*
X10048087Y-9191110D01*
X10035490Y-9191110D01*
X10029577Y-9189189D01*
X10025922Y-9184159D01*
X10025430Y-9181050D01*
X10025430Y-9135090D01*
X10027351Y-9129177D01*
X10032381Y-9125522D01*
X10035490Y-9125030D01*
X10036287Y-9125030D01*
X10039835Y-9124324D01*
X10042738Y-9123747D01*
X10042739Y-9123747D01*
X10043710Y-9123553D01*
X10048799Y-9120153D01*
X10051305Y-9118479D01*
X10052128Y-9117928D01*
X10057753Y-9109510D01*
X10059098Y-9102751D01*
X10059134Y-9102572D01*
X10059134Y-9102572D01*
X10059230Y-9102087D01*
X10059230Y-8947073D01*
X10058435Y-8943075D01*
X10057947Y-8940622D01*
X10057947Y-8940621D01*
X10057753Y-8939650D01*
X10057203Y-8938826D01*
X10052679Y-8932055D01*
X10052128Y-8931232D01*
X10043710Y-8925607D01*
X10038856Y-8924641D01*
X10036772Y-8924227D01*
X10036772Y-8924227D01*
X10036287Y-8924130D01*
X9942702Y-8924130D01*
X9940166Y-8923805D01*
X9939411Y-8923609D01*
X9938902Y-8923582D01*
X9938902Y-8923582D01*
X9929100Y-8923068D01*
X9918789Y-8922528D01*
X9914609Y-8923160D01*
X9908942Y-8924017D01*
X9907438Y-8924130D01*
X9811273Y-8924130D01*
X9807725Y-8924836D01*
X9804822Y-8925413D01*
X9804821Y-8925413D01*
X9803850Y-8925607D01*
X9803026Y-8926157D01*
X9803026Y-8926157D01*
X9800149Y-8928079D01*
X9795432Y-8931232D01*
X9794881Y-8932055D01*
X9794722Y-8932293D01*
X9789807Y-8939650D01*
X9789613Y-8940622D01*
X9789234Y-8941537D01*
X9789012Y-8941445D01*
X9786653Y-8945657D01*
X9781007Y-8948260D01*
X9779824Y-8948330D01*
X9565124Y-8948330D01*
X9560865Y-8947384D01*
X9559392Y-8946696D01*
X9558820Y-8946577D01*
X9558819Y-8946576D01*
X9550572Y-8944861D01*
X9541984Y-8943075D01*
X9541400Y-8943091D01*
X9541400Y-8943091D01*
X9533683Y-8943299D01*
X9524211Y-8943556D01*
X9516719Y-8945542D01*
X9507589Y-8947963D01*
X9507588Y-8947963D01*
X9507024Y-8948113D01*
X9491347Y-8956501D01*
X9490909Y-8956888D01*
X9490909Y-8956888D01*
X9480493Y-8966087D01*
X9478020Y-8968271D01*
X9467758Y-8982791D01*
X9461112Y-8999283D01*
X9458438Y-9016861D01*
X9458485Y-9017443D01*
X9459822Y-9033880D01*
X9459879Y-9034583D01*
X9460059Y-9035138D01*
X9460059Y-9035139D01*
X9463077Y-9044454D01*
X9465359Y-9051498D01*
X9474583Y-9066698D01*
X9475327Y-9067541D01*
X9476784Y-9068997D01*
X9479606Y-9074537D01*
X9479730Y-9076111D01*
X9479730Y-9142138D01*
X9479777Y-9142478D01*
X9479777Y-9142478D01*
X9481132Y-9152371D01*
X9481284Y-9153482D01*
X9481556Y-9154111D01*
X9481556Y-9154112D01*
X9484574Y-9161086D01*
X9487370Y-9167546D01*
X9490707Y-9171666D01*
X9493219Y-9174769D01*
X9495447Y-9180574D01*
X9493838Y-9186579D01*
X9489006Y-9190492D01*
X9485401Y-9191160D01*
X9393572Y-9191160D01*
X9392594Y-9191257D01*
X9386641Y-9192440D01*
X9384846Y-9193184D01*
X9378092Y-9197697D01*
X9376717Y-9199072D01*
X9372204Y-9205826D01*
X9371460Y-9207621D01*
X9370277Y-9213573D01*
X9370180Y-9214553D01*
X9370180Y-9279567D01*
X9027710Y-9279567D01*
X9027710Y-9043348D01*
X9028976Y-9038463D01*
X9030775Y-9035224D01*
X9032473Y-9032167D01*
X9035687Y-9017960D01*
X9035163Y-9009502D01*
X9034830Y-9004138D01*
X9034830Y-9004138D01*
X9034786Y-9003422D01*
X9029840Y-8989722D01*
X9024926Y-8982996D01*
X9024542Y-8982430D01*
X9023305Y-8980471D01*
X9023305Y-8980470D01*
X9022922Y-8979864D01*
X9018829Y-8976249D01*
X9018375Y-8975823D01*
X9017175Y-8974622D01*
X9016255Y-8973933D01*
X9015631Y-8973424D01*
X9012005Y-8970222D01*
X9011189Y-8969839D01*
X9011062Y-8969780D01*
X9009305Y-8968724D01*
X9008471Y-8968098D01*
X9003941Y-8966400D01*
X9003198Y-8966087D01*
X8998820Y-8964032D01*
X8997791Y-8963872D01*
X8995808Y-8963352D01*
X8995503Y-8963237D01*
X8995503Y-8963237D01*
X8994832Y-8962986D01*
X8992028Y-8962777D01*
X8990010Y-8962627D01*
X8989207Y-8962535D01*
X8988146Y-8962370D01*
X8988145Y-8962370D01*
X8987761Y-8962310D01*
X8986114Y-8962310D01*
X8985369Y-8962282D01*
X8981021Y-8961959D01*
X8980306Y-8961906D01*
X8979605Y-8962056D01*
X8979605Y-8962056D01*
X8979452Y-8962088D01*
X8977352Y-8962310D01*
X8895290Y-8962310D01*
X8889377Y-8960389D01*
X8885722Y-8955359D01*
X8885230Y-8952250D01*
X8885230Y-8931147D01*
X8885230Y-8930653D01*
X8884130Y-8925122D01*
X8884130Y-8921198D01*
X8885230Y-8915667D01*
X8885230Y-8890933D01*
X8887151Y-8885020D01*
X8890513Y-8882079D01*
X8893156Y-8880653D01*
X8894343Y-8880013D01*
X8894766Y-8879797D01*
X8898569Y-8877971D01*
X8898569Y-8877971D01*
X8899139Y-8877697D01*
X8899540Y-8877360D01*
X8899694Y-8877206D01*
X8899823Y-8877088D01*
X8899928Y-8876999D01*
X8900507Y-8876687D01*
X8901072Y-8876076D01*
X8901072Y-8876076D01*
X8903965Y-8872946D01*
X8904239Y-8872661D01*
X8917315Y-8859586D01*
X8918971Y-8858248D01*
X8919877Y-8857663D01*
X8921893Y-8855106D01*
X8922290Y-8854659D01*
X8922290Y-8854658D01*
X8922558Y-8854342D01*
X8922852Y-8854048D01*
X8923929Y-8852541D01*
X8924213Y-8852163D01*
X8926702Y-8849006D01*
X8926702Y-8849005D01*
X8927217Y-8848353D01*
X8927478Y-8847610D01*
X8927543Y-8847484D01*
X8928001Y-8846843D01*
X8929392Y-8842191D01*
X8929537Y-8841746D01*
X8931145Y-8837167D01*
X8931154Y-8837067D01*
X9104534Y-8837067D01*
X9105275Y-8842733D01*
X9105360Y-8844037D01*
X9105360Y-8863991D01*
X9105457Y-8864970D01*
X9106640Y-8870922D01*
X9107384Y-8872718D01*
X9111897Y-8879472D01*
X9113272Y-8880846D01*
X9120026Y-8885359D01*
X9121821Y-8886103D01*
X9127773Y-8887287D01*
X9128753Y-8887383D01*
X9145762Y-8887383D01*
X9147370Y-8887513D01*
X9148271Y-8887659D01*
X9161387Y-8887899D01*
X9163506Y-8887635D01*
X9163506Y-8887636D01*
X9165390Y-8887383D01*
X9228767Y-8887383D01*
X9230056Y-8886965D01*
X9230360Y-8886546D01*
X9230360Y-8885790D01*
X9281160Y-8885790D01*
X9281579Y-8887079D01*
X9281998Y-8887383D01*
X9345761Y-8887383D01*
X9347370Y-8887513D01*
X9348271Y-8887659D01*
X9361387Y-8887899D01*
X9363506Y-8887635D01*
X9363506Y-8887636D01*
X9365391Y-8887383D01*
X9377115Y-8887383D01*
X9383029Y-8889305D01*
X9385166Y-8891410D01*
X9388491Y-8895847D01*
X9389546Y-8897254D01*
X9390119Y-8897684D01*
X9399963Y-8905062D01*
X9399963Y-8905062D01*
X9400537Y-8905492D01*
X9401207Y-8905743D01*
X9401207Y-8905743D01*
X9412808Y-8910092D01*
X9412808Y-8910092D01*
X9413398Y-8910313D01*
X9416775Y-8910680D01*
X9418991Y-8910921D01*
X9418992Y-8910921D01*
X9419261Y-8910950D01*
X9448795Y-8910950D01*
X9478339Y-8910950D01*
X9482878Y-8910457D01*
X9483576Y-8910381D01*
X9483576Y-8910381D01*
X9484202Y-8910313D01*
X9484793Y-8910092D01*
X9484793Y-8910092D01*
X9496393Y-8905743D01*
X9496393Y-8905743D01*
X9497064Y-8905492D01*
X9497637Y-8905062D01*
X9497637Y-8905062D01*
X9507481Y-8897684D01*
X9508054Y-8897254D01*
X9508873Y-8896162D01*
X9515862Y-8886837D01*
X9515862Y-8886837D01*
X9516292Y-8886264D01*
X9516758Y-8885020D01*
X9520892Y-8873992D01*
X9520892Y-8873992D01*
X9521113Y-8873402D01*
X9521519Y-8869667D01*
X9521721Y-8867809D01*
X9521721Y-8867808D01*
X9521750Y-8867539D01*
X9521750Y-8813461D01*
X9521113Y-8807598D01*
X9520891Y-8807006D01*
X9516543Y-8795407D01*
X9516543Y-8795407D01*
X9516292Y-8794737D01*
X9515175Y-8793247D01*
X9508484Y-8784319D01*
X9508054Y-8783746D01*
X9507330Y-8783203D01*
X9497637Y-8775938D01*
X9497637Y-8775938D01*
X9497064Y-8775508D01*
X9496393Y-8775257D01*
X9496393Y-8775257D01*
X9488825Y-8772420D01*
X9483963Y-8768545D01*
X9482306Y-8762553D01*
X9484489Y-8756731D01*
X9488825Y-8753580D01*
X9496393Y-8750743D01*
X9496393Y-8750743D01*
X9497064Y-8750492D01*
X9497637Y-8750062D01*
X9497637Y-8750062D01*
X9507481Y-8742684D01*
X9508054Y-8742254D01*
X9508529Y-8741621D01*
X9515862Y-8731837D01*
X9515862Y-8731837D01*
X9516292Y-8731264D01*
X9517005Y-8729361D01*
X9517208Y-8728819D01*
X10339680Y-8728819D01*
X10339710Y-8729361D01*
X10340281Y-8734627D01*
X10340571Y-8735845D01*
X10345166Y-8748101D01*
X10345847Y-8749346D01*
X10353645Y-8759751D01*
X10354649Y-8760755D01*
X10365054Y-8768553D01*
X10366299Y-8769235D01*
X10378555Y-8773829D01*
X10379773Y-8774119D01*
X10385039Y-8774691D01*
X10385581Y-8774720D01*
X10455587Y-8774720D01*
X10456876Y-8774301D01*
X10457180Y-8773882D01*
X10457180Y-8773127D01*
X10507980Y-8773127D01*
X10508399Y-8774416D01*
X10508818Y-8774720D01*
X10579579Y-8774720D01*
X10580121Y-8774691D01*
X10585387Y-8774119D01*
X10586605Y-8773829D01*
X10598861Y-8769235D01*
X10600106Y-8768553D01*
X10610511Y-8760755D01*
X10611515Y-8759751D01*
X10619313Y-8749346D01*
X10619995Y-8748101D01*
X10624589Y-8735845D01*
X10624879Y-8734627D01*
X10625451Y-8729361D01*
X10625480Y-8728819D01*
X10625480Y-8710063D01*
X10625061Y-8708774D01*
X10624642Y-8708470D01*
X10509573Y-8708470D01*
X10508284Y-8708889D01*
X10507980Y-8709308D01*
X10507980Y-8773127D01*
X10457180Y-8773127D01*
X10457180Y-8710063D01*
X10456761Y-8708774D01*
X10456342Y-8708470D01*
X10341273Y-8708470D01*
X10339984Y-8708889D01*
X10339680Y-8709308D01*
X10339680Y-8728819D01*
X9517208Y-8728819D01*
X9520892Y-8718992D01*
X9520892Y-8718992D01*
X9521113Y-8718402D01*
X9521750Y-8712539D01*
X9521750Y-8658461D01*
X9521491Y-8656077D01*
X10339680Y-8656077D01*
X10340099Y-8657366D01*
X10340518Y-8657670D01*
X10455587Y-8657670D01*
X10456876Y-8657251D01*
X10457180Y-8656832D01*
X10457180Y-8656077D01*
X10507980Y-8656077D01*
X10508399Y-8657366D01*
X10508818Y-8657670D01*
X10623887Y-8657670D01*
X10625176Y-8657251D01*
X10625480Y-8656832D01*
X10625480Y-8637321D01*
X10625451Y-8636779D01*
X10624879Y-8631513D01*
X10624589Y-8630295D01*
X10619995Y-8618039D01*
X10619313Y-8616794D01*
X10611515Y-8606389D01*
X10610511Y-8605385D01*
X10600106Y-8597587D01*
X10598861Y-8596906D01*
X10586605Y-8592311D01*
X10585387Y-8592021D01*
X10580121Y-8591449D01*
X10579579Y-8591420D01*
X10509573Y-8591420D01*
X10508284Y-8591839D01*
X10507980Y-8592258D01*
X10507980Y-8656077D01*
X10457180Y-8656077D01*
X10457180Y-8593013D01*
X10456761Y-8591724D01*
X10456342Y-8591420D01*
X10385581Y-8591420D01*
X10385039Y-8591450D01*
X10379773Y-8592021D01*
X10378555Y-8592311D01*
X10366299Y-8596906D01*
X10365054Y-8597587D01*
X10354649Y-8605385D01*
X10353645Y-8606389D01*
X10345847Y-8616794D01*
X10345166Y-8618039D01*
X10340571Y-8630295D01*
X10340281Y-8631513D01*
X10339709Y-8636779D01*
X10339680Y-8637321D01*
X10339680Y-8656077D01*
X9521491Y-8656077D01*
X9521113Y-8652598D01*
X9520160Y-8650055D01*
X9516543Y-8640407D01*
X9516543Y-8640407D01*
X9516292Y-8639737D01*
X9515718Y-8638971D01*
X9508484Y-8629319D01*
X9508054Y-8628746D01*
X9506025Y-8627225D01*
X9497637Y-8620938D01*
X9497637Y-8620938D01*
X9497064Y-8620508D01*
X9496393Y-8620257D01*
X9496393Y-8620257D01*
X9484792Y-8615908D01*
X9484792Y-8615908D01*
X9484202Y-8615687D01*
X9480825Y-8615320D01*
X9478609Y-8615079D01*
X9478608Y-8615079D01*
X9478339Y-8615050D01*
X9476674Y-8615050D01*
X9470761Y-8613129D01*
X9467106Y-8608099D01*
X9467106Y-8601881D01*
X9470641Y-8596940D01*
X9475131Y-8593575D01*
X9476135Y-8592571D01*
X9483933Y-8582166D01*
X9484615Y-8580921D01*
X9489209Y-8568665D01*
X9489499Y-8567447D01*
X9490071Y-8562181D01*
X9490100Y-8561639D01*
X9490100Y-8505383D01*
X9489681Y-8504094D01*
X9489262Y-8503790D01*
X9374193Y-8503790D01*
X9372904Y-8504209D01*
X9372600Y-8504628D01*
X9372600Y-8605947D01*
X9373019Y-8607236D01*
X9373438Y-8607540D01*
X9387643Y-8607540D01*
X9393556Y-8609461D01*
X9397210Y-8614491D01*
X9397210Y-8620709D01*
X9393676Y-8625650D01*
X9389546Y-8628746D01*
X9389116Y-8629319D01*
X9381882Y-8638971D01*
X9381308Y-8639737D01*
X9381057Y-8640407D01*
X9381057Y-8640408D01*
X9377440Y-8650055D01*
X9373566Y-8654917D01*
X9368020Y-8656583D01*
X9365806Y-8656583D01*
X9364319Y-8656473D01*
X9362629Y-8656220D01*
X9349511Y-8656140D01*
X9347396Y-8656430D01*
X9347387Y-8656364D01*
X9345819Y-8656583D01*
X9282753Y-8656583D01*
X9281464Y-8657002D01*
X9281160Y-8657421D01*
X9281160Y-8885790D01*
X9230360Y-8885790D01*
X9230360Y-8798977D01*
X9229941Y-8797688D01*
X9229522Y-8797383D01*
X9106953Y-8797383D01*
X9105664Y-8797802D01*
X9105360Y-8798221D01*
X9105360Y-8829678D01*
X9105240Y-8831226D01*
X9104552Y-8835648D01*
X9104534Y-8837067D01*
X8931154Y-8837067D01*
X8931190Y-8836645D01*
X8931190Y-8836429D01*
X8931198Y-8836253D01*
X8931209Y-8836115D01*
X8931398Y-8835485D01*
X8931198Y-8830397D01*
X8931190Y-8830002D01*
X8931190Y-8767253D01*
X8931415Y-8765135D01*
X8931467Y-8764894D01*
X8931642Y-8764081D01*
X8931260Y-8760847D01*
X8931225Y-8760250D01*
X8931224Y-8760250D01*
X8931190Y-8759836D01*
X8931190Y-8759422D01*
X8931111Y-8758946D01*
X8930886Y-8757595D01*
X8930819Y-8757125D01*
X8930543Y-8754792D01*
X8930249Y-8752308D01*
X8929908Y-8751598D01*
X8929865Y-8751463D01*
X8929736Y-8750686D01*
X8927431Y-8746414D01*
X8927218Y-8745995D01*
X8925391Y-8742192D01*
X8925391Y-8742191D01*
X8925117Y-8741621D01*
X8924780Y-8741220D01*
X8924626Y-8741066D01*
X8924508Y-8740937D01*
X8924419Y-8740832D01*
X8924107Y-8740253D01*
X8920366Y-8736795D01*
X8920082Y-8736522D01*
X8909985Y-8726425D01*
X8908648Y-8724769D01*
X8908514Y-8724561D01*
X8908514Y-8724561D01*
X8908063Y-8723863D01*
X8905506Y-8721847D01*
X8905059Y-8721450D01*
X8905059Y-8721450D01*
X8904742Y-8721181D01*
X8904448Y-8720888D01*
X8902938Y-8719809D01*
X8902566Y-8719529D01*
X8898753Y-8716523D01*
X8898009Y-8716262D01*
X8897884Y-8716197D01*
X8897243Y-8715739D01*
X8892591Y-8714348D01*
X8892144Y-8714203D01*
X8891954Y-8714136D01*
X8887013Y-8710362D01*
X8885985Y-8707067D01*
X9104534Y-8707067D01*
X9105275Y-8712732D01*
X9105360Y-8714036D01*
X9105360Y-8744990D01*
X9105779Y-8746279D01*
X9106198Y-8746583D01*
X9228767Y-8746583D01*
X9230056Y-8746165D01*
X9230360Y-8745746D01*
X9230360Y-8658177D01*
X9229941Y-8656888D01*
X9229522Y-8656584D01*
X9165807Y-8656584D01*
X9164320Y-8656473D01*
X9162629Y-8656220D01*
X9149511Y-8656140D01*
X9147395Y-8656430D01*
X9147386Y-8656364D01*
X9145819Y-8656584D01*
X9128752Y-8656584D01*
X9127774Y-8656680D01*
X9121821Y-8657864D01*
X9120026Y-8658608D01*
X9113272Y-8663121D01*
X9111897Y-8664495D01*
X9107384Y-8671249D01*
X9106640Y-8673045D01*
X9105457Y-8678997D01*
X9105360Y-8679976D01*
X9105360Y-8699678D01*
X9105240Y-8701226D01*
X9104552Y-8705648D01*
X9104534Y-8707067D01*
X8885985Y-8707067D01*
X8885230Y-8704645D01*
X8885230Y-8681147D01*
X8885230Y-8680653D01*
X8885095Y-8679976D01*
X8884656Y-8677766D01*
X8884130Y-8675122D01*
X8884130Y-8671198D01*
X8885230Y-8665667D01*
X8885230Y-8630653D01*
X8885022Y-8629606D01*
X8884524Y-8627103D01*
X8884130Y-8625122D01*
X8884130Y-8621198D01*
X8885230Y-8615667D01*
X8885230Y-8599150D01*
X8887151Y-8593237D01*
X8892181Y-8589582D01*
X8895290Y-8589090D01*
X8976016Y-8589090D01*
X8976437Y-8589099D01*
X8982793Y-8589365D01*
X8983460Y-8589209D01*
X8983460Y-8589209D01*
X8987222Y-8588326D01*
X8988154Y-8588154D01*
X8991982Y-8587629D01*
X8992662Y-8587536D01*
X8994289Y-8586832D01*
X8995986Y-8586271D01*
X8996362Y-8586183D01*
X8997712Y-8585866D01*
X9001699Y-8583674D01*
X9002550Y-8583257D01*
X9004203Y-8582542D01*
X9006726Y-8581450D01*
X9007258Y-8581019D01*
X9007258Y-8581019D01*
X9008070Y-8580362D01*
X9008103Y-8580335D01*
X9009588Y-8579337D01*
X9010678Y-8578738D01*
X9010679Y-8578737D01*
X9011140Y-8578484D01*
X9011965Y-8577772D01*
X9014559Y-8575178D01*
X9015341Y-8574473D01*
X9018101Y-8572238D01*
X9018635Y-8571807D01*
X9019791Y-8570180D01*
X9021182Y-8568602D01*
X9024935Y-8565151D01*
X9024935Y-8565151D01*
X9025440Y-8564686D01*
X9027329Y-8561639D01*
X9204300Y-8561639D01*
X9204330Y-8562181D01*
X9204901Y-8567447D01*
X9205191Y-8568665D01*
X9209786Y-8580921D01*
X9210467Y-8582166D01*
X9218265Y-8592571D01*
X9219269Y-8593575D01*
X9229674Y-8601373D01*
X9230919Y-8602055D01*
X9243175Y-8606649D01*
X9244393Y-8606939D01*
X9249659Y-8607511D01*
X9250201Y-8607540D01*
X9320207Y-8607540D01*
X9321496Y-8607121D01*
X9321800Y-8606702D01*
X9321800Y-8505383D01*
X9321381Y-8504094D01*
X9320962Y-8503790D01*
X9205893Y-8503790D01*
X9204604Y-8504209D01*
X9204300Y-8504628D01*
X9204300Y-8561639D01*
X9027329Y-8561639D01*
X9027838Y-8560819D01*
X9028374Y-8560039D01*
X9030710Y-8556961D01*
X9030711Y-8556961D01*
X9031125Y-8556414D01*
X9031778Y-8554766D01*
X9032581Y-8553169D01*
X9033153Y-8552246D01*
X9033154Y-8552246D01*
X9033515Y-8551663D01*
X9034784Y-8547294D01*
X9035091Y-8546398D01*
X9036514Y-8542804D01*
X9036766Y-8542167D01*
X9036952Y-8540404D01*
X9037296Y-8538649D01*
X9037643Y-8537454D01*
X9037643Y-8537454D01*
X9037790Y-8536947D01*
X9037870Y-8535861D01*
X9037870Y-8532192D01*
X9037925Y-8531141D01*
X9038072Y-8529747D01*
X9038368Y-8526927D01*
X9038011Y-8524816D01*
X9037870Y-8523138D01*
X9037870Y-8451397D01*
X9204300Y-8451397D01*
X9204719Y-8452686D01*
X9205138Y-8452990D01*
X9320207Y-8452990D01*
X9321496Y-8452571D01*
X9321800Y-8452152D01*
X9321800Y-8451397D01*
X9372600Y-8451397D01*
X9373019Y-8452686D01*
X9373438Y-8452990D01*
X9488507Y-8452990D01*
X9489796Y-8452571D01*
X9490100Y-8452152D01*
X9490100Y-8395141D01*
X9490071Y-8394599D01*
X9489499Y-8389333D01*
X9489209Y-8388115D01*
X9484615Y-8375859D01*
X9483933Y-8374614D01*
X9476135Y-8364209D01*
X9475131Y-8363205D01*
X9464726Y-8355407D01*
X9463481Y-8354725D01*
X9451225Y-8350131D01*
X9450007Y-8349841D01*
X9444741Y-8349269D01*
X9444199Y-8349240D01*
X9374193Y-8349240D01*
X9372904Y-8349659D01*
X9372600Y-8350078D01*
X9372600Y-8451397D01*
X9321800Y-8451397D01*
X9321800Y-8350833D01*
X9321381Y-8349544D01*
X9320962Y-8349240D01*
X9250201Y-8349240D01*
X9249659Y-8349269D01*
X9244393Y-8349841D01*
X9243175Y-8350131D01*
X9230919Y-8354725D01*
X9229674Y-8355407D01*
X9219269Y-8363205D01*
X9218265Y-8364209D01*
X9210467Y-8374614D01*
X9209786Y-8375859D01*
X9205191Y-8388115D01*
X9204901Y-8389333D01*
X9204329Y-8394599D01*
X9204300Y-8395141D01*
X9204300Y-8451397D01*
X9037870Y-8451397D01*
X9037870Y-8430882D01*
X9037798Y-8430357D01*
X9036409Y-8420217D01*
X9036409Y-8420217D01*
X9036316Y-8419538D01*
X9033617Y-8413302D01*
X9032790Y-8409306D01*
X9032790Y-8310266D01*
X9034711Y-8304353D01*
X9039741Y-8300698D01*
X9042850Y-8300206D01*
X9160481Y-8300206D01*
X9161771Y-8300350D01*
X9161771Y-8300348D01*
X9162485Y-8300405D01*
X9163184Y-8300563D01*
X9168634Y-8300225D01*
X9169257Y-8300206D01*
X9170955Y-8300206D01*
X9171310Y-8300155D01*
X9171310Y-8300155D01*
X9171574Y-8300117D01*
X9172092Y-8300043D01*
X9172894Y-8299961D01*
X9174527Y-8299860D01*
X9177007Y-8299706D01*
X9177007Y-8299706D01*
X9177722Y-8299662D01*
X9178395Y-8299418D01*
X9178396Y-8299418D01*
X9178668Y-8299320D01*
X9178701Y-8299308D01*
X9180691Y-8298812D01*
X9181723Y-8298664D01*
X9186126Y-8296662D01*
X9186873Y-8296358D01*
X9191422Y-8294716D01*
X9192001Y-8294293D01*
X9192264Y-8294101D01*
X9194034Y-8293066D01*
X9194330Y-8292932D01*
X9194330Y-8292932D01*
X9194982Y-8292635D01*
X9197991Y-8290043D01*
X9198647Y-8289478D01*
X9199279Y-8288976D01*
X9200459Y-8288114D01*
X9201624Y-8286949D01*
X9202171Y-8286441D01*
X9205474Y-8283595D01*
X9206017Y-8283127D01*
X9206492Y-8282394D01*
X9207820Y-8280753D01*
X9243276Y-8245296D01*
X9248816Y-8242474D01*
X9250390Y-8242350D01*
X9323598Y-8242350D01*
X9323938Y-8242303D01*
X9323938Y-8242303D01*
X9334263Y-8240889D01*
X9334263Y-8240889D01*
X9334942Y-8240796D01*
X9335571Y-8240524D01*
X9335572Y-8240524D01*
X9346811Y-8235660D01*
X9353001Y-8235075D01*
X9356025Y-8236292D01*
X9364531Y-8241453D01*
X9369365Y-8243213D01*
X9378243Y-8244778D01*
X9525600Y-8244778D01*
X9525709Y-8244773D01*
X9525711Y-8244773D01*
X9527017Y-8244716D01*
X9527862Y-8244679D01*
X9528913Y-8244587D01*
X9529113Y-8244570D01*
X9529113Y-8244570D01*
X9529167Y-8244565D01*
X9529219Y-8244559D01*
X9529219Y-8244559D01*
X9529293Y-8244551D01*
X9530294Y-8244442D01*
X9530813Y-8244265D01*
X9530813Y-8244265D01*
X9539416Y-8241345D01*
X9539417Y-8241345D01*
X9539885Y-8241186D01*
X9544340Y-8238614D01*
X9550499Y-8233671D01*
X9555753Y-8225012D01*
X9557513Y-8220178D01*
X9559078Y-8211300D01*
X9559078Y-8125298D01*
X9560999Y-8119385D01*
X9566029Y-8115730D01*
X9569138Y-8115238D01*
X9757353Y-8115238D01*
X9757875Y-8115220D01*
X9759034Y-8115181D01*
X9759036Y-8115181D01*
X9759117Y-8115178D01*
X9759201Y-8115172D01*
X9759252Y-8115170D01*
X9759825Y-8115157D01*
X9764234Y-8115184D01*
G37*
%TD.AperFunction*%
%TA.AperFunction,Conductor*%
G36*
X8543014Y-8262236D02*
G01*
X8561265Y-8280488D01*
X8562075Y-8281501D01*
X8562077Y-8281500D01*
X8562541Y-8282046D01*
X8562924Y-8282652D01*
X8566050Y-8285413D01*
X8567016Y-8286266D01*
X8567470Y-8286693D01*
X8568672Y-8287894D01*
X8568957Y-8288108D01*
X8568958Y-8288109D01*
X8569591Y-8288583D01*
X8570217Y-8289093D01*
X8573841Y-8292294D01*
X8574490Y-8292598D01*
X8574785Y-8292737D01*
X8576542Y-8293793D01*
X8576802Y-8293988D01*
X8576803Y-8293988D01*
X8577376Y-8294418D01*
X8581908Y-8296117D01*
X8582647Y-8296428D01*
X8587026Y-8298484D01*
X8587734Y-8298594D01*
X8587734Y-8298594D01*
X8588055Y-8298644D01*
X8590039Y-8299165D01*
X8590268Y-8299251D01*
X8591015Y-8299531D01*
X8592454Y-8299638D01*
X8595838Y-8299889D01*
X8596640Y-8299981D01*
X8598085Y-8300206D01*
X8599731Y-8300206D01*
X8600477Y-8300234D01*
X8604825Y-8300557D01*
X8604826Y-8300557D01*
X8605540Y-8300610D01*
X8606394Y-8300428D01*
X8608494Y-8300206D01*
X8612205Y-8300206D01*
X8618118Y-8302127D01*
X8621772Y-8307157D01*
X8621833Y-8313182D01*
X8621514Y-8314235D01*
X8621538Y-8315429D01*
X8622594Y-8315760D01*
X8864993Y-8315760D01*
X8866094Y-8315402D01*
X8866094Y-8314603D01*
X8865925Y-8314205D01*
X8865377Y-8308012D01*
X8868575Y-8302679D01*
X8874296Y-8300245D01*
X8875181Y-8300206D01*
X8921030Y-8300206D01*
X8926943Y-8302127D01*
X8930598Y-8307157D01*
X8931090Y-8310266D01*
X8931090Y-8408220D01*
X8930340Y-8411750D01*
X8930365Y-8411757D01*
X8926090Y-8426473D01*
X8926010Y-8427560D01*
X8926010Y-8467170D01*
X8924089Y-8473083D01*
X8919059Y-8476738D01*
X8915950Y-8477230D01*
X8797942Y-8477230D01*
X8797602Y-8477277D01*
X8797602Y-8477277D01*
X8795117Y-8477617D01*
X8793751Y-8477710D01*
X8759283Y-8477710D01*
X8753370Y-8475789D01*
X8749715Y-8470759D01*
X8749422Y-8469639D01*
X8749355Y-8469309D01*
X8748638Y-8465753D01*
X8746485Y-8461527D01*
X8742518Y-8453741D01*
X8741741Y-8452216D01*
X8741277Y-8451712D01*
X8741277Y-8451712D01*
X8735245Y-8445152D01*
X8734764Y-8444629D01*
X8732176Y-8438976D01*
X8733405Y-8432882D01*
X8737981Y-8428673D01*
X8742169Y-8427760D01*
X8774787Y-8427760D01*
X8776076Y-8427341D01*
X8776380Y-8426922D01*
X8776380Y-8403820D01*
X8778301Y-8397907D01*
X8783331Y-8394252D01*
X8786440Y-8393760D01*
X8817120Y-8393760D01*
X8823033Y-8395681D01*
X8826688Y-8400711D01*
X8827180Y-8403820D01*
X8827180Y-8426167D01*
X8827599Y-8427456D01*
X8828018Y-8427760D01*
X8883587Y-8427760D01*
X8884876Y-8427341D01*
X8885180Y-8426922D01*
X8885180Y-8421152D01*
X8885084Y-8420174D01*
X8883900Y-8414221D01*
X8883156Y-8412426D01*
X8878643Y-8405672D01*
X8877269Y-8404297D01*
X8870514Y-8399784D01*
X8868719Y-8399040D01*
X8864926Y-8398286D01*
X8859501Y-8395248D01*
X8856898Y-8389602D01*
X8858189Y-8383366D01*
X8864642Y-8372257D01*
X8865105Y-8371192D01*
X8866046Y-8368085D01*
X8866022Y-8366891D01*
X8864966Y-8366560D01*
X8622567Y-8366560D01*
X8621466Y-8366918D01*
X8621466Y-8367717D01*
X8626111Y-8378632D01*
X8626687Y-8379642D01*
X8636525Y-8393011D01*
X8637317Y-8393860D01*
X8649968Y-8404608D01*
X8650934Y-8405252D01*
X8665718Y-8412801D01*
X8666806Y-8413206D01*
X8671782Y-8414424D01*
X8677069Y-8417695D01*
X8679423Y-8423450D01*
X8677945Y-8429489D01*
X8673386Y-8433428D01*
X8667415Y-8436012D01*
X8667414Y-8436012D01*
X8666785Y-8436284D01*
X8654979Y-8445845D01*
X8654582Y-8446404D01*
X8654582Y-8446404D01*
X8649304Y-8453830D01*
X8646178Y-8458229D01*
X8645946Y-8458874D01*
X8645946Y-8458874D01*
X8642934Y-8467241D01*
X8641032Y-8472523D01*
X8639919Y-8487675D01*
X8640738Y-8491736D01*
X8640762Y-8491854D01*
X8640047Y-8498030D01*
X8635839Y-8502607D01*
X8630900Y-8503902D01*
X8603551Y-8503902D01*
X8601977Y-8503778D01*
X8599604Y-8503402D01*
X8598643Y-8503250D01*
X8595240Y-8502711D01*
X8594458Y-8502835D01*
X8592620Y-8503126D01*
X8591046Y-8503250D01*
X8535900Y-8503250D01*
X8529987Y-8501329D01*
X8526332Y-8496299D01*
X8525840Y-8493190D01*
X8525840Y-8269350D01*
X8527761Y-8263437D01*
X8532791Y-8259782D01*
X8539009Y-8259782D01*
X8543014Y-8262236D01*
G37*
%TD.AperFunction*%
%TA.AperFunction,Conductor*%
G36*
X8235613Y-8076821D02*
G01*
X8239268Y-8081851D01*
X8239760Y-8084960D01*
X8239760Y-8152816D01*
X8240179Y-8154105D01*
X8240269Y-8154171D01*
X8240936Y-8154223D01*
X8243389Y-8153835D01*
X8244877Y-8153351D01*
X8245924Y-8152818D01*
X8252065Y-8151845D01*
X8257605Y-8154668D01*
X8260428Y-8160208D01*
X8259455Y-8166348D01*
X8257605Y-8168895D01*
X8225786Y-8200714D01*
X8193983Y-8232516D01*
X8188444Y-8235339D01*
X8182303Y-8234366D01*
X8177906Y-8229970D01*
X8176810Y-8225403D01*
X8176810Y-8164264D01*
X8178731Y-8158351D01*
X8183761Y-8154696D01*
X8185832Y-8154533D01*
X8185813Y-8154410D01*
X8188725Y-8153948D01*
X8188804Y-8153869D01*
X8188960Y-8153219D01*
X8188960Y-8084960D01*
X8190881Y-8079047D01*
X8195911Y-8075392D01*
X8199020Y-8074900D01*
X8229700Y-8074900D01*
X8235613Y-8076821D01*
G37*
%TD.AperFunction*%
%TD*%
%TA.AperFunction,Conductor*%
%TO.N,+24V*%
G36*
X11062054Y-7614809D02*
G01*
X11064626Y-7619264D01*
X11064740Y-7620570D01*
X11064740Y-8081760D01*
X11062981Y-8086594D01*
X11058526Y-8089166D01*
X11057220Y-8089280D01*
X10989026Y-8089280D01*
X10984192Y-8087521D01*
X10981620Y-8083066D01*
X10982513Y-8078000D01*
X10985352Y-8075199D01*
X10999738Y-8067142D01*
X11000304Y-8066753D01*
X11015375Y-8054219D01*
X11015859Y-8053735D01*
X11028393Y-8038664D01*
X11028782Y-8038098D01*
X11038359Y-8020997D01*
X11038638Y-8020370D01*
X11044868Y-8002018D01*
X11044709Y-8001254D01*
X11044387Y-8001000D01*
X10831104Y-8001000D01*
X10830088Y-8001370D01*
X10829967Y-8001579D01*
X10829975Y-8001774D01*
X10832642Y-8012276D01*
X10832871Y-8012924D01*
X10841077Y-8030723D01*
X10841420Y-8031318D01*
X10852733Y-8047325D01*
X10853178Y-8047847D01*
X10867218Y-8061524D01*
X10867752Y-8061956D01*
X10884049Y-8072845D01*
X10884653Y-8073173D01*
X10888557Y-8074851D01*
X10892304Y-8078375D01*
X10892909Y-8083484D01*
X10890088Y-8087785D01*
X10885589Y-8089280D01*
X10793694Y-8089280D01*
X10788860Y-8087521D01*
X10786288Y-8083066D01*
X10787441Y-8077582D01*
X10791755Y-8071126D01*
X10792311Y-8069784D01*
X10793568Y-8063464D01*
X10793640Y-8062732D01*
X10793640Y-8002326D01*
X10793270Y-8001310D01*
X10792733Y-8001000D01*
X10574166Y-8001000D01*
X10573150Y-8001370D01*
X10572840Y-8001907D01*
X10572840Y-8062732D01*
X10572912Y-8063464D01*
X10574169Y-8069784D01*
X10574725Y-8071126D01*
X10579039Y-8077582D01*
X10580261Y-8082579D01*
X10577986Y-8087192D01*
X10572786Y-8089280D01*
X9771226Y-8089280D01*
X9771108Y-8089271D01*
X9771095Y-8089267D01*
X9771050Y-8089267D01*
X9771050Y-8089267D01*
X9764953Y-8089230D01*
X9757984Y-8089187D01*
X9757755Y-8089253D01*
X9757353Y-8089280D01*
X9533120Y-8089280D01*
X9533120Y-8211300D01*
X9531361Y-8216134D01*
X9526906Y-8218706D01*
X9525600Y-8218820D01*
X9378243Y-8218820D01*
X9373409Y-8217061D01*
X9370837Y-8212606D01*
X9371168Y-8208753D01*
X9372783Y-8204265D01*
X9374982Y-8198158D01*
X9376104Y-8182875D01*
X9375703Y-8180886D01*
X9373177Y-8168356D01*
X9373076Y-8167854D01*
X9368860Y-8159580D01*
X9366351Y-8154657D01*
X9366119Y-8154200D01*
X9361313Y-8148974D01*
X9356093Y-8143297D01*
X9356093Y-8143297D01*
X9355746Y-8142920D01*
X9355311Y-8142650D01*
X9355311Y-8142650D01*
X9343158Y-8135115D01*
X9342723Y-8134845D01*
X9333782Y-8132248D01*
X9328386Y-8130680D01*
X9328386Y-8130680D01*
X9328007Y-8130570D01*
X9327393Y-8130525D01*
X9327057Y-8130500D01*
X9327057Y-8130500D01*
X9326921Y-8130490D01*
X9226402Y-8130490D01*
X9226148Y-8130525D01*
X9226147Y-8130525D01*
X9221776Y-8131124D01*
X9215058Y-8132044D01*
X9214587Y-8132247D01*
X9214587Y-8132248D01*
X9201465Y-8137926D01*
X9201465Y-8137926D01*
X9200994Y-8138130D01*
X9189086Y-8147773D01*
X9181660Y-8158222D01*
X9177426Y-8161143D01*
X9172304Y-8160659D01*
X9168693Y-8156997D01*
X9168010Y-8153866D01*
X9168010Y-8069207D01*
X9204300Y-8069207D01*
X9204322Y-8069614D01*
X9204919Y-8075105D01*
X9205135Y-8076015D01*
X9209849Y-8088591D01*
X9210358Y-8089521D01*
X9218374Y-8100216D01*
X9219124Y-8100966D01*
X9229819Y-8108982D01*
X9230749Y-8109491D01*
X9243324Y-8114205D01*
X9244235Y-8114421D01*
X9249726Y-8115018D01*
X9250133Y-8115040D01*
X9320474Y-8115040D01*
X9321490Y-8114670D01*
X9321800Y-8114133D01*
X9321800Y-8113714D01*
X9372600Y-8113714D01*
X9372970Y-8114730D01*
X9373507Y-8115040D01*
X9444267Y-8115040D01*
X9444674Y-8115018D01*
X9450165Y-8114421D01*
X9451076Y-8114205D01*
X9463651Y-8109491D01*
X9464581Y-8108982D01*
X9475276Y-8100966D01*
X9476026Y-8100216D01*
X9484042Y-8089521D01*
X9484551Y-8088591D01*
X9489265Y-8076016D01*
X9489482Y-8075105D01*
X9490078Y-8069614D01*
X9490100Y-8069207D01*
X9490100Y-8012616D01*
X9489730Y-8011600D01*
X9489193Y-8011290D01*
X9373926Y-8011290D01*
X9372910Y-8011660D01*
X9372600Y-8012197D01*
X9372600Y-8113714D01*
X9321800Y-8113714D01*
X9321800Y-8012616D01*
X9321430Y-8011600D01*
X9320893Y-8011290D01*
X9205626Y-8011290D01*
X9204610Y-8011660D01*
X9204300Y-8012197D01*
X9204300Y-8069207D01*
X9168010Y-8069207D01*
X9168010Y-8060491D01*
X9167640Y-8059475D01*
X9167103Y-8059165D01*
X8874730Y-8059165D01*
X8869896Y-8057406D01*
X8867324Y-8052951D01*
X8867210Y-8051645D01*
X8867210Y-8007039D01*
X8918010Y-8007039D01*
X8918380Y-8008055D01*
X8918917Y-8008365D01*
X9166684Y-8008365D01*
X9167700Y-8007995D01*
X9168010Y-8007458D01*
X9168010Y-7959164D01*
X9204300Y-7959164D01*
X9204670Y-7960180D01*
X9205207Y-7960490D01*
X9320474Y-7960490D01*
X9321490Y-7960120D01*
X9321800Y-7959583D01*
X9321800Y-7959164D01*
X9372600Y-7959164D01*
X9372970Y-7960180D01*
X9373507Y-7960490D01*
X9488774Y-7960490D01*
X9489790Y-7960120D01*
X9490100Y-7959583D01*
X9490100Y-7948874D01*
X10572840Y-7948874D01*
X10573210Y-7949890D01*
X10573747Y-7950200D01*
X10656514Y-7950200D01*
X10657530Y-7949830D01*
X10657840Y-7949293D01*
X10657840Y-7948874D01*
X10708640Y-7948874D01*
X10709010Y-7949890D01*
X10709547Y-7950200D01*
X10792314Y-7950200D01*
X10793330Y-7949830D01*
X10793640Y-7949293D01*
X10793640Y-7948934D01*
X10829912Y-7948934D01*
X10829964Y-7950013D01*
X10830055Y-7950112D01*
X10830417Y-7950200D01*
X10910514Y-7950200D01*
X10911530Y-7949830D01*
X10911840Y-7949293D01*
X10911840Y-7948874D01*
X10962640Y-7948874D01*
X10963010Y-7949890D01*
X10963547Y-7950200D01*
X11043465Y-7950200D01*
X11044481Y-7949830D01*
X11044575Y-7949667D01*
X11044561Y-7949384D01*
X11040842Y-7936198D01*
X11040597Y-7935558D01*
X11031927Y-7917978D01*
X11031568Y-7917392D01*
X11019841Y-7901688D01*
X11019382Y-7901177D01*
X11004988Y-7887872D01*
X11004444Y-7887455D01*
X10987866Y-7876995D01*
X10987256Y-7876684D01*
X10969049Y-7869420D01*
X10968392Y-7869226D01*
X10963941Y-7868340D01*
X10962872Y-7868505D01*
X10962643Y-7868766D01*
X10962640Y-7868781D01*
X10962640Y-7948874D01*
X10911840Y-7948874D01*
X10911840Y-7869264D01*
X10911470Y-7868249D01*
X10911141Y-7868059D01*
X10908883Y-7868447D01*
X10908221Y-7868624D01*
X10889831Y-7875408D01*
X10889212Y-7875704D01*
X10872367Y-7885725D01*
X10871811Y-7886129D01*
X10857075Y-7899052D01*
X10856602Y-7899551D01*
X10844467Y-7914944D01*
X10844094Y-7915519D01*
X10834967Y-7932866D01*
X10834705Y-7933500D01*
X10829912Y-7948934D01*
X10793640Y-7948934D01*
X10793640Y-7888468D01*
X10793568Y-7887736D01*
X10792311Y-7881416D01*
X10791755Y-7880074D01*
X10786964Y-7872903D01*
X10785937Y-7871876D01*
X10778766Y-7867085D01*
X10777424Y-7866529D01*
X10771104Y-7865272D01*
X10770372Y-7865200D01*
X10709966Y-7865200D01*
X10708950Y-7865570D01*
X10708640Y-7866107D01*
X10708640Y-7948874D01*
X10657840Y-7948874D01*
X10657840Y-7866526D01*
X10657470Y-7865510D01*
X10656933Y-7865200D01*
X10596108Y-7865200D01*
X10595376Y-7865272D01*
X10589056Y-7866529D01*
X10587714Y-7867085D01*
X10580543Y-7871876D01*
X10579516Y-7872903D01*
X10574725Y-7880074D01*
X10574169Y-7881416D01*
X10572912Y-7887736D01*
X10572840Y-7888468D01*
X10572840Y-7948874D01*
X9490100Y-7948874D01*
X9490100Y-7902573D01*
X9490078Y-7902166D01*
X9489481Y-7896675D01*
X9489265Y-7895764D01*
X9484551Y-7883189D01*
X9484042Y-7882259D01*
X9476026Y-7871564D01*
X9475276Y-7870814D01*
X9464581Y-7862798D01*
X9463651Y-7862289D01*
X9451076Y-7857575D01*
X9450165Y-7857358D01*
X9444674Y-7856762D01*
X9444267Y-7856740D01*
X9373926Y-7856740D01*
X9372910Y-7857110D01*
X9372600Y-7857647D01*
X9372600Y-7959164D01*
X9321800Y-7959164D01*
X9321800Y-7858066D01*
X9321430Y-7857050D01*
X9320893Y-7856740D01*
X9250133Y-7856740D01*
X9249726Y-7856762D01*
X9244235Y-7857359D01*
X9243325Y-7857575D01*
X9230749Y-7862289D01*
X9229819Y-7862798D01*
X9219124Y-7870814D01*
X9218374Y-7871564D01*
X9210358Y-7882259D01*
X9209849Y-7883189D01*
X9205135Y-7895764D01*
X9204919Y-7896675D01*
X9204322Y-7902166D01*
X9204300Y-7902573D01*
X9204300Y-7959164D01*
X9168010Y-7959164D01*
X9168010Y-7856633D01*
X9167938Y-7855901D01*
X9166681Y-7849581D01*
X9166125Y-7848239D01*
X9161334Y-7841068D01*
X9160307Y-7840041D01*
X9153136Y-7835250D01*
X9151794Y-7834694D01*
X9145474Y-7833437D01*
X9144742Y-7833365D01*
X8919336Y-7833365D01*
X8918320Y-7833735D01*
X8918010Y-7834272D01*
X8918010Y-8007039D01*
X8867210Y-8007039D01*
X8867210Y-7834691D01*
X8866840Y-7833675D01*
X8866303Y-7833365D01*
X8646560Y-7833365D01*
X8641726Y-7831606D01*
X8639154Y-7827151D01*
X8639040Y-7825845D01*
X8639040Y-7620570D01*
X8640799Y-7615736D01*
X8645254Y-7613164D01*
X8646560Y-7613050D01*
X11057220Y-7613050D01*
X11062054Y-7614809D01*
G37*
%TD.AperFunction*%
%TD*%
M02*
