M48
; DRILL file {KiCad (6.0.7)} date Thu Aug 25 13:00:27 2022
; FORMAT={-:-/ absolute / metric / decimal}
; #@! TF.CreationDate,2022-08-25T13:00:27+08:00
; #@! TF.GenerationSoftware,Kicad,Pcbnew,(6.0.7)
; #@! TF.FileFunction,Plated,1,2,PTH
FMAT,2
METRIC
; #@! TA.AperFunction,Plated,PTH,ViaDrill
T1C0.305
; #@! TA.AperFunction,Plated,PTH,ComponentDrill
T2C0.305
; #@! TA.AperFunction,Plated,PTH,ComponentDrill
T3C0.508
; #@! TA.AperFunction,Plated,PTH,ComponentDrill
T4C1.000
; #@! TA.AperFunction,Plated,PTH,ComponentDrill
T5C1.200
%
G90
G05
T1
X82.149Y-81.731
X82.53Y-85.465
X82.784Y-97.733
X83.012Y-90.264
X83.012Y-90.926
X83.718Y-95.365
X83.749Y-91.154
X84.181Y-87.573
X84.282Y-78.81
X84.282Y-79.343
X84.282Y-79.877
X84.282Y-80.791
X84.282Y-81.33
X84.282Y-81.868
X84.328Y-85.344
X84.638Y-93.339
X84.828Y-78.81
X84.828Y-79.338
X84.828Y-79.866
X84.828Y-80.781
X84.828Y-81.319
X84.828Y-81.858
X85.113Y-92.788
X85.12Y-91.281
X85.12Y-94.685
X85.201Y-97.733
X85.374Y-78.81
X85.374Y-79.343
X85.374Y-79.877
X85.374Y-80.791
X85.374Y-81.325
X85.374Y-81.858
X85.675Y-83.412
X85.882Y-90.443
X86.187Y-84.246
X86.34Y-93.161
X86.589Y-88.57
X86.848Y-78.937
X86.848Y-79.572
X86.848Y-80.207
X86.848Y-80.842
X86.848Y-81.477
X86.975Y-86.525
X87.0Y-87.482
X87.012Y-88.04
X87.203Y-93.186
X87.483Y-78.937
X87.483Y-79.572
X87.483Y-80.207
X87.483Y-80.842
X87.483Y-81.477
X87.618Y-97.733
X88.067Y-93.186
X88.118Y-78.937
X88.118Y-79.572
X88.118Y-80.207
X88.118Y-80.842
X88.118Y-81.477
X88.753Y-78.937
X88.753Y-79.572
X88.753Y-80.207
X88.753Y-80.842
X88.753Y-81.477
X89.007Y-91.256
X89.007Y-92.043
X89.007Y-93.212
X89.184Y-85.992
X89.184Y-86.836
X89.184Y-90.132
X89.388Y-78.937
X89.388Y-79.572
X89.388Y-80.207
X89.388Y-80.842
X89.388Y-81.477
X89.819Y-85.287
X89.845Y-90.138
X90.023Y-78.937
X90.023Y-79.572
X90.023Y-80.207
X90.023Y-80.842
X90.023Y-81.477
X90.035Y-97.733
X90.454Y-93.948
X90.658Y-78.937
X90.658Y-79.572
X90.658Y-80.207
X91.293Y-78.937
X91.293Y-79.572
X91.293Y-80.207
X91.65Y-93.921
X92.451Y-97.733
X92.666Y-93.921
X93.198Y-81.864
X94.488Y-86.855
X94.488Y-88.405
X94.868Y-97.733
X95.352Y-90.195
X95.357Y-91.383
X97.135Y-86.303
X97.262Y-83.001
X97.262Y-85.033
X97.262Y-87.319
X97.262Y-88.462
X97.285Y-97.733
X97.643Y-81.35
X98.659Y-88.462
X99.04Y-85.541
X99.702Y-97.733
X99.929Y-86.684
X100.31Y-88.462
X100.691Y-85.414
X101.072Y-81.604
X101.326Y-88.97
X101.326Y-90.24
X101.326Y-91.383
X102.088Y-85.287
X102.119Y-97.733
X102.723Y-81.604
X102.723Y-86.684
X102.723Y-89.986
X103.231Y-93.796
X103.739Y-85.287
X103.866Y-89.224
X104.374Y-93.821
X104.536Y-97.733
X104.628Y-81.604
X105.263Y-85.287
X105.466Y-93.288
X105.517Y-89.097
X106.406Y-85.16
X106.953Y-97.733
X107.041Y-81.731
X107.828Y-89.58
X108.285Y-89.122
X109.169Y-88.277
X109.2Y-81.731
X109.37Y-97.733
X109.581Y-83.128
X109.657Y-85.852
X110.47Y-81.604
X110.47Y-84.144
X111.451Y-84.363
X111.787Y-97.733
X111.912Y-81.431
X111.912Y-82.574
X112.502Y-81.477
X112.552Y-85.262
X112.629Y-88.716
X112.629Y-89.986
X112.629Y-90.621
X112.959Y-93.847
X113.264Y-88.335
X113.264Y-90.621
X113.365Y-85.211
X113.797Y-93.847
X113.899Y-90.621
X114.026Y-81.731
X114.026Y-88.335
X114.153Y-85.897
X114.204Y-97.733
X114.534Y-90.621
X114.744Y-88.926
X114.965Y-85.211
X115.169Y-89.351
X115.169Y-90.621
X115.296Y-82.366
X115.804Y-89.986
X115.804Y-90.621
X115.931Y-81.604
X116.621Y-97.733
X117.145Y-82.423
X117.683Y-86.989
X118.161Y-82.423
X118.217Y-87.319
X118.217Y-89.884
X118.217Y-90.621
X118.217Y-91.154
X119.038Y-97.733
X119.228Y-92.481
X119.634Y-83.922
X120.731Y-96.387
X120.858Y-86.125
X121.011Y-81.096
X121.061Y-91.027
X121.214Y-91.84
X121.265Y-84.779
X121.455Y-97.733
X121.9Y-80.08
X121.9Y-90.926
X122.027Y-79.064
X122.154Y-84.779
X123.043Y-84.779
X123.246Y-87.141
X123.424Y-78.556
X123.678Y-84.779
X123.872Y-97.733
X123.982Y-87.09
X124.033Y-90.596
X125.329Y-80.461
X125.627Y-79.019
X125.837Y-79.826
X125.964Y-93.796
X125.964Y-94.431
X126.289Y-97.733
X126.472Y-81.35
X126.599Y-91.891
X126.599Y-93.161
X126.726Y-82.874
X127.132Y-85.363
X127.683Y-93.139
X127.869Y-91.256
X127.913Y-79.019
X128.016Y-84.453
X128.25Y-83.255
X128.504Y-80.842
X128.504Y-93.161
X128.706Y-97.733
X128.935Y-85.236
X129.114Y-91.231
X129.139Y-93.796
X129.139Y-94.431
X129.901Y-83.128
X129.945Y-79.019
X130.066Y-90.279
X130.409Y-94.431
X130.79Y-82.239
X130.79Y-87.446
X130.936Y-89.459
X131.044Y-78.556
X131.044Y-93.161
X131.044Y-94.431
X131.123Y-97.733
X131.171Y-80.715
X131.171Y-86.938
X131.318Y-88.443
X131.342Y-79.019
X131.679Y-90.621
X131.679Y-94.431
X132.314Y-94.431
X132.949Y-94.431
X133.54Y-97.733
X134.645Y-94.336
X135.957Y-97.733
X136.068Y-88.214
X137.394Y-88.081
X137.394Y-89.351
X137.394Y-93.161
X137.439Y-86.411
X137.718Y-79.502
X138.029Y-81.096
X138.374Y-97.733
X138.664Y-88.716
X138.664Y-89.351
X138.664Y-93.161
X138.988Y-79.502
X139.299Y-81.096
X139.299Y-85.541
X139.934Y-88.716
X139.934Y-89.351
X139.934Y-90.621
X139.934Y-91.891
X140.258Y-79.502
X140.569Y-81.096
X140.64Y-85.47
X140.64Y-91.186
X140.791Y-97.733
X141.204Y-88.716
X141.204Y-89.351
X141.528Y-79.502
X141.839Y-81.096
X141.839Y-85.541
X142.474Y-88.716
X142.474Y-89.351
X143.109Y-85.541
X143.208Y-97.733
X145.625Y-97.733
X148.042Y-97.733
X150.459Y-97.733
X152.876Y-97.733
X155.293Y-97.733
X157.71Y-97.733
X160.127Y-97.733
T2
X83.604Y-87.059
X83.604Y-88.209
X84.754Y-87.059
X84.754Y-88.209
X91.558Y-87.07
X91.558Y-88.37
X92.558Y-87.07
X92.558Y-88.37
X93.558Y-87.07
X93.558Y-88.37
T4
X106.832Y-79.756
X106.832Y-94.894
X109.372Y-79.756
X109.372Y-94.894
X111.912Y-79.756
X111.912Y-94.894
X114.452Y-79.756
X114.452Y-94.894
X116.992Y-79.756
X116.992Y-94.894
X119.532Y-79.756
X119.532Y-94.894
X125.708Y-84.876
X125.708Y-87.376
X125.708Y-89.876
T5
X146.355Y-80.27
X146.355Y-83.77
X146.355Y-87.27
X146.355Y-90.77
X146.355Y-94.27
T3
G00X82.76Y-83.412
M15
G01X83.776Y-83.412
M16
G05
G00X82.76Y-92.052
M15
G01X83.776Y-92.052
M16
G05
G00X86.93Y-83.412
M15
G01X87.946Y-83.412
M16
G05
G00X86.93Y-92.052
M15
G01X87.946Y-92.052
M16
G05
T4
G00X122.958Y-82.376
M15
G01X124.458Y-82.376
M16
G05
G00X122.958Y-92.376
M15
G01X124.458Y-92.376
M16
G05
T0
M30
