%TF.GenerationSoftware,KiCad,Pcbnew,(6.0.7)*%
%TF.CreationDate,2022-08-25T13:00:14+08:00*%
%TF.ProjectId,T12_SolderingStation,5431325f-536f-46c6-9465-72696e675374,rev?*%
%TF.SameCoordinates,Original*%
%TF.FileFunction,Soldermask,Top*%
%TF.FilePolarity,Negative*%
%FSLAX45Y45*%
G04 Gerber Fmt 4.5, Leading zero omitted, Abs format (unit mm)*
G04 Created by KiCad (PCBNEW (6.0.7)) date 2022-08-25 13:00:14*
%MOMM*%
%LPD*%
G01*
G04 APERTURE LIST*
G04 Aperture macros list*
%AMRoundRect*
0 Rectangle with rounded corners*
0 $1 Rounding radius*
0 $2 $3 $4 $5 $6 $7 $8 $9 X,Y pos of 4 corners*
0 Add a 4 corners polygon primitive as box body*
4,1,4,$2,$3,$4,$5,$6,$7,$8,$9,$2,$3,0*
0 Add four circle primitives for the rounded corners*
1,1,$1+$1,$2,$3*
1,1,$1+$1,$4,$5*
1,1,$1+$1,$6,$7*
1,1,$1+$1,$8,$9*
0 Add four rect primitives between the rounded corners*
20,1,$1+$1,$2,$3,$4,$5,0*
20,1,$1+$1,$4,$5,$6,$7,0*
20,1,$1+$1,$6,$7,$8,$9,0*
20,1,$1+$1,$8,$9,$2,$3,0*%
%AMFreePoly0*
4,1,17,0.600431,1.735355,0.985356,1.350431,1.000000,1.315076,1.000000,-1.315076,0.985356,-1.350431,0.600431,-1.735355,0.565076,-1.750000,-0.565076,-1.750000,-0.600431,-1.735356,-0.985355,-1.350431,-1.000000,-1.315076,-1.000000,1.315076,-0.985355,1.350431,-0.600431,1.735356,-0.565076,1.750000,0.565076,1.750000,0.600431,1.735355,0.600431,1.735355,$1*%
%AMFreePoly1*
4,1,17,0.541853,1.785355,0.885355,1.441853,0.900000,1.406498,0.900000,-1.406498,0.885355,-1.441853,0.541853,-1.785355,0.506498,-1.800000,-0.506498,-1.800000,-0.541853,-1.785355,-0.885355,-1.441853,-0.900000,-1.406498,-0.900000,1.406498,-0.885355,1.441853,-0.541853,1.785355,-0.506498,1.800000,0.506498,1.800000,0.541853,1.785355,0.541853,1.785355,$1*%
G04 Aperture macros list end*
%ADD10R,1.000000X1.000000*%
%ADD11R,1.700000X1.700000*%
%ADD12O,1.700000X1.700000*%
%ADD13RoundRect,0.150000X0.150000X-0.825000X0.150000X0.825000X-0.150000X0.825000X-0.150000X-0.825000X0*%
%ADD14R,2.200000X1.500000*%
%ADD15R,1.524000X1.524000*%
%ADD16R,5.000000X3.500000*%
%ADD17FreePoly0,90.000000*%
%ADD18C,1.778000*%
%ADD19RoundRect,0.225000X0.250000X-0.225000X0.250000X0.225000X-0.250000X0.225000X-0.250000X-0.225000X0*%
%ADD20RoundRect,0.225000X-0.250000X0.225000X-0.250000X-0.225000X0.250000X-0.225000X0.250000X0.225000X0*%
%ADD21R,0.900000X1.200000*%
%ADD22RoundRect,0.225000X-0.225000X-0.250000X0.225000X-0.250000X0.225000X0.250000X-0.225000X0.250000X0*%
%ADD23RoundRect,0.135000X-0.135000X-0.185000X0.135000X-0.185000X0.135000X0.185000X-0.135000X0.185000X0*%
%ADD24RoundRect,0.135000X0.135000X0.185000X-0.135000X0.185000X-0.135000X-0.185000X0.135000X-0.185000X0*%
%ADD25RoundRect,0.135000X0.185000X-0.135000X0.185000X0.135000X-0.185000X0.135000X-0.185000X-0.135000X0*%
%ADD26RoundRect,0.250000X-0.925000X0.787500X-0.925000X-0.787500X0.925000X-0.787500X0.925000X0.787500X0*%
%ADD27C,0.600000*%
%ADD28R,1.160000X0.600000*%
%ADD29R,1.160000X0.300000*%
%ADD30O,2.032000X1.016000*%
%ADD31FreePoly1,90.000000*%
%ADD32R,1.400000X1.600000*%
%ADD33RoundRect,0.135000X-0.185000X0.135000X-0.185000X-0.135000X0.185000X-0.135000X0.185000X0.135000X0*%
%ADD34RoundRect,0.147500X0.172500X-0.147500X0.172500X0.147500X-0.172500X0.147500X-0.172500X-0.147500X0*%
%ADD35RoundRect,0.250000X-0.925000X0.412500X-0.925000X-0.412500X0.925000X-0.412500X0.925000X0.412500X0*%
%ADD36R,2.500000X1.800000*%
G04 APERTURE END LIST*
D10*
%TO.C,TP3*%
X11658600Y-8392160D03*
%TD*%
D11*
%TO.C,J6*%
X10683240Y-7975600D03*
D12*
X10937240Y-7975600D03*
X11191240Y-7975600D03*
X11445240Y-7975600D03*
X11699240Y-7975600D03*
X11953240Y-7975600D03*
%TD*%
D13*
%TO.C,U4*%
X13225780Y-8670140D03*
X13352780Y-8670140D03*
X13479780Y-8670140D03*
X13606780Y-8670140D03*
X13606780Y-8175140D03*
X13479780Y-8175140D03*
X13352780Y-8175140D03*
X13225780Y-8175140D03*
%TD*%
D14*
%TO.C,L1*%
X9923780Y-9024580D03*
X9923780Y-8384580D03*
%TD*%
D15*
%TO.C,D5*%
X8482610Y-8133765D03*
X8482610Y-7933765D03*
D16*
X8892610Y-8033765D03*
%TD*%
D10*
%TO.C,TP7*%
X11191240Y-9255760D03*
%TD*%
%TO.C,TP5*%
X11496040Y-9255760D03*
%TD*%
D17*
%TO.C,SW2*%
X12370840Y-9237600D03*
X12370840Y-8237600D03*
D18*
X12570840Y-8987600D03*
X12570840Y-8737600D03*
X12570840Y-8487600D03*
%TD*%
D19*
%TO.C,C1*%
X9448800Y-8840500D03*
X9448800Y-8685500D03*
%TD*%
D20*
%TO.C,C3*%
X10916920Y-8827740D03*
X10916920Y-8982740D03*
%TD*%
D10*
%TO.C,TP8*%
X11343640Y-9255760D03*
%TD*%
D21*
%TO.C,D4*%
X13621920Y-9118600D03*
X13291920Y-9118600D03*
%TD*%
D10*
%TO.C,TP4*%
X11963400Y-8392160D03*
%TD*%
D20*
%TO.C,C11*%
X12827500Y-8855060D03*
X12827500Y-9010060D03*
%TD*%
D22*
%TO.C,C15*%
X13465780Y-8922400D03*
X13620780Y-8922400D03*
%TD*%
D23*
%TO.C,R19*%
X13238280Y-8945880D03*
X13340280Y-8945880D03*
%TD*%
D24*
%TO.C,R18*%
X13340280Y-8844280D03*
X13238280Y-8844280D03*
%TD*%
D23*
%TO.C,R17*%
X13239320Y-7901940D03*
X13341320Y-7901940D03*
%TD*%
D25*
%TO.C,R5*%
X8321040Y-8102800D03*
X8321040Y-8000800D03*
%TD*%
D26*
%TO.C,C4*%
X9347200Y-7985890D03*
X9347200Y-8478390D03*
%TD*%
D24*
%TO.C,R15*%
X13341320Y-8001000D03*
X13239320Y-8001000D03*
%TD*%
D22*
%TO.C,C14*%
X13465780Y-9313560D03*
X13620780Y-9313560D03*
%TD*%
D27*
%TO.C,J1*%
X8695780Y-9062160D03*
X8695780Y-8484160D03*
D28*
X8801780Y-8453160D03*
X8801780Y-8533160D03*
D29*
X8801780Y-8648160D03*
X8801780Y-8748160D03*
X8801780Y-8798160D03*
X8801780Y-8898160D03*
D28*
X8801780Y-9013160D03*
X8801780Y-9093160D03*
X8801780Y-9093160D03*
X8801780Y-9013160D03*
D29*
X8801780Y-8948160D03*
X8801780Y-8848160D03*
X8801780Y-8698160D03*
X8801780Y-8598160D03*
D28*
X8801780Y-8533160D03*
X8801780Y-8453160D03*
D30*
X8743780Y-9205160D03*
X8326780Y-8341160D03*
X8743780Y-8341160D03*
X8326780Y-9205160D03*
%TD*%
D31*
%TO.C,J4*%
X14635480Y-9427020D03*
X14635480Y-9077020D03*
X14635480Y-8727020D03*
X14635480Y-8377020D03*
X14635480Y-8027020D03*
%TD*%
D24*
%TO.C,R16*%
X13345360Y-9306560D03*
X13243360Y-9306560D03*
%TD*%
D32*
%TO.C,SW1*%
X13841520Y-9127440D03*
X13841520Y-8327440D03*
X14291520Y-9127440D03*
X14291520Y-8327440D03*
%TD*%
D33*
%TO.C,R11*%
X12801600Y-8635600D03*
X12801600Y-8737600D03*
%TD*%
D34*
%TO.C,D2*%
X8214360Y-8100300D03*
X8214360Y-8003300D03*
%TD*%
D35*
%TO.C,C2*%
X10482580Y-8375570D03*
X10482580Y-8683070D03*
%TD*%
D10*
%TO.C,TP2*%
X11811000Y-8392160D03*
%TD*%
D25*
%TO.C,R14*%
X12801600Y-8547300D03*
X12801600Y-8445300D03*
%TD*%
D22*
%TO.C,C13*%
X13459400Y-7950200D03*
X13614400Y-7950200D03*
%TD*%
D36*
%TO.C,D1*%
X9920580Y-9306560D03*
X9520580Y-9306560D03*
%TD*%
D11*
%TO.C,J5*%
X10683240Y-9489440D03*
D12*
X10937240Y-9489440D03*
X11191240Y-9489440D03*
X11445240Y-9489440D03*
X11699240Y-9489440D03*
X11953240Y-9489440D03*
%TD*%
D10*
%TO.C,TP1*%
X9923780Y-8183880D03*
%TD*%
%TO.C,TP6*%
X12369800Y-8018780D03*
%TD*%
M02*
