%TF.GenerationSoftware,KiCad,Pcbnew,(6.0.7)*%
%TF.CreationDate,2022-08-25T13:00:14+08:00*%
%TF.ProjectId,T12_SolderingStation,5431325f-536f-46c6-9465-72696e675374,rev?*%
%TF.SameCoordinates,Original*%
%TF.FileFunction,Legend,Top*%
%TF.FilePolarity,Positive*%
%FSLAX45Y45*%
G04 Gerber Fmt 4.5, Leading zero omitted, Abs format (unit mm)*
G04 Created by KiCad (PCBNEW (6.0.7)) date 2022-08-25 13:00:14*
%MOMM*%
%LPD*%
G01*
G04 APERTURE LIST*
%ADD10C,0.152399*%
%ADD11C,0.150000*%
%ADD12C,0.120000*%
%ADD13C,0.152400*%
%ADD14C,0.125000*%
%ADD15C,0.100000*%
G04 APERTURE END LIST*
D10*
X12591360Y-8737600D02*
G75*
G03*
X12591360Y-8737600I-22500J0D01*
G01*
X13111360Y-7852600D02*
X13721360Y-7852600D01*
D11*
X8153400Y-7843520D02*
X16149320Y-7843520D01*
D10*
X13111360Y-9622600D02*
X13111360Y-7852600D01*
X13721360Y-9622600D02*
X13721360Y-7852600D01*
D11*
X8156440Y-9622440D02*
X16152360Y-9622440D01*
D10*
X13111360Y-9622600D02*
X13721360Y-9622600D01*
D11*
X14582649Y-8501560D02*
X14573126Y-8496798D01*
X14558840Y-8496798D01*
X14544554Y-8501560D01*
X14535030Y-8511084D01*
X14530268Y-8520608D01*
X14525507Y-8539655D01*
X14525507Y-8553941D01*
X14530268Y-8572989D01*
X14535030Y-8582512D01*
X14544554Y-8592036D01*
X14558840Y-8596798D01*
X14568364Y-8596798D01*
X14582649Y-8592036D01*
X14587411Y-8587274D01*
X14587411Y-8553941D01*
X14568364Y-8553941D01*
X14630268Y-8596798D02*
X14630268Y-8496798D01*
X14687411Y-8596798D01*
X14687411Y-8496798D01*
X14735030Y-8596798D02*
X14735030Y-8496798D01*
X14758840Y-8496798D01*
X14773126Y-8501560D01*
X14782649Y-8511084D01*
X14787411Y-8520608D01*
X14792173Y-8539655D01*
X14792173Y-8553941D01*
X14787411Y-8572989D01*
X14782649Y-8582512D01*
X14773126Y-8592036D01*
X14758840Y-8596798D01*
X14735030Y-8596798D01*
X14519790Y-9648676D02*
X14534076Y-9653438D01*
X14557886Y-9653438D01*
X14567409Y-9648676D01*
X14572171Y-9643914D01*
X14576933Y-9634390D01*
X14576933Y-9624867D01*
X14572171Y-9615343D01*
X14567409Y-9610581D01*
X14557886Y-9605819D01*
X14538838Y-9601057D01*
X14529314Y-9596295D01*
X14524552Y-9591533D01*
X14519790Y-9582010D01*
X14519790Y-9572486D01*
X14524552Y-9562962D01*
X14529314Y-9558200D01*
X14538838Y-9553438D01*
X14562648Y-9553438D01*
X14576933Y-9558200D01*
X14619790Y-9601057D02*
X14653124Y-9601057D01*
X14667409Y-9653438D02*
X14619790Y-9653438D01*
X14619790Y-9553438D01*
X14667409Y-9553438D01*
X14767409Y-9653438D02*
X14734076Y-9605819D01*
X14710267Y-9653438D02*
X14710267Y-9553438D01*
X14748362Y-9553438D01*
X14757886Y-9558200D01*
X14762648Y-9562962D01*
X14767409Y-9572486D01*
X14767409Y-9586771D01*
X14762648Y-9596295D01*
X14757886Y-9601057D01*
X14748362Y-9605819D01*
X14710267Y-9605819D01*
X11144598Y-9161150D02*
X11144598Y-9104008D01*
X11244598Y-9132579D02*
X11144598Y-9132579D01*
X11144598Y-9080198D02*
X11244598Y-9013531D01*
X11144598Y-9013531D02*
X11244598Y-9080198D01*
X14529632Y-8160882D02*
X14534394Y-8156120D01*
X14543918Y-8151358D01*
X14567728Y-8151358D01*
X14577251Y-8156120D01*
X14582013Y-8160882D01*
X14586775Y-8170406D01*
X14586775Y-8179929D01*
X14582013Y-8194215D01*
X14524870Y-8251358D01*
X14586775Y-8251358D01*
X14672489Y-8184691D02*
X14672489Y-8251358D01*
X14648680Y-8146596D02*
X14624870Y-8218025D01*
X14686775Y-8218025D01*
X14710585Y-8151358D02*
X14743918Y-8251358D01*
X14777251Y-8151358D01*
X12525249Y-7973240D02*
X12515726Y-7968478D01*
X12501440Y-7968478D01*
X12487154Y-7973240D01*
X12477630Y-7982764D01*
X12472868Y-7992288D01*
X12468107Y-8011335D01*
X12468107Y-8025621D01*
X12472868Y-8044668D01*
X12477630Y-8054192D01*
X12487154Y-8063716D01*
X12501440Y-8068478D01*
X12510964Y-8068478D01*
X12525249Y-8063716D01*
X12530011Y-8058954D01*
X12530011Y-8025621D01*
X12510964Y-8025621D01*
X12572868Y-8068478D02*
X12572868Y-7968478D01*
X12630011Y-8068478D01*
X12630011Y-7968478D01*
X12677630Y-8068478D02*
X12677630Y-7968478D01*
X12701440Y-7968478D01*
X12715726Y-7973240D01*
X12725249Y-7982764D01*
X12730011Y-7992288D01*
X12734773Y-8011335D01*
X12734773Y-8025621D01*
X12730011Y-8044668D01*
X12725249Y-8054192D01*
X12715726Y-8063716D01*
X12701440Y-8068478D01*
X12677630Y-8068478D01*
X11554478Y-9089722D02*
X11506859Y-9123055D01*
X11554478Y-9146865D02*
X11454478Y-9146865D01*
X11454478Y-9108770D01*
X11459240Y-9099246D01*
X11464002Y-9094484D01*
X11473526Y-9089722D01*
X11487811Y-9089722D01*
X11497335Y-9094484D01*
X11502097Y-9099246D01*
X11506859Y-9108770D01*
X11506859Y-9146865D01*
X11549716Y-9051627D02*
X11554478Y-9037341D01*
X11554478Y-9013531D01*
X11549716Y-9004008D01*
X11544954Y-8999246D01*
X11535430Y-8994484D01*
X11525907Y-8994484D01*
X11516383Y-8999246D01*
X11511621Y-9004008D01*
X11506859Y-9013531D01*
X11502097Y-9032579D01*
X11497335Y-9042103D01*
X11492573Y-9046865D01*
X11483049Y-9051627D01*
X11473526Y-9051627D01*
X11464002Y-9046865D01*
X11459240Y-9042103D01*
X11454478Y-9032579D01*
X11454478Y-9008770D01*
X11459240Y-8994484D01*
X11454478Y-8965912D02*
X11454478Y-8908770D01*
X11554478Y-8937341D02*
X11454478Y-8937341D01*
X14550425Y-9302918D02*
X14550425Y-9202918D01*
X14588520Y-9202918D01*
X14598044Y-9207680D01*
X14602806Y-9212442D01*
X14607568Y-9221966D01*
X14607568Y-9236251D01*
X14602806Y-9245775D01*
X14598044Y-9250537D01*
X14588520Y-9255299D01*
X14550425Y-9255299D01*
X14650425Y-9264823D02*
X14726615Y-9264823D01*
X14688520Y-9302918D02*
X14688520Y-9226728D01*
X12002154Y-8244851D02*
X12006916Y-8249613D01*
X12011678Y-8263899D01*
X12011678Y-8273423D01*
X12006916Y-8287708D01*
X11997392Y-8297232D01*
X11987868Y-8301994D01*
X11968821Y-8306756D01*
X11954535Y-8306756D01*
X11935488Y-8301994D01*
X11925964Y-8297232D01*
X11916440Y-8287708D01*
X11911678Y-8273423D01*
X11911678Y-8263899D01*
X11916440Y-8249613D01*
X11921202Y-8244851D01*
X12011678Y-8201994D02*
X11911678Y-8201994D01*
X12011678Y-8144851D02*
X11954535Y-8187708D01*
X11911678Y-8144851D02*
X11968821Y-8201994D01*
X11859278Y-8301994D02*
X11759278Y-8301994D01*
X11830707Y-8268661D01*
X11759278Y-8235327D01*
X11859278Y-8235327D01*
X11859278Y-8187708D02*
X11759278Y-8187708D01*
X10077952Y-8131038D02*
X10030333Y-8131038D01*
X10025571Y-8178657D01*
X10030333Y-8173895D01*
X10039857Y-8169133D01*
X10063667Y-8169133D01*
X10073190Y-8173895D01*
X10077952Y-8178657D01*
X10082714Y-8188181D01*
X10082714Y-8211990D01*
X10077952Y-8221514D01*
X10073190Y-8226276D01*
X10063667Y-8231038D01*
X10039857Y-8231038D01*
X10030333Y-8226276D01*
X10025571Y-8221514D01*
X10111286Y-8131038D02*
X10144619Y-8231038D01*
X10177952Y-8131038D01*
X11701798Y-8301994D02*
X11601798Y-8301994D01*
X11673227Y-8268661D01*
X11601798Y-8235328D01*
X11701798Y-8235328D01*
X11601798Y-8168661D02*
X11601798Y-8149613D01*
X11606560Y-8140089D01*
X11616084Y-8130566D01*
X11635131Y-8125804D01*
X11668465Y-8125804D01*
X11687512Y-8130566D01*
X11697036Y-8140089D01*
X11701798Y-8149613D01*
X11701798Y-8168661D01*
X11697036Y-8178185D01*
X11687512Y-8187708D01*
X11668465Y-8192470D01*
X11635131Y-8192470D01*
X11616084Y-8187708D01*
X11606560Y-8178185D01*
X11601798Y-8168661D01*
X14542646Y-8947636D02*
X14556931Y-8952398D01*
X14580741Y-8952398D01*
X14590265Y-8947636D01*
X14595027Y-8942874D01*
X14599788Y-8933350D01*
X14599788Y-8923827D01*
X14595027Y-8914303D01*
X14590265Y-8909541D01*
X14580741Y-8904779D01*
X14561693Y-8900017D01*
X14552169Y-8895255D01*
X14547408Y-8890493D01*
X14542646Y-8880970D01*
X14542646Y-8871446D01*
X14547408Y-8861922D01*
X14552169Y-8857160D01*
X14561693Y-8852398D01*
X14585503Y-8852398D01*
X14599788Y-8857160D01*
X14633122Y-8852398D02*
X14656931Y-8952398D01*
X14675979Y-8880970D01*
X14695027Y-8952398D01*
X14718836Y-8852398D01*
X11391918Y-9089722D02*
X11344299Y-9123055D01*
X11391918Y-9146865D02*
X11291918Y-9146865D01*
X11291918Y-9108770D01*
X11296680Y-9099246D01*
X11301442Y-9094484D01*
X11310966Y-9089722D01*
X11325251Y-9089722D01*
X11334775Y-9094484D01*
X11339537Y-9099246D01*
X11344299Y-9108770D01*
X11344299Y-9146865D01*
X11291918Y-9056389D02*
X11391918Y-8989722D01*
X11291918Y-8989722D02*
X11391918Y-9056389D01*
D12*
%TO.C,TP3*%
X11588600Y-8462160D02*
X11588600Y-8322160D01*
X11728600Y-8322160D02*
X11728600Y-8462160D01*
X11588600Y-8322160D02*
X11728600Y-8322160D01*
X11728600Y-8462160D02*
X11588600Y-8462160D01*
%TO.C,J6*%
X10810240Y-8108600D02*
X10810240Y-7842600D01*
X10550240Y-8108600D02*
X10550240Y-7975600D01*
X12086240Y-8108600D02*
X12086240Y-7842600D01*
X10810240Y-7842600D02*
X12086240Y-7842600D01*
X10683240Y-8108600D02*
X10550240Y-8108600D01*
X10810240Y-8108600D02*
X12086240Y-8108600D01*
%TO.C,U4*%
X13160280Y-8422640D02*
X13160280Y-8227640D01*
X13672280Y-8422640D02*
X13672280Y-8617640D01*
X13160280Y-8422640D02*
X13160280Y-8767640D01*
X13672280Y-8422640D02*
X13672280Y-8227640D01*
%TO.C,L1*%
X9783780Y-9074580D02*
X9553780Y-9074580D01*
X9553780Y-9074580D02*
X9553780Y-8334580D01*
X10063780Y-8334580D02*
X10293780Y-8334580D01*
X10293780Y-8334580D02*
X10293780Y-9074580D01*
X9553780Y-8334580D02*
X9783780Y-8334580D01*
X10293780Y-9074580D02*
X10063780Y-9074580D01*
D13*
%TO.C,D5*%
X8492610Y-8223765D02*
X9152610Y-8223765D01*
X8492610Y-7843765D02*
X9152610Y-7843765D01*
D14*
X8440110Y-7823765D02*
G75*
G03*
X8440110Y-7823765I-7500J0D01*
G01*
D12*
%TO.C,TP7*%
X11121240Y-9325760D02*
X11121240Y-9185760D01*
X11261240Y-9185760D02*
X11261240Y-9325760D01*
X11121240Y-9185760D02*
X11261240Y-9185760D01*
X11261240Y-9325760D02*
X11121240Y-9325760D01*
%TO.C,TP5*%
X11426040Y-9325760D02*
X11426040Y-9185760D01*
X11566040Y-9185760D02*
X11566040Y-9325760D01*
X11426040Y-9185760D02*
X11566040Y-9185760D01*
X11566040Y-9325760D02*
X11426040Y-9325760D01*
D10*
%TO.C,SW2*%
X12130840Y-9237600D02*
X12740840Y-9237600D01*
X12740840Y-8237600D02*
X12130840Y-8237600D01*
X12130840Y-8237600D02*
X12130840Y-9237600D01*
X12740840Y-9237600D02*
X12740840Y-8237600D01*
D12*
%TO.C,C1*%
X9499800Y-8777058D02*
X9499800Y-8748942D01*
X9397800Y-8777058D02*
X9397800Y-8748942D01*
%TO.C,C3*%
X10865920Y-8891182D02*
X10865920Y-8919298D01*
X10967920Y-8891182D02*
X10967920Y-8919298D01*
%TO.C,TP8*%
X11273640Y-9185760D02*
X11413640Y-9185760D01*
X11413640Y-9325760D02*
X11273640Y-9325760D01*
X11273640Y-9325760D02*
X11273640Y-9185760D01*
X11413640Y-9185760D02*
X11413640Y-9325760D01*
%TO.C,D4*%
X13681920Y-9218600D02*
X13291920Y-9218600D01*
X13681920Y-9018600D02*
X13291920Y-9018600D01*
X13681920Y-9218600D02*
X13681920Y-9018600D01*
%TO.C,TP4*%
X11893400Y-8322160D02*
X12033400Y-8322160D01*
X12033400Y-8322160D02*
X12033400Y-8462160D01*
X11893400Y-8462160D02*
X11893400Y-8322160D01*
X12033400Y-8462160D02*
X11893400Y-8462160D01*
%TO.C,C11*%
X12878500Y-8918502D02*
X12878500Y-8946618D01*
X12776500Y-8918502D02*
X12776500Y-8946618D01*
%TO.C,C15*%
X13529222Y-8871400D02*
X13557338Y-8871400D01*
X13529222Y-8973400D02*
X13557338Y-8973400D01*
%TO.C,R19*%
X13273916Y-8907880D02*
X13304644Y-8907880D01*
X13273916Y-8983880D02*
X13304644Y-8983880D01*
%TO.C,R18*%
X13304644Y-8882280D02*
X13273916Y-8882280D01*
X13304644Y-8806280D02*
X13273916Y-8806280D01*
%TO.C,R17*%
X13274956Y-7863940D02*
X13305684Y-7863940D01*
X13274956Y-7939940D02*
X13305684Y-7939940D01*
%TO.C,R5*%
X8359040Y-8067164D02*
X8359040Y-8036436D01*
X8283040Y-8067164D02*
X8283040Y-8036436D01*
%TO.C,C4*%
X9518200Y-8532140D02*
X9518200Y-7856140D01*
X9176200Y-7856140D02*
X9176200Y-8532140D01*
X9518200Y-7856140D02*
X9176200Y-7856140D01*
%TO.C,R15*%
X13305684Y-8039000D02*
X13274956Y-8039000D01*
X13305684Y-7963000D02*
X13274956Y-7963000D01*
%TO.C,C14*%
X13529222Y-9262560D02*
X13557338Y-9262560D01*
X13529222Y-9364560D02*
X13557338Y-9364560D01*
%TO.C,J1*%
X8617780Y-8326160D02*
X8437780Y-8326160D01*
X8066780Y-9220160D02*
X8212780Y-9220160D01*
X8066780Y-9220160D02*
X8066780Y-8326160D01*
X8617780Y-9220160D02*
X8437780Y-9220160D01*
X8066780Y-8326160D02*
X8212780Y-8326160D01*
%TO.C,J4*%
X14504480Y-7771020D02*
X14504480Y-7922020D01*
X14504480Y-9683020D02*
X14504480Y-9532020D01*
X15446480Y-9683020D02*
X15446480Y-7771020D01*
X14375480Y-9397020D02*
X14435480Y-9427020D01*
X14504480Y-8972020D02*
X14504480Y-8832020D01*
X14375480Y-9457020D02*
X14375480Y-9397020D01*
X14504480Y-9322020D02*
X14504480Y-9182020D01*
X14504480Y-9683020D02*
X15446480Y-9683020D01*
X14504480Y-8622020D02*
X14504480Y-8482020D01*
X14504480Y-8272020D02*
X14504480Y-8132020D01*
X15446480Y-7771020D02*
X14504480Y-7771020D01*
X14435480Y-9427020D02*
X14375480Y-9457020D01*
X15115480Y-9683020D02*
X15115480Y-7771020D01*
%TO.C,R16*%
X13309724Y-9344560D02*
X13278996Y-9344560D01*
X13309724Y-9268560D02*
X13278996Y-9268560D01*
%TO.C,SW1*%
X13836520Y-9237440D02*
X13736520Y-9237440D01*
X13936520Y-9037440D02*
X14196520Y-9037440D01*
X13736520Y-9237440D02*
X13736520Y-9137440D01*
X13741520Y-8437440D02*
X13741520Y-9017440D01*
X13936520Y-8417440D02*
X14196520Y-8417440D01*
X14391520Y-8427440D02*
X14391520Y-9027440D01*
%TO.C,R11*%
X12763600Y-8671236D02*
X12763600Y-8701964D01*
X12839600Y-8671236D02*
X12839600Y-8701964D01*
D15*
%TO.C,D2*%
X8219360Y-8160800D02*
G75*
G03*
X8219360Y-8160800I-5000J0D01*
G01*
D12*
%TO.C,C2*%
X10633580Y-8704320D02*
X10633580Y-8283320D01*
X10633580Y-8283320D02*
X10331580Y-8283320D01*
X10331580Y-8283320D02*
X10331580Y-8704320D01*
%TO.C,TP2*%
X11741000Y-8322160D02*
X11881000Y-8322160D01*
X11881000Y-8462160D02*
X11741000Y-8462160D01*
X11741000Y-8462160D02*
X11741000Y-8322160D01*
X11881000Y-8322160D02*
X11881000Y-8462160D01*
%TO.C,R14*%
X12763600Y-8511664D02*
X12763600Y-8480936D01*
X12839600Y-8511664D02*
X12839600Y-8480936D01*
%TO.C,C13*%
X13522842Y-7899200D02*
X13550958Y-7899200D01*
X13522842Y-8001200D02*
X13550958Y-8001200D01*
%TO.C,D1*%
X10060580Y-9141560D02*
X9520580Y-9141560D01*
X10060580Y-9471560D02*
X9520580Y-9471560D01*
X10060580Y-9471560D02*
X10060580Y-9141560D01*
%TO.C,J5*%
X10683240Y-9622440D02*
X10550240Y-9622440D01*
X10550240Y-9622440D02*
X10550240Y-9489440D01*
X10810240Y-9622440D02*
X10810240Y-9356440D01*
X10810240Y-9356440D02*
X12086240Y-9356440D01*
X10810240Y-9622440D02*
X12086240Y-9622440D01*
X12086240Y-9622440D02*
X12086240Y-9356440D01*
%TO.C,TP1*%
X9853780Y-8113880D02*
X9993780Y-8113880D01*
X9853780Y-8253880D02*
X9853780Y-8113880D01*
X9993780Y-8113880D02*
X9993780Y-8253880D01*
X9993780Y-8253880D02*
X9853780Y-8253880D01*
%TO.C,TP6*%
X12439800Y-7948780D02*
X12439800Y-8088780D01*
X12299800Y-8088780D02*
X12299800Y-7948780D01*
X12439800Y-8088780D02*
X12299800Y-8088780D01*
X12299800Y-7948780D02*
X12439800Y-7948780D01*
%TD*%
M02*
