%TF.GenerationSoftware,KiCad,Pcbnew,(6.0.7)*%
%TF.CreationDate,2022-08-25T13:01:18+08:00*%
%TF.ProjectId,T12_SolderingStationScreen,5431325f-536f-46c6-9465-72696e675374,rev?*%
%TF.SameCoordinates,Original*%
%TF.FileFunction,Legend,Top*%
%TF.FilePolarity,Positive*%
%FSLAX45Y45*%
G04 Gerber Fmt 4.5, Leading zero omitted, Abs format (unit mm)*
G04 Created by KiCad (PCBNEW (6.0.7)) date 2022-08-25 13:01:18*
%MOMM*%
%LPD*%
G01*
G04 APERTURE LIST*
%ADD10C,0.152399*%
G04 APERTURE END LIST*
D10*
X12649880Y-13377840D02*
X12649880Y-13017840D01*
X11072880Y-11747500D02*
X11072880Y-11557000D01*
X11072880Y-11557000D02*
X12596880Y-11557000D01*
X11019880Y-13017840D02*
X11019880Y-13377840D01*
X11072880Y-13261340D02*
X11072880Y-13070840D01*
X11072880Y-13070840D02*
X12596880Y-13070840D01*
X12596880Y-11557000D02*
X12596880Y-11811000D01*
X11019880Y-13377840D02*
X12649880Y-13377840D01*
X12596880Y-11811000D02*
X11136380Y-11811000D01*
X8668000Y-13346000D02*
X12668000Y-13346000D01*
X12649880Y-13017840D02*
X11019880Y-13017840D01*
X12668000Y-11546000D02*
X8668000Y-11546000D01*
X11136380Y-13324840D02*
X11072880Y-13261340D01*
X11136380Y-11811000D02*
X11072880Y-11747500D01*
X12596880Y-13070840D02*
X12596880Y-13324840D01*
X12649880Y-11864000D02*
X12649880Y-11504000D01*
X12596880Y-13324840D02*
X11136380Y-13324840D01*
X11019880Y-11864000D02*
X12649880Y-11864000D01*
X12649880Y-11504000D02*
X11019880Y-11504000D01*
X11019880Y-11504000D02*
X11019880Y-11864000D01*
%TO.C,U3*%
X9889800Y-11862310D02*
X12649800Y-11862310D01*
X9889800Y-11862310D02*
X9549800Y-11862310D01*
X9549800Y-13012310D02*
X9889800Y-13012310D01*
X9889800Y-11862310D02*
X9889800Y-13012310D01*
X9549800Y-11862310D02*
X9549800Y-13012310D01*
X9889800Y-13012310D02*
X12649800Y-13012310D01*
X12649800Y-11862310D02*
X12649800Y-13012310D01*
%TD*%
M02*
