%TF.GenerationSoftware,KiCad,Pcbnew,(6.0.7)*%
%TF.CreationDate,2022-08-25T13:01:18+08:00*%
%TF.ProjectId,T12_SolderingStationScreen,5431325f-536f-46c6-9465-72696e675374,rev?*%
%TF.SameCoordinates,Original*%
%TF.FileFunction,Soldermask,Bot*%
%TF.FilePolarity,Negative*%
%FSLAX45Y45*%
G04 Gerber Fmt 4.5, Leading zero omitted, Abs format (unit mm)*
G04 Created by KiCad (PCBNEW (6.0.7)) date 2022-08-25 13:01:18*
%MOMM*%
%LPD*%
G01*
G04 APERTURE LIST*
G04 Aperture macros list*
%AMRoundRect*
0 Rectangle with rounded corners*
0 $1 Rounding radius*
0 $2 $3 $4 $5 $6 $7 $8 $9 X,Y pos of 4 corners*
0 Add a 4 corners polygon primitive as box body*
4,1,4,$2,$3,$4,$5,$6,$7,$8,$9,$2,$3,0*
0 Add four circle primitives for the rounded corners*
1,1,$1+$1,$2,$3*
1,1,$1+$1,$4,$5*
1,1,$1+$1,$6,$7*
1,1,$1+$1,$8,$9*
0 Add four rect primitives between the rounded corners*
20,1,$1+$1,$2,$3,$4,$5,0*
20,1,$1+$1,$4,$5,$6,$7,0*
20,1,$1+$1,$6,$7,$8,$9,0*
20,1,$1+$1,$8,$9,$2,$3,0*%
G04 Aperture macros list end*
%ADD10RoundRect,0.225000X0.250000X-0.225000X0.250000X0.225000X-0.250000X0.225000X-0.250000X-0.225000X0*%
%ADD11RoundRect,0.225000X-0.250000X0.225000X-0.250000X-0.225000X0.250000X-0.225000X0.250000X0.225000X0*%
%ADD12RoundRect,0.225000X0.225000X0.250000X-0.225000X0.250000X-0.225000X-0.250000X0.225000X-0.250000X0*%
%ADD13R,1.700000X1.700000*%
%ADD14O,1.700000X1.700000*%
%ADD15RoundRect,0.135000X-0.135000X-0.185000X0.135000X-0.185000X0.135000X0.185000X-0.135000X0.185000X0*%
%ADD16R,1.220000X0.650000*%
%ADD17RoundRect,0.135000X0.185000X-0.135000X0.185000X0.135000X-0.185000X0.135000X-0.185000X-0.135000X0*%
%ADD18R,0.800000X0.300000*%
%ADD19R,0.900000X1.200000*%
%ADD20RoundRect,0.135000X0.135000X0.185000X-0.135000X0.185000X-0.135000X-0.185000X0.135000X-0.185000X0*%
%ADD21RoundRect,0.150000X0.512500X0.150000X-0.512500X0.150000X-0.512500X-0.150000X0.512500X-0.150000X0*%
%ADD22R,1.000000X1.500000*%
%ADD23RoundRect,0.135000X-0.185000X0.135000X-0.185000X-0.135000X0.185000X-0.135000X0.185000X0.135000X0*%
%ADD24RoundRect,0.250000X0.650000X-0.325000X0.650000X0.325000X-0.650000X0.325000X-0.650000X-0.325000X0*%
%ADD25R,2.000000X2.000000*%
%ADD26C,2.000000*%
%ADD27RoundRect,0.250000X0.412500X0.925000X-0.412500X0.925000X-0.412500X-0.925000X0.412500X-0.925000X0*%
%ADD28RoundRect,0.250000X-0.787500X-0.925000X0.787500X-0.925000X0.787500X0.925000X-0.787500X0.925000X0*%
%ADD29R,0.500000X0.320000*%
G04 APERTURE END LIST*
D10*
%TO.C,C8*%
X9963220Y-12386340D03*
X9963220Y-12231340D03*
%TD*%
D11*
%TO.C,C2*%
X10934700Y-13103860D03*
X10934700Y-13258860D03*
%TD*%
D12*
%TO.C,C10*%
X10744860Y-12009120D03*
X10589860Y-12009120D03*
%TD*%
D13*
%TO.C,J2*%
X11201360Y-11686460D03*
D14*
X11455360Y-11686460D03*
X11709360Y-11686460D03*
X11963360Y-11686460D03*
X12217360Y-11686460D03*
X12471360Y-11686460D03*
%TD*%
D15*
%TO.C,R3*%
X12499140Y-12956540D03*
X12601140Y-12956540D03*
%TD*%
D12*
%TO.C,C12*%
X9965720Y-12776200D03*
X9810720Y-12776200D03*
%TD*%
D16*
%TO.C,Q1*%
X11126280Y-12132060D03*
X11126280Y-11942060D03*
X11388280Y-12037060D03*
%TD*%
D17*
%TO.C,R2*%
X11325860Y-12778940D03*
X11325860Y-12676940D03*
%TD*%
D18*
%TO.C,U2*%
X11178600Y-12378620D03*
X11178600Y-12428620D03*
X11178600Y-12478620D03*
X11178600Y-12528620D03*
X10868600Y-12528620D03*
X10868600Y-12478620D03*
X10868600Y-12428620D03*
X10868600Y-12378620D03*
%TD*%
D12*
%TO.C,C5*%
X9965720Y-11932920D03*
X9810720Y-11932920D03*
%TD*%
D19*
%TO.C,D1*%
X10919360Y-12202160D03*
X10589360Y-12202160D03*
%TD*%
D12*
%TO.C,C11*%
X9965720Y-12628880D03*
X9810720Y-12628880D03*
%TD*%
D20*
%TO.C,R4*%
X9994220Y-12506960D03*
X9892220Y-12506960D03*
%TD*%
D21*
%TO.C,U1*%
X10669990Y-13086360D03*
X10669990Y-13181360D03*
X10669990Y-13276360D03*
X10442490Y-13276360D03*
X10442490Y-13086360D03*
%TD*%
D22*
%TO.C,JP1*%
X10176280Y-12875260D03*
X10306280Y-12875260D03*
%TD*%
D23*
%TO.C,R1*%
X10812780Y-13135240D03*
X10812780Y-13237240D03*
%TD*%
D24*
%TO.C,C7*%
X9624060Y-12456340D03*
X9624060Y-12161340D03*
%TD*%
D10*
%TO.C,C9*%
X9817100Y-12386340D03*
X9817100Y-12231340D03*
%TD*%
D25*
%TO.C,BZ1*%
X12062460Y-12805680D03*
D26*
X12062460Y-12045680D03*
%TD*%
D12*
%TO.C,C13*%
X9965720Y-12923520D03*
X9810720Y-12923520D03*
%TD*%
D27*
%TO.C,C3*%
X10110550Y-13177520D03*
X9803050Y-13177520D03*
%TD*%
D13*
%TO.C,J1*%
X11198820Y-13197800D03*
D14*
X11452820Y-13197800D03*
X11706820Y-13197800D03*
X11960820Y-13197800D03*
X12214820Y-13197800D03*
X12468820Y-13197800D03*
%TD*%
D28*
%TO.C,C1*%
X10652610Y-12819380D03*
X11145110Y-12819380D03*
%TD*%
D29*
%TO.C,RN1*%
X10569360Y-12528620D03*
X10569360Y-12478620D03*
X10569360Y-12428620D03*
X10569360Y-12378620D03*
X10669360Y-12378620D03*
X10669360Y-12428620D03*
X10669360Y-12478620D03*
X10669360Y-12528620D03*
%TD*%
D12*
%TO.C,C6*%
X9965720Y-12082780D03*
X9810720Y-12082780D03*
%TD*%
D11*
%TO.C,C4*%
X10276840Y-13103860D03*
X10276840Y-13258860D03*
%TD*%
M02*
