M48
; DRILL file {KiCad (6.0.7)} date Thu Aug 25 13:01:24 2022
; FORMAT={-:-/ absolute / metric / decimal}
; #@! TF.CreationDate,2022-08-25T13:01:24+08:00
; #@! TF.GenerationSoftware,Kicad,Pcbnew,(6.0.7)
; #@! TF.FileFunction,Plated,1,2,PTH
FMAT,2
METRIC
; #@! TA.AperFunction,Plated,PTH,ViaDrill
T1C0.305
; #@! TA.AperFunction,Plated,PTH,ComponentDrill
T2C1.000
%
G90
G05
T1
X87.859Y-114.3
X87.884Y-116.036
X87.884Y-118.123
X87.884Y-120.21
X87.884Y-122.297
X87.884Y-124.384
X87.884Y-126.471
X87.884Y-128.558
X87.884Y-130.645
X87.884Y-132.732
X88.146Y-134.747
X89.946Y-114.3
X90.234Y-134.747
X90.983Y-129.489
X91.034Y-122.504
X91.288Y-124.943
X92.033Y-114.3
X92.321Y-134.747
X93.599Y-128.422
X93.802Y-132.029
X93.929Y-116.967
X94.031Y-119.253
X94.107Y-129.972
X94.12Y-114.3
X94.408Y-134.747
X94.412Y-121.895
X94.539Y-125.984
X94.691Y-120.117
X96.19Y-132.791
X96.207Y-114.3
X96.241Y-120.167
X96.266Y-124.562
X96.368Y-130.023
X96.444Y-131.877
X96.469Y-122.961
X96.495Y-134.747
X96.952Y-117.678
X98.107Y-119.329
X98.107Y-120.828
X98.294Y-114.3
X98.582Y-134.747
X99.517Y-130.632
X99.568Y-117.678
X99.568Y-132.512
X99.632Y-123.863
X99.657Y-119.329
X99.657Y-120.828
X99.657Y-126.289
X99.657Y-127.762
X99.942Y-125.07
X100.381Y-114.3
X100.635Y-122.326
X100.669Y-134.747
X101.778Y-117.678
X102.286Y-133.756
X102.468Y-114.3
X102.756Y-134.747
X103.251Y-133.782
X103.937Y-117.678
X104.555Y-114.3
X104.597Y-131.826
X104.843Y-134.747
X104.927Y-125.197
X105.054Y-123.774
X105.054Y-124.333
X105.512Y-131.394
X105.512Y-132.029
X105.537Y-133.579
X106.426Y-117.678
X106.526Y-128.194
X106.642Y-114.3
X106.909Y-133.782
X106.93Y-134.747
X107.67Y-124.268
X107.671Y-124.827
X108.001Y-125.324
X108.382Y-129.769
X108.458Y-118.872
X108.729Y-114.3
X108.864Y-133.756
X108.966Y-128.219
X109.017Y-134.747
X109.271Y-120.091
X109.525Y-125.298
X109.753Y-127.356
X109.83Y-128.88
X110.007Y-123.571
X110.007Y-124.435
X110.465Y-133.172
X110.515Y-131.978
X110.816Y-114.3
X110.871Y-129.921
X111.104Y-134.747
X111.277Y-121.895
X111.451Y-128.194
X112.243Y-120.269
X112.725Y-121.463
X112.903Y-114.3
X113.157Y-122.403
X113.191Y-134.747
X113.614Y-129.083
X113.767Y-118.516
X113.894Y-123.469
X113.929Y-128.057
X114.656Y-121.514
X114.99Y-114.3
X115.278Y-134.747
X115.291Y-118.567
X115.291Y-124.511
X115.646Y-130.454
X115.748Y-129.489
X116.357Y-121.234
X116.789Y-118.466
X116.789Y-125.933
X117.077Y-114.3
X117.365Y-134.747
X117.602Y-121.183
X117.704Y-118.364
X117.831Y-127.152
X118.135Y-130.454
X118.923Y-121.437
X119.164Y-114.3
X119.452Y-134.747
X119.685Y-122.098
X119.964Y-129.616
X120.752Y-130.429
X121.251Y-114.3
X121.463Y-121.92
X121.539Y-134.747
X121.742Y-119.355
X121.793Y-130.277
X122.199Y-120.828
X122.809Y-119.329
X123.338Y-114.3
X123.546Y-130.378
X123.626Y-134.747
X123.927Y-121.31
X124.079Y-125.806
X124.104Y-127.813
X124.155Y-118.415
X124.155Y-123.647
X125.171Y-119.38
X125.425Y-114.3
X125.713Y-134.747
X125.755Y-126.848
X125.781Y-122.58
X125.832Y-125.044
T2
X111.988Y-131.978
X112.014Y-116.865
X114.528Y-131.978
X114.554Y-116.865
X117.068Y-131.978
X117.094Y-116.865
X119.608Y-131.978
X119.634Y-116.865
X120.625Y-120.457
X120.625Y-128.057
X122.148Y-131.978
X122.174Y-116.865
X124.688Y-131.978
X124.714Y-116.865
T0
M30
