%TF.GenerationSoftware,KiCad,Pcbnew,(6.0.7)*%
%TF.CreationDate,2022-08-30T17:46:17+08:00*%
%TF.ProjectId,Covers,436f7665-7273-42e6-9b69-6361645f7063,rev?*%
%TF.SameCoordinates,Original*%
%TF.FileFunction,Copper,L1,Top*%
%TF.FilePolarity,Positive*%
%FSLAX45Y45*%
G04 Gerber Fmt 4.5, Leading zero omitted, Abs format (unit mm)*
G04 Created by KiCad (PCBNEW (6.0.7)) date 2022-08-30 17:46:17*
%MOMM*%
%LPD*%
G01*
G04 APERTURE LIST*
%TA.AperFunction,Profile*%
%ADD10C,0.152399*%
%TD*%
%TA.AperFunction,Profile*%
%ADD11C,0.152400*%
%TD*%
%ADD12C,0.152400*%
%TA.AperFunction,NonConductor*%
%ADD13C,0.152400*%
%TD*%
%ADD14C,0.158750*%
%TA.AperFunction,NonConductor*%
%ADD15C,0.158750*%
%TD*%
G04 APERTURE END LIST*
D10*
X11040310Y-11028620D02*
X12940310Y-11028620D01*
X15690310Y-8828620D02*
G75*
G03*
X15690310Y-8828620I-150000J0D01*
G01*
D11*
X14277882Y-9993080D02*
G75*
G03*
X14147110Y-10123853I-902J-129870D01*
G01*
D10*
X13090310Y-8828620D02*
G75*
G03*
X13090310Y-8828620I-150000J0D01*
G01*
X10740310Y-10728620D02*
G75*
G03*
X11040310Y-11028620I300000J0D01*
G01*
D11*
X14902270Y-10318627D02*
G75*
G03*
X15032854Y-10187213I-71J130657D01*
G01*
D10*
X11750518Y-9228620D02*
X12230102Y-9228620D01*
X11190310Y-8828620D02*
G75*
G03*
X11190310Y-8828620I-150000J0D01*
G01*
X13240310Y-10678620D02*
X13340310Y-10678620D01*
X15690310Y-10728620D02*
G75*
G03*
X15690310Y-10728620I-150000J0D01*
G01*
X11750518Y-10328620D02*
X12230102Y-10328620D01*
X10740310Y-8828620D02*
X10740310Y-10728620D01*
X13240310Y-8828620D02*
G75*
G03*
X12940310Y-8528620I-300000J0D01*
G01*
D11*
X14147110Y-10123853D02*
X14147110Y-10187848D01*
D10*
X13090310Y-10728620D02*
G75*
G03*
X13090310Y-10728620I-150000J0D01*
G01*
X15540310Y-8528620D02*
X13640310Y-8528620D01*
X11750518Y-9228620D02*
G75*
G03*
X11750518Y-10328620I239792J-550000D01*
G01*
X13340310Y-10728620D02*
G75*
G03*
X13640310Y-11028620I300000J0D01*
G01*
X12230102Y-10328620D02*
G75*
G03*
X12230102Y-9228620I-239792J550000D01*
G01*
X13240310Y-8878620D02*
X13240310Y-8828620D01*
D11*
X15032854Y-10187213D02*
X15032765Y-10124942D01*
D10*
X13240310Y-10728620D02*
X13240310Y-10678620D01*
X12940310Y-8528620D02*
X11040310Y-8528620D01*
X13340310Y-10678620D02*
X13340310Y-10728620D01*
X11040310Y-8528620D02*
G75*
G03*
X10740310Y-8828620I0J-300000D01*
G01*
X13640310Y-8528620D02*
G75*
G03*
X13340310Y-8828620I0J-300000D01*
G01*
X15840310Y-10728620D02*
X15840310Y-8828620D01*
X12940310Y-11028620D02*
G75*
G03*
X13240310Y-10728620I0J300000D01*
G01*
X15540310Y-11028620D02*
G75*
G03*
X15840310Y-10728620I0J300000D01*
G01*
D11*
X14902738Y-9993081D02*
X14277882Y-9993081D01*
D10*
X13790310Y-8828620D02*
G75*
G03*
X13790310Y-8828620I-150000J0D01*
G01*
X13790310Y-10728620D02*
G75*
G03*
X13790310Y-10728620I-150000J0D01*
G01*
X15840310Y-8828620D02*
G75*
G03*
X15540310Y-8528620I-300000J0D01*
G01*
X13240310Y-8878620D02*
X13340310Y-8878620D01*
D11*
X14277882Y-10318620D02*
X14902270Y-10318620D01*
X15032763Y-10124942D02*
G75*
G03*
X14902738Y-9993081I-130483J1372D01*
G01*
X14147110Y-10187848D02*
G75*
G03*
X14277882Y-10318620I129870J-902D01*
G01*
D10*
X13640310Y-11028620D02*
X15540310Y-11028620D01*
X13340310Y-8828620D02*
X13340310Y-8878620D01*
X11190310Y-10728620D02*
G75*
G03*
X11190310Y-10728620I-150000J0D01*
G01*
D12*
D13*
X14128476Y-10607217D02*
X14128476Y-10518317D01*
X14152667Y-10518317D01*
X14158714Y-10522550D01*
X14161738Y-10526783D01*
X14164762Y-10535250D01*
X14164762Y-10547950D01*
X14161738Y-10556417D01*
X14158714Y-10560650D01*
X14152667Y-10564883D01*
X14128476Y-10564883D01*
X14201048Y-10607217D02*
X14195000Y-10602983D01*
X14191976Y-10598750D01*
X14188952Y-10590283D01*
X14188952Y-10564883D01*
X14191976Y-10556417D01*
X14195000Y-10552183D01*
X14201048Y-10547950D01*
X14210119Y-10547950D01*
X14216167Y-10552183D01*
X14219190Y-10556417D01*
X14222214Y-10564883D01*
X14222214Y-10590283D01*
X14219190Y-10598750D01*
X14216167Y-10602983D01*
X14210119Y-10607217D01*
X14201048Y-10607217D01*
X14243381Y-10547950D02*
X14255476Y-10607217D01*
X14267571Y-10564883D01*
X14279667Y-10607217D01*
X14291762Y-10547950D01*
X14340143Y-10602983D02*
X14334095Y-10607217D01*
X14322000Y-10607217D01*
X14315952Y-10602983D01*
X14312928Y-10594517D01*
X14312928Y-10560650D01*
X14315952Y-10552183D01*
X14322000Y-10547950D01*
X14334095Y-10547950D01*
X14340143Y-10552183D01*
X14343167Y-10560650D01*
X14343167Y-10569117D01*
X14312928Y-10577583D01*
X14370381Y-10607217D02*
X14370381Y-10547950D01*
X14370381Y-10564883D02*
X14373405Y-10556417D01*
X14376428Y-10552183D01*
X14382476Y-10547950D01*
X14388524Y-10547950D01*
X14409690Y-10607217D02*
X14409690Y-10518317D01*
X14439928Y-10607217D02*
X14439928Y-10518317D01*
X14476214Y-10607217D01*
X14476214Y-10518317D01*
X14554833Y-10607217D02*
X14554833Y-10518317D01*
X14579024Y-10518317D01*
X14585071Y-10522550D01*
X14588095Y-10526783D01*
X14591119Y-10535250D01*
X14591119Y-10547950D01*
X14588095Y-10556417D01*
X14585071Y-10560650D01*
X14579024Y-10564883D01*
X14554833Y-10564883D01*
X14618333Y-10607217D02*
X14618333Y-10518317D01*
X14633452Y-10518317D01*
X14642524Y-10522550D01*
X14648571Y-10531017D01*
X14651595Y-10539483D01*
X14654619Y-10556417D01*
X14654619Y-10569117D01*
X14651595Y-10586050D01*
X14648571Y-10594517D01*
X14642524Y-10602983D01*
X14633452Y-10607217D01*
X14618333Y-10607217D01*
X14678809Y-10526783D02*
X14681833Y-10522550D01*
X14687881Y-10518317D01*
X14703000Y-10518317D01*
X14709048Y-10522550D01*
X14712071Y-10526783D01*
X14715095Y-10535250D01*
X14715095Y-10543717D01*
X14712071Y-10556417D01*
X14675786Y-10607217D01*
X14715095Y-10607217D01*
X14754405Y-10518317D02*
X14760452Y-10518317D01*
X14766500Y-10522550D01*
X14769524Y-10526783D01*
X14772548Y-10535250D01*
X14775571Y-10552183D01*
X14775571Y-10573350D01*
X14772548Y-10590283D01*
X14769524Y-10598750D01*
X14766500Y-10602983D01*
X14760452Y-10607217D01*
X14754405Y-10607217D01*
X14748357Y-10602983D01*
X14745333Y-10598750D01*
X14742309Y-10590283D01*
X14739286Y-10573350D01*
X14739286Y-10552183D01*
X14742309Y-10535250D01*
X14745333Y-10526783D01*
X14748357Y-10522550D01*
X14754405Y-10518317D01*
X14793714Y-10518317D02*
X14814881Y-10607217D01*
X14836048Y-10518317D01*
X14896524Y-10564883D02*
X14893500Y-10560650D01*
X14887452Y-10556417D01*
X14881405Y-10556417D01*
X14875357Y-10560650D01*
X14872333Y-10564883D01*
X14869309Y-10573350D01*
X14869309Y-10581817D01*
X14872333Y-10590283D01*
X14875357Y-10594517D01*
X14881405Y-10598750D01*
X14887452Y-10598750D01*
X14893500Y-10594517D01*
X14896524Y-10590283D01*
X14896524Y-10556417D02*
X14896524Y-10590283D01*
X14899548Y-10594517D01*
X14902571Y-10594517D01*
X14908619Y-10590283D01*
X14911643Y-10581817D01*
X14911643Y-10560650D01*
X14905595Y-10547950D01*
X14896524Y-10539483D01*
X14884428Y-10535250D01*
X14872333Y-10539483D01*
X14863262Y-10547950D01*
X14857214Y-10560650D01*
X14854190Y-10577583D01*
X14857214Y-10594517D01*
X14863262Y-10607217D01*
X14872333Y-10615683D01*
X14884428Y-10619917D01*
X14896524Y-10615683D01*
X14905595Y-10607217D01*
X14969095Y-10518317D02*
X14938857Y-10518317D01*
X14935833Y-10560650D01*
X14938857Y-10556417D01*
X14944905Y-10552183D01*
X14960024Y-10552183D01*
X14966071Y-10556417D01*
X14969095Y-10560650D01*
X14972119Y-10569117D01*
X14972119Y-10590283D01*
X14969095Y-10598750D01*
X14966071Y-10602983D01*
X14960024Y-10607217D01*
X14944905Y-10607217D01*
X14938857Y-10602983D01*
X14935833Y-10598750D01*
X14996309Y-10581817D02*
X15026548Y-10581817D01*
X14990262Y-10607217D02*
X15011428Y-10518317D01*
X15032595Y-10607217D01*
D14*
D15*
X14314345Y-9211362D02*
X14350631Y-9211362D01*
X14332488Y-9312962D02*
X14332488Y-9211362D01*
X14399012Y-9245229D02*
X14399012Y-9312962D01*
X14371798Y-9245229D02*
X14371798Y-9298448D01*
X14374821Y-9308124D01*
X14380869Y-9312962D01*
X14389940Y-9312962D01*
X14395988Y-9308124D01*
X14399012Y-9303286D01*
X14429250Y-9312962D02*
X14429250Y-9245229D01*
X14429250Y-9264581D02*
X14432274Y-9254905D01*
X14435298Y-9250067D01*
X14441345Y-9245229D01*
X14447393Y-9245229D01*
X14468559Y-9312962D02*
X14468559Y-9211362D01*
X14468559Y-9250067D02*
X14474607Y-9245229D01*
X14486702Y-9245229D01*
X14492750Y-9250067D01*
X14495774Y-9254905D01*
X14498798Y-9264581D01*
X14498798Y-9293610D01*
X14495774Y-9303286D01*
X14492750Y-9308124D01*
X14486702Y-9312962D01*
X14474607Y-9312962D01*
X14468559Y-9308124D01*
X14535083Y-9312962D02*
X14529036Y-9308124D01*
X14526012Y-9303286D01*
X14522988Y-9293610D01*
X14522988Y-9264581D01*
X14526012Y-9254905D01*
X14529036Y-9250067D01*
X14535083Y-9245229D01*
X14544155Y-9245229D01*
X14550202Y-9250067D01*
X14553226Y-9254905D01*
X14556250Y-9264581D01*
X14556250Y-9293610D01*
X14553226Y-9303286D01*
X14550202Y-9308124D01*
X14544155Y-9312962D01*
X14535083Y-9312962D01*
X14580440Y-9308124D02*
X14589512Y-9312962D01*
X14604631Y-9312962D01*
X14610678Y-9308124D01*
X14613702Y-9303286D01*
X14616726Y-9293610D01*
X14616726Y-9283933D01*
X14613702Y-9274257D01*
X14610678Y-9269419D01*
X14604631Y-9264581D01*
X14592536Y-9259743D01*
X14586488Y-9254905D01*
X14583464Y-9250067D01*
X14580440Y-9240390D01*
X14580440Y-9230714D01*
X14583464Y-9221038D01*
X14586488Y-9216200D01*
X14592536Y-9211362D01*
X14607655Y-9211362D01*
X14616726Y-9216200D01*
X14634869Y-9245229D02*
X14659059Y-9245229D01*
X14643940Y-9211362D02*
X14643940Y-9298448D01*
X14646964Y-9308124D01*
X14653012Y-9312962D01*
X14659059Y-9312962D01*
X14707440Y-9245229D02*
X14707440Y-9312962D01*
X14680226Y-9245229D02*
X14680226Y-9298448D01*
X14683250Y-9308124D01*
X14689298Y-9312962D01*
X14698369Y-9312962D01*
X14704417Y-9308124D01*
X14707440Y-9303286D01*
X14764893Y-9312962D02*
X14764893Y-9211362D01*
X14764893Y-9308124D02*
X14758845Y-9312962D01*
X14746750Y-9312962D01*
X14740702Y-9308124D01*
X14737678Y-9303286D01*
X14734655Y-9293610D01*
X14734655Y-9264581D01*
X14737678Y-9254905D01*
X14740702Y-9250067D01*
X14746750Y-9245229D01*
X14758845Y-9245229D01*
X14764893Y-9250067D01*
X14795131Y-9312962D02*
X14795131Y-9245229D01*
X14795131Y-9211362D02*
X14792107Y-9216200D01*
X14795131Y-9221038D01*
X14798155Y-9216200D01*
X14795131Y-9211362D01*
X14795131Y-9221038D01*
X14834440Y-9312962D02*
X14828393Y-9308124D01*
X14825369Y-9303286D01*
X14822345Y-9293610D01*
X14822345Y-9264581D01*
X14825369Y-9254905D01*
X14828393Y-9250067D01*
X14834440Y-9245229D01*
X14843512Y-9245229D01*
X14849559Y-9250067D01*
X14852583Y-9254905D01*
X14855607Y-9264581D01*
X14855607Y-9293610D01*
X14852583Y-9303286D01*
X14849559Y-9308124D01*
X14843512Y-9312962D01*
X14834440Y-9312962D01*
D14*
D15*
X14197512Y-9534124D02*
X14206583Y-9538962D01*
X14221702Y-9538962D01*
X14227750Y-9534124D01*
X14230774Y-9529286D01*
X14233798Y-9519610D01*
X14233798Y-9509933D01*
X14230774Y-9500257D01*
X14227750Y-9495419D01*
X14221702Y-9490581D01*
X14209607Y-9485743D01*
X14203559Y-9480905D01*
X14200536Y-9476067D01*
X14197512Y-9466390D01*
X14197512Y-9456714D01*
X14200536Y-9447038D01*
X14203559Y-9442200D01*
X14209607Y-9437362D01*
X14224726Y-9437362D01*
X14233798Y-9442200D01*
X14270083Y-9538962D02*
X14264036Y-9534124D01*
X14261012Y-9529286D01*
X14257988Y-9519610D01*
X14257988Y-9490581D01*
X14261012Y-9480905D01*
X14264036Y-9476067D01*
X14270083Y-9471229D01*
X14279155Y-9471229D01*
X14285202Y-9476067D01*
X14288226Y-9480905D01*
X14291250Y-9490581D01*
X14291250Y-9519610D01*
X14288226Y-9529286D01*
X14285202Y-9534124D01*
X14279155Y-9538962D01*
X14270083Y-9538962D01*
X14327536Y-9538962D02*
X14321488Y-9534124D01*
X14318464Y-9524448D01*
X14318464Y-9437362D01*
X14378940Y-9538962D02*
X14378940Y-9437362D01*
X14378940Y-9534124D02*
X14372893Y-9538962D01*
X14360798Y-9538962D01*
X14354750Y-9534124D01*
X14351726Y-9529286D01*
X14348702Y-9519610D01*
X14348702Y-9490581D01*
X14351726Y-9480905D01*
X14354750Y-9476067D01*
X14360798Y-9471229D01*
X14372893Y-9471229D01*
X14378940Y-9476067D01*
X14433369Y-9534124D02*
X14427321Y-9538962D01*
X14415226Y-9538962D01*
X14409178Y-9534124D01*
X14406155Y-9524448D01*
X14406155Y-9485743D01*
X14409178Y-9476067D01*
X14415226Y-9471229D01*
X14427321Y-9471229D01*
X14433369Y-9476067D01*
X14436393Y-9485743D01*
X14436393Y-9495419D01*
X14406155Y-9505095D01*
X14463607Y-9538962D02*
X14463607Y-9471229D01*
X14463607Y-9490581D02*
X14466631Y-9480905D01*
X14469655Y-9476067D01*
X14475702Y-9471229D01*
X14481750Y-9471229D01*
X14502917Y-9538962D02*
X14502917Y-9471229D01*
X14502917Y-9437362D02*
X14499893Y-9442200D01*
X14502917Y-9447038D01*
X14505940Y-9442200D01*
X14502917Y-9437362D01*
X14502917Y-9447038D01*
X14533155Y-9471229D02*
X14533155Y-9538962D01*
X14533155Y-9480905D02*
X14536178Y-9476067D01*
X14542226Y-9471229D01*
X14551298Y-9471229D01*
X14557345Y-9476067D01*
X14560369Y-9485743D01*
X14560369Y-9538962D01*
X14617821Y-9471229D02*
X14617821Y-9553476D01*
X14614798Y-9563152D01*
X14611774Y-9567990D01*
X14605726Y-9572829D01*
X14596655Y-9572829D01*
X14590607Y-9567990D01*
X14617821Y-9534124D02*
X14611774Y-9538962D01*
X14599678Y-9538962D01*
X14593631Y-9534124D01*
X14590607Y-9529286D01*
X14587583Y-9519610D01*
X14587583Y-9490581D01*
X14590607Y-9480905D01*
X14593631Y-9476067D01*
X14599678Y-9471229D01*
X14611774Y-9471229D01*
X14617821Y-9476067D01*
X14645036Y-9534124D02*
X14654107Y-9538962D01*
X14669226Y-9538962D01*
X14675274Y-9534124D01*
X14678298Y-9529286D01*
X14681321Y-9519610D01*
X14681321Y-9509933D01*
X14678298Y-9500257D01*
X14675274Y-9495419D01*
X14669226Y-9490581D01*
X14657131Y-9485743D01*
X14651083Y-9480905D01*
X14648059Y-9476067D01*
X14645036Y-9466390D01*
X14645036Y-9456714D01*
X14648059Y-9447038D01*
X14651083Y-9442200D01*
X14657131Y-9437362D01*
X14672250Y-9437362D01*
X14681321Y-9442200D01*
X14699464Y-9471229D02*
X14723655Y-9471229D01*
X14708536Y-9437362D02*
X14708536Y-9524448D01*
X14711559Y-9534124D01*
X14717607Y-9538962D01*
X14723655Y-9538962D01*
X14772036Y-9538962D02*
X14772036Y-9485743D01*
X14769012Y-9476067D01*
X14762964Y-9471229D01*
X14750869Y-9471229D01*
X14744821Y-9476067D01*
X14772036Y-9534124D02*
X14765988Y-9538962D01*
X14750869Y-9538962D01*
X14744821Y-9534124D01*
X14741798Y-9524448D01*
X14741798Y-9514771D01*
X14744821Y-9505095D01*
X14750869Y-9500257D01*
X14765988Y-9500257D01*
X14772036Y-9495419D01*
X14793202Y-9471229D02*
X14817393Y-9471229D01*
X14802274Y-9437362D02*
X14802274Y-9524448D01*
X14805298Y-9534124D01*
X14811345Y-9538962D01*
X14817393Y-9538962D01*
X14838559Y-9538962D02*
X14838559Y-9471229D01*
X14838559Y-9437362D02*
X14835536Y-9442200D01*
X14838559Y-9447038D01*
X14841583Y-9442200D01*
X14838559Y-9437362D01*
X14838559Y-9447038D01*
X14877869Y-9538962D02*
X14871821Y-9534124D01*
X14868798Y-9529286D01*
X14865774Y-9519610D01*
X14865774Y-9490581D01*
X14868798Y-9480905D01*
X14871821Y-9476067D01*
X14877869Y-9471229D01*
X14886940Y-9471229D01*
X14892988Y-9476067D01*
X14896012Y-9480905D01*
X14899036Y-9490581D01*
X14899036Y-9519610D01*
X14896012Y-9529286D01*
X14892988Y-9534124D01*
X14886940Y-9538962D01*
X14877869Y-9538962D01*
X14926250Y-9471229D02*
X14926250Y-9538962D01*
X14926250Y-9480905D02*
X14929274Y-9476067D01*
X14935321Y-9471229D01*
X14944393Y-9471229D01*
X14950440Y-9476067D01*
X14953464Y-9485743D01*
X14953464Y-9538962D01*
%TA.AperFunction,NonConductor*%
G36*
X12937312Y-8579620D02*
G01*
X12938795Y-8579851D01*
X12938795Y-8579851D01*
X12939682Y-8579989D01*
X12941402Y-8579764D01*
X12943796Y-8579681D01*
X12969581Y-8581241D01*
X12971091Y-8581424D01*
X12978289Y-8582743D01*
X12999186Y-8586573D01*
X13000663Y-8586936D01*
X13027933Y-8595434D01*
X13029354Y-8595973D01*
X13051132Y-8605775D01*
X13055401Y-8607696D01*
X13056748Y-8608403D01*
X13081191Y-8623180D01*
X13082443Y-8624044D01*
X13104927Y-8641659D01*
X13106066Y-8642668D01*
X13126262Y-8662864D01*
X13127271Y-8664003D01*
X13144886Y-8686487D01*
X13145750Y-8687739D01*
X13160527Y-8712182D01*
X13161234Y-8713529D01*
X13172957Y-8739576D01*
X13173496Y-8740997D01*
X13175284Y-8746736D01*
X13181994Y-8768267D01*
X13182357Y-8769744D01*
X13182854Y-8772454D01*
X13187506Y-8797839D01*
X13187689Y-8799349D01*
X13189205Y-8824410D01*
X13189079Y-8827092D01*
X13189079Y-8827105D01*
X13188941Y-8827992D01*
X13189057Y-8828883D01*
X13189057Y-8828883D01*
X13189354Y-8831148D01*
X13189460Y-8832782D01*
X13189460Y-8877758D01*
X13189460Y-8877835D01*
X13189412Y-8885592D01*
X13189659Y-8886455D01*
X13189781Y-8887345D01*
X13189744Y-8887350D01*
X13190065Y-8889634D01*
X13191047Y-10658756D01*
X13191050Y-10663464D01*
X13190900Y-10665409D01*
X13190727Y-10666522D01*
X13190349Y-10668193D01*
X13189758Y-10670167D01*
X13189758Y-10670167D01*
X13189501Y-10671027D01*
X13189496Y-10671924D01*
X13189496Y-10671924D01*
X13189480Y-10674470D01*
X13189477Y-10674549D01*
X13189460Y-10674659D01*
X13189460Y-10677758D01*
X13189460Y-10677835D01*
X13189412Y-10685592D01*
X13189451Y-10685727D01*
X13189460Y-10685861D01*
X13189460Y-10723683D01*
X13189310Y-10725622D01*
X13189079Y-10727105D01*
X13189079Y-10727106D01*
X13188941Y-10727992D01*
X13189166Y-10729712D01*
X13189249Y-10732106D01*
X13187689Y-10757891D01*
X13187506Y-10759401D01*
X13187299Y-10760532D01*
X13182560Y-10786389D01*
X13182358Y-10787495D01*
X13181994Y-10788973D01*
X13174568Y-10812803D01*
X13173496Y-10816243D01*
X13172957Y-10817665D01*
X13164483Y-10836492D01*
X13161234Y-10843711D01*
X13160527Y-10845058D01*
X13145750Y-10869501D01*
X13144886Y-10870753D01*
X13127271Y-10893237D01*
X13126262Y-10894376D01*
X13106066Y-10914573D01*
X13104927Y-10915582D01*
X13082443Y-10933196D01*
X13081191Y-10934061D01*
X13056748Y-10948837D01*
X13055401Y-10949544D01*
X13029354Y-10961267D01*
X13027933Y-10961806D01*
X13000663Y-10970304D01*
X12999186Y-10970668D01*
X12978289Y-10974497D01*
X12971091Y-10975816D01*
X12969581Y-10975999D01*
X12944520Y-10977515D01*
X12941838Y-10977389D01*
X12941825Y-10977389D01*
X12940938Y-10977251D01*
X12940047Y-10977367D01*
X12940047Y-10977367D01*
X12938581Y-10977559D01*
X12937781Y-10977664D01*
X12936148Y-10977770D01*
X11045247Y-10977770D01*
X11043308Y-10977620D01*
X11041825Y-10977389D01*
X11041825Y-10977389D01*
X11040938Y-10977251D01*
X11039218Y-10977476D01*
X11036824Y-10977559D01*
X11011039Y-10975999D01*
X11009529Y-10975816D01*
X11002331Y-10974497D01*
X10981434Y-10970668D01*
X10979957Y-10970304D01*
X10952687Y-10961806D01*
X10951266Y-10961267D01*
X10925219Y-10949544D01*
X10923872Y-10948837D01*
X10899429Y-10934061D01*
X10898177Y-10933196D01*
X10875693Y-10915582D01*
X10874554Y-10914573D01*
X10854358Y-10894376D01*
X10853349Y-10893237D01*
X10835734Y-10870753D01*
X10834870Y-10869501D01*
X10820093Y-10845058D01*
X10819386Y-10843711D01*
X10816137Y-10836492D01*
X10807663Y-10817665D01*
X10807124Y-10816243D01*
X10806052Y-10812803D01*
X10798626Y-10788973D01*
X10798262Y-10787495D01*
X10798060Y-10786389D01*
X10793321Y-10760532D01*
X10793114Y-10759401D01*
X10792931Y-10757891D01*
X10791437Y-10733197D01*
X10791562Y-10730842D01*
X10791543Y-10730840D01*
X10791587Y-10730355D01*
X10791668Y-10729875D01*
X10791683Y-10728620D01*
X10791381Y-10726512D01*
X10839002Y-10726512D01*
X10839043Y-10727236D01*
X10840578Y-10753852D01*
X10845851Y-10780725D01*
X10845989Y-10781130D01*
X10845989Y-10781131D01*
X10854582Y-10806229D01*
X10854721Y-10806634D01*
X10859919Y-10816970D01*
X10864594Y-10826264D01*
X10867026Y-10831100D01*
X10867269Y-10831453D01*
X10867269Y-10831453D01*
X10875693Y-10843711D01*
X10882537Y-10853669D01*
X10900968Y-10873924D01*
X10921978Y-10891491D01*
X10922342Y-10891719D01*
X10944812Y-10905815D01*
X10944813Y-10905815D01*
X10945176Y-10906043D01*
X10951964Y-10909108D01*
X10969745Y-10917136D01*
X10969745Y-10917137D01*
X10970136Y-10917313D01*
X10970548Y-10917435D01*
X10970548Y-10917435D01*
X10995982Y-10924969D01*
X10995983Y-10924969D01*
X10996394Y-10925091D01*
X10996817Y-10925156D01*
X10996818Y-10925156D01*
X11023040Y-10929168D01*
X11023040Y-10929168D01*
X11023464Y-10929233D01*
X11037401Y-10929452D01*
X11050417Y-10929657D01*
X11050418Y-10929657D01*
X11050846Y-10929663D01*
X11078034Y-10926373D01*
X11104523Y-10919424D01*
X11104919Y-10919260D01*
X11104919Y-10919260D01*
X11117173Y-10914184D01*
X11129824Y-10908944D01*
X11153468Y-10895127D01*
X11175019Y-10878229D01*
X11179191Y-10873924D01*
X11193779Y-10858871D01*
X11194077Y-10858563D01*
X11194330Y-10858218D01*
X11194331Y-10858218D01*
X11210036Y-10836838D01*
X11210289Y-10836492D01*
X11213025Y-10831453D01*
X11223152Y-10812803D01*
X11223152Y-10812803D01*
X11223357Y-10812425D01*
X11232494Y-10788246D01*
X11232885Y-10787210D01*
X11232885Y-10787209D01*
X11233037Y-10786808D01*
X11237127Y-10768948D01*
X11239055Y-10760532D01*
X11239055Y-10760531D01*
X11239151Y-10760113D01*
X11239214Y-10759401D01*
X11241563Y-10733083D01*
X11241563Y-10733083D01*
X11241585Y-10732836D01*
X11241627Y-10728883D01*
X11241627Y-10728868D01*
X11241627Y-10728868D01*
X11241629Y-10728620D01*
X11241486Y-10726512D01*
X12739002Y-10726512D01*
X12739043Y-10727236D01*
X12740578Y-10753852D01*
X12745850Y-10780725D01*
X12745989Y-10781130D01*
X12745989Y-10781131D01*
X12754582Y-10806229D01*
X12754721Y-10806634D01*
X12759919Y-10816970D01*
X12764594Y-10826264D01*
X12767026Y-10831100D01*
X12767269Y-10831453D01*
X12767269Y-10831453D01*
X12775693Y-10843711D01*
X12782537Y-10853669D01*
X12800968Y-10873924D01*
X12821977Y-10891491D01*
X12822342Y-10891719D01*
X12844812Y-10905815D01*
X12844813Y-10905815D01*
X12845176Y-10906043D01*
X12851964Y-10909108D01*
X12869744Y-10917136D01*
X12869745Y-10917137D01*
X12870136Y-10917313D01*
X12870548Y-10917435D01*
X12870548Y-10917435D01*
X12895982Y-10924969D01*
X12895983Y-10924969D01*
X12896394Y-10925091D01*
X12896817Y-10925156D01*
X12896817Y-10925156D01*
X12923040Y-10929168D01*
X12923040Y-10929168D01*
X12923464Y-10929233D01*
X12937401Y-10929452D01*
X12950417Y-10929657D01*
X12950418Y-10929657D01*
X12950846Y-10929663D01*
X12978033Y-10926373D01*
X13004523Y-10919424D01*
X13004919Y-10919260D01*
X13004919Y-10919260D01*
X13017173Y-10914184D01*
X13029824Y-10908944D01*
X13053468Y-10895127D01*
X13075019Y-10878229D01*
X13079191Y-10873924D01*
X13093779Y-10858871D01*
X13094077Y-10858563D01*
X13094330Y-10858218D01*
X13094331Y-10858218D01*
X13110036Y-10836838D01*
X13110289Y-10836492D01*
X13113025Y-10831453D01*
X13123152Y-10812803D01*
X13123152Y-10812803D01*
X13123357Y-10812425D01*
X13132494Y-10788246D01*
X13132885Y-10787210D01*
X13132885Y-10787209D01*
X13133037Y-10786808D01*
X13137127Y-10768948D01*
X13139055Y-10760532D01*
X13139055Y-10760531D01*
X13139151Y-10760113D01*
X13139214Y-10759401D01*
X13141563Y-10733083D01*
X13141563Y-10733083D01*
X13141585Y-10732836D01*
X13141627Y-10728883D01*
X13141627Y-10728868D01*
X13141627Y-10728868D01*
X13141629Y-10728620D01*
X13141380Y-10724969D01*
X13139796Y-10701726D01*
X13139796Y-10701725D01*
X13139767Y-10701298D01*
X13134213Y-10674481D01*
X13125072Y-10648667D01*
X13112511Y-10624331D01*
X13111514Y-10622912D01*
X13097011Y-10602276D01*
X13096764Y-10601926D01*
X13078122Y-10581865D01*
X13077791Y-10581593D01*
X13077791Y-10581593D01*
X13057262Y-10564791D01*
X13056930Y-10564519D01*
X13033580Y-10550210D01*
X13033187Y-10550037D01*
X13008897Y-10539375D01*
X13008897Y-10539375D01*
X13008504Y-10539203D01*
X12982167Y-10531700D01*
X12981742Y-10531640D01*
X12981742Y-10531640D01*
X12961693Y-10528786D01*
X12955054Y-10527841D01*
X12940669Y-10527766D01*
X12928098Y-10527700D01*
X12928097Y-10527700D01*
X12927669Y-10527698D01*
X12927245Y-10527754D01*
X12927244Y-10527754D01*
X12915340Y-10529321D01*
X12900518Y-10531273D01*
X12900104Y-10531386D01*
X12900104Y-10531386D01*
X12892811Y-10533381D01*
X12874103Y-10538499D01*
X12873708Y-10538667D01*
X12849308Y-10549075D01*
X12849308Y-10549075D01*
X12848913Y-10549243D01*
X12846922Y-10550435D01*
X12825782Y-10563086D01*
X12825782Y-10563087D01*
X12825414Y-10563307D01*
X12804042Y-10580429D01*
X12785191Y-10600294D01*
X12769210Y-10622534D01*
X12756396Y-10646736D01*
X12756248Y-10647138D01*
X12756248Y-10647139D01*
X12749562Y-10665410D01*
X12746984Y-10672454D01*
X12741150Y-10699211D01*
X12741035Y-10700677D01*
X12739148Y-10724659D01*
X12739002Y-10726512D01*
X11241486Y-10726512D01*
X11241380Y-10724969D01*
X11239796Y-10701726D01*
X11239796Y-10701725D01*
X11239767Y-10701298D01*
X11234213Y-10674481D01*
X11225072Y-10648667D01*
X11212511Y-10624331D01*
X11211514Y-10622912D01*
X11197011Y-10602276D01*
X11196764Y-10601926D01*
X11178123Y-10581865D01*
X11177791Y-10581593D01*
X11177791Y-10581593D01*
X11157262Y-10564791D01*
X11156931Y-10564519D01*
X11133580Y-10550210D01*
X11133187Y-10550037D01*
X11108897Y-10539375D01*
X11108897Y-10539375D01*
X11108505Y-10539203D01*
X11082167Y-10531700D01*
X11081742Y-10531640D01*
X11081742Y-10531640D01*
X11061693Y-10528786D01*
X11055054Y-10527841D01*
X11040669Y-10527766D01*
X11028098Y-10527700D01*
X11028097Y-10527700D01*
X11027669Y-10527698D01*
X11027245Y-10527754D01*
X11027244Y-10527754D01*
X11015340Y-10529321D01*
X11000518Y-10531273D01*
X11000104Y-10531386D01*
X11000104Y-10531386D01*
X10992811Y-10533381D01*
X10974103Y-10538499D01*
X10973708Y-10538667D01*
X10949308Y-10549075D01*
X10949308Y-10549075D01*
X10948913Y-10549243D01*
X10946923Y-10550435D01*
X10925783Y-10563086D01*
X10925782Y-10563087D01*
X10925414Y-10563307D01*
X10904042Y-10580429D01*
X10885191Y-10600294D01*
X10869210Y-10622534D01*
X10856396Y-10646736D01*
X10856249Y-10647138D01*
X10856248Y-10647139D01*
X10849562Y-10665410D01*
X10846984Y-10672454D01*
X10841150Y-10699211D01*
X10841035Y-10700677D01*
X10839148Y-10724659D01*
X10839002Y-10726512D01*
X10791381Y-10726512D01*
X10791287Y-10725858D01*
X10791160Y-10724071D01*
X10791160Y-9802979D01*
X11339460Y-9802979D01*
X11343102Y-9851559D01*
X11350364Y-9899732D01*
X11361207Y-9947227D01*
X11361276Y-9947452D01*
X11361276Y-9947452D01*
X11363984Y-9956228D01*
X11375570Y-9993779D01*
X11381727Y-10009462D01*
X11391358Y-10033996D01*
X11393372Y-10039127D01*
X11393473Y-10039337D01*
X11393474Y-10039338D01*
X11412987Y-10079848D01*
X11414514Y-10083018D01*
X11438878Y-10125205D01*
X11466326Y-10165453D01*
X11466472Y-10165636D01*
X11466473Y-10165637D01*
X11485305Y-10189244D01*
X11496707Y-10203537D01*
X11496867Y-10203710D01*
X11496868Y-10203711D01*
X11526104Y-10235209D01*
X11529849Y-10239244D01*
X11530021Y-10239404D01*
X11530022Y-10239405D01*
X11535653Y-10244628D01*
X11565567Y-10272374D01*
X11565751Y-10272520D01*
X11565751Y-10272520D01*
X11572978Y-10278281D01*
X11603662Y-10302740D01*
X11603855Y-10302872D01*
X11603856Y-10302873D01*
X11631988Y-10322043D01*
X11643920Y-10330175D01*
X11686116Y-10354524D01*
X11686328Y-10354625D01*
X11686328Y-10354626D01*
X11727527Y-10374453D01*
X11728110Y-10374753D01*
X11728435Y-10374931D01*
X11728843Y-10375196D01*
X11729987Y-10375712D01*
X11730455Y-10375841D01*
X11730455Y-10375841D01*
X11731795Y-10376210D01*
X11733802Y-10376952D01*
X11734686Y-10377367D01*
X11734686Y-10377367D01*
X11735498Y-10377748D01*
X11736385Y-10377886D01*
X11736385Y-10377886D01*
X11738494Y-10378215D01*
X11739103Y-10378309D01*
X11740512Y-10378612D01*
X11744029Y-10379582D01*
X11744927Y-10379568D01*
X11751081Y-10379472D01*
X11751277Y-10379470D01*
X12228729Y-10379470D01*
X12229234Y-10379480D01*
X12234447Y-10379689D01*
X12234447Y-10379689D01*
X12235343Y-10379725D01*
X12236214Y-10379508D01*
X12236214Y-10379508D01*
X12239261Y-10378748D01*
X12240524Y-10378500D01*
X12241977Y-10378292D01*
X12244520Y-10377928D01*
X12245871Y-10377314D01*
X12248036Y-10376559D01*
X12249476Y-10376199D01*
X12249924Y-10376011D01*
X12250185Y-10375901D01*
X12250185Y-10375900D01*
X12250633Y-10375712D01*
X12251046Y-10375456D01*
X12251420Y-10375263D01*
X12251732Y-10375108D01*
X12294292Y-10354626D01*
X12294292Y-10354625D01*
X12294504Y-10354524D01*
X12336700Y-10330175D01*
X12348632Y-10322043D01*
X12376763Y-10302873D01*
X12376764Y-10302872D01*
X12376958Y-10302740D01*
X12407642Y-10278281D01*
X12414869Y-10272520D01*
X12414869Y-10272520D01*
X12415053Y-10272374D01*
X12444967Y-10244628D01*
X12450598Y-10239405D01*
X12450599Y-10239404D01*
X12450771Y-10239244D01*
X12454516Y-10235209D01*
X12483752Y-10203711D01*
X12483753Y-10203710D01*
X12483913Y-10203537D01*
X12495315Y-10189244D01*
X12514147Y-10165637D01*
X12514148Y-10165636D01*
X12514294Y-10165453D01*
X12541742Y-10125205D01*
X12566106Y-10083018D01*
X12567633Y-10079848D01*
X12587146Y-10039338D01*
X12587147Y-10039337D01*
X12587248Y-10039127D01*
X12589262Y-10033996D01*
X12598893Y-10009462D01*
X12605050Y-9993779D01*
X12616636Y-9956228D01*
X12619343Y-9947452D01*
X12619344Y-9947452D01*
X12619413Y-9947227D01*
X12630256Y-9899732D01*
X12637518Y-9851559D01*
X12641160Y-9802979D01*
X12641160Y-9754261D01*
X12637518Y-9705681D01*
X12630256Y-9657508D01*
X12619413Y-9610013D01*
X12605050Y-9563461D01*
X12587248Y-9518113D01*
X12586612Y-9516792D01*
X12566208Y-9474435D01*
X12566208Y-9474434D01*
X12566106Y-9474222D01*
X12541742Y-9432035D01*
X12514294Y-9391787D01*
X12483913Y-9353703D01*
X12483752Y-9353529D01*
X12450932Y-9318169D01*
X12450931Y-9318169D01*
X12450771Y-9317996D01*
X12450599Y-9317836D01*
X12450598Y-9317835D01*
X12415226Y-9285027D01*
X12415053Y-9284867D01*
X12376958Y-9254500D01*
X12376764Y-9254368D01*
X12376763Y-9254367D01*
X12336894Y-9227198D01*
X12336700Y-9227065D01*
X12294504Y-9202717D01*
X12253093Y-9182787D01*
X12252510Y-9182487D01*
X12252185Y-9182310D01*
X12251777Y-9182044D01*
X12250633Y-9181528D01*
X12250165Y-9181399D01*
X12250165Y-9181399D01*
X12248825Y-9181030D01*
X12246818Y-9180288D01*
X12245934Y-9179873D01*
X12245934Y-9179873D01*
X12245122Y-9179492D01*
X12244235Y-9179354D01*
X12244235Y-9179354D01*
X12242126Y-9179025D01*
X12241517Y-9178931D01*
X12240108Y-9178628D01*
X12236590Y-9177659D01*
X12235693Y-9177673D01*
X12229539Y-9177769D01*
X12229343Y-9177770D01*
X11751890Y-9177770D01*
X11751386Y-9177760D01*
X11746173Y-9177551D01*
X11746173Y-9177551D01*
X11745276Y-9177515D01*
X11744406Y-9177732D01*
X11744405Y-9177732D01*
X11741359Y-9178492D01*
X11740096Y-9178740D01*
X11738763Y-9178931D01*
X11736100Y-9179312D01*
X11735282Y-9179684D01*
X11734749Y-9179926D01*
X11732584Y-9180681D01*
X11731144Y-9181041D01*
X11730696Y-9181229D01*
X11730696Y-9181229D01*
X11730435Y-9181339D01*
X11730435Y-9181340D01*
X11729987Y-9181528D01*
X11729574Y-9181784D01*
X11729199Y-9181977D01*
X11728888Y-9182132D01*
X11728150Y-9182487D01*
X11686116Y-9202717D01*
X11643920Y-9227065D01*
X11643726Y-9227198D01*
X11603856Y-9254367D01*
X11603855Y-9254368D01*
X11603662Y-9254500D01*
X11565567Y-9284867D01*
X11565394Y-9285027D01*
X11530022Y-9317835D01*
X11530021Y-9317836D01*
X11529849Y-9317996D01*
X11529689Y-9318169D01*
X11529688Y-9318169D01*
X11496868Y-9353529D01*
X11496707Y-9353703D01*
X11466326Y-9391787D01*
X11438878Y-9432035D01*
X11414514Y-9474222D01*
X11414412Y-9474434D01*
X11414412Y-9474435D01*
X11394008Y-9516792D01*
X11393372Y-9518113D01*
X11375570Y-9563461D01*
X11361207Y-9610013D01*
X11350364Y-9657508D01*
X11343102Y-9705681D01*
X11339460Y-9754261D01*
X11339460Y-9802979D01*
X10791160Y-9802979D01*
X10791160Y-8833945D01*
X10791335Y-8831855D01*
X10791587Y-8830354D01*
X10791587Y-8830354D01*
X10791668Y-8829875D01*
X10791683Y-8828620D01*
X10791614Y-8828139D01*
X10791614Y-8828138D01*
X10791497Y-8827321D01*
X10791464Y-8826512D01*
X10839002Y-8826512D01*
X10839043Y-8827236D01*
X10840578Y-8853852D01*
X10845851Y-8880725D01*
X10845989Y-8881130D01*
X10845989Y-8881131D01*
X10854582Y-8906229D01*
X10854721Y-8906634D01*
X10857634Y-8912425D01*
X10864594Y-8926264D01*
X10867026Y-8931100D01*
X10867269Y-8931453D01*
X10867269Y-8931453D01*
X10882294Y-8953315D01*
X10882537Y-8953669D01*
X10900968Y-8973924D01*
X10921978Y-8991491D01*
X10922342Y-8991719D01*
X10944812Y-9005815D01*
X10944813Y-9005815D01*
X10945176Y-9006043D01*
X10951964Y-9009108D01*
X10969745Y-9017136D01*
X10969745Y-9017137D01*
X10970136Y-9017313D01*
X10970548Y-9017435D01*
X10970548Y-9017435D01*
X10995982Y-9024969D01*
X10995983Y-9024969D01*
X10996394Y-9025091D01*
X10996817Y-9025156D01*
X10996818Y-9025156D01*
X11023040Y-9029168D01*
X11023040Y-9029168D01*
X11023464Y-9029233D01*
X11037401Y-9029452D01*
X11050417Y-9029657D01*
X11050418Y-9029657D01*
X11050846Y-9029663D01*
X11078034Y-9026373D01*
X11104523Y-9019424D01*
X11104919Y-9019260D01*
X11104919Y-9019260D01*
X11117173Y-9014184D01*
X11129824Y-9008944D01*
X11153468Y-8995127D01*
X11175019Y-8978229D01*
X11179191Y-8973924D01*
X11193779Y-8958871D01*
X11194077Y-8958563D01*
X11194330Y-8958218D01*
X11194331Y-8958218D01*
X11210036Y-8936838D01*
X11210289Y-8936492D01*
X11213025Y-8931453D01*
X11223152Y-8912803D01*
X11223152Y-8912803D01*
X11223357Y-8912425D01*
X11232634Y-8887873D01*
X11232885Y-8887210D01*
X11232885Y-8887209D01*
X11233037Y-8886808D01*
X11237127Y-8868948D01*
X11239055Y-8860532D01*
X11239055Y-8860531D01*
X11239151Y-8860113D01*
X11240001Y-8850587D01*
X11241563Y-8833083D01*
X11241563Y-8833083D01*
X11241585Y-8832836D01*
X11241629Y-8828620D01*
X11241486Y-8826512D01*
X12739002Y-8826512D01*
X12739043Y-8827236D01*
X12740578Y-8853852D01*
X12745850Y-8880725D01*
X12745989Y-8881130D01*
X12745989Y-8881131D01*
X12754582Y-8906229D01*
X12754721Y-8906634D01*
X12757634Y-8912425D01*
X12764594Y-8926264D01*
X12767026Y-8931100D01*
X12767269Y-8931453D01*
X12767269Y-8931453D01*
X12782294Y-8953315D01*
X12782537Y-8953669D01*
X12800968Y-8973924D01*
X12821977Y-8991491D01*
X12822342Y-8991719D01*
X12844812Y-9005815D01*
X12844813Y-9005815D01*
X12845176Y-9006043D01*
X12851964Y-9009108D01*
X12869744Y-9017136D01*
X12869745Y-9017137D01*
X12870136Y-9017313D01*
X12870548Y-9017435D01*
X12870548Y-9017435D01*
X12895982Y-9024969D01*
X12895983Y-9024969D01*
X12896394Y-9025091D01*
X12896817Y-9025156D01*
X12896817Y-9025156D01*
X12923040Y-9029168D01*
X12923040Y-9029168D01*
X12923464Y-9029233D01*
X12937401Y-9029452D01*
X12950417Y-9029657D01*
X12950418Y-9029657D01*
X12950846Y-9029663D01*
X12978033Y-9026373D01*
X13004523Y-9019424D01*
X13004919Y-9019260D01*
X13004919Y-9019260D01*
X13017173Y-9014184D01*
X13029824Y-9008944D01*
X13053468Y-8995127D01*
X13075019Y-8978229D01*
X13079191Y-8973924D01*
X13093779Y-8958871D01*
X13094077Y-8958563D01*
X13094330Y-8958218D01*
X13094331Y-8958218D01*
X13110036Y-8936838D01*
X13110289Y-8936492D01*
X13113025Y-8931453D01*
X13123152Y-8912803D01*
X13123152Y-8912803D01*
X13123357Y-8912425D01*
X13132634Y-8887873D01*
X13132885Y-8887210D01*
X13132885Y-8887209D01*
X13133037Y-8886808D01*
X13137127Y-8868948D01*
X13139055Y-8860532D01*
X13139055Y-8860531D01*
X13139151Y-8860113D01*
X13140001Y-8850587D01*
X13141563Y-8833083D01*
X13141563Y-8833083D01*
X13141585Y-8832836D01*
X13141629Y-8828620D01*
X13141342Y-8824410D01*
X13139796Y-8801726D01*
X13139796Y-8801725D01*
X13139767Y-8801298D01*
X13134213Y-8774481D01*
X13125072Y-8748667D01*
X13112511Y-8724331D01*
X13111514Y-8722912D01*
X13097011Y-8702276D01*
X13096764Y-8701926D01*
X13089579Y-8694194D01*
X13078415Y-8682179D01*
X13078414Y-8682179D01*
X13078122Y-8681865D01*
X13077791Y-8681593D01*
X13077791Y-8681593D01*
X13057262Y-8664791D01*
X13056930Y-8664519D01*
X13033580Y-8650210D01*
X13033187Y-8650037D01*
X13008897Y-8639375D01*
X13008897Y-8639375D01*
X13008504Y-8639203D01*
X12982167Y-8631700D01*
X12981742Y-8631640D01*
X12981742Y-8631640D01*
X12961693Y-8628786D01*
X12955054Y-8627841D01*
X12940669Y-8627766D01*
X12928098Y-8627700D01*
X12928097Y-8627700D01*
X12927669Y-8627698D01*
X12927245Y-8627754D01*
X12927244Y-8627754D01*
X12915340Y-8629321D01*
X12900518Y-8631273D01*
X12900104Y-8631386D01*
X12900104Y-8631386D01*
X12892811Y-8633381D01*
X12874103Y-8638499D01*
X12873708Y-8638667D01*
X12849308Y-8649075D01*
X12849308Y-8649075D01*
X12848913Y-8649243D01*
X12846922Y-8650435D01*
X12825782Y-8663086D01*
X12825782Y-8663087D01*
X12825414Y-8663307D01*
X12804042Y-8680429D01*
X12797724Y-8687087D01*
X12790980Y-8694194D01*
X12785191Y-8700294D01*
X12769210Y-8722534D01*
X12756396Y-8746736D01*
X12756248Y-8747138D01*
X12756248Y-8747139D01*
X12751997Y-8758756D01*
X12746984Y-8772454D01*
X12741150Y-8799211D01*
X12739002Y-8826512D01*
X11241486Y-8826512D01*
X11241342Y-8824410D01*
X11239796Y-8801726D01*
X11239796Y-8801725D01*
X11239767Y-8801298D01*
X11234213Y-8774481D01*
X11225072Y-8748667D01*
X11212511Y-8724331D01*
X11211514Y-8722912D01*
X11197011Y-8702276D01*
X11196764Y-8701926D01*
X11189579Y-8694194D01*
X11178415Y-8682179D01*
X11178414Y-8682179D01*
X11178123Y-8681865D01*
X11177791Y-8681593D01*
X11177791Y-8681593D01*
X11157262Y-8664791D01*
X11156931Y-8664519D01*
X11133580Y-8650210D01*
X11133187Y-8650037D01*
X11108897Y-8639375D01*
X11108897Y-8639375D01*
X11108505Y-8639203D01*
X11082167Y-8631700D01*
X11081742Y-8631640D01*
X11081742Y-8631640D01*
X11061693Y-8628786D01*
X11055054Y-8627841D01*
X11040669Y-8627766D01*
X11028098Y-8627700D01*
X11028097Y-8627700D01*
X11027669Y-8627698D01*
X11027245Y-8627754D01*
X11027244Y-8627754D01*
X11015340Y-8629321D01*
X11000518Y-8631273D01*
X11000104Y-8631386D01*
X11000104Y-8631386D01*
X10992811Y-8633381D01*
X10974103Y-8638499D01*
X10973708Y-8638667D01*
X10949308Y-8649075D01*
X10949308Y-8649075D01*
X10948913Y-8649243D01*
X10946923Y-8650435D01*
X10925783Y-8663086D01*
X10925782Y-8663087D01*
X10925414Y-8663307D01*
X10904042Y-8680429D01*
X10897724Y-8687087D01*
X10890980Y-8694194D01*
X10885191Y-8700294D01*
X10869210Y-8722534D01*
X10856396Y-8746736D01*
X10856249Y-8747138D01*
X10856248Y-8747139D01*
X10851997Y-8758756D01*
X10846984Y-8772454D01*
X10841150Y-8799211D01*
X10839002Y-8826512D01*
X10791464Y-8826512D01*
X10791393Y-8824774D01*
X10792931Y-8799349D01*
X10793114Y-8797839D01*
X10797766Y-8772454D01*
X10798263Y-8769744D01*
X10798626Y-8768267D01*
X10805336Y-8746736D01*
X10807124Y-8740997D01*
X10807663Y-8739576D01*
X10819386Y-8713529D01*
X10820093Y-8712182D01*
X10834870Y-8687739D01*
X10835734Y-8686487D01*
X10853349Y-8664003D01*
X10854358Y-8662864D01*
X10874554Y-8642668D01*
X10875693Y-8641659D01*
X10898177Y-8624044D01*
X10899429Y-8623180D01*
X10923872Y-8608403D01*
X10925219Y-8607696D01*
X10929488Y-8605775D01*
X10951266Y-8595973D01*
X10952687Y-8595434D01*
X10979957Y-8586936D01*
X10981434Y-8586573D01*
X11002331Y-8582743D01*
X11009529Y-8581424D01*
X11011039Y-8581241D01*
X11036100Y-8579725D01*
X11038782Y-8579851D01*
X11038795Y-8579851D01*
X11039682Y-8579989D01*
X11040573Y-8579873D01*
X11040573Y-8579873D01*
X11042078Y-8579676D01*
X11042839Y-8579576D01*
X11044472Y-8579470D01*
X12935373Y-8579470D01*
X12937312Y-8579620D01*
G37*
%TD.AperFunction*%
%TA.AperFunction,NonConductor*%
G36*
X15537312Y-8579620D02*
G01*
X15538795Y-8579851D01*
X15538795Y-8579851D01*
X15539682Y-8579989D01*
X15541402Y-8579764D01*
X15543796Y-8579681D01*
X15569581Y-8581241D01*
X15571091Y-8581424D01*
X15578289Y-8582743D01*
X15599186Y-8586573D01*
X15600663Y-8586936D01*
X15627933Y-8595434D01*
X15629354Y-8595973D01*
X15651132Y-8605775D01*
X15655401Y-8607696D01*
X15656748Y-8608403D01*
X15681191Y-8623180D01*
X15682443Y-8624044D01*
X15704927Y-8641659D01*
X15706066Y-8642668D01*
X15726262Y-8662864D01*
X15727271Y-8664003D01*
X15744886Y-8686487D01*
X15745750Y-8687739D01*
X15760527Y-8712182D01*
X15761234Y-8713529D01*
X15772957Y-8739576D01*
X15773496Y-8740997D01*
X15775284Y-8746736D01*
X15781994Y-8768267D01*
X15782357Y-8769744D01*
X15782854Y-8772454D01*
X15787506Y-8797839D01*
X15787689Y-8799349D01*
X15789205Y-8824410D01*
X15789079Y-8827092D01*
X15789079Y-8827105D01*
X15788941Y-8827992D01*
X15789057Y-8828883D01*
X15789057Y-8828883D01*
X15789354Y-8831148D01*
X15789460Y-8832782D01*
X15789460Y-10723683D01*
X15789310Y-10725622D01*
X15789079Y-10727105D01*
X15789079Y-10727106D01*
X15788941Y-10727992D01*
X15789166Y-10729712D01*
X15789249Y-10732106D01*
X15787689Y-10757891D01*
X15787506Y-10759401D01*
X15787299Y-10760532D01*
X15782560Y-10786389D01*
X15782358Y-10787495D01*
X15781994Y-10788973D01*
X15774568Y-10812803D01*
X15773496Y-10816243D01*
X15772957Y-10817665D01*
X15764483Y-10836492D01*
X15761234Y-10843711D01*
X15760527Y-10845058D01*
X15745750Y-10869501D01*
X15744886Y-10870753D01*
X15727271Y-10893237D01*
X15726262Y-10894376D01*
X15706066Y-10914573D01*
X15704927Y-10915582D01*
X15682443Y-10933196D01*
X15681191Y-10934061D01*
X15656748Y-10948837D01*
X15655401Y-10949544D01*
X15629354Y-10961267D01*
X15627933Y-10961806D01*
X15600663Y-10970304D01*
X15599186Y-10970668D01*
X15578289Y-10974497D01*
X15571091Y-10975816D01*
X15569581Y-10975999D01*
X15544520Y-10977515D01*
X15541838Y-10977389D01*
X15541825Y-10977389D01*
X15540938Y-10977251D01*
X15540047Y-10977367D01*
X15540047Y-10977367D01*
X15538581Y-10977559D01*
X15537781Y-10977664D01*
X15536148Y-10977770D01*
X13645247Y-10977770D01*
X13643308Y-10977620D01*
X13641825Y-10977389D01*
X13641824Y-10977389D01*
X13640938Y-10977251D01*
X13639218Y-10977476D01*
X13636824Y-10977559D01*
X13611039Y-10975999D01*
X13609529Y-10975816D01*
X13602331Y-10974497D01*
X13581434Y-10970668D01*
X13579957Y-10970304D01*
X13552687Y-10961806D01*
X13551265Y-10961267D01*
X13525219Y-10949544D01*
X13523872Y-10948837D01*
X13499429Y-10934061D01*
X13498177Y-10933196D01*
X13475693Y-10915582D01*
X13474554Y-10914573D01*
X13454357Y-10894376D01*
X13453348Y-10893237D01*
X13435734Y-10870753D01*
X13434869Y-10869501D01*
X13420093Y-10845058D01*
X13419386Y-10843711D01*
X13416137Y-10836492D01*
X13407663Y-10817665D01*
X13407124Y-10816243D01*
X13406052Y-10812803D01*
X13398626Y-10788973D01*
X13398262Y-10787495D01*
X13398060Y-10786389D01*
X13393321Y-10760532D01*
X13393114Y-10759401D01*
X13392931Y-10757891D01*
X13391437Y-10733197D01*
X13391562Y-10730842D01*
X13391543Y-10730840D01*
X13391587Y-10730355D01*
X13391668Y-10729875D01*
X13391683Y-10728620D01*
X13391381Y-10726512D01*
X13439002Y-10726512D01*
X13439043Y-10727236D01*
X13440578Y-10753852D01*
X13445850Y-10780725D01*
X13445989Y-10781130D01*
X13445989Y-10781131D01*
X13454582Y-10806229D01*
X13454721Y-10806634D01*
X13459919Y-10816970D01*
X13464594Y-10826264D01*
X13467026Y-10831100D01*
X13467269Y-10831453D01*
X13467269Y-10831453D01*
X13475693Y-10843711D01*
X13482537Y-10853669D01*
X13500968Y-10873924D01*
X13521977Y-10891491D01*
X13522342Y-10891719D01*
X13544812Y-10905815D01*
X13544813Y-10905815D01*
X13545176Y-10906043D01*
X13551964Y-10909108D01*
X13569744Y-10917136D01*
X13569745Y-10917137D01*
X13570136Y-10917313D01*
X13570548Y-10917435D01*
X13570548Y-10917435D01*
X13595982Y-10924969D01*
X13595983Y-10924969D01*
X13596394Y-10925091D01*
X13596817Y-10925156D01*
X13596817Y-10925156D01*
X13623040Y-10929168D01*
X13623040Y-10929168D01*
X13623464Y-10929233D01*
X13637401Y-10929452D01*
X13650417Y-10929657D01*
X13650418Y-10929657D01*
X13650846Y-10929663D01*
X13678033Y-10926373D01*
X13704523Y-10919424D01*
X13704919Y-10919260D01*
X13704919Y-10919260D01*
X13717173Y-10914184D01*
X13729824Y-10908944D01*
X13753468Y-10895127D01*
X13775019Y-10878229D01*
X13779191Y-10873924D01*
X13793779Y-10858871D01*
X13794077Y-10858563D01*
X13794330Y-10858218D01*
X13794331Y-10858218D01*
X13810036Y-10836838D01*
X13810289Y-10836492D01*
X13813025Y-10831453D01*
X13823152Y-10812803D01*
X13823152Y-10812803D01*
X13823357Y-10812425D01*
X13832494Y-10788246D01*
X13832885Y-10787210D01*
X13832885Y-10787209D01*
X13833037Y-10786808D01*
X13837127Y-10768948D01*
X13839055Y-10760532D01*
X13839055Y-10760531D01*
X13839151Y-10760113D01*
X13839214Y-10759401D01*
X13841563Y-10733083D01*
X13841563Y-10733083D01*
X13841585Y-10732836D01*
X13841627Y-10728883D01*
X13841627Y-10728868D01*
X13841627Y-10728868D01*
X13841629Y-10728620D01*
X13841486Y-10726512D01*
X15339002Y-10726512D01*
X15339043Y-10727236D01*
X15340578Y-10753852D01*
X15345850Y-10780725D01*
X15345989Y-10781130D01*
X15345989Y-10781131D01*
X15354582Y-10806229D01*
X15354721Y-10806634D01*
X15359919Y-10816970D01*
X15364594Y-10826264D01*
X15367026Y-10831100D01*
X15367269Y-10831453D01*
X15367269Y-10831453D01*
X15375693Y-10843711D01*
X15382537Y-10853669D01*
X15400968Y-10873924D01*
X15421977Y-10891491D01*
X15422342Y-10891719D01*
X15444812Y-10905815D01*
X15444813Y-10905815D01*
X15445176Y-10906043D01*
X15451964Y-10909108D01*
X15469744Y-10917136D01*
X15469745Y-10917137D01*
X15470136Y-10917313D01*
X15470548Y-10917435D01*
X15470548Y-10917435D01*
X15495982Y-10924969D01*
X15495983Y-10924969D01*
X15496394Y-10925091D01*
X15496817Y-10925156D01*
X15496817Y-10925156D01*
X15523040Y-10929168D01*
X15523040Y-10929168D01*
X15523464Y-10929233D01*
X15537401Y-10929452D01*
X15550417Y-10929657D01*
X15550418Y-10929657D01*
X15550846Y-10929663D01*
X15578033Y-10926373D01*
X15604523Y-10919424D01*
X15604919Y-10919260D01*
X15604919Y-10919260D01*
X15617173Y-10914184D01*
X15629824Y-10908944D01*
X15653468Y-10895127D01*
X15675019Y-10878229D01*
X15679191Y-10873924D01*
X15693779Y-10858871D01*
X15694077Y-10858563D01*
X15694330Y-10858218D01*
X15694331Y-10858218D01*
X15710036Y-10836838D01*
X15710289Y-10836492D01*
X15713025Y-10831453D01*
X15723152Y-10812803D01*
X15723152Y-10812803D01*
X15723357Y-10812425D01*
X15732494Y-10788246D01*
X15732885Y-10787210D01*
X15732885Y-10787209D01*
X15733037Y-10786808D01*
X15737127Y-10768948D01*
X15739055Y-10760532D01*
X15739055Y-10760531D01*
X15739151Y-10760113D01*
X15739214Y-10759401D01*
X15741563Y-10733083D01*
X15741563Y-10733083D01*
X15741585Y-10732836D01*
X15741627Y-10728883D01*
X15741627Y-10728868D01*
X15741627Y-10728868D01*
X15741629Y-10728620D01*
X15741380Y-10724969D01*
X15739796Y-10701726D01*
X15739796Y-10701725D01*
X15739767Y-10701298D01*
X15734213Y-10674481D01*
X15725072Y-10648667D01*
X15712511Y-10624331D01*
X15711514Y-10622912D01*
X15697011Y-10602276D01*
X15696764Y-10601926D01*
X15678122Y-10581865D01*
X15677791Y-10581593D01*
X15677791Y-10581593D01*
X15657262Y-10564791D01*
X15656930Y-10564519D01*
X15633580Y-10550210D01*
X15633187Y-10550037D01*
X15608897Y-10539375D01*
X15608897Y-10539375D01*
X15608504Y-10539203D01*
X15582167Y-10531700D01*
X15581742Y-10531640D01*
X15581742Y-10531640D01*
X15561693Y-10528786D01*
X15555054Y-10527841D01*
X15540669Y-10527766D01*
X15528098Y-10527700D01*
X15528097Y-10527700D01*
X15527669Y-10527698D01*
X15527245Y-10527754D01*
X15527244Y-10527754D01*
X15515340Y-10529321D01*
X15500518Y-10531273D01*
X15500104Y-10531386D01*
X15500104Y-10531386D01*
X15492811Y-10533381D01*
X15474103Y-10538499D01*
X15473708Y-10538667D01*
X15449308Y-10549075D01*
X15449308Y-10549075D01*
X15448913Y-10549243D01*
X15446922Y-10550435D01*
X15425782Y-10563086D01*
X15425782Y-10563087D01*
X15425414Y-10563307D01*
X15404042Y-10580429D01*
X15385191Y-10600294D01*
X15369210Y-10622534D01*
X15356396Y-10646736D01*
X15356248Y-10647138D01*
X15356248Y-10647139D01*
X15349562Y-10665410D01*
X15346984Y-10672454D01*
X15341150Y-10699211D01*
X15341035Y-10700677D01*
X15339148Y-10724659D01*
X15339002Y-10726512D01*
X13841486Y-10726512D01*
X13841380Y-10724969D01*
X13839796Y-10701726D01*
X13839796Y-10701725D01*
X13839767Y-10701298D01*
X13839673Y-10700845D01*
X14054887Y-10700845D01*
X15097113Y-10700845D01*
X15097113Y-10433156D01*
X14054887Y-10433156D01*
X14054887Y-10700845D01*
X13839673Y-10700845D01*
X13834213Y-10674481D01*
X13825072Y-10648667D01*
X13812511Y-10624331D01*
X13811514Y-10622912D01*
X13797011Y-10602276D01*
X13796764Y-10601926D01*
X13778122Y-10581865D01*
X13777791Y-10581593D01*
X13777791Y-10581593D01*
X13757262Y-10564791D01*
X13756930Y-10564519D01*
X13733580Y-10550210D01*
X13733187Y-10550037D01*
X13708897Y-10539375D01*
X13708897Y-10539375D01*
X13708504Y-10539203D01*
X13682167Y-10531700D01*
X13681742Y-10531640D01*
X13681742Y-10531640D01*
X13661693Y-10528786D01*
X13655054Y-10527841D01*
X13640669Y-10527766D01*
X13628098Y-10527700D01*
X13628097Y-10527700D01*
X13627669Y-10527698D01*
X13627245Y-10527754D01*
X13627244Y-10527754D01*
X13615340Y-10529321D01*
X13600518Y-10531273D01*
X13600104Y-10531386D01*
X13600104Y-10531386D01*
X13592811Y-10533381D01*
X13574103Y-10538499D01*
X13573708Y-10538667D01*
X13549308Y-10549075D01*
X13549308Y-10549075D01*
X13548913Y-10549243D01*
X13546922Y-10550435D01*
X13525782Y-10563086D01*
X13525782Y-10563087D01*
X13525414Y-10563307D01*
X13504042Y-10580429D01*
X13485191Y-10600294D01*
X13469210Y-10622534D01*
X13456396Y-10646736D01*
X13456248Y-10647138D01*
X13456248Y-10647139D01*
X13449562Y-10665410D01*
X13446984Y-10672454D01*
X13441150Y-10699211D01*
X13441035Y-10700677D01*
X13439148Y-10724659D01*
X13439002Y-10726512D01*
X13391381Y-10726512D01*
X13391287Y-10725858D01*
X13391160Y-10724071D01*
X13391160Y-10679482D01*
X13391160Y-10679405D01*
X13391190Y-10674481D01*
X13391208Y-10671648D01*
X13391064Y-10671144D01*
X13391000Y-10670211D01*
X13391000Y-10187492D01*
X14095738Y-10187492D01*
X14095804Y-10187973D01*
X14095804Y-10187974D01*
X14095912Y-10188769D01*
X14096005Y-10189724D01*
X14097249Y-10210746D01*
X14097285Y-10211350D01*
X14101825Y-10234815D01*
X14109416Y-10257477D01*
X14109598Y-10257849D01*
X14109598Y-10257850D01*
X14119350Y-10277770D01*
X14119924Y-10278942D01*
X14133168Y-10298837D01*
X14148915Y-10316815D01*
X14149228Y-10317089D01*
X14149228Y-10317089D01*
X14166580Y-10332288D01*
X14166580Y-10332289D01*
X14166893Y-10332563D01*
X14186788Y-10345806D01*
X14187162Y-10345989D01*
X14187162Y-10345989D01*
X14204595Y-10354524D01*
X14208253Y-10356314D01*
X14219201Y-10359981D01*
X14230520Y-10363773D01*
X14230521Y-10363773D01*
X14230916Y-10363905D01*
X14242194Y-10366087D01*
X14253971Y-10368366D01*
X14253972Y-10368366D01*
X14254380Y-10368445D01*
X14254795Y-10368470D01*
X14254796Y-10368470D01*
X14258905Y-10368713D01*
X14274362Y-10369627D01*
X14275620Y-10369765D01*
X14276983Y-10369985D01*
X14277471Y-10369988D01*
X14277471Y-10369988D01*
X14277608Y-10369988D01*
X14278239Y-10369992D01*
X14280568Y-10369642D01*
X14280778Y-10369610D01*
X14282651Y-10369470D01*
X14896963Y-10369470D01*
X14899046Y-10369644D01*
X14901043Y-10369978D01*
X14901530Y-10369984D01*
X14901530Y-10369984D01*
X14901648Y-10369985D01*
X14902298Y-10369993D01*
X14902779Y-10369924D01*
X14902780Y-10369924D01*
X14903459Y-10369826D01*
X14904418Y-10369726D01*
X14912743Y-10369174D01*
X14926118Y-10368287D01*
X14926525Y-10368205D01*
X14926525Y-10368205D01*
X14949121Y-10363683D01*
X14949121Y-10363682D01*
X14949527Y-10363601D01*
X14972120Y-10355891D01*
X14993509Y-10345288D01*
X15013325Y-10331975D01*
X15016414Y-10329250D01*
X15030916Y-10316456D01*
X15030917Y-10316455D01*
X15031226Y-10316182D01*
X15046906Y-10298181D01*
X15047135Y-10297835D01*
X15059864Y-10278625D01*
X15059864Y-10278625D01*
X15060093Y-10278281D01*
X15060274Y-10277910D01*
X15060274Y-10277909D01*
X15070060Y-10257850D01*
X15070560Y-10256825D01*
X15070691Y-10256433D01*
X15070691Y-10256433D01*
X15077996Y-10234576D01*
X15078127Y-10234184D01*
X15082664Y-10210746D01*
X15083862Y-10190768D01*
X15084002Y-10189503D01*
X15084017Y-10189412D01*
X15084218Y-10188171D01*
X15084226Y-10186916D01*
X15084113Y-10186157D01*
X15083835Y-10184293D01*
X15083698Y-10182453D01*
X15083623Y-10130574D01*
X15083820Y-10128335D01*
X15083938Y-10127681D01*
X15084107Y-10126737D01*
X15084135Y-10125482D01*
X15083965Y-10124197D01*
X15083875Y-10123238D01*
X15082704Y-10102054D01*
X15082704Y-10102053D01*
X15082681Y-10101640D01*
X15078249Y-10078178D01*
X15070779Y-10055499D01*
X15070163Y-10054224D01*
X15060580Y-10034369D01*
X15060580Y-10034369D01*
X15060400Y-10033996D01*
X15047291Y-10014039D01*
X15046575Y-10013210D01*
X15031951Y-9996286D01*
X15031951Y-9996286D01*
X15031680Y-9995972D01*
X15031370Y-9995697D01*
X15031369Y-9995697D01*
X15014144Y-9980384D01*
X15014144Y-9980384D01*
X15013834Y-9980109D01*
X15012059Y-9978907D01*
X14994406Y-9966954D01*
X14994405Y-9966954D01*
X14994063Y-9966722D01*
X14972707Y-9956043D01*
X14950135Y-9948255D01*
X14926738Y-9943494D01*
X14926324Y-9943466D01*
X14926324Y-9943466D01*
X14923286Y-9943255D01*
X14906770Y-9942109D01*
X14905509Y-9941958D01*
X14905040Y-9941877D01*
X14904653Y-9941810D01*
X14904653Y-9941810D01*
X14904173Y-9941728D01*
X14902918Y-9941708D01*
X14902436Y-9941776D01*
X14902435Y-9941776D01*
X14900043Y-9942110D01*
X14898300Y-9942231D01*
X14283428Y-9942231D01*
X14281251Y-9942042D01*
X14280712Y-9941947D01*
X14279494Y-9941733D01*
X14278239Y-9941709D01*
X14276967Y-9941882D01*
X14276013Y-9941975D01*
X14264840Y-9942636D01*
X14254795Y-9943230D01*
X14254795Y-9943230D01*
X14254380Y-9943255D01*
X14230915Y-9947795D01*
X14208253Y-9955386D01*
X14186788Y-9965895D01*
X14166893Y-9979138D01*
X14166580Y-9979412D01*
X14166580Y-9979412D01*
X14150434Y-9993555D01*
X14148915Y-9994886D01*
X14133167Y-10012864D01*
X14132937Y-10013210D01*
X14132937Y-10013210D01*
X14123181Y-10027866D01*
X14119924Y-10032759D01*
X14119741Y-10033132D01*
X14111408Y-10050154D01*
X14109416Y-10054224D01*
X14109283Y-10054620D01*
X14109283Y-10054620D01*
X14104918Y-10067652D01*
X14101825Y-10076886D01*
X14101385Y-10079162D01*
X14098714Y-10092963D01*
X14097285Y-10100351D01*
X14096786Y-10108787D01*
X14096103Y-10120332D01*
X14095965Y-10121590D01*
X14095745Y-10122955D01*
X14095738Y-10124210D01*
X14095811Y-10124691D01*
X14095811Y-10124692D01*
X14096120Y-10126749D01*
X14096260Y-10128622D01*
X14096260Y-10182303D01*
X14096071Y-10184479D01*
X14095763Y-10186236D01*
X14095753Y-10186723D01*
X14095750Y-10186916D01*
X14095738Y-10187492D01*
X13391000Y-10187492D01*
X13391000Y-9637544D01*
X14126629Y-9637544D01*
X15027371Y-9637544D01*
X15027371Y-9348456D01*
X14939090Y-9348456D01*
X14932278Y-9346456D01*
X14927628Y-9341090D01*
X14926490Y-9335856D01*
X14926490Y-9122456D01*
X14249510Y-9122456D01*
X14249510Y-9335856D01*
X14247510Y-9342668D01*
X14242144Y-9347317D01*
X14236910Y-9348456D01*
X14126629Y-9348456D01*
X14126629Y-9637544D01*
X13391000Y-9637544D01*
X13391000Y-8887083D01*
X13391047Y-8886454D01*
X13391119Y-8886213D01*
X13391140Y-8882769D01*
X13391143Y-8882691D01*
X13391160Y-8882581D01*
X13391160Y-8879482D01*
X13391160Y-8879405D01*
X13391205Y-8872042D01*
X13391205Y-8872041D01*
X13391208Y-8871648D01*
X13391169Y-8871514D01*
X13391160Y-8871379D01*
X13391160Y-8833945D01*
X13391335Y-8831855D01*
X13391587Y-8830354D01*
X13391587Y-8830354D01*
X13391668Y-8829875D01*
X13391683Y-8828620D01*
X13391614Y-8828139D01*
X13391614Y-8828138D01*
X13391497Y-8827321D01*
X13391464Y-8826512D01*
X13439002Y-8826512D01*
X13439043Y-8827236D01*
X13440578Y-8853852D01*
X13445850Y-8880725D01*
X13445989Y-8881130D01*
X13445989Y-8881131D01*
X13454582Y-8906229D01*
X13454721Y-8906634D01*
X13457634Y-8912425D01*
X13464594Y-8926264D01*
X13467026Y-8931100D01*
X13467269Y-8931453D01*
X13467269Y-8931453D01*
X13482294Y-8953315D01*
X13482537Y-8953669D01*
X13500968Y-8973924D01*
X13521977Y-8991491D01*
X13522342Y-8991719D01*
X13544812Y-9005815D01*
X13544813Y-9005815D01*
X13545176Y-9006043D01*
X13551964Y-9009108D01*
X13569744Y-9017136D01*
X13569745Y-9017137D01*
X13570136Y-9017313D01*
X13570548Y-9017435D01*
X13570548Y-9017435D01*
X13595982Y-9024969D01*
X13595983Y-9024969D01*
X13596394Y-9025091D01*
X13596817Y-9025156D01*
X13596817Y-9025156D01*
X13623040Y-9029168D01*
X13623040Y-9029168D01*
X13623464Y-9029233D01*
X13637401Y-9029452D01*
X13650417Y-9029657D01*
X13650418Y-9029657D01*
X13650846Y-9029663D01*
X13678033Y-9026373D01*
X13704523Y-9019424D01*
X13704919Y-9019260D01*
X13704919Y-9019260D01*
X13717173Y-9014184D01*
X13729824Y-9008944D01*
X13753468Y-8995127D01*
X13775019Y-8978229D01*
X13779191Y-8973924D01*
X13793779Y-8958871D01*
X13794077Y-8958563D01*
X13794330Y-8958218D01*
X13794331Y-8958218D01*
X13810036Y-8936838D01*
X13810289Y-8936492D01*
X13813025Y-8931453D01*
X13823152Y-8912803D01*
X13823152Y-8912803D01*
X13823357Y-8912425D01*
X13832634Y-8887873D01*
X13832885Y-8887210D01*
X13832885Y-8887209D01*
X13833037Y-8886808D01*
X13837127Y-8868948D01*
X13839055Y-8860532D01*
X13839055Y-8860531D01*
X13839151Y-8860113D01*
X13840001Y-8850587D01*
X13841563Y-8833083D01*
X13841563Y-8833083D01*
X13841585Y-8832836D01*
X13841629Y-8828620D01*
X13841486Y-8826512D01*
X15339002Y-8826512D01*
X15339043Y-8827236D01*
X15340578Y-8853852D01*
X15345850Y-8880725D01*
X15345989Y-8881130D01*
X15345989Y-8881131D01*
X15354582Y-8906229D01*
X15354721Y-8906634D01*
X15357634Y-8912425D01*
X15364594Y-8926264D01*
X15367026Y-8931100D01*
X15367269Y-8931453D01*
X15367269Y-8931453D01*
X15382294Y-8953315D01*
X15382537Y-8953669D01*
X15400968Y-8973924D01*
X15421977Y-8991491D01*
X15422342Y-8991719D01*
X15444812Y-9005815D01*
X15444813Y-9005815D01*
X15445176Y-9006043D01*
X15451964Y-9009108D01*
X15469744Y-9017136D01*
X15469745Y-9017137D01*
X15470136Y-9017313D01*
X15470548Y-9017435D01*
X15470548Y-9017435D01*
X15495982Y-9024969D01*
X15495983Y-9024969D01*
X15496394Y-9025091D01*
X15496817Y-9025156D01*
X15496817Y-9025156D01*
X15523040Y-9029168D01*
X15523040Y-9029168D01*
X15523464Y-9029233D01*
X15537401Y-9029452D01*
X15550417Y-9029657D01*
X15550418Y-9029657D01*
X15550846Y-9029663D01*
X15578033Y-9026373D01*
X15604523Y-9019424D01*
X15604919Y-9019260D01*
X15604919Y-9019260D01*
X15617173Y-9014184D01*
X15629824Y-9008944D01*
X15653468Y-8995127D01*
X15675019Y-8978229D01*
X15679191Y-8973924D01*
X15693779Y-8958871D01*
X15694077Y-8958563D01*
X15694330Y-8958218D01*
X15694331Y-8958218D01*
X15710036Y-8936838D01*
X15710289Y-8936492D01*
X15713025Y-8931453D01*
X15723152Y-8912803D01*
X15723152Y-8912803D01*
X15723357Y-8912425D01*
X15732634Y-8887873D01*
X15732885Y-8887210D01*
X15732885Y-8887209D01*
X15733037Y-8886808D01*
X15737127Y-8868948D01*
X15739055Y-8860532D01*
X15739055Y-8860531D01*
X15739151Y-8860113D01*
X15740001Y-8850587D01*
X15741563Y-8833083D01*
X15741563Y-8833083D01*
X15741585Y-8832836D01*
X15741629Y-8828620D01*
X15741342Y-8824410D01*
X15739796Y-8801726D01*
X15739796Y-8801725D01*
X15739767Y-8801298D01*
X15734213Y-8774481D01*
X15725072Y-8748667D01*
X15712511Y-8724331D01*
X15711514Y-8722912D01*
X15697011Y-8702276D01*
X15696764Y-8701926D01*
X15689579Y-8694194D01*
X15678415Y-8682179D01*
X15678414Y-8682179D01*
X15678122Y-8681865D01*
X15677791Y-8681593D01*
X15677791Y-8681593D01*
X15657262Y-8664791D01*
X15656930Y-8664519D01*
X15633580Y-8650210D01*
X15633187Y-8650037D01*
X15608897Y-8639375D01*
X15608897Y-8639375D01*
X15608504Y-8639203D01*
X15582167Y-8631700D01*
X15581742Y-8631640D01*
X15581742Y-8631640D01*
X15561693Y-8628786D01*
X15555054Y-8627841D01*
X15540669Y-8627766D01*
X15528098Y-8627700D01*
X15528097Y-8627700D01*
X15527669Y-8627698D01*
X15527245Y-8627754D01*
X15527244Y-8627754D01*
X15515340Y-8629321D01*
X15500518Y-8631273D01*
X15500104Y-8631386D01*
X15500104Y-8631386D01*
X15492811Y-8633381D01*
X15474103Y-8638499D01*
X15473708Y-8638667D01*
X15449308Y-8649075D01*
X15449308Y-8649075D01*
X15448913Y-8649243D01*
X15446922Y-8650435D01*
X15425782Y-8663086D01*
X15425782Y-8663087D01*
X15425414Y-8663307D01*
X15404042Y-8680429D01*
X15397724Y-8687087D01*
X15390980Y-8694194D01*
X15385191Y-8700294D01*
X15369210Y-8722534D01*
X15356396Y-8746736D01*
X15356248Y-8747138D01*
X15356248Y-8747139D01*
X15351997Y-8758756D01*
X15346984Y-8772454D01*
X15341150Y-8799211D01*
X15339002Y-8826512D01*
X13841486Y-8826512D01*
X13841342Y-8824410D01*
X13839796Y-8801726D01*
X13839796Y-8801725D01*
X13839767Y-8801298D01*
X13834213Y-8774481D01*
X13825072Y-8748667D01*
X13812511Y-8724331D01*
X13811514Y-8722912D01*
X13797011Y-8702276D01*
X13796764Y-8701926D01*
X13789579Y-8694194D01*
X13778415Y-8682179D01*
X13778414Y-8682179D01*
X13778122Y-8681865D01*
X13777791Y-8681593D01*
X13777791Y-8681593D01*
X13757262Y-8664791D01*
X13756930Y-8664519D01*
X13733580Y-8650210D01*
X13733187Y-8650037D01*
X13708897Y-8639375D01*
X13708897Y-8639375D01*
X13708504Y-8639203D01*
X13682167Y-8631700D01*
X13681742Y-8631640D01*
X13681742Y-8631640D01*
X13661693Y-8628786D01*
X13655054Y-8627841D01*
X13640669Y-8627766D01*
X13628098Y-8627700D01*
X13628097Y-8627700D01*
X13627669Y-8627698D01*
X13627245Y-8627754D01*
X13627244Y-8627754D01*
X13615340Y-8629321D01*
X13600518Y-8631273D01*
X13600104Y-8631386D01*
X13600104Y-8631386D01*
X13592811Y-8633381D01*
X13574103Y-8638499D01*
X13573708Y-8638667D01*
X13549308Y-8649075D01*
X13549308Y-8649075D01*
X13548913Y-8649243D01*
X13546922Y-8650435D01*
X13525782Y-8663086D01*
X13525782Y-8663087D01*
X13525414Y-8663307D01*
X13504042Y-8680429D01*
X13497724Y-8687087D01*
X13490980Y-8694194D01*
X13485191Y-8700294D01*
X13469210Y-8722534D01*
X13456396Y-8746736D01*
X13456248Y-8747138D01*
X13456248Y-8747139D01*
X13451997Y-8758756D01*
X13446984Y-8772454D01*
X13441150Y-8799211D01*
X13439002Y-8826512D01*
X13391464Y-8826512D01*
X13391393Y-8824774D01*
X13392931Y-8799349D01*
X13393114Y-8797839D01*
X13397766Y-8772454D01*
X13398262Y-8769744D01*
X13398626Y-8768267D01*
X13405336Y-8746736D01*
X13407124Y-8740997D01*
X13407663Y-8739576D01*
X13419386Y-8713529D01*
X13420093Y-8712182D01*
X13434869Y-8687739D01*
X13435734Y-8686487D01*
X13453348Y-8664003D01*
X13454357Y-8662864D01*
X13474554Y-8642668D01*
X13475693Y-8641659D01*
X13498177Y-8624044D01*
X13499429Y-8623180D01*
X13523872Y-8608403D01*
X13525219Y-8607696D01*
X13529488Y-8605775D01*
X13551265Y-8595973D01*
X13552687Y-8595434D01*
X13579957Y-8586936D01*
X13581434Y-8586573D01*
X13602331Y-8582743D01*
X13609529Y-8581424D01*
X13611039Y-8581241D01*
X13636100Y-8579725D01*
X13638782Y-8579851D01*
X13638795Y-8579851D01*
X13639682Y-8579989D01*
X13640573Y-8579873D01*
X13640573Y-8579873D01*
X13642078Y-8579676D01*
X13642839Y-8579576D01*
X13644472Y-8579470D01*
X15535373Y-8579470D01*
X15537312Y-8579620D01*
G37*
%TD.AperFunction*%
M02*
