%TF.GenerationSoftware,KiCad,Pcbnew,(6.0.7)*%
%TF.CreationDate,2022-08-30T17:46:17+08:00*%
%TF.ProjectId,Covers,436f7665-7273-42e6-9b69-6361645f7063,rev?*%
%TF.SameCoordinates,Original*%
%TF.FileFunction,Legend,Top*%
%TF.FilePolarity,Positive*%
%FSLAX45Y45*%
G04 Gerber Fmt 4.5, Leading zero omitted, Abs format (unit mm)*
G04 Created by KiCad (PCBNEW (6.0.7)) date 2022-08-30 17:46:17*
%MOMM*%
%LPD*%
G01*
G04 APERTURE LIST*
%TA.AperFunction,Profile*%
%ADD10C,0.152399*%
%TD*%
%TA.AperFunction,Profile*%
%ADD11C,0.152400*%
%TD*%
G04 APERTURE END LIST*
D10*
X11040310Y-11028620D02*
X12940310Y-11028620D01*
X15690310Y-8828620D02*
G75*
G03*
X15690310Y-8828620I-150000J0D01*
G01*
D11*
X14277882Y-9993080D02*
G75*
G03*
X14147110Y-10123853I-902J-129870D01*
G01*
D10*
X13090310Y-8828620D02*
G75*
G03*
X13090310Y-8828620I-150000J0D01*
G01*
X10740310Y-10728620D02*
G75*
G03*
X11040310Y-11028620I300000J0D01*
G01*
D11*
X14902270Y-10318627D02*
G75*
G03*
X15032854Y-10187213I-71J130657D01*
G01*
D10*
X11750518Y-9228620D02*
X12230102Y-9228620D01*
X11190310Y-8828620D02*
G75*
G03*
X11190310Y-8828620I-150000J0D01*
G01*
X13240310Y-10678620D02*
X13340310Y-10678620D01*
X15690310Y-10728620D02*
G75*
G03*
X15690310Y-10728620I-150000J0D01*
G01*
X11750518Y-10328620D02*
X12230102Y-10328620D01*
X10740310Y-8828620D02*
X10740310Y-10728620D01*
X13240310Y-8828620D02*
G75*
G03*
X12940310Y-8528620I-300000J0D01*
G01*
D11*
X14147110Y-10123853D02*
X14147110Y-10187848D01*
D10*
X13090310Y-10728620D02*
G75*
G03*
X13090310Y-10728620I-150000J0D01*
G01*
X15540310Y-8528620D02*
X13640310Y-8528620D01*
X11750518Y-9228620D02*
G75*
G03*
X11750518Y-10328620I239792J-550000D01*
G01*
X13340310Y-10728620D02*
G75*
G03*
X13640310Y-11028620I300000J0D01*
G01*
X12230102Y-10328620D02*
G75*
G03*
X12230102Y-9228620I-239792J550000D01*
G01*
X13240310Y-8878620D02*
X13240310Y-8828620D01*
D11*
X15032854Y-10187213D02*
X15032765Y-10124942D01*
D10*
X13240310Y-10728620D02*
X13240310Y-10678620D01*
X12940310Y-8528620D02*
X11040310Y-8528620D01*
X13340310Y-10678620D02*
X13340310Y-10728620D01*
X11040310Y-8528620D02*
G75*
G03*
X10740310Y-8828620I0J-300000D01*
G01*
X13640310Y-8528620D02*
G75*
G03*
X13340310Y-8828620I0J-300000D01*
G01*
X15840310Y-10728620D02*
X15840310Y-8828620D01*
X12940310Y-11028620D02*
G75*
G03*
X13240310Y-10728620I0J300000D01*
G01*
X15540310Y-11028620D02*
G75*
G03*
X15840310Y-10728620I0J300000D01*
G01*
D11*
X14902738Y-9993081D02*
X14277882Y-9993081D01*
D10*
X13790310Y-8828620D02*
G75*
G03*
X13790310Y-8828620I-150000J0D01*
G01*
X13790310Y-10728620D02*
G75*
G03*
X13790310Y-10728620I-150000J0D01*
G01*
X15840310Y-8828620D02*
G75*
G03*
X15540310Y-8528620I-300000J0D01*
G01*
X13240310Y-8878620D02*
X13340310Y-8878620D01*
D11*
X14277882Y-10318620D02*
X14902270Y-10318620D01*
X15032763Y-10124942D02*
G75*
G03*
X14902738Y-9993081I-130483J1372D01*
G01*
X14147110Y-10187848D02*
G75*
G03*
X14277882Y-10318620I129870J-902D01*
G01*
D10*
X13640310Y-11028620D02*
X15540310Y-11028620D01*
X13340310Y-8828620D02*
X13340310Y-8878620D01*
X11190310Y-10728620D02*
G75*
G03*
X11190310Y-10728620I-150000J0D01*
G01*
M02*
