0
SECTION
2
ENTITIES
0
LINE
8
FCrtYd
62
7
10
117.586
20
-84.9216
11
115.586
21
-84.9216
0
LINE
8
FCrtYd
62
7
10
117.586
20
-84.9216
11
117.586
21
-82.9216
0
LINE
8
FCrtYd
62
7
10
115.586
20
-82.9216
11
117.586
21
-82.9216
0
LINE
8
FCrtYd
62
7
10
115.586
20
-82.9216
11
115.586
21
-84.9216
0
LINE
8
FCrtYd
62
7
10
105.0324
20
-81.556
11
121.3324
21
-81.556
0
LINE
8
FCrtYd
62
7
10
121.3324
20
-77.956
11
105.0324
21
-77.956
0
LINE
8
FCrtYd
62
7
10
105.0324
20
-77.956
11
105.0324
21
-81.556
0
LINE
8
FCrtYd
62
7
10
121.3324
20
-81.556
11
121.3324
21
-77.956
0
LINE
8
FFab
62
5
10
106.1974
20
-81.026
11
105.5624
21
-80.391
0
LINE
8
FFab
62
5
10
105.5624
20
-78.486
11
120.8024
21
-78.486
0
LINE
8
FFab
62
5
10
120.8024
20
-78.486
11
120.8024
21
-81.026
0
LINE
8
FFab
62
5
10
105.5624
20
-80.391
11
105.5624
21
-78.486
0
LINE
8
FFab
62
5
10
120.8024
20
-81.026
11
106.1974
21
-81.026
0
LINE
8
FCrtYd
62
7
10
136.8628
20
-80.5264
11
131.4628
21
-80.5264
0
LINE
8
FCrtYd
62
7
10
131.4628
20
-87.9264
11
136.8628
21
-87.9264
0
LINE
8
FCrtYd
62
7
10
136.8628
20
-87.9264
11
136.8628
21
-80.5264
0
LINE
8
FCrtYd
62
7
10
131.4628
20
-80.5264
11
131.4628
21
-87.9264
0
LINE
8
FFab
62
5
10
136.6128
20
-82.2764
11
136.6128
21
-86.1764
0
LINE
8
FFab
62
5
10
131.7128
20
-82.2764
11
136.6128
21
-82.2764
0
LINE
8
FFab
62
5
10
132.6878
20
-86.1764
11
131.7128
21
-85.2014
0
LINE
8
FFab
62
5
10
136.6128
20
-86.1764
11
132.6878
21
-86.1764
0
LINE
8
FFab
62
5
10
131.7128
20
-85.2014
11
131.7128
21
-82.2764
0
LINE
8
FCrtYd
62
7
10
103.1378
20
-82.8458
11
95.3378
21
-82.8458
0
LINE
8
FCrtYd
62
7
10
95.3378
20
-82.8458
11
95.3378
21
-91.2458
0
LINE
8
FCrtYd
62
7
10
103.1378
20
-91.2458
11
103.1378
21
-82.8458
0
LINE
8
FCrtYd
62
7
10
95.3378
20
-91.2458
11
103.1378
21
-91.2458
0
LINE
8
FFab
62
5
10
102.8878
20
-83.3958
11
102.8878
21
-90.6958
0
LINE
8
FFab
62
5
10
95.5878
20
-83.3958
11
97.8378
21
-83.3958
0
LINE
8
FFab
62
5
10
95.5878
20
-90.6958
11
95.5878
21
-83.3958
0
LINE
8
FFab
62
5
10
102.8878
20
-83.3958
11
100.6378
21
-83.3958
0
LINE
8
FFab
62
5
10
102.8878
20
-90.6958
11
100.6378
21
-90.6958
0
LINE
8
FFab
62
5
10
95.5878
20
-90.6958
11
97.8378
21
-90.6958
0
ARC
8
FFab
62
5
10
96.9478
20
-89.3358
30
0
40
2.478678
50
22.5
51
20.21
0
ARC
8
FFab
62
5
10
101.5278
20
-84.7558
30
0
40
2.478678
50
-157.5
51
-155.21
0
LINE
8
FCrtYd
62
7
10
110.9124
20
-91.5576
11
110.9124
21
-93.5576
0
LINE
8
FCrtYd
62
7
10
110.9124
20
-91.5576
11
112.9124
21
-91.5576
0
LINE
8
FCrtYd
62
7
10
112.9124
20
-93.5576
11
112.9124
21
-91.5576
0
LINE
8
FCrtYd
62
7
10
112.9124
20
-93.5576
11
110.9124
21
-93.5576
0
LINE
8
FCrtYd
62
7
10
115.9604
20
-93.5576
11
113.9604
21
-93.5576
0
LINE
8
FCrtYd
62
7
10
113.9604
20
-91.5576
11
113.9604
21
-93.5576
0
LINE
8
FCrtYd
62
7
10
113.9604
20
-91.5576
11
115.9604
21
-91.5576
0
LINE
8
FCrtYd
62
7
10
115.9604
20
-93.5576
11
115.9604
21
-91.5576
0
LINE
8
FCrtYd
62
7
10
95.218
20
-86.15
11
95.218
21
-89.11
0
LINE
8
FCrtYd
62
7
10
93.758
20
-89.11
11
93.758
21
-86.15
0
LINE
8
FCrtYd
62
7
10
93.758
20
-86.15
11
95.218
21
-86.15
0
LINE
8
FCrtYd
62
7
10
95.218
20
-89.11
11
93.758
21
-89.11
0
LINE
8
FFab
62
5
10
94.088
20
-88.43
11
94.088
21
-86.83
0
LINE
8
FFab
62
5
10
94.888
20
-86.83
11
94.888
21
-88.43
0
LINE
8
FFab
62
5
10
94.088
20
-86.83
11
94.888
21
-86.83
0
LINE
8
FFab
62
5
10
94.888
20
-88.43
11
94.088
21
-88.43
0
LINE
8
FCrtYd
62
7
10
108.4392
20
-87.5724
11
109.8992
21
-87.5724
0
LINE
8
FCrtYd
62
7
10
109.8992
20
-87.5724
11
109.8992
21
-90.5324
0
LINE
8
FCrtYd
62
7
10
108.4392
20
-90.5324
11
108.4392
21
-87.5724
0
LINE
8
FCrtYd
62
7
10
109.8992
20
-90.5324
11
108.4392
21
-90.5324
0
LINE
8
FFab
62
5
10
108.7692
20
-89.8524
11
108.7692
21
-88.2524
0
LINE
8
FFab
62
5
10
109.5692
20
-88.2524
11
109.5692
21
-89.8524
0
LINE
8
FFab
62
5
10
108.7692
20
-88.2524
11
109.5692
21
-88.2524
0
LINE
8
FFab
62
5
10
109.5692
20
-89.8524
11
108.7692
21
-89.8524
0
LINE
8
FCrtYd
62
7
10
112.4364
20
-91.5576
11
114.4364
21
-91.5576
0
LINE
8
FCrtYd
62
7
10
114.4364
20
-93.5576
11
114.4364
21
-91.5576
0
LINE
8
FCrtYd
62
7
10
114.4364
20
-93.5576
11
112.4364
21
-93.5576
0
LINE
8
FCrtYd
62
7
10
112.4364
20
-91.5576
11
112.4364
21
-93.5576
0
LINE
8
FCrtYd
62
7
10
132.2192
20
-90.036
11
132.2192
21
-92.336
0
LINE
8
FCrtYd
62
7
10
136.9192
20
-90.036
11
136.9192
21
-92.336
0
LINE
8
FCrtYd
62
7
10
132.2192
20
-90.036
11
136.9192
21
-90.036
0
LINE
8
FCrtYd
62
7
10
136.9192
20
-92.336
11
132.2192
21
-92.336
0
LINE
8
FFab
62
5
10
134.2192
20
-91.186
11
134.2192
21
-91.736
0
LINE
8
FFab
62
5
10
133.1692
20
-90.286
11
135.9692
21
-90.286
0
LINE
8
FFab
62
5
10
133.1692
20
-92.086
11
133.1692
21
-90.286
0
LINE
8
FFab
62
5
10
135.9692
20
-90.286
11
135.9692
21
-92.086
0
LINE
8
FFab
62
5
10
134.8192
20
-91.586
11
134.2192
21
-91.186
0
LINE
8
FFab
62
5
10
133.8192
20
-91.186
11
134.2192
21
-91.186
0
LINE
8
FFab
62
5
10
134.2192
20
-91.186
11
134.8192
21
-90.786
0
LINE
8
FFab
62
5
10
134.8192
20
-90.786
11
134.8192
21
-91.586
0
LINE
8
FFab
62
5
10
134.2192
20
-91.186
11
134.2192
21
-90.636
0
LINE
8
FFab
62
5
10
134.8192
20
-91.186
11
135.3192
21
-91.186
0
LINE
8
FFab
62
5
10
135.9692
20
-92.086
11
133.1692
21
-92.086
0
LINE
8
FCrtYd
62
7
10
118.634
20
-82.9216
11
120.634
21
-82.9216
0
LINE
8
FCrtYd
62
7
10
120.634
20
-84.9216
11
120.634
21
-82.9216
0
LINE
8
FCrtYd
62
7
10
118.634
20
-82.9216
11
118.634
21
-84.9216
0
LINE
8
FCrtYd
62
7
10
120.634
20
-84.9216
11
118.634
21
-84.9216
0
LINE
8
FCrtYd
62
7
10
136.9128
20
-90.0364
11
133.9528
21
-90.0364
0
LINE
8
FCrtYd
62
7
10
133.9528
20
-90.0364
11
133.9528
21
-88.5764
0
LINE
8
FCrtYd
62
7
10
136.9128
20
-88.5764
11
136.9128
21
-90.0364
0
LINE
8
FCrtYd
62
7
10
133.9528
20
-88.5764
11
136.9128
21
-88.5764
0
LINE
8
FFab
62
5
10
136.2328
20
-89.7064
11
134.6328
21
-89.7064
0
LINE
8
FFab
62
5
10
134.6328
20
-88.9064
11
136.2328
21
-88.9064
0
LINE
8
FFab
62
5
10
136.2328
20
-88.9064
11
136.2328
21
-89.7064
0
LINE
8
FFab
62
5
10
134.6328
20
-89.7064
11
134.6328
21
-88.9064
0
LINE
8
FCrtYd
62
7
10
131.9628
20
-88.9888
11
133.8228
21
-88.9888
0
LINE
8
FCrtYd
62
7
10
131.9628
20
-89.9288
11
131.9628
21
-88.9888
0
LINE
8
FCrtYd
62
7
10
133.8228
20
-88.9888
11
133.8228
21
-89.9288
0
LINE
8
FCrtYd
62
7
10
133.8228
20
-89.9288
11
131.9628
21
-89.9288
0
LINE
8
FFab
62
5
10
133.4178
20
-89.7288
11
132.3678
21
-89.7288
0
LINE
8
FFab
62
5
10
133.4178
20
-89.1888
11
133.4178
21
-89.7288
0
LINE
8
FFab
62
5
10
132.3678
20
-89.7288
11
132.3678
21
-89.1888
0
LINE
8
FFab
62
5
10
132.3678
20
-89.1888
11
133.4178
21
-89.1888
0
LINE
8
FCrtYd
62
7
10
133.8228
20
-87.9728
11
133.8228
21
-88.9128
0
LINE
8
FCrtYd
62
7
10
131.9628
20
-87.9728
11
133.8228
21
-87.9728
0
LINE
8
FCrtYd
62
7
10
131.9628
20
-88.9128
11
131.9628
21
-87.9728
0
LINE
8
FCrtYd
62
7
10
133.8228
20
-88.9128
11
131.9628
21
-88.9128
0
LINE
8
FFab
62
5
10
133.4178
20
-88.7128
11
132.3678
21
-88.7128
0
LINE
8
FFab
62
5
10
132.3678
20
-88.1728
11
133.4178
21
-88.1728
0
LINE
8
FFab
62
5
10
132.3678
20
-88.7128
11
132.3678
21
-88.1728
0
LINE
8
FFab
62
5
10
133.4178
20
-88.1728
11
133.4178
21
-88.7128
0
LINE
8
FCrtYd
62
7
10
133.8332
20
-78.5494
11
133.8332
21
-79.4894
0
LINE
8
FCrtYd
62
7
10
133.8332
20
-79.4894
11
131.9732
21
-79.4894
0
LINE
8
FCrtYd
62
7
10
131.9732
20
-78.5494
11
133.8332
21
-78.5494
0
LINE
8
FCrtYd
62
7
10
131.9732
20
-79.4894
11
131.9732
21
-78.5494
0
LINE
8
FFab
62
5
10
132.3782
20
-79.2894
11
132.3782
21
-78.7494
0
LINE
8
FFab
62
5
10
133.4282
20
-79.2894
11
132.3782
21
-79.2894
0
LINE
8
FFab
62
5
10
132.3782
20
-78.7494
11
133.4282
21
-78.7494
0
LINE
8
FFab
62
5
10
133.4282
20
-78.7494
11
133.4282
21
-79.2894
0
LINE
8
FCrtYd
62
7
10
82.7404
20
-79.588
11
83.6804
21
-79.588
0
LINE
8
FCrtYd
62
7
10
82.7404
20
-81.448
11
82.7404
21
-79.588
0
LINE
8
FCrtYd
62
7
10
83.6804
20
-79.588
11
83.6804
21
-81.448
0
LINE
8
FCrtYd
62
7
10
83.6804
20
-81.448
11
82.7404
21
-81.448
0
LINE
8
FFab
62
5
10
82.9404
20
-81.043
11
82.9404
21
-79.993
0
LINE
8
FFab
62
5
10
82.9404
20
-79.993
11
83.4804
21
-79.993
0
LINE
8
FFab
62
5
10
83.4804
20
-81.043
11
82.9404
21
-81.043
0
LINE
8
FFab
62
5
10
83.4804
20
-79.993
11
83.4804
21
-81.043
0
LINE
8
FCrtYd
62
7
10
91.622
20
-86.0714
11
91.622
21
-78.5714
0
LINE
8
FCrtYd
62
7
10
91.622
20
-78.5714
11
95.322
21
-78.5714
0
LINE
8
FCrtYd
62
7
10
95.322
20
-86.0714
11
91.622
21
-86.0714
0
LINE
8
FCrtYd
62
7
10
95.322
20
-78.5714
11
95.322
21
-86.0714
0
LINE
8
FFab
62
5
10
94.272
20
-79.3214
11
91.872
21
-79.3214
0
LINE
8
FFab
62
5
10
95.072
20
-80.1214
11
94.272
21
-79.3214
0
LINE
8
FFab
62
5
10
91.872
20
-85.3214
11
95.072
21
-85.3214
0
LINE
8
FFab
62
5
10
95.072
20
-85.3214
11
95.072
21
-80.1214
0
LINE
8
FFab
62
5
10
91.872
20
-79.3214
11
91.872
21
-85.3214
0
LINE
8
FCrtYd
62
7
10
131.9732
20
-80.48
11
131.9732
21
-79.54
0
LINE
8
FCrtYd
62
7
10
133.8332
20
-79.54
11
133.8332
21
-80.48
0
LINE
8
FCrtYd
62
7
10
133.8332
20
-80.48
11
131.9732
21
-80.48
0
LINE
8
FCrtYd
62
7
10
131.9732
20
-79.54
11
133.8332
21
-79.54
0
LINE
8
FFab
62
5
10
132.3782
20
-79.74
11
133.4282
21
-79.74
0
LINE
8
FFab
62
5
10
133.4282
20
-80.28
11
132.3782
21
-80.28
0
LINE
8
FFab
62
5
10
132.3782
20
-80.28
11
132.3782
21
-79.74
0
LINE
8
FFab
62
5
10
133.4282
20
-79.74
11
133.4282
21
-80.28
0
LINE
8
FCrtYd
62
7
10
133.9528
20
-92.3356
11
136.9128
21
-92.3356
0
LINE
8
FCrtYd
62
7
10
136.9128
20
-92.3356
11
136.9128
21
-93.7956
0
LINE
8
FCrtYd
62
7
10
136.9128
20
-93.7956
11
133.9528
21
-93.7956
0
LINE
8
FCrtYd
62
7
10
133.9528
20
-93.7956
11
133.9528
21
-92.3356
0
LINE
8
FFab
62
5
10
134.6328
20
-93.4656
11
134.6328
21
-92.6656
0
LINE
8
FFab
62
5
10
134.6328
20
-92.6656
11
136.2328
21
-92.6656
0
LINE
8
FFab
62
5
10
136.2328
20
-93.4656
11
134.6328
21
-93.4656
0
LINE
8
FFab
62
5
10
136.2328
20
-92.6656
11
136.2328
21
-93.4656
0
LINE
8
0
10
81.1678
20
-83.2616
11
81.1678
21
-92.2016
0
LINE
8
FCrtYd
62
7
10
89.0978
20
-82.4616
11
80.1678
21
-82.4616
0
LINE
8
FCrtYd
62
7
10
80.1678
20
-82.4616
11
80.1678
21
-93.0016
0
LINE
8
FCrtYd
62
7
10
80.1678
20
-93.0016
11
89.0978
21
-93.0016
0
LINE
8
FCrtYd
62
7
10
89.0978
20
-93.0016
11
89.0978
21
-82.4616
0
LINE
8
FFab
62
5
10
87.9878
20
-83.2616
11
87.9878
21
-92.2016
0
LINE
8
FFab
62
5
10
87.9878
20
-83.2616
11
80.6678
21
-83.2616
0
LINE
8
FFab
62
5
10
80.6678
20
-92.2016
11
80.6678
21
-83.2616
0
LINE
8
FFab
62
5
10
87.9878
20
-92.2016
11
80.6678
21
-92.2016
0
LINE
8
FCrtYd
62
7
10
154.8548
20
-97.3302
11
154.8548
21
-77.3202
0
LINE
8
FCrtYd
62
7
10
144.0548
20
-97.3302
11
154.8548
21
-97.3302
0
LINE
8
FCrtYd
62
7
10
144.0548
20
-77.3202
11
144.0548
21
-97.3302
0
LINE
8
FCrtYd
62
7
10
154.8548
20
-77.3202
11
144.0548
21
-77.3202
0
LINE
8
FFab
62
5
10
145.1548
20
-77.8202
11
145.1548
21
-96.7202
0
LINE
8
FFab
62
5
10
154.3548
20
-96.7202
11
154.3548
21
-77.8202
0
LINE
8
FFab
62
5
10
145.1548
20
-93.4702
11
146.3548
21
-94.2702
0
LINE
8
FFab
62
5
10
145.1548
20
-96.7202
11
154.3548
21
-96.7202
0
LINE
8
FFab
62
5
10
146.3548
20
-94.2702
11
145.1548
21
-95.0702
0
LINE
8
FFab
62
5
10
154.3548
20
-77.8202
11
145.1548
21
-77.8202
0
LINE
8
FCrtYd
62
7
10
133.8736
20
-93.5356
11
132.0136
21
-93.5356
0
LINE
8
FCrtYd
62
7
10
133.8736
20
-92.5956
11
133.8736
21
-93.5356
0
LINE
8
FCrtYd
62
7
10
132.0136
20
-93.5356
11
132.0136
21
-92.5956
0
LINE
8
FCrtYd
62
7
10
132.0136
20
-92.5956
11
133.8736
21
-92.5956
0
LINE
8
FFab
62
5
10
132.4186
20
-93.3356
11
132.4186
21
-92.7956
0
LINE
8
FFab
62
5
10
132.4186
20
-92.7956
11
133.4686
21
-92.7956
0
LINE
8
FFab
62
5
10
133.4686
20
-92.7956
11
133.4686
21
-93.3356
0
LINE
8
FFab
62
5
10
133.4686
20
-93.3356
11
132.4186
21
-93.3356
0
LINE
8
FCrtYd
62
7
10
144.0652
20
-92.3244
11
141.9652
21
-92.3244
0
LINE
8
FCrtYd
62
7
10
139.3652
20
-90.5244
11
139.3652
21
-92.3244
0
LINE
8
FCrtYd
62
7
10
139.3652
20
-84.0244
11
141.9652
21
-84.0244
0
LINE
8
FCrtYd
62
7
10
139.3652
20
-92.3244
11
137.2652
21
-92.3244
0
LINE
8
FCrtYd
62
7
10
139.3652
20
-82.2244
11
139.3652
21
-84.0244
0
LINE
8
FCrtYd
62
7
10
141.9652
20
-92.3244
11
141.9652
21
-90.5244
0
LINE
8
FCrtYd
62
7
10
141.9652
20
-90.5244
11
139.3652
21
-90.5244
0
LINE
8
FCrtYd
62
7
10
144.0652
20
-82.2244
11
144.0652
21
-92.3244
0
LINE
8
FCrtYd
62
7
10
137.2652
20
-92.3244
11
137.2652
21
-82.2244
0
LINE
8
FCrtYd
62
7
10
137.2652
20
-82.2244
11
139.3652
21
-82.2244
0
LINE
8
FCrtYd
62
7
10
141.9652
20
-84.0244
11
141.9652
21
-82.2244
0
LINE
8
FCrtYd
62
7
10
141.9652
20
-82.2244
11
144.0652
21
-82.2244
0
LINE
8
FFab
62
5
10
137.5152
20
-84.2744
11
143.8152
21
-84.2744
0
LINE
8
FFab
62
5
10
137.5152
20
-90.2744
11
137.5152
21
-84.2744
0
LINE
8
FFab
62
5
10
143.8152
20
-90.2744
11
137.5152
21
-90.2744
0
LINE
8
FFab
62
5
10
143.8152
20
-84.2744
11
143.8152
21
-90.2744
0
CIRCLE
8
FFab
62
5
10
140.6652
20
-87.2744
40
1.5
0
LINE
8
FCrtYd
62
7
10
127.546
20
-87.796
11
127.546
21
-85.936
0
LINE
8
FCrtYd
62
7
10
127.546
20
-85.936
11
128.486
21
-85.936
0
LINE
8
FCrtYd
62
7
10
128.486
20
-85.936
11
128.486
21
-87.796
0
LINE
8
FCrtYd
62
7
10
128.486
20
-87.796
11
127.546
21
-87.796
0
LINE
8
FFab
62
5
10
127.746
20
-87.391
11
127.746
21
-86.341
0
LINE
8
FFab
62
5
10
128.286
20
-86.341
11
128.286
21
-87.391
0
LINE
8
FFab
62
5
10
128.286
20
-87.391
11
127.746
21
-87.391
0
LINE
8
FFab
62
5
10
127.746
20
-86.341
11
128.286
21
-86.341
0
LINE
8
FCrtYd
62
7
10
81.6736
20
-81.448
11
81.6736
21
-79.588
0
LINE
8
FCrtYd
62
7
10
82.6136
20
-81.448
11
81.6736
21
-81.448
0
LINE
8
FCrtYd
62
7
10
82.6136
20
-79.588
11
82.6136
21
-81.448
0
LINE
8
FCrtYd
62
7
10
81.6736
20
-79.588
11
82.6136
21
-79.588
0
LINE
8
FFab
62
5
10
82.3936
20
-81.018
11
81.8936
21
-81.018
0
LINE
8
FFab
62
5
10
81.8936
20
-81.018
11
81.8936
21
-80.018
0
LINE
8
FFab
62
5
10
81.8936
20
-80.018
11
82.3936
21
-80.018
0
LINE
8
FFab
62
5
10
82.3936
20
-80.918
11
81.8936
21
-80.918
0
LINE
8
FFab
62
5
10
82.3936
20
-80.018
11
82.3936
21
-81.018
0
LINE
8
FFab
62
5
10
82.3936
20
-80.818
11
81.8936
21
-80.818
0
LINE
8
FCrtYd
62
7
10
103.1758
20
-87.7432
11
103.1758
21
-82.8432
0
LINE
8
FCrtYd
62
7
10
103.1758
20
-82.8432
11
106.4758
21
-82.8432
0
LINE
8
FCrtYd
62
7
10
106.4758
20
-87.7432
11
103.1758
21
-87.7432
0
LINE
8
FCrtYd
62
7
10
106.4758
20
-82.8432
11
106.4758
21
-87.7432
0
LINE
8
FFab
62
5
10
106.2258
20
-87.0432
11
106.2258
21
-84.2432
0
LINE
8
FFab
62
5
10
103.4258
20
-83.5432
11
103.4258
21
-87.0432
0
LINE
8
FFab
62
5
10
105.5258
20
-83.5432
11
103.4258
21
-83.5432
0
LINE
8
FFab
62
5
10
106.2258
20
-84.2432
11
105.5258
21
-83.5432
0
LINE
8
FFab
62
5
10
103.4258
20
-87.0432
11
106.2258
21
-87.0432
0
LINE
8
FCrtYd
62
7
10
117.11
20
-82.9216
11
119.11
21
-82.9216
0
LINE
8
FCrtYd
62
7
10
117.11
20
-82.9216
11
117.11
21
-84.9216
0
LINE
8
FCrtYd
62
7
10
119.11
20
-84.9216
11
117.11
21
-84.9216
0
LINE
8
FCrtYd
62
7
10
119.11
20
-84.9216
11
119.11
21
-82.9216
0
LINE
8
FCrtYd
62
7
10
127.546
20
-84.033
11
128.486
21
-84.033
0
LINE
8
FCrtYd
62
7
10
128.486
20
-84.033
11
128.486
21
-85.893
0
LINE
8
FCrtYd
62
7
10
128.486
20
-85.893
11
127.546
21
-85.893
0
LINE
8
FCrtYd
62
7
10
127.546
20
-85.893
11
127.546
21
-84.033
0
LINE
8
FFab
62
5
10
128.286
20
-85.488
11
127.746
21
-85.488
0
LINE
8
FFab
62
5
10
127.746
20
-85.488
11
127.746
21
-84.438
0
LINE
8
FFab
62
5
10
127.746
20
-84.438
11
128.286
21
-84.438
0
LINE
8
FFab
62
5
10
128.286
20
-84.438
11
128.286
21
-85.488
0
LINE
8
FCrtYd
62
7
10
136.849
20
-78.772
11
136.849
21
-80.232
0
LINE
8
FCrtYd
62
7
10
133.889
20
-78.772
11
136.849
21
-78.772
0
LINE
8
FCrtYd
62
7
10
133.889
20
-80.232
11
133.889
21
-78.772
0
LINE
8
FCrtYd
62
7
10
136.849
20
-80.232
11
133.889
21
-80.232
0
LINE
8
FFab
62
5
10
134.569
20
-79.102
11
136.169
21
-79.102
0
LINE
8
FFab
62
5
10
136.169
20
-79.902
11
134.569
21
-79.902
0
LINE
8
FFab
62
5
10
136.169
20
-79.102
11
136.169
21
-79.902
0
LINE
8
FFab
62
5
10
134.569
20
-79.902
11
134.569
21
-79.102
0
LINE
8
FCrtYd
62
7
10
93.7058
20
-91.3156
11
100.7058
21
-91.3156
0
LINE
8
FCrtYd
62
7
10
100.7058
20
-94.8156
11
93.7058
21
-94.8156
0
LINE
8
FCrtYd
62
7
10
100.7058
20
-91.3156
11
100.7058
21
-94.8156
0
LINE
8
FCrtYd
62
7
10
93.7058
20
-94.8156
11
93.7058
21
-91.3156
0
LINE
8
FFab
62
5
10
99.5058
20
-91.5656
11
99.5058
21
-94.5656
0
LINE
8
FFab
62
5
10
96.55636
20
-93.06662
11
97.70698
21
-93.81592
0
LINE
8
FFab
62
5
10
99.5058
20
-94.5656
11
94.9058
21
-94.5656
0
LINE
8
FFab
62
5
10
99.5058
20
-91.5656
11
94.9058
21
-91.5656
0
LINE
8
FFab
62
5
10
96.55636
20
-92.26652
11
96.55636
21
-93.86672
0
LINE
8
FFab
62
5
10
97.70698
20
-93.81592
11
97.70698
21
-92.26652
0
LINE
8
FFab
62
5
10
96.55636
20
-93.06662
11
95.65466
21
-93.06662
0
LINE
8
FFab
62
5
10
94.9058
20
-94.5656
11
94.9058
21
-91.5656
0
LINE
8
FFab
62
5
10
96.55636
20
-93.06662
11
97.70698
21
-92.26652
0
LINE
8
FFab
62
5
10
97.70698
20
-93.06662
11
98.7052
21
-93.06662
0
LINE
8
FCrtYd
62
7
10
105.0324
20
-93.0944
11
105.0324
21
-96.6944
0
LINE
8
FCrtYd
62
7
10
121.3324
20
-93.0944
11
105.0324
21
-93.0944
0
LINE
8
FCrtYd
62
7
10
105.0324
20
-96.6944
11
121.3324
21
-96.6944
0
LINE
8
FCrtYd
62
7
10
121.3324
20
-96.6944
11
121.3324
21
-93.0944
0
LINE
8
FFab
62
5
10
105.5624
20
-95.5294
11
105.5624
21
-93.6244
0
LINE
8
FFab
62
5
10
106.1974
20
-96.1644
11
105.5624
21
-95.5294
0
LINE
8
FFab
62
5
10
120.8024
20
-96.1644
11
106.1974
21
-96.1644
0
LINE
8
FFab
62
5
10
105.5624
20
-93.6244
11
120.8024
21
-93.6244
0
LINE
8
FFab
62
5
10
120.8024
20
-93.6244
11
120.8024
21
-96.1644
0
LINE
8
FCrtYd
62
7
10
100.2378
20
-82.8388
11
98.2378
21
-82.8388
0
LINE
8
FCrtYd
62
7
10
98.2378
20
-80.8388
11
100.2378
21
-80.8388
0
LINE
8
FCrtYd
62
7
10
100.2378
20
-82.8388
11
100.2378
21
-80.8388
0
LINE
8
FCrtYd
62
7
10
98.2378
20
-80.8388
11
98.2378
21
-82.8388
0
LINE
8
FCrtYd
62
7
10
122.698
20
-79.1878
11
124.698
21
-79.1878
0
LINE
8
FCrtYd
62
7
10
122.698
20
-79.1878
11
122.698
21
-81.1878
0
LINE
8
FCrtYd
62
7
10
124.698
20
-81.1878
11
122.698
21
-81.1878
0
LINE
8
FCrtYd
62
7
10
124.698
20
-81.1878
11
124.698
21
-79.1878
0
LINE
8
BCrtYd
62
8
10
121.3484
20
-94.066
11
121.3484
21
-95.926
0
LINE
8
BCrtYd
62
8
10
122.2884
20
-94.066
11
121.3484
21
-94.066
0
LINE
8
BCrtYd
62
8
10
122.2884
20
-95.926
11
122.2884
21
-94.066
0
LINE
8
BCrtYd
62
8
10
121.3484
20
-95.926
11
122.2884
21
-95.926
0
LINE
8
BFab
62
6
10
121.5484
20
-95.521
11
122.0884
21
-95.521
0
LINE
8
BFab
62
6
10
121.5484
20
-94.471
11
121.5484
21
-95.521
0
LINE
8
BFab
62
6
10
122.0884
20
-95.521
11
122.0884
21
-94.471
0
LINE
8
BFab
62
6
10
122.0884
20
-94.471
11
121.5484
21
-94.471
0
LINE
8
BCrtYd
62
8
10
86.3412
20
-86.9764
11
87.8012
21
-86.9764
0
LINE
8
BCrtYd
62
8
10
87.8012
20
-86.9764
11
87.8012
21
-84.0164
0
LINE
8
BCrtYd
62
8
10
86.3412
20
-84.0164
11
86.3412
21
-86.9764
0
LINE
8
BCrtYd
62
8
10
87.8012
20
-84.0164
11
86.3412
21
-84.0164
0
LINE
8
BFab
62
6
10
87.4712
20
-86.2964
11
87.4712
21
-84.6964
0
LINE
8
BFab
62
6
10
87.4712
20
-84.6964
11
86.6712
21
-84.6964
0
LINE
8
BFab
62
6
10
86.6712
20
-86.2964
11
87.4712
21
-86.2964
0
LINE
8
BFab
62
6
10
86.6712
20
-84.6964
11
86.6712
21
-86.2964
0
LINE
8
BCrtYd
62
8
10
91.656
20
-94.341434
11
91.656
21
-92.481434
0
LINE
8
BCrtYd
62
8
10
90.716
20
-94.341434
11
91.656
21
-94.341434
0
LINE
8
BCrtYd
62
8
10
91.656
20
-92.481434
11
90.716
21
-92.481434
0
LINE
8
BCrtYd
62
8
10
90.716
20
-92.481434
11
90.716
21
-94.341434
0
LINE
8
BFab
62
6
10
91.456
20
-92.886434
11
90.916
21
-92.886434
0
LINE
8
BFab
62
6
10
90.916
20
-92.886434
11
90.916
21
-93.936434
0
LINE
8
BFab
62
6
10
91.456
20
-93.936434
11
91.456
21
-92.886434
0
LINE
8
BFab
62
6
10
90.916
20
-93.936434
11
91.456
21
-93.936434
0
LINE
8
BCrtYd
62
8
10
93.1628
20
-92.396234
11
93.1628
21
-91.476234
0
LINE
8
BCrtYd
62
8
10
93.1628
20
-91.476234
11
91.3428
21
-91.476234
0
LINE
8
BCrtYd
62
8
10
91.3428
20
-92.396234
11
93.1628
21
-92.396234
0
LINE
8
BCrtYd
62
8
10
91.3428
20
-91.476234
11
91.3428
21
-92.396234
0
LINE
8
BFab
62
6
10
91.7528
20
-91.686234
11
91.7528
21
-92.186234
0
LINE
8
BFab
62
6
10
92.7528
20
-92.186234
11
92.7528
21
-91.686234
0
LINE
8
BFab
62
6
10
92.7528
20
-91.686234
11
91.7528
21
-91.686234
0
LINE
8
BFab
62
6
10
91.7528
20
-92.186234
11
92.7528
21
-92.186234
0
LINE
8
BCrtYd
62
8
10
93.7132
20
-94.367434
11
94.6532
21
-94.367434
0
LINE
8
BCrtYd
62
8
10
94.6532
20
-92.507434
11
93.7132
21
-92.507434
0
LINE
8
BCrtYd
62
8
10
93.7132
20
-92.507434
11
93.7132
21
-94.367434
0
LINE
8
BCrtYd
62
8
10
94.6532
20
-94.367434
11
94.6532
21
-92.507434
0
LINE
8
BFab
62
6
10
93.9132
20
-92.912434
11
93.9132
21
-93.962434
0
LINE
8
BFab
62
6
10
94.4532
20
-92.912434
11
93.9132
21
-92.912434
0
LINE
8
BFab
62
6
10
94.4532
20
-93.962434
11
94.4532
21
-92.912434
0
LINE
8
BFab
62
6
10
93.9132
20
-93.962434
11
94.4532
21
-93.962434
0
LINE
8
BCrtYd
62
8
10
83.9568
20
-84.112
11
83.9568
21
-85.052
0
LINE
8
BCrtYd
62
8
10
85.8168
20
-85.052
11
85.8168
21
-84.112
0
LINE
8
BCrtYd
62
8
10
85.8168
20
-84.112
11
83.9568
21
-84.112
0
LINE
8
BCrtYd
62
8
10
83.9568
20
-85.052
11
85.8168
21
-85.052
0
LINE
8
BFab
62
6
10
84.3618
20
-84.312
11
84.3618
21
-84.852
0
LINE
8
BFab
62
6
10
85.4118
20
-84.312
11
84.3618
21
-84.312
0
LINE
8
BFab
62
6
10
84.3618
20
-84.852
11
85.4118
21
-84.852
0
LINE
8
BFab
62
6
10
85.4118
20
-84.852
11
85.4118
21
-84.312
0
LINE
8
BCrtYd
62
8
10
83.9372
20
-84.112
11
82.0772
21
-84.112
0
LINE
8
BCrtYd
62
8
10
82.0772
20
-85.052
11
83.9372
21
-85.052
0
LINE
8
BCrtYd
62
8
10
83.9372
20
-85.052
11
83.9372
21
-84.112
0
LINE
8
BCrtYd
62
8
10
82.0772
20
-84.112
11
82.0772
21
-85.052
0
LINE
8
BFab
62
6
10
82.4822
20
-84.312
11
82.4822
21
-84.852
0
LINE
8
BFab
62
6
10
82.4822
20
-84.852
11
83.5322
21
-84.852
0
LINE
8
BFab
62
6
10
83.5322
20
-84.852
11
83.5322
21
-84.312
0
LINE
8
BFab
62
6
10
83.5322
20
-84.312
11
82.4822
21
-84.312
0
LINE
8
BCrtYd
62
8
10
86.5758
20
-88.1986
11
86.5758
21
-90.0586
0
LINE
8
BCrtYd
62
8
10
87.5158
20
-90.0586
11
87.5158
21
-88.1986
0
LINE
8
BCrtYd
62
8
10
87.5158
20
-88.1986
11
86.5758
21
-88.1986
0
LINE
8
BCrtYd
62
8
10
86.5758
20
-90.0586
11
87.5158
21
-90.0586
0
LINE
8
BFab
62
6
10
86.7758
20
-89.6536
11
87.3158
21
-89.6536
0
LINE
8
BFab
62
6
10
87.3158
20
-88.6036
11
86.7758
21
-88.6036
0
LINE
8
BFab
62
6
10
86.7758
20
-88.6036
11
86.7758
21
-89.6536
0
LINE
8
BFab
62
6
10
87.3158
20
-89.6536
11
87.3158
21
-88.6036
0
LINE
8
BCrtYd
62
8
10
110.0568
20
-93.5396
11
110.0568
21
-82.9396
0
LINE
8
BCrtYd
62
8
10
110.0568
20
-82.9396
11
120.6568
21
-82.9396
0
LINE
8
BCrtYd
62
8
10
110.0568
20
-93.5396
11
120.6568
21
-93.5396
0
LINE
8
BCrtYd
62
8
10
120.6568
20
-93.5396
11
120.6568
21
-82.9396
0
LINE
8
BFab
62
6
10
111.8568
20
-90.7396
11
112.8568
21
-91.7396
0
LINE
8
BFab
62
6
10
111.8568
20
-84.7396
11
111.8568
21
-90.7396
0
LINE
8
BFab
62
6
10
118.8568
20
-91.7396
11
118.8568
21
-84.7396
0
LINE
8
BFab
62
6
10
112.8568
20
-91.7396
11
118.8568
21
-91.7396
0
LINE
8
BFab
62
6
10
118.8568
20
-84.7396
11
111.8568
21
-84.7396
0
LINE
8
BCrtYd
62
8
10
90.5528
20
-82.8442
11
93.9528
21
-82.8442
0
LINE
8
BCrtYd
62
8
10
93.9528
20
-82.8442
11
93.9528
21
-80.8842
0
LINE
8
BCrtYd
62
8
10
93.9528
20
-80.8842
11
90.5528
21
-80.8842
0
LINE
8
BCrtYd
62
8
10
90.5528
20
-80.8842
11
90.5528
21
-82.8442
0
LINE
8
BFab
62
6
10
93.2528
20
-81.2392
11
91.2528
21
-81.2392
0
LINE
8
BFab
62
6
10
91.2528
20
-82.4892
11
93.2528
21
-82.4892
0
LINE
8
BFab
62
6
10
91.2528
20
-81.2392
11
91.2528
21
-82.4892
0
LINE
8
BFab
62
6
10
93.2528
20
-82.4892
11
93.2528
21
-81.2392
0
LINE
8
BCrtYd
62
8
10
93.6272
20
-92.499434
11
92.7072
21
-92.499434
0
LINE
8
BCrtYd
62
8
10
93.6272
20
-94.319434
11
93.6272
21
-92.499434
0
LINE
8
BCrtYd
62
8
10
92.7072
20
-92.499434
11
92.7072
21
-94.319434
0
LINE
8
BCrtYd
62
8
10
92.7072
20
-94.319434
11
93.6272
21
-94.319434
0
LINE
8
BFab
62
6
10
93.4172
20
-92.909434
11
92.9172
21
-92.909434
0
LINE
8
BFab
62
6
10
93.4172
20
-93.909434
11
93.4172
21
-92.909434
0
LINE
8
BFab
62
6
10
92.9172
20
-93.909434
11
93.4172
21
-93.909434
0
LINE
8
BFab
62
6
10
92.9172
20
-92.909434
11
92.9172
21
-93.909434
0
LINE
8
BCrtYd
62
8
10
92.6212
20
-94.339434
11
92.6212
21
-92.479434
0
LINE
8
BCrtYd
62
8
10
91.6812
20
-94.339434
11
92.6212
21
-94.339434
0
LINE
8
BCrtYd
62
8
10
91.6812
20
-92.479434
11
91.6812
21
-94.339434
0
LINE
8
BCrtYd
62
8
10
92.6212
20
-92.479434
11
91.6812
21
-92.479434
0
LINE
8
BFab
62
6
10
91.8812
20
-92.884434
11
91.8812
21
-93.934434
0
LINE
8
BFab
62
6
10
92.4212
20
-92.884434
11
91.8812
21
-92.884434
0
LINE
8
BFab
62
6
10
91.8812
20
-93.934434
11
92.4212
21
-93.934434
0
LINE
8
BFab
62
6
10
92.4212
20
-93.934434
11
92.4212
21
-92.884434
0
LINE
8
BCrtYd
62
8
10
84.9684
20
-96.2904
11
84.9684
21
-92.9904
0
LINE
8
BCrtYd
62
8
10
82.4684
20
-92.9904
11
82.4684
21
-96.2904
0
LINE
8
BCrtYd
62
8
10
82.4684
20
-92.9904
11
84.9684
21
-92.9904
0
LINE
8
BCrtYd
62
8
10
84.9684
20
-96.2904
11
82.4684
21
-96.2904
0
LINE
8
BCrtYd
62
8
10
123.0696
20
-84.6514
11
123.0696
21
-87.6114
0
LINE
8
BCrtYd
62
8
10
124.5296
20
-84.6514
11
123.0696
21
-84.6514
0
LINE
8
BCrtYd
62
8
10
124.5296
20
-87.6114
11
124.5296
21
-84.6514
0
LINE
8
BCrtYd
62
8
10
123.0696
20
-87.6114
11
124.5296
21
-87.6114
0
LINE
8
BFab
62
6
10
124.1996
20
-86.9314
11
124.1996
21
-85.3314
0
LINE
8
BFab
62
6
10
123.3996
20
-85.3314
11
123.3996
21
-86.9314
0
LINE
8
BFab
62
6
10
124.1996
20
-85.3314
11
123.3996
21
-85.3314
0
LINE
8
BFab
62
6
10
123.3996
20
-86.9314
11
124.1996
21
-86.9314
0
LINE
8
BCrtYd
62
8
10
123.2536
20
-95.926
11
123.2536
21
-94.066
0
LINE
8
BCrtYd
62
8
10
122.3136
20
-94.066
11
122.3136
21
-95.926
0
LINE
8
BCrtYd
62
8
10
122.3136
20
-95.926
11
123.2536
21
-95.926
0
LINE
8
BCrtYd
62
8
10
123.2536
20
-94.066
11
122.3136
21
-94.066
0
LINE
8
BFab
62
6
10
122.5136
20
-94.471
11
122.5136
21
-95.521
0
LINE
8
BFab
62
6
10
123.0536
20
-94.471
11
122.5136
21
-94.471
0
LINE
8
BFab
62
6
10
122.5136
20
-95.521
11
123.0536
21
-95.521
0
LINE
8
BFab
62
6
10
123.0536
20
-95.521
11
123.0536
21
-94.471
0
LINE
8
BCrtYd
62
8
10
87.5664
20
-84.4648
11
87.5664
21
-86.3248
0
LINE
8
BCrtYd
62
8
10
88.5064
20
-84.4648
11
87.5664
21
-84.4648
0
LINE
8
BCrtYd
62
8
10
88.5064
20
-86.3248
11
88.5064
21
-84.4648
0
LINE
8
BCrtYd
62
8
10
87.5664
20
-86.3248
11
88.5064
21
-86.3248
0
LINE
8
BFab
62
6
10
88.3064
20
-85.9198
11
88.3064
21
-84.8698
0
LINE
8
BFab
62
6
10
88.3064
20
-84.8698
11
87.7664
21
-84.8698
0
LINE
8
BFab
62
6
10
87.7664
20
-84.8698
11
87.7664
21
-85.9198
0
LINE
8
BFab
62
6
10
87.7664
20
-85.9198
11
88.3064
21
-85.9198
0
LINE
8
BCrtYd
62
8
10
123.2832
20
-93.8452
11
123.2832
21
-96.0452
0
LINE
8
BCrtYd
62
8
10
128.5832
20
-93.8452
11
123.2832
21
-93.8452
0
LINE
8
BCrtYd
62
8
10
123.2832
20
-96.0452
11
128.5832
21
-96.0452
0
LINE
8
BCrtYd
62
8
10
128.5832
20
-96.0452
11
128.5832
21
-93.8452
0
LINE
8
BFab
62
6
10
127.5832
20
-95.7452
11
127.5832
21
-94.1452
0
LINE
8
BFab
62
6
10
126.1832
20
-94.5452
11
125.5832
21
-94.9452
0
LINE
8
BFab
62
6
10
126.1832
20
-94.9452
11
126.6832
21
-94.9452
0
LINE
8
BFab
62
6
10
125.5832
20
-94.9452
11
126.1832
21
-95.3452
0
LINE
8
BFab
62
6
10
124.2832
20
-94.1452
11
124.2832
21
-95.7452
0
LINE
8
BFab
62
6
10
125.5832
20
-94.9452
11
125.5832
21
-94.3952
0
LINE
8
BFab
62
6
10
125.1832
20
-94.9452
11
125.5832
21
-94.9452
0
LINE
8
BFab
62
6
10
125.5832
20
-94.9452
11
125.5832
21
-95.4952
0
LINE
8
BFab
62
6
10
126.1832
20
-95.3452
11
126.1832
21
-94.5452
0
LINE
8
BFab
62
6
10
124.2832
20
-95.7452
11
127.5832
21
-95.7452
0
LINE
8
BFab
62
6
10
127.5832
20
-94.1452
11
124.2832
21
-94.1452
0
LINE
8
BCrtYd
62
8
10
95.2576
20
-91.419834
11
89.8576
21
-91.419834
0
LINE
8
BCrtYd
62
8
10
95.2576
20
-84.019834
11
95.2576
21
-91.419834
0
LINE
8
BCrtYd
62
8
10
89.8576
20
-84.019834
11
95.2576
21
-84.019834
0
LINE
8
BCrtYd
62
8
10
89.8576
20
-91.419834
11
89.8576
21
-84.019834
0
LINE
8
BFab
62
6
10
90.1076
20
-85.769834
11
90.1076
21
-89.669834
0
LINE
8
BFab
62
6
10
90.1076
20
-89.669834
11
94.0326
21
-89.669834
0
LINE
8
BFab
62
6
10
94.0326
20
-89.669834
11
95.0076
21
-88.694834
0
LINE
8
BFab
62
6
10
95.0076
20
-85.769834
11
90.1076
21
-85.769834
0
LINE
8
BFab
62
6
10
95.0076
20
-88.694834
11
95.0076
21
-85.769834
0
LINE
8
BCrtYd
62
8
10
90.3068
20
-82.881034
11
90.3068
21
-83.821034
0
LINE
8
BCrtYd
62
8
10
92.1668
20
-82.881034
11
90.3068
21
-82.881034
0
LINE
8
BCrtYd
62
8
10
92.1668
20
-83.821034
11
92.1668
21
-82.881034
0
LINE
8
BCrtYd
62
8
10
90.3068
20
-83.821034
11
92.1668
21
-83.821034
0
LINE
8
BFab
62
6
10
91.7618
20
-83.621034
11
91.7618
21
-83.081034
0
LINE
8
BFab
62
6
10
91.7618
20
-83.081034
11
90.7118
21
-83.081034
0
LINE
8
BFab
62
6
10
90.7118
20
-83.621034
11
91.7618
21
-83.621034
0
LINE
8
BFab
62
6
10
90.7118
20
-83.081034
11
90.7118
21
-83.621034
0
LINE
8
BCrtYd
62
8
10
90.64
20
-92.479434
11
89.7
21
-92.479434
0
LINE
8
BCrtYd
62
8
10
89.7
20
-92.479434
11
89.7
21
-94.339434
0
LINE
8
BCrtYd
62
8
10
89.7
20
-94.339434
11
90.64
21
-94.339434
0
LINE
8
BCrtYd
62
8
10
90.64
20
-94.339434
11
90.64
21
-92.479434
0
LINE
8
BFab
62
6
10
90.44
20
-93.934434
11
90.44
21
-92.884434
0
LINE
8
BFab
62
6
10
89.9
20
-93.934434
11
90.44
21
-93.934434
0
LINE
8
BFab
62
6
10
90.44
20
-92.884434
11
89.9
21
-92.884434
0
LINE
8
BFab
62
6
10
89.9
20
-92.884434
11
89.9
21
-93.934434
0
LINE
8
BCrtYd
62
8
10
122.7416
20
-89.6688
11
122.7416
21
-86.7088
0
LINE
8
BCrtYd
62
8
10
121.2816
20
-89.6688
11
122.7416
21
-89.6688
0
LINE
8
BCrtYd
62
8
10
122.7416
20
-86.7088
11
121.2816
21
-86.7088
0
LINE
8
BCrtYd
62
8
10
121.2816
20
-86.7088
11
121.2816
21
-89.6688
0
LINE
8
BFab
62
6
10
122.4116
20
-87.3888
11
121.6116
21
-87.3888
0
LINE
8
BFab
62
6
10
121.6116
20
-87.3888
11
121.6116
21
-88.9888
0
LINE
8
BFab
62
6
10
122.4116
20
-88.9888
11
122.4116
21
-87.3888
0
LINE
8
BFab
62
6
10
121.6116
20
-88.9888
11
122.4116
21
-88.9888
0
LINE
8
BCrtYd
62
8
10
82.0592
20
-89.7536
11
82.0592
21
-85.5136
0
LINE
8
BCrtYd
62
8
10
82.0592
20
-85.5136
11
86.2992
21
-85.5136
0
LINE
8
BCrtYd
62
8
10
86.2992
20
-85.5136
11
86.2992
21
-89.7536
0
LINE
8
BCrtYd
62
8
10
86.2992
20
-89.7536
11
82.0592
21
-89.7536
0
LINE
8
BFab
62
6
10
82.6792
20
-89.1336
11
85.6792
21
-89.1336
0
LINE
8
BFab
62
6
10
82.6792
20
-86.8836
11
82.6792
21
-89.1336
0
LINE
8
BFab
62
6
10
83.4292
20
-86.1336
11
82.6792
21
-86.8836
0
LINE
8
BFab
62
6
10
85.6792
20
-89.1336
11
85.6792
21
-86.1336
0
LINE
8
BFab
62
6
10
85.6792
20
-86.1336
11
83.4292
21
-86.1336
0
LINE
8
BCrtYd
62
8
10
85.0592
20
-92.9904
11
85.0592
21
-96.2904
0
LINE
8
BCrtYd
62
8
10
87.5592
20
-96.2904
11
87.5592
21
-92.9904
0
LINE
8
BCrtYd
62
8
10
85.0592
20
-92.9904
11
87.5592
21
-92.9904
0
LINE
8
BCrtYd
62
8
10
87.5592
20
-96.2904
11
85.0592
21
-96.2904
0
LINE
8
BCrtYd
62
8
10
92.3458
20
-82.891034
11
92.3458
21
-83.811034
0
LINE
8
BCrtYd
62
8
10
92.3458
20
-83.811034
11
94.1658
21
-83.811034
0
LINE
8
BCrtYd
62
8
10
94.1658
20
-82.891034
11
92.3458
21
-82.891034
0
LINE
8
BCrtYd
62
8
10
94.1658
20
-83.811034
11
94.1658
21
-82.891034
0
LINE
8
BFab
62
6
10
93.7558
20
-83.601034
11
93.7558
21
-83.101034
0
LINE
8
BFab
62
6
10
92.7558
20
-83.101034
11
92.7558
21
-83.601034
0
LINE
8
BFab
62
6
10
93.7558
20
-83.101034
11
92.7558
21
-83.101034
0
LINE
8
BFab
62
6
10
92.7558
20
-83.601034
11
93.7558
21
-83.601034
0
LINE
8
BCrtYd
62
8
10
106.9786
20
-84.1004
11
106.9786
21
-87.6004
0
LINE
8
BCrtYd
62
8
10
109.3786
20
-84.1004
11
106.9786
21
-84.1004
0
LINE
8
BCrtYd
62
8
10
106.9786
20
-87.6004
11
109.3786
21
-87.6004
0
LINE
8
BCrtYd
62
8
10
109.3786
20
-87.6004
11
109.3786
21
-84.1004
0
LINE
8
BFab
62
6
10
108.9786
20
-84.8504
11
108.4786
21
-84.3504
0
LINE
8
BFab
62
6
10
108.9786
20
-87.3504
11
107.3786
21
-87.3504
0
LINE
8
BFab
62
6
10
108.9786
20
-84.8504
11
108.9786
21
-87.3504
0
LINE
8
BFab
62
6
10
108.4786
20
-84.3504
11
107.3786
21
-84.3504
0
LINE
8
BFab
62
6
10
107.3786
20
-87.3504
11
107.3786
21
-84.3504
0
LINE
8
Edge
62
2
10
161.5136
20
-95.876
11
148.5136
21
-95.876
0
LINE
8
Edge
62
2
10
148.5136
20
-78.876
11
148.5136
21
-87.376
0
LINE
8
Edge
62
2
10
161.5136
20
-98.876
11
161.5136
21
-95.876
0
LINE
8
Edge
62
2
10
161.5136
20
-75.876
11
161.5136
21
-78.876
0
LINE
8
Edge
62
2
10
161.5136
20
-78.876
11
148.5136
21
-78.876
0
LINE
8
Edge
62
2
10
81.5136
20
-75.876
11
81.5136
21
-98.876
0
LINE
8
Edge
62
2
10
161.5136
20
-75.876
11
81.5136
21
-75.876
0
LINE
8
Edge
62
2
10
148.5136
20
-95.876
11
148.5136
21
-87.376
0
LINE
8
Edge
62
2
10
81.5136
20
-98.876
11
161.5136
21
-98.876
0
ENDSEC
0
EOF
